<svg width="24" height="25" viewBox="0 0 24 25" fill="none" xmlns="http://www.w3.org/2000/svg">
<path fill-rule="evenodd" clip-rule="evenodd" d="M21.6323 9.55093C18.2248 5.85521 13.4784 4.53078 9.114 5.55351L8.88584 4.57988C13.6029 3.47451 18.7169 4.91362 22.3675 8.87308L21.6323 9.55093ZM5.74471 6.86697C4.53078 7.54854 3.38939 8.44263 2.36752 9.55093L1.63232 8.87308C2.72447 7.68855 3.9485 6.72862 5.25514 5.995L5.74471 6.86697ZM18.6323 12.8047C16.9456 10.9753 14.7868 9.99214 12.5958 9.84148L12.6644 8.84383C15.1124 9.01216 17.509 10.1111 19.3675 12.1268L18.6323 12.8047ZM9.01556 10.3484C7.6864 10.8318 6.43317 11.6489 5.36752 12.8047L4.63232 12.1268C5.80494 10.855 7.19256 9.9473 8.67377 9.40859L9.01556 10.3484ZM12.5825 14.0199C11.1944 13.8871 9.5481 14.778 8.36752 16.0584L7.63232 15.3806C8.91547 13.9889 10.8469 12.8493 12.6777 13.0244L12.5825 14.0199ZM13.0607 18.6588C12.4749 18.0731 11.5251 18.0731 10.9393 18.6588C10.3536 19.2446 10.3536 20.1944 10.9393 20.7802C11.5251 21.3659 12.4749 21.3659 13.0607 20.7802C13.6464 20.1944 13.6464 19.2446 13.0607 18.6588ZM10.2322 17.9517C11.2085 16.9754 12.7915 16.9754 13.7678 17.9517C14.7441 18.928 14.7441 20.511 13.7678 21.4873C12.7915 22.4636 11.2085 22.4636 10.2322 21.4873C9.25592 20.511 9.25592 18.928 10.2322 17.9517Z" fill="white"/>
<path fill-rule="evenodd" clip-rule="evenodd" d="M20.6465 22.0731L2.64648 4.07308L3.35359 3.36597L21.3536 21.366L20.6465 22.0731Z" fill="white"/>
</svg>
