<svg version="1.1" xmlns="http://www.w3.org/2000/svg" style="display: block;" viewBox="0 0 2048 2048" width="1024" height="1024">
<defs>
	<linearGradient id="Gradient1" gradientUnits="userSpaceOnUse" x1="1140.01" y1="573.899" x2="1054.6" y2="623.169">
		<stop class="stop0" offset="0" stop-opacity="1" stop-color="rgb(0,0,1)"/>
		<stop class="stop1" offset="1" stop-opacity="1" stop-color="rgb(1,1,32)"/>
	</linearGradient>
</defs>
<path transform="translate(0,0)" fill="rgb(255,255,255)" d="M 0 0 L 2048 0 L 2048 2048 L 0 2048 L 0 0 z"/>
<path transform="translate(0,0)" fill="rgb(2,2,36)" d="M 948.308 153.784 L 954.748 161.446 C 980.733 152.368 1005.38 152.29 1030.49 164.42 C 1056.12 176.796 1083.14 205.463 1092.39 232.487 C 1097.05 246.094 1098.07 260.502 1098.15 274.786 C 1102.65 277.534 1107.17 280.229 1111.42 283.354 C 1138.02 258.576 1170.77 233.807 1209.2 234.998 C 1223.01 235.425 1235.63 240.45 1246.33 249.106 C 1272.25 250.51 1296.25 251.844 1314.74 272.562 C 1329.13 288.56 1336.52 309.653 1335.24 331.132 C 1334.28 347.976 1328.85 363.416 1317.06 375.753 C 1335.97 393.289 1356.31 406.54 1377.44 421.083 C 1404.75 439.883 1432.44 458.803 1458.88 478.79 C 1471.43 488.276 1486.58 498.462 1496.25 510.939 C 1503.04 519.685 1505.61 531.301 1506.02 542.175 C 1506.22 547.451 1505.91 552.763 1505.65 558.033 C 1556.34 608.767 1619.85 714.017 1642.28 781.627 C 1650.04 805.018 1655.1 830.415 1655.05 855.121 C 1655.01 881.445 1646.77 917.148 1627.84 936.669 C 1624.27 940.345 1619.68 943.035 1614.42 942.812 C 1598.71 942.146 1580.55 923.347 1571.17 912.158 C 1563.32 902.776 1556.52 890.054 1547.41 882.119 C 1544.37 886.712 1541.38 890.892 1537.64 894.965 C 1543.55 917.117 1546.66 939.396 1549.83 962.067 C 1550.79 972.844 1551.3 983.658 1551.34 994.478 C 1551.49 1009.69 1548.81 1028.33 1554.4 1042.75 C 1556.22 1047.47 1559.53 1050.65 1563.31 1053.87 L 1564.18 1054.59 C 1571.1 1055.44 1577.87 1055.7 1582.42 1061.74 C 1583.28 1062.91 1584.1 1064.1 1584.89 1065.32 C 1585.41 1075.57 1584.27 1081.41 1579.87 1090.71 C 1583.4 1096.55 1587.2 1102.36 1590.1 1108.53 C 1593.15 1115.63 1597.25 1121.12 1602.31 1126.86 C 1616.13 1143.55 1628.54 1160.58 1640.59 1178.6 C 1646.95 1188.11 1652.94 1199.39 1660.26 1208.02 C 1674.18 1225.98 1687.73 1244.21 1700.91 1262.71 C 1711.36 1277.62 1721.77 1292.42 1730.58 1308.38 C 1725.17 1315.41 1719.66 1322.18 1713.04 1328.13 C 1723.66 1342.28 1733.4 1357.01 1743.72 1371.36 C 1751.8 1383.41 1760.36 1394.63 1769.68 1405.75 C 1775.02 1404.61 1779.12 1404.51 1784.48 1405.67 C 1802.28 1409.51 1817.95 1418.03 1834.47 1425.22 C 1859.31 1436.03 1884.22 1444.65 1907.14 1459.51 C 1914.91 1464.55 1921.95 1470.04 1929.19 1475.78 C 1939.17 1504.79 1922.77 1538.75 1910.17 1564.58 C 1886.3 1612.92 1854.62 1656.99 1816.42 1695.03 C 1808.01 1703.49 1798.8 1710.98 1790.12 1719.13 C 1780.14 1728.49 1770.56 1738.29 1760.63 1747.72 C 1761.11 1747.87 1761.58 1748.02 1762.07 1748.16 C 1770.66 1750.63 1792 1748.64 1802.36 1749 C 1825.86 1749.82 1925.65 1756.77 1936.89 1777.53 C 1938.38 1780.29 1938.36 1782.9 1937.32 1785.8 C 1933.41 1796.7 1908.84 1806.71 1898.6 1810.43 C 1871.72 1820.21 1844.26 1827.52 1816.62 1834.72 C 1746.76 1852.93 1676.08 1865.93 1604.88 1877.57 C 1355.8 1918.15 1103.98 1939.5 851.627 1941.43 C 800.703 1942.08 652.958 1941.77 610.493 1922.76 C 606.435 1920.94 601.672 1918.27 600.274 1913.72 C 599.485 1911.15 600.035 1909.07 601.35 1906.81 C 613.805 1885.46 747.017 1852.28 774.489 1845.78 L 854.407 1827.29 C 866.2 1824.62 878.549 1822.81 890.145 1819.48 C 892.661 1818.76 894.444 1818.21 896.336 1816.29 C 846.288 1796.47 794.84 1777.32 748.548 1749.56 C 733.254 1740.38 703.087 1722.34 699.16 1704.03 C 697.448 1696.04 699.146 1684.98 703.872 1678.35 C 706.525 1674.61 710.271 1671.79 714.596 1670.26 C 730.315 1664.86 750.31 1664.34 766.838 1662.34 C 810.272 1657.07 854.924 1653.73 897.878 1645.43 C 886.913 1641.44 849.038 1633.71 844.668 1622.83 C 843.715 1620.46 843.56 1618.64 844.97 1616.38 C 847.615 1612.16 854.426 1610.49 859.008 1610.11 C 875.426 1608.74 895.615 1620.59 907.664 1630.84 L 913.486 1621 C 896.088 1609.12 874.249 1598.51 862.881 1580.01 C 859.23 1574.06 857.361 1566.86 859.163 1559.98 C 860.937 1553.2 865.983 1547.88 872.015 1544.56 C 881.316 1539.45 893.006 1539.19 902.945 1542.5 C 931.048 1551.85 944.93 1585.05 956.744 1609.45 C 969.67 1583.56 981.709 1559.15 991.691 1531.88 C 987.451 1528.03 982.315 1523.91 980.186 1518.46 C 977.203 1510.83 987.372 1462.88 991.031 1454.61 C 992.678 1453.43 995.953 1451.44 996.58 1449.45 C 998.841 1442.28 999.212 1424.31 1000.1 1416 L 1009.48 1332.35 L 1021.93 1225.9 C 1025.5 1192.62 1027.12 1157.4 1035.93 1125.01 C 1045.72 1088.99 1072.07 1049.63 1089.95 1016.4 C 1116.58 966.912 1142.13 916.477 1170.76 868.13 C 1158.3 851.652 1152.06 835.238 1145.26 815.953 L 1138.16 810.142 C 1139.89 792.526 1139.69 774.412 1140.26 756.709 C 1142.89 674.883 1137.28 599.094 1107.98 522.082 C 1103.13 509.322 1098.43 495.375 1091.22 483.729 C 1088.82 480.82 1085.13 481.037 1081.49 480.551 C 1070.38 447.67 1056.65 416.539 1057.34 381.206 L 1041.99 374.33 C 1039.57 378.202 1037.34 382.379 1034.04 385.577 C 1033.28 388.051 1031.77 390.256 1030.25 392.331 C 1026.42 397.559 1019.05 407.026 1012.09 407.254 C 1003.15 407.546 994.064 391.053 987.809 385.345 C 986.142 385.335 983.995 385.482 982.394 385.053 C 976.071 383.356 978.952 378.637 977.707 374.733 C 977.365 373.66 975.411 371.678 974.665 370.686 C 971.936 374.635 968.234 379.689 963.056 380.378 C 960.433 380.727 958.111 379.44 956.348 377.61 C 950.566 371.609 949.005 361.666 946.987 353.921 C 930.144 364.993 902.645 384.42 881.308 380.368 C 877.344 379.616 873.773 377.748 871.481 374.341 C 868.449 369.833 868.627 363.769 869.789 358.686 C 874.469 338.215 890.563 320.032 904.393 305.011 C 893.032 273.137 887.893 243.698 902.993 212.06 C 909.064 199.34 917.045 188.162 928.196 179.457 C 926.636 174.6 925.381 171.064 928.029 166.306 C 931.819 159.5 941.405 156.342 948.308 153.784 z"/>
<path transform="translate(0,0)" fill="rgb(215,215,214)" d="M 1515.01 1295.09 L 1521.43 1300.79 L 1541.2 1317.36 C 1550.75 1324.97 1560.17 1332.76 1569.44 1340.71 C 1575.32 1345.85 1581.91 1353.5 1588.44 1357.41 C 1589.54 1359.03 1589.97 1359.85 1590.33 1361.81 C 1591.67 1369 1601.52 1379.14 1606.39 1384.71 C 1612.5 1390.85 1618.5 1397.23 1624.88 1403.09 C 1632.91 1399.07 1640 1392.73 1647.02 1387.17 C 1665.11 1407.49 1677.37 1434.04 1691.95 1456.89 C 1697.78 1467.41 1705.17 1479.51 1708.68 1490.97 C 1706.82 1491.42 1706.4 1491.33 1704.59 1491.12 C 1701.97 1490.81 1700.75 1491.16 1698.38 1492.2 C 1695.43 1495.11 1694.55 1497.68 1694.41 1501.8 C 1694.13 1510.36 1697.19 1519.26 1700.1 1527.23 C 1682.08 1519.5 1667.04 1519.16 1648.87 1526.3 C 1636.59 1531.12 1623.57 1539.3 1618 1551.75 C 1615.6 1557.12 1614.96 1562.93 1617.37 1568.41 C 1619.92 1574.22 1625.16 1578.13 1631 1580.27 C 1654.9 1589.06 1707.71 1560.71 1713.16 1571.73 C 1712.76 1573.24 1712.99 1574.01 1711.59 1574.83 C 1696.23 1583.83 1672.65 1590.97 1667.74 1610.4 C 1666.79 1614.15 1666.93 1618.24 1668.94 1621.64 C 1670.71 1624.62 1673.6 1626.58 1676.95 1627.4 C 1683.8 1629.1 1690.84 1626.04 1696.51 1622.39 C 1703.21 1618.08 1708.58 1612.34 1713.41 1606.07 C 1713.15 1608.71 1713.2 1617.41 1711.92 1619.2 L 1711.75 1617.97 C 1708.12 1621.66 1705.15 1625.16 1702.23 1629.46 L 1702.37 1630.92 C 1702.75 1634.71 1707.39 1650.28 1705.37 1652.17 C 1703.71 1653.72 1700.78 1654.11 1698.62 1654.67 C 1696.57 1656.87 1695.83 1658.53 1695.94 1661.6 C 1696.21 1669.6 1699.73 1677.24 1699.3 1685.31 C 1697.36 1686.02 1696.46 1685.88 1694.44 1685.72 C 1692.38 1687.34 1691.73 1687.85 1691.29 1690.63 C 1690.9 1693.14 1691.99 1696.97 1692.5 1699.46 C 1685.16 1713.43 1677.78 1729.55 1674.28 1744.99 C 1672.28 1754.53 1670.86 1763.82 1676.51 1772.48 C 1680.33 1778.35 1686.48 1782.77 1693.41 1784.02 C 1709.71 1786.96 1729.67 1772.44 1741.99 1763.22 C 1748.44 1758.34 1754.66 1753.17 1760.63 1747.72 C 1761.11 1747.87 1761.58 1748.02 1762.07 1748.16 C 1770.66 1750.63 1792 1748.64 1802.36 1749 C 1825.86 1749.82 1925.65 1756.77 1936.89 1777.53 C 1938.38 1780.29 1938.36 1782.9 1937.32 1785.8 C 1933.41 1796.7 1908.84 1806.71 1898.6 1810.43 C 1871.72 1820.21 1844.26 1827.52 1816.62 1834.72 C 1746.76 1852.93 1676.08 1865.93 1604.88 1877.57 C 1355.8 1918.15 1103.98 1939.5 851.627 1941.43 C 800.703 1942.08 652.958 1941.77 610.493 1922.76 C 606.435 1920.94 601.672 1918.27 600.274 1913.72 C 599.485 1911.15 600.035 1909.07 601.35 1906.81 C 613.805 1885.46 747.017 1852.28 774.489 1845.78 L 854.407 1827.29 C 866.2 1824.62 878.549 1822.81 890.145 1819.48 C 892.661 1818.76 894.444 1818.21 896.336 1816.29 C 931.312 1829.41 966.256 1842.45 1003.72 1846.25 C 1016.11 1847.51 1032.28 1848.64 1042.31 1839.88 C 1052.68 1830.82 1052.21 1808.04 1052.96 1795.37 C 1087.31 1793.82 1122.08 1786.75 1156.23 1782.47 C 1190.64 1778.17 1225.74 1776.31 1259.93 1770.71 C 1268.65 1758.07 1276.32 1744.45 1284.45 1731.41 C 1310.72 1688.85 1336.06 1645.72 1360.44 1602.06 C 1372.27 1580.96 1384.76 1560.2 1396.27 1538.94 C 1432.28 1472.96 1465.43 1405.46 1495.62 1336.62 C 1501.81 1322.66 1509.23 1309.21 1515.01 1295.09 z"/>
<path transform="translate(0,0)" fill="rgb(255,255,255)" d="M 1521.43 1300.79 L 1541.2 1317.36 C 1550.75 1324.97 1560.17 1332.76 1569.44 1340.71 C 1575.32 1345.85 1581.91 1353.5 1588.44 1357.41 C 1589.54 1359.03 1589.97 1359.85 1590.33 1361.81 C 1591.67 1369 1601.52 1379.14 1606.39 1384.71 C 1612.5 1390.85 1618.5 1397.23 1624.88 1403.09 C 1632.91 1399.07 1640 1392.73 1647.02 1387.17 C 1665.11 1407.49 1677.37 1434.04 1691.95 1456.89 C 1697.78 1467.41 1705.17 1479.51 1708.68 1490.97 C 1706.82 1491.42 1706.4 1491.33 1704.59 1491.12 C 1701.97 1490.81 1700.75 1491.16 1698.38 1492.2 C 1695.43 1495.11 1694.55 1497.68 1694.41 1501.8 C 1694.13 1510.36 1697.19 1519.26 1700.1 1527.23 C 1682.08 1519.5 1667.04 1519.16 1648.87 1526.3 C 1636.59 1531.12 1623.57 1539.3 1618 1551.75 C 1615.6 1557.12 1614.96 1562.93 1617.37 1568.41 C 1619.92 1574.22 1625.16 1578.13 1631 1580.27 C 1654.9 1589.06 1707.71 1560.71 1713.16 1571.73 C 1712.76 1573.24 1712.99 1574.01 1711.59 1574.83 C 1696.23 1583.83 1672.65 1590.97 1667.74 1610.4 C 1666.79 1614.15 1666.93 1618.24 1668.94 1621.64 C 1670.71 1624.62 1673.6 1626.58 1676.95 1627.4 C 1683.8 1629.1 1690.84 1626.04 1696.51 1622.39 C 1703.21 1618.08 1708.58 1612.34 1713.41 1606.07 C 1713.15 1608.71 1713.2 1617.41 1711.92 1619.2 L 1711.75 1617.97 C 1708.12 1621.66 1705.15 1625.16 1702.23 1629.46 L 1702.37 1630.92 C 1702.75 1634.71 1707.39 1650.28 1705.37 1652.17 C 1703.71 1653.72 1700.78 1654.11 1698.62 1654.67 C 1696.57 1656.87 1695.83 1658.53 1695.94 1661.6 C 1696.21 1669.6 1699.73 1677.24 1699.3 1685.31 C 1697.36 1686.02 1696.46 1685.88 1694.44 1685.72 C 1692.38 1687.34 1691.73 1687.85 1691.29 1690.63 C 1690.9 1693.14 1691.99 1696.97 1692.5 1699.46 C 1685.16 1713.43 1677.78 1729.55 1674.28 1744.99 C 1655.21 1744.89 1635.94 1747.16 1616.82 1747.56 C 1539.92 1749.07 1463.09 1753.31 1386.49 1760.26 C 1349.51 1763.27 1312.37 1765.73 1275.53 1770.14 C 1290.8 1739.63 1310.36 1712.4 1327.17 1682.86 C 1384.67 1581.8 1442.02 1480.34 1489.61 1374.12 C 1500.4 1350.05 1512.81 1325.71 1521.43 1300.79 z"/>
<path transform="translate(0,0)" fill="rgb(215,215,214)" d="M 1691.95 1456.89 C 1670.59 1468.27 1651.04 1484.5 1630.49 1497.42 C 1589.73 1523.07 1545.36 1547.91 1502.57 1570.16 C 1487.46 1578.02 1463.02 1590.37 1445.67 1584.31 C 1439.94 1582.28 1435.33 1577.94 1432.97 1572.34 C 1426.98 1558.54 1433.11 1539.51 1438.56 1526.34 C 1460.69 1472.85 1509.85 1442.48 1556.8 1413.22 C 1572.64 1403.35 1589.15 1391.92 1606.39 1384.71 C 1612.5 1390.85 1618.5 1397.23 1624.88 1403.09 C 1632.91 1399.07 1640 1392.73 1647.02 1387.17 C 1665.11 1407.49 1677.37 1434.04 1691.95 1456.89 z"/>
<path transform="translate(0,0)" fill="rgb(215,215,214)" d="M 1541.2 1317.36 C 1550.75 1324.97 1560.17 1332.76 1569.44 1340.71 C 1575.32 1345.85 1581.91 1353.5 1588.44 1357.41 C 1583.49 1360.04 1578.98 1364.41 1574.28 1367.59 C 1557.92 1378.66 1542.94 1381.48 1523.41 1381.93 C 1518.07 1377.05 1515.2 1372.57 1514.94 1365.14 C 1514.33 1347.38 1529.69 1329.44 1541.2 1317.36 z"/>
<path transform="translate(0,0)" fill="rgb(255,255,255)" d="M 1317.28 1078.46 C 1330.26 1064.11 1342.2 1048.85 1355.14 1034.48 C 1368.04 1061.23 1380.55 1088.36 1394.78 1114.44 C 1401.74 1127.19 1410.69 1138.86 1417.35 1151.75 C 1427.76 1171.9 1437.42 1192.53 1447.3 1212.95 C 1454.66 1228.16 1461.99 1245.34 1472.52 1258.64 C 1484 1273.15 1500.95 1283.29 1515.01 1295.09 C 1509.23 1309.21 1501.81 1322.66 1495.62 1336.62 C 1465.43 1405.46 1432.28 1472.96 1396.27 1538.94 C 1384.76 1560.2 1372.27 1580.96 1360.44 1602.06 C 1336.06 1645.72 1310.72 1688.85 1284.45 1731.41 C 1276.32 1744.45 1268.65 1758.07 1259.93 1770.71 C 1225.74 1776.31 1190.64 1778.17 1156.23 1782.47 C 1122.08 1786.75 1087.31 1793.82 1052.96 1795.37 C 1054.28 1776.43 1054.39 1757.43 1053.29 1738.48 C 1052.32 1720.79 1050.36 1702.9 1050.14 1685.19 C 1050.04 1677.24 1052.11 1669.41 1052.13 1661.45 C 1052.15 1654.15 1049.93 1650.58 1044.98 1645.42 C 1051.29 1617.84 1062.5 1591.27 1071.6 1564.49 C 1082.39 1564.52 1102.3 1566.7 1110.23 1558.5 C 1116 1552.54 1137.4 1499.54 1136.68 1492.3 C 1136.5 1490.5 1136.19 1488.96 1136.77 1487.17 C 1140.74 1474.94 1148.92 1462.34 1154.43 1450.51 C 1164.3 1429.35 1172.78 1407.49 1183.26 1386.62 C 1185.69 1376.04 1193.01 1362.15 1197.27 1351.85 C 1206.31 1330.05 1214.81 1307.97 1220.64 1285.07 C 1223.21 1271.96 1223.29 1261.9 1220.49 1248.81 C 1225.67 1239.04 1236.89 1228.6 1237.47 1217.26 C 1237.96 1207.86 1231.14 1200.77 1225.4 1194.23 C 1228.49 1188.92 1232.16 1184.04 1235.78 1179.08 C 1260.82 1143.54 1288.22 1110.73 1317.28 1078.46 z"/>
<path transform="translate(0,0)" fill="rgb(215,215,214)" d="M 1317.28 1078.46 C 1332.09 1099.66 1348.52 1118.69 1364.42 1138.99 C 1419.08 1208.78 1466.54 1283.6 1450.36 1376.82 C 1447.07 1395.78 1441.11 1415.14 1424.23 1426.41 C 1417.38 1430.99 1409.94 1432.75 1401.86 1430.88 C 1375.32 1424.75 1310.07 1309.32 1294.78 1283.68 C 1274.99 1250.48 1253.56 1217.12 1237.83 1181.83 C 1237.03 1180.03 1237.36 1180.68 1235.78 1179.08 C 1260.82 1143.54 1288.22 1110.73 1317.28 1078.46 z"/>
<path transform="translate(0,0)" fill="rgb(215,215,214)" d="M 1220.64 1285.07 C 1278.31 1331.53 1320.46 1392.87 1354.53 1457.86 C 1365.33 1478.47 1377.44 1500.26 1380.01 1523.76 C 1380.41 1527.45 1380.53 1531.17 1380.64 1534.87 C 1374.7 1546.93 1364.96 1556.52 1351.94 1560.68 C 1337.63 1565.26 1323.25 1560.3 1310.61 1553.46 C 1267.04 1529.87 1226.67 1467.98 1202.88 1425.44 C 1195.83 1412.84 1190.83 1398.86 1183.26 1386.62 C 1185.69 1376.04 1193.01 1362.15 1197.27 1351.85 C 1206.31 1330.05 1214.81 1307.97 1220.64 1285.07 z"/>
<path transform="translate(0,0)" fill="rgb(215,215,214)" d="M 1505.65 558.033 C 1556.34 608.767 1619.85 714.017 1642.28 781.627 C 1650.04 805.018 1655.1 830.415 1655.05 855.121 C 1655.01 881.445 1646.77 917.148 1627.84 936.669 C 1624.27 940.345 1619.68 943.035 1614.42 942.812 C 1598.71 942.146 1580.55 923.347 1571.17 912.158 C 1563.32 902.776 1556.52 890.054 1547.41 882.119 L 1547.87 880.742 C 1554.23 862.065 1553.24 793.762 1548.89 773.334 C 1556.36 767.143 1562.9 759.865 1564.81 750.039 C 1565.41 746.989 1565.97 742.104 1564.62 739.207 C 1560.96 731.319 1554.71 724.272 1550.72 716.394 C 1533.24 681.845 1516.59 645.357 1495.3 612.974 C 1499.84 594.568 1503.81 576.925 1505.65 558.033 z"/>
<path transform="translate(0,0)" fill="rgb(255,255,255)" d="M 988.098 300.084 C 992.094 296.484 996.571 291.4 1001.42 289.105 C 1005.22 291.982 1005.79 297.872 1009.95 299.951 C 1011.96 298.845 1011.99 298.637 1012.98 296.543 C 1012.6 289.138 1004.99 284.102 1007.68 276.677 C 1010.25 274.186 1013.11 271.751 1016.87 271.601 C 1019 271.517 1020.75 272.923 1022.04 274.453 C 1031.61 285.808 1023.86 302.144 1025.34 307.922 C 1025.82 309.771 1027.53 310.713 1029.09 311.361 C 1029.46 311.028 1029.83 310.689 1030.21 310.363 C 1031.49 309.251 1032.73 308.433 1034.18 307.569 C 1038.75 308.12 1041.09 312.167 1044.67 314.817 C 1061.96 316.681 1072.91 313.654 1086.65 302.788 C 1091.19 299.199 1095.66 289.571 1100.64 287.726 L 1102.53 288.935 L 1103.03 291.227 C 1099.05 296.441 1094.29 301.034 1090.12 306.098 C 1072.94 326.951 1061.23 346.564 1057.87 373.505 C 1053.03 370.109 1048.83 367.449 1043.21 365.441 C 1038.82 359.213 1044.53 334.781 1037.51 324.596 C 1035.09 324.293 1035.12 323.798 1033.02 325.327 C 1031.78 332.111 1033.5 338.803 1034.22 345.571 C 1036.51 367.278 1028.43 385.245 1012.73 399.783 C 1008.95 398.151 982.375 370.395 977.314 365.265 C 975.203 362.148 973.15 359.276 970.576 356.524 C 969.239 361.186 967.882 369.264 963.567 371.985 C 962.227 372.83 961.583 372.3 960.162 371.987 C 956.461 366.639 956.426 356.472 953.856 350.008 C 946.116 330.543 934.924 312.692 928.087 292.772 L 936.106 283.968 C 940.827 291.263 946.038 295.423 954.72 297.151 C 961.661 298.532 968.844 298.917 975.843 300.11 C 976.131 300.41 976.423 300.708 976.708 301.011 C 979.402 303.875 980.665 305.869 982.097 309.448 C 983.319 312.502 984.303 314.933 986.85 317.138 L 988.404 316.629 C 990.73 310.859 989.235 305.954 988.098 300.084 z"/>
<path transform="translate(0,0)" fill="rgb(1,0,12)" d="M 977.314 365.265 C 982.375 370.395 1008.95 398.151 1012.73 399.783 L 1013.55 399.914 L 1013.86 400.621 C 1011.13 401.335 1009.43 401.441 1007.35 403.403 L 1008.66 405.288 C 1019.41 409.782 1025.92 387.526 1034.04 385.577 C 1033.28 388.051 1031.77 390.256 1030.25 392.331 C 1026.42 397.559 1019.05 407.026 1012.09 407.254 C 1003.15 407.546 994.064 391.053 987.809 385.345 C 986.142 385.335 983.995 385.482 982.394 385.053 C 976.071 383.356 978.952 378.637 977.707 374.733 C 977.365 373.66 975.411 371.678 974.665 370.686 L 977.314 365.265 z"/>
<path transform="translate(0,0)" fill="rgb(255,255,255)" d="M 1140.99 352.323 C 1170.69 350.969 1207.88 372.205 1236.26 381.767 C 1262.39 390.57 1285.33 393.438 1310.6 380.946 C 1412.45 473.972 1483.02 598.777 1544.78 720.678 C 1525.39 712.752 1505.32 706.596 1484.82 702.284 C 1428.26 689.924 1384.4 688.346 1333.73 720.883 C 1337.55 692.582 1345.9 613.015 1342.44 587.383 C 1340.9 576.029 1336.73 565.03 1331.69 554.8 C 1319.26 529.563 1234.9 400.407 1214.36 395.251 C 1212.87 394.876 1213.08 395.231 1211.53 396.164 C 1211.17 398.52 1210.97 399.9 1212.47 401.925 C 1216.29 407.091 1222.26 411.779 1226.67 416.609 C 1234.98 425.715 1242.29 435.558 1249.52 445.52 C 1259.41 458.385 1268.65 471.959 1278.08 485.183 C 1293.85 507.313 1309.92 529.601 1322.36 553.832 C 1328.27 565.325 1333.39 577.778 1334.8 590.721 C 1337.08 611.551 1333.63 633.704 1331.85 654.558 C 1328.2 697.226 1325.51 752.899 1312.52 793.044 C 1307.72 807.849 1301.61 819.95 1286.87 827.152 C 1265.31 837.687 1233.58 831.457 1211.9 824.111 C 1200.04 820.092 1188.16 815.411 1182.52 803.318 C 1179.05 795.874 1178.6 788.339 1178.98 780.272 C 1179.94 759.982 1187.42 740.639 1189.45 720.377 C 1191.45 700.375 1190.04 666.381 1196.97 648.776 C 1205.33 627.535 1233.45 608.364 1253.58 599.23 C 1259.22 596.67 1265.28 595.345 1270.87 592.616 C 1273.89 591.144 1275.8 590.113 1276.97 586.9 C 1276.2 585.923 1275.84 584.911 1274.55 584.666 C 1263.81 582.638 1238.39 597.496 1229.39 603.401 C 1207.19 617.947 1190.62 635.449 1185.21 661.981 C 1183.09 659.452 1181.02 656.903 1179.32 654.066 C 1170.51 639.369 1175.73 622.28 1179.54 606.924 C 1170.23 583.826 1161.51 560.742 1149.59 538.821 C 1141.55 524.043 1132.52 509.586 1123.26 495.541 C 1109.48 474.615 1092.61 454.801 1089.35 429.034 C 1086.96 410.149 1090.5 388.374 1102.66 373.191 C 1112.23 361.237 1125.95 354.218 1140.99 352.323 z"/>
<path transform="translate(0,0)" fill="rgb(2,1,30)" d="M 1246.71 567.981 C 1249.82 567.903 1250.81 568.231 1253.18 570.076 L 1253.29 572.115 C 1250.72 575.975 1241.82 579.224 1237.49 581.483 C 1226.02 587.461 1215.44 594.544 1205.79 603.153 C 1204.76 603.623 1203.67 603.846 1202.58 604.135 L 1200.69 602.04 C 1200.65 600.334 1200.43 599.678 1201.23 598.093 C 1206.68 587.227 1235.49 571.969 1246.71 567.981 z"/>
<path transform="translate(0,0)" fill="rgb(92,96,112)" d="M 1429.66 767.272 C 1451.76 766.511 1475.26 768.434 1497.04 772.033 C 1497.52 801.179 1493.73 830.073 1481.71 856.872 C 1463.73 896.969 1430.61 932.018 1402.19 965.046 L 1316.4 1066.7 C 1293.1 1093.79 1269.67 1120.67 1247.91 1149.04 C 1238.57 1161.2 1228.69 1173.72 1221 1187 C 1213.49 1199.98 1227.17 1203.59 1229.46 1214.59 C 1231.64 1225.05 1218.66 1233.54 1215.8 1242.9 C 1212.04 1255.18 1216.93 1270.86 1213.05 1285.08 C 1201.59 1327.08 1176.89 1382.24 1158.66 1422.4 C 1148.24 1445.36 1138.14 1469.56 1124.49 1490.8 C 1100.43 1491.49 1080.3 1487.33 1057.45 1480.36 C 1060.47 1469.08 1062.41 1457.24 1064.79 1445.8 L 1080.53 1369.64 C 1092.85 1314.53 1105.62 1259.51 1118.83 1204.59 L 1122.32 1189.97 C 1139.57 1207.44 1158.68 1222.26 1177.86 1237.47 C 1182.71 1241.32 1187.34 1246.82 1193.07 1249.23 C 1195.16 1248.46 1195.25 1248.37 1196.5 1246.52 C 1196.22 1243.8 1194.76 1242.02 1192.86 1240.17 C 1186.79 1234.26 1179.5 1229.26 1172.92 1223.92 C 1156.29 1210.4 1139.59 1197.05 1124.44 1181.85 C 1127.58 1173.59 1130.06 1164.96 1132.78 1156.55 C 1145.67 1174.35 1172.95 1205.32 1190.36 1217.52 C 1193.11 1219.44 1195.75 1219.63 1199.01 1219.16 L 1200.06 1217.68 C 1198.39 1212.62 1192.91 1208.59 1189.01 1205.21 C 1168.81 1187.74 1150.16 1169.31 1136.15 1146.35 C 1145.61 1120.38 1189.83 1036.51 1207.18 1015.75 C 1216.98 1004.01 1234.39 998.083 1242.17 985.307 C 1245.07 980.553 1242.49 975.343 1241.44 970.432 C 1240.93 968.045 1240.54 965.678 1240.88 963.236 C 1241.82 956.526 1253.83 936.133 1256.7 925.747 C 1259.47 915.767 1257.42 904.716 1261.74 895.116 C 1264.88 888.116 1270.23 882.228 1274.07 875.617 C 1280.9 863.866 1285.58 851.337 1293.1 839.849 C 1297.16 833.646 1301.52 827.568 1306.68 822.219 C 1315.61 812.951 1348.37 786.412 1360.52 783.919 C 1363.76 786.588 1353.94 806.492 1352.52 811.105 C 1347.51 827.303 1349.53 846.933 1355.91 862.514 C 1361.78 876.857 1372.24 888.192 1386.81 894.03 C 1401.51 899.926 1417.12 898.285 1431.3 891.858 C 1449.48 883.618 1463.02 867.893 1469.99 849.307 C 1476.46 832.041 1477.1 813.652 1469.28 796.733 C 1460.74 778.29 1447.32 773.7 1429.66 767.272 z"/>
<path transform="translate(0,0)" fill="rgb(92,96,112)" d="M 1505.28 773.415 L 1519.11 775.279 C 1519.37 800.732 1512.88 844.474 1518.84 866.964 C 1521.23 875.986 1525.81 883.303 1530.61 891.208 C 1524.63 895.385 1518.67 900.877 1514.14 906.599 C 1512.01 909.281 1509.93 911.737 1510.34 915.334 L 1512.11 916.702 C 1518.44 916.861 1526.84 904.668 1532.19 900.497 C 1532.55 900.218 1532.91 899.946 1533.27 899.671 C 1540.06 930.043 1544.05 962.484 1544.79 993.646 C 1545.13 1007.72 1543.6 1022.14 1544.87 1036.15 C 1545.3 1040.88 1546.42 1045.71 1548.74 1049.9 C 1555.76 1062.58 1571.86 1061.13 1577.45 1070.34 C 1582.02 1077.89 1572.63 1079.89 1571.07 1086.07 C 1572.11 1094.16 1576.55 1100.18 1580.65 1107.01 C 1584.58 1113.55 1587.87 1120.37 1592.34 1126.58 C 1601.96 1139.95 1613.21 1152.09 1622.71 1165.56 L 1696.25 1269.25 C 1670.96 1283.4 1645.04 1303.47 1624.67 1324.1 C 1602.44 1295.91 1578.33 1268.61 1554.7 1241.56 C 1541.11 1226.01 1526.51 1210.77 1514.73 1193.78 C 1490.75 1159.18 1470.4 1107.55 1457.93 1066.96 C 1477.83 1078.26 1497.98 1088.15 1519.56 1095.85 C 1528.52 1099.04 1537.74 1101.33 1546.71 1104.52 C 1553.51 1106.94 1567.77 1114.1 1574.82 1112.47 C 1575.16 1107.01 1562.92 1102.69 1558.47 1100.76 C 1546.45 1095.53 1533.61 1092.01 1521.31 1087.47 C 1488.67 1075.45 1447.83 1058 1424.84 1031.46 C 1421.87 1028.03 1420.27 1023.87 1417.64 1020.21 C 1416.08 1018.03 1417.1 1018.67 1414.46 1018.25 C 1412.08 1019.8 1411.61 1019.78 1410.74 1022.43 C 1414.35 1039.34 1436 1053.2 1449.41 1062.01 C 1453.38 1077.8 1458.88 1093.02 1464.57 1108.25 C 1476.34 1136.38 1487.44 1165.43 1503.83 1191.27 C 1514.7 1208.4 1528.81 1223.5 1541.98 1238.88 C 1567.8 1269.04 1594.52 1298.34 1619.02 1329.6 C 1609.82 1336.32 1602.36 1344.75 1594.61 1353.03 C 1571.3 1332.28 1547.54 1312.03 1523.36 1292.3 C 1509.45 1280.97 1492.73 1270.1 1480.83 1256.71 C 1465.07 1238.96 1442.89 1186.16 1430.45 1162.18 C 1421.5 1144.92 1410.81 1128.65 1401.54 1111.58 C 1386.81 1084.45 1373.29 1056.44 1359.13 1028.98 C 1376.78 1007.3 1394.81 985.941 1413.21 964.905 C 1418.66 982.218 1421.04 1003.78 1434.4 1017.29 C 1459.6 1042.81 1504.39 1055.94 1538.48 1064.87 C 1545.81 1066.79 1555.17 1070.17 1562.68 1069.98 C 1564.98 1069.92 1566.22 1069.85 1567.78 1068.07 C 1561.34 1062.02 1500.77 1046.23 1485.21 1039.75 C 1461.82 1030 1437.2 1016.77 1428.27 991.517 C 1424.43 980.669 1422.28 969.382 1417.88 958.698 C 1425.4 951.068 1432.1 942.308 1438.94 934.046 C 1468.05 898.859 1493.1 862.067 1501.96 816.334 C 1504.71 802.116 1504.05 787.75 1505.28 773.415 z"/>
<path transform="translate(0,0)" fill="rgb(92,96,112)" d="M 1192.7 826.083 C 1195.34 824.918 1196.72 825.072 1199.45 826.115 C 1201.67 826.966 1203.84 828.167 1205.96 829.254 C 1206.88 844.32 1206.93 862.108 1204.75 877.001 C 1207.1 878.341 1208.25 878.481 1210.94 878.331 C 1215.17 878.436 1219.34 879.568 1223.46 880.444 C 1224.18 876.224 1225.16 872.043 1226.06 867.86 L 1226.4 869.583 C 1226.77 871.455 1226.93 873.282 1227.04 875.187 L 1227.9 876.328 C 1229.16 878.024 1228.69 877.34 1229.83 879.238 L 1229.81 881.046 C 1231.23 881.624 1232.63 882.161 1234.09 882.652 C 1234.36 882.966 1234.61 883.305 1234.91 883.595 C 1236.54 885.172 1238.15 885.539 1240.25 886.246 L 1238.53 886.842 L 1238.74 886.266 L 1237.52 885.889 L 1237.13 887.302 L 1231.74 888.978 C 1237.79 890.229 1243.47 891.384 1249.16 893.867 L 1250.5 894.445 C 1250.77 894.563 1251.04 894.69 1251.31 894.813 C 1255.97 907.276 1247.66 928.67 1242.52 939.977 C 1234.48 957.675 1232.27 960.405 1235.17 980.32 C 1234.43 981.795 1234.64 982.29 1232.97 982.823 C 1231.17 983.396 1231.86 983.247 1229.8 983.013 L 1228.74 985.605 C 1226.53 986.411 1227.65 986.382 1225.57 985.808 C 1223.81 985.318 1224.52 985.41 1223.21 985.345 L 1226.91 989.208 C 1226.68 991.4 1226.58 991.517 1225.11 993.166 C 1221.88 994.129 1219.37 994.136 1216.35 992.563 C 1213.33 990.99 1211.72 988.419 1210.85 985.179 C 1208.69 977.117 1212.93 963.548 1207.63 957.464 L 1205.25 957.392 C 1200.82 963.534 1199.96 973.414 1201.16 980.71 C 1202.49 988.837 1206.99 995.331 1212.47 1001.25 C 1210.26 1002.1 1208.03 1003.1 1205.78 1003.81 C 1204.76 1005.1 1203.55 1006.4 1202.7 1007.8 C 1201.92 1011.31 1199.13 1013.45 1196.26 1015.57 C 1194.57 1018.02 1193.88 1018.94 1190.98 1020.06 L 1192.5 1020.28 L 1192.75 1021.74 C 1185.62 1030.74 1180.38 1042.69 1174.81 1052.83 C 1159.09 1081.43 1142.87 1110.01 1130.82 1140.39 C 1127.81 1134.76 1124.9 1128.7 1121.19 1123.51 C 1119.17 1120.67 1117.05 1117.9 1113.55 1117.26 C 1113.1 1118.22 1112.98 1118.3 1112.88 1119.53 C 1112.17 1127.91 1123.03 1141.32 1127.8 1147.86 C 1124.57 1157.25 1121.71 1166.79 1118.71 1176.26 C 1111.23 1168.22 1104.63 1159.6 1097.71 1151.09 C 1094.95 1147.7 1093.14 1144.98 1088.63 1144.52 L 1087.16 1145.88 C 1087.65 1156.79 1108.31 1176.57 1115.75 1184.23 C 1093.71 1282.34 1068.19 1379.71 1050.76 1478.82 C 1034.54 1472.41 1019.63 1465.85 1005.5 1455.42 C 1005.58 1450.91 1005.78 1446.41 1006.1 1441.92 C 1010.04 1382.71 1018.42 1323.62 1025.21 1264.69 L 1033.19 1194.54 C 1036.41 1166.45 1038.81 1137.36 1048.86 1110.72 C 1059.63 1082.15 1078.36 1053.16 1093.38 1026.45 C 1101.35 1012.25 1108.14 997.483 1115.76 983.109 C 1121.9 971.524 1128.76 960.323 1134.98 948.771 C 1141.59 936.47 1180.2 863.117 1185.33 858.63 L 1186.88 858.92 L 1189.13 853.027 C 1192.16 845.279 1188.29 832.415 1192.7 826.083 z"/>
<path transform="translate(0,0)" fill="rgb(255,255,255)" d="M 1192.7 826.083 C 1195.34 824.918 1196.72 825.072 1199.45 826.115 C 1201.67 826.966 1203.84 828.167 1205.96 829.254 C 1206.88 844.32 1206.93 862.108 1204.75 877.001 C 1207.1 878.341 1208.25 878.481 1210.94 878.331 C 1215.17 878.436 1219.34 879.568 1223.46 880.444 C 1224.18 876.224 1225.16 872.043 1226.06 867.86 L 1226.4 869.583 C 1226.77 871.455 1226.93 873.282 1227.04 875.187 L 1227.9 876.328 C 1229.16 878.024 1228.69 877.34 1229.83 879.238 L 1229.81 881.046 C 1231.23 881.624 1232.63 882.161 1234.09 882.652 C 1234.36 882.966 1234.61 883.305 1234.91 883.595 C 1236.54 885.172 1238.15 885.539 1240.25 886.246 L 1238.53 886.842 L 1238.74 886.266 L 1237.52 885.889 L 1237.13 887.302 L 1231.74 888.978 C 1237.79 890.229 1243.47 891.384 1249.16 893.867 L 1250.5 894.445 C 1250.77 894.563 1251.04 894.69 1251.31 894.813 C 1255.97 907.276 1247.66 928.67 1242.52 939.977 C 1234.48 957.675 1232.27 960.405 1235.17 980.32 C 1234.43 981.795 1234.64 982.29 1232.97 982.823 C 1231.17 983.396 1231.86 983.247 1229.8 983.013 L 1228.74 985.605 C 1226.53 986.411 1227.65 986.382 1225.57 985.808 C 1223.81 985.318 1224.52 985.41 1223.21 985.345 L 1226.91 989.208 C 1226.68 991.4 1226.58 991.517 1225.11 993.166 C 1221.88 994.129 1219.37 994.136 1216.35 992.563 C 1213.33 990.99 1211.72 988.419 1210.85 985.179 C 1208.69 977.117 1212.93 963.548 1207.63 957.464 L 1205.25 957.392 C 1200.82 963.534 1199.96 973.414 1201.16 980.71 C 1202.49 988.837 1206.99 995.331 1212.47 1001.25 C 1210.26 1002.1 1208.03 1003.1 1205.78 1003.81 C 1204.76 1005.1 1203.55 1006.4 1202.7 1007.8 C 1201.92 1011.31 1199.13 1013.45 1196.26 1015.57 C 1194.57 1018.02 1193.88 1018.94 1190.98 1020.06 C 1187.11 1018.24 1184.39 1016.05 1181.2 1013.24 C 1181.81 1017.42 1182.03 1023.61 1179.88 1027.43 C 1178.86 1029.24 1177.82 1030.28 1175.7 1030.4 C 1173.3 1030.54 1170.4 1028.49 1168.64 1027.01 C 1162 1021.38 1158.2 1012.26 1155.55 1004.13 C 1144.58 970.467 1160.61 938.287 1175.25 908.646 C 1179.86 899.329 1185.42 889.594 1187.59 879.345 C 1188.9 873.167 1187.39 865.232 1186.88 858.92 L 1189.13 853.027 C 1192.16 845.279 1188.29 832.415 1192.7 826.083 z"/>
<path transform="translate(0,0)" fill="rgb(2,1,30)" d="M 1192.7 826.083 C 1195.34 824.918 1196.72 825.072 1199.45 826.115 C 1201.67 826.966 1203.84 828.167 1205.96 829.254 C 1206.88 844.32 1206.93 862.108 1204.75 877.001 C 1207.1 878.341 1208.25 878.481 1210.94 878.331 C 1215.17 878.436 1219.34 879.568 1223.46 880.444 C 1224.18 876.224 1225.16 872.043 1226.06 867.86 L 1226.4 869.583 C 1226.77 871.455 1226.93 873.282 1227.04 875.187 L 1227.9 876.328 C 1229.16 878.024 1228.69 877.34 1229.83 879.238 L 1229.81 881.046 C 1231.23 881.624 1232.63 882.161 1234.09 882.652 C 1234.36 882.966 1234.61 883.305 1234.91 883.595 C 1236.54 885.172 1238.15 885.539 1240.25 886.246 L 1238.53 886.842 L 1238.74 886.266 L 1237.52 885.889 L 1237.13 887.302 L 1231.74 888.978 L 1230.74 888.874 C 1219.31 887.607 1205.87 885.959 1195.73 880.218 C 1194.05 882.503 1194 884.015 1193.67 886.74 C 1192.68 894.882 1186.07 903.291 1182.32 910.628 C 1167.74 939.208 1152.59 970.214 1163.02 1002.64 C 1164.62 1007.6 1166.29 1013.95 1169.46 1018.12 C 1170.77 1019.84 1171.49 1020.77 1173.7 1021.11 C 1179.69 1009.98 1161.62 963.345 1175.45 955.292 C 1178.01 955.617 1178.55 955.44 1180.38 957.189 C 1181.68 977.01 1174.8 985.042 1183.59 1005.84 C 1183.49 1009.11 1182.88 1010.43 1181.2 1013.24 C 1181.81 1017.42 1182.03 1023.61 1179.88 1027.43 C 1178.86 1029.24 1177.82 1030.28 1175.7 1030.4 C 1173.3 1030.54 1170.4 1028.49 1168.64 1027.01 C 1162 1021.38 1158.2 1012.26 1155.55 1004.13 C 1144.58 970.467 1160.61 938.287 1175.25 908.646 C 1179.86 899.329 1185.42 889.594 1187.59 879.345 C 1188.9 873.167 1187.39 865.232 1186.88 858.92 L 1189.13 853.027 C 1192.16 845.279 1188.29 832.415 1192.7 826.083 z"/>
<path transform="translate(0,0)" fill="rgb(255,255,255)" d="M 1192.7 826.083 C 1195.34 824.918 1196.72 825.072 1199.45 826.115 C 1201.67 826.966 1203.84 828.167 1205.96 829.254 C 1206.88 844.32 1206.93 862.108 1204.75 877.001 C 1202.36 876.357 1199.01 875.722 1197.29 873.837 C 1188.96 864.673 1193.71 839.082 1192.79 827.11 L 1192.7 826.083 z"/>
<path transform="translate(0,0)" fill="rgb(1,0,12)" d="M 1202.7 1007.8 C 1196.2 1004.07 1192.47 998.603 1189.81 991.7 C 1186.54 983.207 1184.07 968.357 1187.9 959.885 C 1190.18 957.895 1190.47 957.858 1193.49 957.503 C 1194.18 957.814 1195.14 957.807 1195.57 958.436 C 1198.2 962.309 1194.84 978.333 1195.8 983.806 C 1197.04 990.83 1200.59 997.431 1205.04 1002.92 C 1205.28 1003.22 1205.53 1003.52 1205.78 1003.81 C 1204.76 1005.1 1203.55 1006.4 1202.7 1007.8 z"/>
<path transform="translate(0,0)" fill="rgb(1,0,12)" d="M 1223.21 985.345 C 1222.9 985.129 1222.58 984.94 1222.29 984.698 C 1218.7 981.624 1216.79 976.173 1216.3 971.595 C 1215.89 967.817 1215.72 962.397 1218.17 959.41 C 1224.53 962.409 1225.47 976.376 1229.22 982.152 C 1229.41 982.442 1229.61 982.726 1229.8 983.013 L 1228.74 985.605 C 1226.53 986.411 1227.65 986.382 1225.57 985.808 C 1223.81 985.318 1224.52 985.41 1223.21 985.345 z"/>
<path transform="translate(0,0)" fill="rgb(1,0,12)" d="M 1183.59 1005.84 C 1187.45 1010.92 1190.33 1013.3 1196.26 1015.57 C 1194.57 1018.02 1193.88 1018.94 1190.98 1020.06 C 1187.11 1018.24 1184.39 1016.05 1181.2 1013.24 C 1182.88 1010.43 1183.49 1009.11 1183.59 1005.84 z"/>
<path transform="translate(0,0)" fill="rgb(255,255,255)" d="M 1205.76 243.392 C 1217.21 243.567 1227.21 246.816 1237.77 250.927 C 1226.98 253.371 1216.36 256.529 1205.99 260.379 C 1160.94 277.003 1101.92 318.206 1081.66 362.376 L 1082.66 363.356 C 1090.28 360.925 1099.36 344.311 1104.85 338.048 C 1119.66 321.176 1137.98 307.249 1156.82 295.18 C 1190.04 273.892 1234.73 250.102 1275.46 259.306 C 1293.19 263.314 1306.92 273.562 1316.51 288.899 C 1326.88 305.404 1330.12 325.412 1325.48 344.347 C 1322.62 356.52 1316.34 367.572 1305.39 374.137 C 1265.23 398.224 1203.54 356.031 1163.59 346.294 C 1146.8 342.201 1128.03 343.532 1113.14 352.851 C 1097.59 362.581 1086.18 380.631 1082.15 398.35 C 1075.12 429.253 1087.37 457.653 1103.36 483.404 C 1114.26 502.085 1127.4 519.158 1138.78 537.482 C 1152.36 559.358 1162.25 583.197 1170.71 607.436 C 1168.44 617.113 1165.72 627.133 1166.14 637.166 C 1166.75 652.044 1174.16 661.825 1184.85 671.279 C 1183.23 689.623 1183.39 708.169 1180.77 726.43 C 1177.61 748.539 1170.65 768.408 1170.88 791.159 C 1161.97 793.248 1154.81 796.248 1147.68 802.111 C 1146.73 777.606 1148.96 752.655 1149.36 728.097 C 1150.24 673.948 1145.93 617.37 1130.98 565.139 C 1124.48 542.422 1117.18 519.333 1107.36 497.818 C 1091.31 462.67 1069.88 438.324 1066.49 397.779 C 1063.27 359.191 1074.87 336.02 1099.78 306.807 C 1127.07 274.797 1162.57 246.734 1205.76 243.392 z"/>
<path transform="translate(0,0)" fill="rgb(255,255,255)" d="M 1881.75 1455.85 C 1882.24 1455.84 1882.74 1455.81 1883.24 1455.82 C 1893.43 1456.02 1911.08 1470.7 1918.15 1477.56 C 1910.66 1486.28 1902.4 1494.04 1895.35 1503.23 C 1862.99 1545.4 1836.65 1598.62 1813.91 1646.51 C 1807.67 1659.64 1801.52 1672.82 1795.47 1686.04 C 1791.15 1695.65 1787.49 1707.21 1781.15 1715.64 C 1765.62 1736.31 1733.96 1760.6 1711.4 1772.27 C 1705.72 1774.77 1698.73 1777.88 1692.49 1775.83 C 1686.42 1773.84 1683.56 1768.05 1680.85 1762.75 C 1685.07 1761.53 1689.44 1760.37 1693.33 1758.31 C 1717.71 1745.36 1737.57 1716.95 1747.86 1691.97 C 1751.25 1683.74 1753.48 1675.09 1756.03 1666.57 C 1765.52 1634.98 1791.41 1598.31 1805.74 1566.71 C 1812.01 1552.88 1817.44 1538.83 1822.81 1524.64 C 1827.01 1513.54 1830.61 1499.6 1837.36 1489.91 C 1847.64 1475.18 1866.28 1464.2 1881.75 1455.85 z"/>
<path transform="translate(0,0)" fill="rgb(255,255,255)" d="M 715.458 1677.65 L 716.491 1678.63 C 718.498 1687.81 725.912 1695.7 733.127 1701.32 C 779.549 1737.49 860.602 1756.16 917.287 1769.12 C 941.053 1774.56 964.662 1780.59 988.991 1782.93 C 1008.02 1784.77 1026.43 1784.22 1045.37 1781.86 C 1044.84 1794.3 1045.29 1807.45 1043.42 1819.74 C 1042.34 1826.81 1041.31 1831.83 1035.36 1836.18 C 1025.34 1840.38 1013.35 1839.54 1002.76 1838.34 C 985.06 1836.33 966.989 1832.42 949.921 1827.26 C 923.944 1819.42 898.527 1808.71 873.365 1798.6 C 823.426 1778.53 771.425 1759.04 728.231 1726.09 C 722.052 1721.37 715.105 1716.4 710.385 1710.14 C 706.659 1705.22 705.079 1699.01 706.006 1692.91 C 707.124 1685.88 709.959 1681.89 715.458 1677.65 z"/>
<path transform="translate(0,0)" fill="rgb(255,255,255)" d="M 1714.04 1643.07 C 1712.36 1640.5 1709.76 1637.77 1710.12 1634.69 C 1719.17 1629.97 1717.29 1622.45 1718.14 1613.45 C 1719.6 1598.08 1721.13 1583.62 1718.99 1568.16 C 1716.91 1553.09 1698.31 1513.86 1702.86 1502.48 C 1708.13 1498.73 1720.51 1503.73 1727.06 1503.72 C 1768.81 1503.7 1748.83 1436.43 1769.85 1416.76 C 1772.34 1414.43 1775.92 1412.77 1779.39 1413.43 C 1781.06 1413.74 1781.86 1414.43 1782.77 1415.78 C 1791.53 1428.7 1785.17 1474.24 1782.26 1489.75 C 1774.27 1495.29 1765.4 1500.65 1759.21 1508.25 C 1760.12 1510.63 1760.64 1512.19 1762.53 1513.98 C 1766.81 1507.42 1772.24 1503.6 1778.65 1499.4 C 1769.02 1523.2 1763.35 1547.8 1762.94 1573.53 L 1761.29 1589.93 C 1761.16 1592.83 1760.81 1595.67 1760.45 1598.55 L 1759.07 1598.56 C 1751.25 1594.23 1738.56 1583.67 1734.35 1575.88 C 1732.68 1572.8 1733.53 1571.14 1734.34 1567.98 C 1731.98 1566.93 1730.78 1567.78 1728.37 1568.42 C 1717.39 1591.97 1764.29 1604.21 1768.02 1618.98 C 1765.58 1629.86 1757.32 1639.22 1753.11 1649.52 C 1748.59 1660.6 1746.08 1672.64 1742.05 1683.95 C 1733.35 1708.4 1715.12 1734.76 1693.22 1749.16 C 1690.09 1751.21 1687.52 1752.74 1683.76 1751.93 L 1682.54 1750.03 C 1681.86 1741.79 1691.66 1715.16 1696.9 1708.75 C 1698.43 1709.37 1697.93 1709.03 1699.16 1709.99 C 1699.43 1710.21 1699.69 1710.43 1699.96 1710.66 C 1708.07 1689.72 1710.78 1665.19 1714.04 1643.07 z"/>
<path transform="translate(0,0)" fill="rgb(255,255,255)" d="M 1778.65 1499.4 C 1769.02 1523.2 1763.35 1547.8 1762.94 1573.53 L 1761.29 1589.93 C 1761.16 1592.83 1760.81 1595.67 1760.45 1598.55 L 1759.07 1598.56 C 1751.25 1594.23 1738.56 1583.67 1734.35 1575.88 C 1732.68 1572.8 1733.53 1571.14 1734.34 1567.98 C 1734.62 1567.89 1734.93 1567.85 1735.19 1567.71 C 1748.15 1560.32 1757.72 1527.13 1762.53 1513.98 C 1766.81 1507.42 1772.24 1503.6 1778.65 1499.4 z"/>
<path transform="translate(0,0)" fill="rgb(1,0,12)" d="M 1759.21 1508.25 C 1760.12 1510.63 1760.64 1512.19 1762.53 1513.98 C 1757.72 1527.13 1748.15 1560.32 1735.19 1567.71 C 1734.93 1567.85 1734.62 1567.89 1734.34 1567.98 C 1731.98 1566.93 1730.78 1567.78 1728.37 1568.42 C 1731.83 1561.95 1738.3 1557.41 1742 1551.1 C 1749.49 1538.27 1752.45 1522.96 1758.63 1509.49 L 1759.21 1508.25 z"/>
<path transform="translate(0,0)" fill="rgb(255,255,255)" d="M 1416.7 701.454 C 1442.43 699.693 1533.87 717.741 1552.69 734.619 C 1555.81 737.416 1557.34 741.031 1557.52 745.191 C 1557.75 750.812 1555.38 757.395 1551.42 761.431 C 1546.65 766.31 1539.45 767.577 1532.92 767.941 C 1515.75 768.898 1497.61 763.946 1480.58 761.585 C 1464.29 759.325 1447.96 758.467 1431.53 758.084 C 1388.69 757.093 1352.39 775.477 1319.47 801.377 C 1324.98 777.96 1330.24 754.373 1332.24 730.357 C 1359.93 714.007 1384.42 703.89 1416.7 701.454 z"/>
<path transform="translate(0,0)" fill="rgb(92,96,112)" d="M 1403.22 769.342 C 1413.83 767.73 1434.4 774.905 1443.99 780.259 C 1455.41 786.627 1462.67 796.846 1465.78 809.492 C 1469.8 825.806 1466.03 844.185 1457.48 858.461 C 1448.34 873.749 1434.52 884.428 1417.25 888.85 C 1403.78 890.897 1390.65 889.455 1379.31 881.324 C 1355.98 864.593 1354.15 828.117 1363.11 803.225 C 1364.56 799.21 1371.51 787.452 1371.5 784.546 C 1371.5 783.996 1368.72 781.379 1368.44 779.665 C 1377.42 772.758 1392.25 771.01 1403.22 769.342 z"/>
<path transform="translate(0,0)" fill="rgb(2,2,36)" d="M 1414.14 781.281 C 1422.08 781.178 1430.26 783.065 1437.08 787.256 C 1446.69 793.168 1452.29 803.173 1454.51 814.044 C 1457.58 829.063 1454.56 845.399 1445.76 858.026 C 1437.53 869.841 1426.67 875.532 1412.76 877.749 C 1404.51 878.112 1397.17 876.43 1390.23 871.792 C 1380.17 865.066 1373.89 853.692 1371.62 841.981 C 1368.89 827.846 1371.35 811.198 1379.87 799.407 C 1388.26 787.784 1400.5 783.295 1414.14 781.281 z"/>
<path transform="translate(0,0)" fill="rgb(92,96,112)" d="M 1414.7 789.343 C 1420.32 789.567 1425.84 790.388 1430.94 792.865 C 1438.31 796.442 1443.35 802.727 1445.8 810.485 C 1449.74 822.971 1447.63 838.441 1441.36 849.775 C 1435.13 861.02 1426.46 866.806 1414.45 870.316 C 1406.23 870.15 1399.96 869.733 1393.12 864.594 C 1384.5 858.124 1380.42 847.424 1379.21 837.019 C 1377.79 824.866 1380.13 811.066 1388.15 801.479 C 1395.38 792.842 1404.02 790.438 1414.7 789.343 z"/>
<path transform="translate(0,0)" fill="rgb(38,46,80)" d="M 1058.81 207.189 C 1061.77 206.968 1064.42 206.775 1067.12 208.208 C 1078.4 214.191 1084.92 230.369 1088.05 242.166 C 1091.75 256.122 1095.26 277.818 1087.29 290.723 C 1081.95 299.384 1069.72 306.54 1059.78 308.423 C 1029.32 314.192 1039.32 276.718 1023.92 267.505 C 1020.05 265.191 1014.79 265.28 1010.57 266.452 C 1004.91 268.02 1001.71 271.75 998.839 276.631 C 998.592 278.043 998.406 281.194 997.76 282.312 C 995.285 286.598 986.928 291.836 982.986 295.711 C 966.412 289.006 952.918 295.706 939.844 279.833 C 970.349 246.287 1015.2 219.025 1058.81 207.189 z"/>
<path transform="translate(0,0)" fill="rgb(255,255,255)" d="M 760.179 1670.38 C 762.643 1669.87 765.417 1669.07 767.934 1669.2 C 770.432 1669.33 771.902 1670.5 773.504 1672.36 C 774.471 1673.49 775.412 1674.78 776.541 1675.75 C 778.454 1677.39 780.974 1677.49 783.362 1677.42 L 784.052 1676.17 C 783.064 1673.61 781.509 1670.92 782.306 1668.16 L 784.385 1667.26 C 789.516 1667.96 788.893 1672.22 792.302 1675.14 C 794.518 1677.04 795.688 1676.76 798.421 1676.7 C 802.168 1673.38 795.642 1669.84 796.719 1665.69 L 799.58 1665.01 C 803.841 1666.7 805.729 1675.45 809.289 1678.97 C 810.497 1680.17 810.166 1679.74 812.163 1679.58 L 813.394 1677.62 C 814.017 1673.51 811.155 1669.31 809.907 1665.39 L 810.973 1664.09 L 814.318 1664.37 C 818.269 1667.7 817.173 1673.32 819.972 1677.23 C 821.565 1679.46 822.527 1679.33 825.033 1679.67 C 830.571 1676.77 822.095 1667.45 824.041 1662.29 C 830.905 1661.8 829.527 1671.95 834.082 1675.88 L 837.003 1675.59 C 842.012 1671.16 835.336 1666.34 836.036 1661.03 L 837.994 1660.45 C 841.216 1662.14 842.579 1666.71 844.225 1669.98 C 846.621 1671.51 846.654 1671.4 849.497 1671.03 C 854.122 1666.82 847.856 1663.5 848.995 1658.8 L 851.55 1658.46 C 855.474 1660.57 855.766 1665.22 859.148 1668.02 C 861.463 1667.94 861.619 1667.81 863.479 1666.41 C 864.114 1664.27 863.678 1663.18 862.978 1661.14 C 862.272 1659.09 862.033 1658.82 862.397 1656.6 C 868.949 1654.4 868.504 1661.63 873.382 1663.65 C 875.729 1662.84 876.255 1662.99 877.875 1660.98 C 876.998 1658.8 876.242 1657.56 876.577 1655.15 L 879.761 1654.51 C 881.183 1655.35 882.058 1656.18 883.082 1657.45 L 884.215 1658.88 L 887.227 1659.17 C 890.086 1657.88 889.909 1656.85 891.045 1654.02 C 894.436 1651.84 897.607 1652.36 901.545 1652.41 C 904.289 1650.69 904.578 1649.69 905.841 1646.71 L 906.247 1645.73 L 908.927 1645.34 C 910.201 1653.81 921.64 1660.08 924.647 1672.8 C 923.464 1679.46 921.619 1685.75 915.744 1689.77 C 908.335 1694.84 898.115 1694.76 889.717 1697.56 C 864.382 1706.02 834.446 1716.73 812.716 1732.07 C 808.297 1730.84 803.907 1729.26 799.639 1727.58 C 784.405 1721.57 729.488 1696.74 725.635 1682.68 C 724.87 1679.89 725.231 1679.24 726.432 1676.8 C 733.298 1671.34 745.717 1672.25 754.211 1671.9 L 760.179 1670.38 z"/>
<path transform="translate(0,0)" fill="rgb(2,1,30)" d="M 754.211 1671.9 L 760.179 1670.38 C 762.326 1673.22 765.48 1676.38 765.741 1680.03 L 764.616 1682.18 C 762.535 1682.3 760.817 1682.12 759.211 1680.56 C 756.84 1678.25 755.532 1674.86 754.211 1671.9 z"/>
<path transform="translate(0,0)" fill="rgb(92,96,112)" d="M 997.047 1458.23 C 1004.44 1462.21 1010.08 1469.24 1017.76 1472.91 C 1052.23 1489.4 1090.32 1500.91 1128.85 1497.82 C 1121.87 1513.68 1115.15 1529.65 1108.7 1545.73 C 1107.47 1548.46 1106.34 1551.04 1103.92 1552.93 C 1097.53 1557.88 1086.61 1556.86 1079.01 1556.15 C 1053.1 1553.71 1003.32 1537.21 986.52 1516.92 C 987.72 1498.75 991.741 1475.7 997.047 1458.23 z"/>
<path transform="translate(0,0)" fill="rgb(255,255,255)" d="M 979.07 162.328 C 981.3 162.159 983.533 162.055 985.769 162.017 C 1018.02 161.617 1042.16 178.474 1064.16 200.251 C 1036.71 204.1 1008.71 218.454 985.358 232.908 C 970.952 242.464 957.726 253.968 944.394 264.953 C 944.064 264.256 943.747 263.553 943.443 262.844 C 932.156 237.115 926.307 209.576 936.782 182.763 C 951.763 174.724 961.565 164.815 979.07 162.328 z"/>
<path transform="translate(0,0)" fill="rgb(255,255,255)" d="M 911.348 1644.27 C 914.234 1642.64 917.686 1641.63 918.963 1638.53 C 917.699 1635.77 916.369 1633.87 917.311 1630.72 C 919.136 1624.62 925.391 1619.82 930.91 1617.34 C 933.655 1616.11 935.95 1615.67 938.934 1615.53 L 941.172 1616.57 L 942.014 1619.05 C 938.439 1623.9 931.304 1621.12 927.27 1624.5 C 928.289 1626.71 930.329 1628.16 932.561 1629.08 C 935.003 1630.08 937.157 1629.74 939.698 1629.57 C 947.338 1629.06 952.081 1633.86 957.52 1638.66 C 971.765 1651.23 984.472 1670.28 1005.87 1668.82 C 1019.29 1667.91 1036.29 1653 1041.66 1653.77 C 1044.64 1656.84 1044.68 1660.37 1044.63 1664.52 C 1044.55 1671.46 1043.15 1678.76 1042.25 1685.66 C 996.327 1691.92 947.863 1702.19 908.016 1726.94 C 902.658 1719.23 896.872 1711.65 891.847 1703.73 C 904.197 1701.75 917.964 1700.09 926.028 1689.28 C 928.824 1685.53 930.299 1681.35 931.481 1676.87 C 930.021 1674.41 929.754 1673.36 927.133 1672.08 L 925.651 1673.05 L 924.647 1672.8 C 921.64 1660.08 910.201 1653.81 908.927 1645.34 L 911.348 1644.27 z"/>
<path transform="translate(0,0)" fill="rgb(1,0,12)" d="M 911.348 1644.27 C 921.209 1653.23 930.619 1661.36 931.42 1675.56 L 931.481 1676.87 C 930.021 1674.41 929.754 1673.36 927.133 1672.08 L 925.651 1673.05 L 924.647 1672.8 C 921.64 1660.08 910.201 1653.81 908.927 1645.34 L 911.348 1644.27 z"/>
<path transform="translate(0,0)" fill="rgb(38,46,80)" d="M 1042.2 1706.32 L 1042.64 1706.7 C 1046.74 1719.6 1046.12 1760.15 1046.14 1775.54 C 1005.81 1780.51 966.782 1773.2 927.525 1764.83 C 920.644 1763.43 913.808 1761.63 906.977 1759.99 C 908.957 1757.26 911.008 1754.35 913.624 1752.18 C 937.552 1732.38 1010.8 1713.32 1042.2 1706.32 z"/>
<path transform="translate(0,0)" fill="rgb(92,96,112)" d="M 1700.39 1274.94 C 1708.41 1285.78 1715.62 1297.12 1722.91 1308.45 C 1711.69 1320.46 1634.99 1391.06 1626.5 1392.94 C 1625.19 1393.23 1624.46 1392.08 1623.51 1391.32 C 1614.16 1381.88 1605.82 1371.68 1597.46 1361.37 C 1628.1 1328.87 1662.52 1298.75 1700.39 1274.94 z"/>
<path transform="translate(0,0)" fill="rgb(92,96,112)" d="M 1922.34 1484.79 C 1924.71 1488.01 1924.29 1493.3 1924.19 1497.23 C 1923 1544.31 1867.76 1625 1837.93 1660.73 C 1825.38 1675.77 1811.53 1689.49 1797.35 1702.98 L 1797.1 1702.84 L 1796.78 1701.52 C 1802.23 1686.64 1810.43 1672.05 1817.27 1657.73 C 1842.12 1605.71 1880.72 1523.37 1922.34 1484.79 z"/>
<path transform="translate(0,0)" fill="rgb(255,255,255)" d="M 1359.81 420.537 C 1369.82 422.183 1462.41 491.63 1475.01 501.959 C 1480.82 506.729 1487.52 512.204 1491.79 518.473 C 1503.4 535.506 1494.91 574.871 1491.22 593.761 C 1490.71 595.334 1490.03 596.811 1489.38 598.327 L 1487.95 598.258 C 1462.91 555.093 1436.06 511.527 1405.06 472.343 C 1390.8 454.323 1375.16 437.599 1359.81 420.537 z"/>
<path transform="translate(0,0)" fill="rgb(92,96,112)" d="M 1821.46 1429.1 C 1839.71 1435.69 1858.04 1441.97 1875.27 1451 C 1860.59 1459.57 1844.59 1469.08 1833.76 1482.44 C 1823.85 1494.66 1817.37 1518.16 1811.51 1532.91 C 1806.03 1546.81 1800.02 1560.51 1793.5 1573.96 C 1791.32 1578.91 1788.17 1583.48 1785.33 1588.07 C 1784.57 1576.1 1783.18 1561.46 1785.96 1549.82 C 1786.56 1538.73 1787.62 1527.26 1789.87 1516.38 C 1791.14 1510.24 1794.04 1503.05 1794.43 1496.91 C 1794.67 1493.09 1791.12 1492.08 1791.14 1488.29 C 1791.21 1475.46 1795.13 1462.47 1795.23 1449.41 C 1803.16 1441.65 1811.96 1434.84 1821.46 1429.1 z"/>
<path transform="translate(0,0)" fill="rgb(38,46,80)" d="M 1785.96 1549.82 C 1786.03 1557.46 1787.09 1561.62 1790.93 1568.34 C 1791.85 1569.96 1792.31 1571.58 1793.07 1573.26 C 1793.18 1573.51 1793.36 1573.73 1793.5 1573.96 C 1791.32 1578.91 1788.17 1583.48 1785.33 1588.07 C 1784.57 1576.1 1783.18 1561.46 1785.96 1549.82 z"/>
<path transform="translate(0,0)" fill="rgb(255,255,255)" d="M 1706.79 1334.71 C 1713.36 1339.85 1738.52 1377.38 1744.03 1386.44 C 1726.82 1403.66 1709.12 1417.89 1688.45 1430.67 C 1687.98 1431.18 1687.26 1431.39 1686.66 1431.72 C 1674.21 1416.04 1666.39 1397.69 1652.84 1382.45 C 1671.14 1366.9 1689.53 1351.42 1706.79 1334.71 z"/>
<path transform="translate(0,0)" fill="rgb(255,255,255)" d="M 981.157 1579.87 C 1001.77 1595.95 1021.57 1604.14 1047.46 1607.36 C 1044.22 1619.41 1041.11 1631.52 1037.28 1643.4 C 1032.06 1648.06 1026.59 1651.66 1020.63 1655.31 C 1013.09 1659.4 1006.02 1662.18 997.36 1660.02 C 979.979 1655.69 969.054 1633.57 960.731 1619.29 C 968.177 1606.49 974.594 1593.15 981.157 1579.87 z"/>
<path transform="translate(0,0)" fill="rgb(255,255,255)" d="M 1747.73 1392.91 C 1753.4 1399.3 1758.67 1405.9 1763.85 1412.7 C 1759.93 1417.45 1756.34 1422.17 1754.13 1428.01 C 1747.03 1446.81 1754.53 1477.71 1737.73 1491.44 C 1734.73 1493.89 1729.63 1496.81 1725.61 1495.97 C 1721.29 1495.07 1719.13 1491.14 1717.05 1487.67 C 1708.54 1470.7 1698.94 1454.62 1689.78 1438.02 C 1711.76 1426.06 1729.89 1410.19 1747.73 1392.91 z"/>
<path transform="translate(0,0)" fill="rgb(255,255,255)" d="M 883.194 1547.18 C 889.525 1546.61 895.344 1546.99 901.308 1549.37 C 926.016 1559.23 940.584 1590.56 949.963 1613.48 C 943.67 1610.97 937.512 1609.47 930.827 1608.51 C 925.104 1609.31 923.024 1611.54 919.094 1615.53 C 902.484 1605.4 877.528 1592.21 868.678 1574.16 C 866.513 1569.75 865.417 1564.31 867.395 1559.62 C 870.196 1552.98 876.909 1549.67 883.194 1547.18 z"/>
<path transform="translate(0,0)" fill="rgb(255,255,255)" d="M 998.561 1536.97 C 1019.85 1548.55 1040.96 1556.56 1064.38 1562.58 C 1060.16 1574.76 1056.16 1587.04 1050.88 1598.81 C 1026.97 1597.16 1001.93 1589.09 984.916 1571.47 C 989.722 1560.04 994.428 1548.66 998.561 1536.97 z"/>
<path transform="translate(0,0)" fill="rgb(255,255,255)" d="M 1670.53 1529.29 C 1677.27 1528.74 1684.47 1529.27 1690.67 1532.19 C 1702.47 1537.76 1706.61 1549.35 1710.55 1560.8 C 1693.4 1561.07 1677.55 1566.7 1661.46 1572.06 C 1652.57 1574.81 1639.6 1577.5 1631.09 1572.78 C 1627.8 1570.96 1625.49 1568 1624.73 1564.3 C 1623.68 1559.15 1625.49 1554.16 1628.52 1550.02 C 1637.79 1537.36 1655.71 1531.65 1670.53 1529.29 z"/>
<path transform="translate(0,0)" fill="rgb(215,215,214)" d="M 920.744 299.735 C 926.099 305.421 939.195 337.02 943.634 346.494 C 928.776 356.675 914.8 365.665 897.614 371.525 C 895.945 371.818 894.27 372.077 892.591 372.304 C 888.078 372.947 882.856 374.093 879.123 370.655 C 877.44 369.105 876.69 367.14 876.588 364.881 C 875.73 345.773 907.761 313.308 920.744 299.735 z"/>
<path transform="translate(0,0)" fill="rgb(255,255,255)" d="M 884.176 1707.15 C 893.236 1714.12 905.524 1735.86 908.405 1746.85 C 907.455 1750.91 906.467 1754.97 905.441 1759.01 C 889.867 1755.68 874.453 1751.65 859.245 1746.93 C 845.947 1743.18 832.775 1738.65 819.588 1734.51 C 840.227 1723.23 862.089 1715.06 884.176 1707.15 z"/>
<path transform="translate(0,0)" fill="rgb(255,255,255)" d="M 924.718 191.919 L 925.401 192.859 C 921.592 219.871 927.29 245.864 939.453 270.081 C 930.901 278.117 922.839 286.628 914.709 295.086 L 912.04 297.319 L 910.497 296.773 C 906.506 288.45 904.377 279.607 903.104 270.498 C 898.893 240.364 906.486 216.104 924.718 191.919 z"/>
<path transform="translate(0,0)" fill="rgb(255,255,255)" d="M 1261.38 845.223 C 1262.53 842.829 1262.5 841.986 1265.11 841.057 C 1271.62 838.741 1279.64 838.924 1286.46 837.283 C 1280.54 845.662 1262.17 883.469 1258.45 886.406 C 1256.52 887.926 1252.53 888.434 1250.17 888.886 L 1251.31 894.813 C 1251.04 894.69 1250.77 894.563 1250.5 894.445 L 1249.16 893.867 C 1243.47 891.384 1237.79 890.229 1231.74 888.978 L 1237.13 887.302 L 1237.52 885.889 L 1238.74 886.266 L 1238.53 886.842 L 1240.25 886.246 C 1238.15 885.539 1236.54 885.172 1234.91 883.595 C 1234.61 883.305 1234.36 882.966 1234.09 882.652 C 1232.63 882.161 1231.23 881.624 1229.81 881.046 L 1229.83 879.238 C 1228.69 877.34 1229.16 878.024 1227.9 876.328 L 1227.04 875.187 C 1226.93 873.282 1226.77 871.455 1226.4 869.583 L 1226.06 867.86 C 1226.15 860.23 1228.81 851.664 1230.47 844.177 L 1236.5 845.291 C 1236.79 843.81 1236.8 841.139 1238.17 840.38 C 1242.39 838.044 1248.82 839.237 1253.15 840.666 C 1254.61 841.147 1254.66 841.216 1255.84 841.803 C 1255.89 842.836 1256.02 843.903 1255.89 844.931 L 1257.71 847.388 C 1259.08 846.611 1259.16 846.128 1259.96 844.819 L 1261.38 845.223 z"/>
<path transform="translate(0,0)" fill="rgb(255,255,255)" d="M 1261.38 845.223 C 1262.53 842.829 1262.5 841.986 1265.11 841.057 C 1271.62 838.741 1279.64 838.924 1286.46 837.283 C 1280.54 845.662 1262.17 883.469 1258.45 886.406 C 1256.52 887.926 1252.53 888.434 1250.17 888.886 C 1253.73 874.288 1258.3 859.934 1261.38 845.223 z"/>
<path transform="translate(0,0)" fill="rgb(1,0,12)" d="M 1255.89 844.931 L 1257.71 847.388 C 1259.08 846.611 1259.16 846.128 1259.96 844.819 L 1261.38 845.223 C 1258.3 859.934 1253.73 874.288 1250.17 888.886 L 1251.31 894.813 C 1251.04 894.69 1250.77 894.563 1250.5 894.445 L 1249.16 893.867 C 1243.47 891.384 1237.79 890.229 1231.74 888.978 L 1237.13 887.302 L 1237.52 885.889 L 1238.74 886.266 L 1238.53 886.842 L 1240.25 886.246 C 1238.15 885.539 1236.54 885.172 1234.91 883.595 C 1234.61 883.305 1234.36 882.966 1234.09 882.652 C 1237.83 883.066 1241.57 884.543 1245.16 885.668 C 1248.27 872.474 1250.6 857.372 1255.89 844.931 z"/>
<path transform="translate(0,0)" fill="rgb(1,0,12)" d="M 1230.47 844.177 L 1236.5 845.291 C 1234.06 856.511 1232.68 868.152 1229.83 879.238 C 1228.69 877.34 1229.16 878.024 1227.9 876.328 L 1227.04 875.187 C 1226.93 873.282 1226.77 871.455 1226.4 869.583 L 1226.06 867.86 C 1226.15 860.23 1228.81 851.664 1230.47 844.177 z"/>
<path transform="translate(0,0)" fill="rgb(92,96,112)" d="M 1525.98 775.806 C 1531.25 775.859 1536.54 775.659 1541.81 775.555 C 1544.58 797.27 1546.02 841.912 1543.37 863.305 C 1542.51 870.202 1540.83 876.091 1538.27 882.544 C 1536.85 884.59 1537.73 883.781 1535.68 885.017 C 1530.87 877.991 1527.27 871.147 1525.38 862.812 C 1522.1 848.331 1524.51 830.866 1525.18 816.115 C 1525.79 802.651 1526.12 789.282 1525.98 775.806 z"/>
<path transform="translate(0,0)" fill="rgb(255,255,255)" d="M 1038.84 1693.32 L 1041.04 1692.94 C 1042.72 1695.07 1042.31 1696.9 1042.46 1699.54 C 997.972 1707.47 955.556 1722.82 915.366 1743.37 C 912.566 1740.46 911.634 1735.19 910.448 1731.37 C 960.623 1708.02 985.419 1702.96 1038.84 1693.32 z"/>
<path transform="translate(0,0)" fill="rgb(255,255,255)" d="M 1167.94 798.68 C 1175.69 799.585 1177.75 814.63 1187.04 821.528 L 1184.31 832.344 C 1179.51 836.991 1175.2 842.33 1170.82 847.372 C 1169.77 848.054 1169.02 848.221 1167.82 848.521 C 1166.82 847.523 1166.79 847.565 1165.84 846.196 C 1161.81 840.426 1150.95 816.49 1153.57 809.605 C 1155.24 805.231 1164.07 801.054 1167.94 798.68 z"/>
<path transform="translate(0,0)" fill="rgb(255,255,255)" d="M 1767.44 1576.66 C 1769.77 1550.94 1773.69 1523.09 1783.45 1499 C 1781.49 1526.42 1776.58 1553.86 1776.37 1581.37 C 1776.32 1587.65 1778.72 1603.87 1774.35 1608.26 C 1774.08 1608.53 1773.76 1608.75 1773.47 1609 C 1771.23 1607.94 1768.52 1605.4 1767.54 1603.07 C 1766.7 1601.07 1766.78 1598.51 1766.71 1596.36 C 1766.28 1595.94 1765.79 1595.59 1765.43 1595.11 C 1763.83 1592.99 1763.64 1591.56 1761.29 1589.93 L 1762.94 1573.53 L 1765.62 1571.02 C 1767.27 1572.58 1767.08 1574.47 1767.44 1576.66 z"/>
<path transform="translate(0,0)" fill="rgb(2,1,30)" d="M 1762.94 1573.53 L 1765.62 1571.02 C 1767.27 1572.58 1767.08 1574.47 1767.44 1576.66 C 1767.11 1583.23 1766.78 1589.78 1766.71 1596.36 C 1766.28 1595.94 1765.79 1595.59 1765.43 1595.11 C 1763.83 1592.99 1763.64 1591.56 1761.29 1589.93 L 1762.94 1573.53 z"/>
<path transform="translate(0,0)" fill="rgb(255,255,255)" d="M 1213.13 833.097 C 1218.08 834.504 1227.74 834.985 1230.97 839.063 C 1231.92 840.255 1230.81 842.751 1230.47 844.177 C 1228.81 851.664 1226.15 860.23 1226.06 867.86 C 1225.16 872.043 1224.18 876.224 1223.46 880.444 C 1219.34 879.568 1215.17 878.436 1210.94 878.331 C 1211.49 863.245 1212.22 848.166 1213.13 833.097 z"/>
<path transform="translate(0,0)" fill="rgb(255,255,255)" d="M 1712.06 1583.86 L 1713.13 1584.88 C 1714.14 1589.91 1713.6 1592.92 1710.74 1597.21 C 1704.08 1607.19 1690.38 1618.46 1678.54 1620.79 C 1676.59 1616.97 1675.66 1614.04 1677.1 1609.83 C 1681.34 1597.41 1701.21 1589.6 1712.06 1583.86 z"/>
<path transform="translate(0,0)" fill="rgb(255,255,255)" d="M 852.965 1617 C 866.444 1615.38 881.524 1621.75 892.974 1628.55 C 897.136 1631.03 902.617 1634.13 903.836 1638.93 C 891.863 1636.57 864.867 1630.5 855.696 1623.53 C 853.071 1621.54 853.241 1620.15 852.965 1617 z"/>
<path transform="translate(0,0)" fill="rgb(255,255,255)" d="M 1790.5 1416.4 C 1799.83 1417.05 1806.89 1420.38 1815.17 1424.33 L 1807.32 1430.89 L 1794.68 1440.6 C 1793.72 1432.39 1792.26 1424.47 1790.5 1416.4 z"/>
<path transform="translate(0,0)" fill="rgb(255,255,255)" d="M 944.854 162.611 L 948.1 164.583 L 948.46 166.649 C 945.787 170.031 941.163 171.767 937.374 173.69 C 934.939 173.796 936.056 174.103 934.022 172.774 C 934.066 172.457 934.063 172.13 934.154 171.823 C 935.397 167.618 941.3 164.675 944.854 162.611 z"/>
<path transform="translate(0,0)" fill="rgb(2,2,36)" d="M 485.442 863.554 C 515.625 847.355 536.071 841.73 569.762 851.867 C 592.675 858.762 616.676 867.343 639.742 855.567 C 651.989 849.314 659.689 837.99 663.534 825.031 C 669.801 803.91 666.767 780.124 689.037 767.343 C 701.213 760.354 718.809 759.259 732.215 763.077 C 755.81 769.795 791.726 805.071 803.14 826.66 C 808.4 836.609 810.835 847.674 815.941 857.517 C 820.048 865.435 825.532 872.839 830.168 880.474 C 841.48 899.101 851.906 921.387 855.646 942.957 C 869.501 945.084 879.541 951.129 887.922 962.492 C 896.933 974.707 909.648 1002.55 907.273 1017.69 C 903.895 1039.23 847.613 1081.24 828.596 1094.23 C 778.537 1128.4 724.432 1156.87 670.45 1184.28 C 588.498 1225.89 479.949 1277.03 391.149 1297.51 C 334.237 1310.64 275.942 1316.1 218.145 1305.02 C 187.455 1299.14 117.808 1273.49 100.944 1247.25 C 94.5902 1237.37 95.7702 1190.17 98.8488 1177.97 C 109.214 1136.91 155.964 1114.7 189.365 1095.07 C 202.218 1087.52 231.96 1066.66 239.897 1055.26 C 244.006 1049.36 242.44 1040.99 249.144 1036.13 C 253.219 1033.18 260.755 1032.46 265.508 1033.84 C 267.303 1034.37 269.054 1035.04 270.794 1035.72 C 284.34 1023.3 278.264 1019.96 286.53 1010.69 C 295.126 1001.05 302.114 1006.83 311.89 1003.16 C 317.182 1001.18 321.931 997.027 326.866 994.247 C 326.078 986.814 326.935 981.223 331.746 975.204 C 334.646 971.575 338.548 969.211 343.222 968.836 C 349.116 968.362 352.293 970.987 356.796 974.36 C 362.279 969.834 362.857 968.171 363.52 961.31 C 364.218 954.079 365.243 948.398 371.223 943.56 C 376.763 939.077 380.641 943.101 386.005 941.652 C 394.334 939.4 412.449 923.334 419.633 917.198 L 420.718 905.733 C 407.438 903.291 391.802 900.43 383.574 888.465 C 381.035 884.772 379.704 880.345 380.724 875.898 C 382.335 868.867 389.076 862.461 395.194 859.127 C 403.829 854.422 413.62 854.89 422.731 857.925 C 435.318 862.119 442.464 871.038 453.493 877.245 C 453.288 875.135 453.054 873.125 452.584 871.056 C 449.821 865.412 443.886 849.398 446.418 843.55 C 447.157 841.844 447.829 840.783 449.501 839.966 C 453.454 838.032 457.087 839.33 461.043 840.493 C 472.284 844.577 478.504 854.401 485.442 863.554 z"/>
<path transform="translate(0,0)" fill="rgb(255,255,255)" d="M 453.216 847.929 C 457.173 847.188 459.343 848.239 462.625 850.479 C 469.597 855.239 477.758 863.587 479.389 872.132 C 480.051 875.595 479.291 879.331 477.036 882.092 C 473.954 885.867 468.105 886.721 463.622 887.726 C 462.512 882.672 461.506 877.594 459.919 872.663 C 458.696 864.35 455.604 855.99 453.216 847.929 z"/>
<path transform="translate(0,0)" fill="rgb(1,0,12)" d="M 452.584 871.056 C 449.821 865.412 443.886 849.398 446.418 843.55 C 447.157 841.844 447.829 840.783 449.501 839.966 C 453.454 838.032 457.087 839.33 461.043 840.493 L 459.054 840.941 C 456.578 841.486 454.124 841.755 451.604 841.984 C 452.006 844.001 452.199 844.432 453.312 846.029 L 453.216 847.929 C 455.604 855.99 458.696 864.35 459.919 872.663 C 458.891 874.851 459.206 875.414 456.868 876.372 C 455.808 874.949 454.743 873.569 453.59 872.218 L 452.584 871.056 z"/>
<path transform="translate(0,0)" fill="rgb(255,255,255)" d="M 857.41 949.76 C 862.392 951.091 866.753 952.464 870.966 955.559 C 887.973 968.053 897.698 996.757 900.534 1016.79 C 899.867 1018.34 899.13 1019.9 898.31 1021.38 C 892.62 1031.65 881.815 1040.87 873.247 1048.84 C 820.89 1097.51 749.484 1134.7 686.26 1167.29 C 599.864 1211.82 509.863 1254.47 416.565 1282.39 C 325.655 1309.6 226.079 1314.16 140.343 1267.84 C 128.373 1261.36 114.209 1252.15 105.861 1241.21 C 105.007 1233.2 105.088 1225.05 104.916 1217 C 115.129 1224.96 125.598 1232.1 137.294 1237.72 C 222.955 1278.93 314.896 1259.45 399.943 1229.42 C 458.484 1208.75 513.352 1181.41 568.134 1152.5 C 626.259 1122.15 683.007 1089.23 738.21 1053.84 C 771.89 1032.07 810.679 1007.54 838.251 978.275 C 846.521 969.499 852.229 960.615 857.41 949.76 z"/>
<path transform="translate(0,0)" fill="rgb(255,255,255)" d="M 375.843 1082.7 C 378.669 1082.74 514.253 1156.16 528.512 1163.96 C 513.607 1174.1 492.856 1181.8 476.387 1189.43 C 400.175 1224.69 301.377 1262.94 215.928 1250.78 C 175.258 1245.99 136.994 1233.19 105.108 1206.98 C 104.188 1198.63 104.22 1190.21 106.2 1182.01 C 116.041 1141.23 169.507 1116.45 202.798 1096.14 C 202.833 1096.78 202.878 1097.42 202.903 1098.07 C 203.196 1105.84 204.703 1111.4 209.56 1117.67 C 219.019 1129.9 237.964 1137.29 253.01 1138.9 C 300.28 1143.96 341.403 1110.4 375.843 1082.7 z"/>
<path transform="translate(0,0)" fill="rgb(255,255,255)" d="M 765.569 850.973 C 771.192 851.855 776.632 853.491 782.113 854.999 C 773.426 870.149 764.38 885.131 758.304 901.579 C 743.307 942.181 747.702 994.095 748.973 1036.99 C 724.273 1053.68 698.553 1070.58 672.133 1084.38 C 657.492 1077.98 643.377 1069.53 629.142 1062.21 L 545.335 1019.57 C 524.34 1009.23 503.428 998.727 482.604 988.051 C 502.359 968.459 521.519 948.159 541.075 928.353 C 567.581 940.14 597.682 948.166 626.875 946.608 C 672.423 944.177 714.083 917.993 742.386 883.182 C 750.492 873.213 756.292 861.019 764.921 851.654 C 765.134 851.423 765.353 851.2 765.569 850.973 z"/>
<path transform="translate(0,0)" fill="rgb(255,255,255)" d="M 504.575 864.19 C 529.045 862.381 553.048 868.529 574.795 879.45 C 563.863 896.663 546.187 910.992 531.997 925.524 C 495.31 963.095 458.949 1000.94 419.693 1035.88 C 379.188 1071.94 312.146 1134.95 255.034 1131.16 C 241.517 1130.26 224.477 1122.23 215.737 1111.66 C 212.563 1107.83 210.471 1103.09 211.221 1098.03 C 213.048 1085.72 233.836 1070.97 243.093 1063.75 C 243.157 1069.66 242.678 1076.35 245.952 1081.56 C 253.127 1092.99 276.426 1103.02 289.277 1105.2 C 293.324 1105.88 298.761 1105.93 302.004 1103 C 304.2 1101.01 305.81 1097.54 305.941 1094.58 C 306.706 1077.41 258.642 1066.66 250.468 1054.42 C 248.836 1051.98 248.947 1051.34 249.315 1048.6 C 250.8 1046.47 252.202 1044.84 254.409 1043.42 C 257.392 1041.5 260.425 1041.43 263.743 1042.4 C 269.603 1044.13 275.205 1048.36 280.41 1051.52 C 292.758 1059.02 312.397 1071.38 326.454 1073.6 C 330.857 1074.29 335.266 1073.6 338.813 1070.76 C 341.561 1068.56 345.182 1063.58 345.149 1059.97 C 345.124 1057.16 343.139 1055.05 341.456 1053 C 324.757 1041.72 304.476 1038.32 290.173 1022.72 C 289.516 1020.07 289.352 1019.64 290.873 1017.17 C 304.326 995.331 360.967 1045.13 379.202 1038.11 C 382.495 1036.85 384.34 1034.69 385.585 1031.47 C 393.21 1011.8 338.69 1005.17 333.722 988.218 C 333.103 986.105 333.288 984.042 334.678 982.277 C 337.933 978.141 346.023 977.462 350.611 979.381 C 355.401 981.383 359.729 985.451 364.244 988.108 C 374.73 994.28 402.809 1009.46 414.367 1007.21 C 417.431 1006.61 419.771 1004.27 421.196 1001.61 C 422.947 998.347 423.496 994.328 422.038 990.847 C 419.43 984.62 391.5 973.362 384.169 969.645 C 378.854 966.95 373.727 964.014 371.809 958.092 C 371.903 956.23 371.963 954.875 373.046 953.261 C 373.819 952.108 376.559 949.338 377.965 948.895 C 387.101 946.017 430.434 979.795 449.899 974.518 C 453.029 973.669 454.974 971.973 456.525 969.156 C 458.106 966.281 458.586 960.394 457.308 957.376 C 453.868 949.25 419.859 938.483 410.875 934.879 C 415.533 931.531 424.256 926.759 427.184 921.971 C 427.485 921.479 427.743 920.963 428.023 920.459 C 439.233 918.609 471.066 939.355 488.369 938.687 C 492.247 938.537 495.783 937.215 498.291 934.156 C 501.254 930.542 502.19 926.553 501.779 921.996 C 500.804 920.1 499.79 918.315 497.964 917.099 C 493.007 913.797 485.632 911.711 480.072 909.39 C 471.653 905.875 463.608 901.942 455.801 897.218 C 468.679 896.866 485.282 896.204 497.078 890.778 C 505.302 896.193 518.717 905.724 528.916 904.656 C 531.511 904.399 533.894 903.107 535.524 901.073 C 538.08 897.883 538.957 893.346 538.646 889.362 C 531.921 874.577 502.695 880.169 491.539 871.813 L 491.564 870.133 C 495.083 866.798 500.058 865.703 504.575 864.19 z"/>
<path transform="translate(0,0)" fill="rgb(255,255,255)" d="M 729.48 771.608 C 734.507 772.21 738.32 773.665 742.637 776.29 C 749.739 780.608 756.149 786.26 762.482 791.611 C 783.413 809.293 799.486 827.429 805.84 854.771 C 794.138 850.724 779.579 844.07 767.181 844.083 C 764.049 844.087 761.77 844.793 759.32 846.835 C 752.021 852.918 746.996 863.131 741.37 870.827 C 735.128 879.327 728.204 887.305 720.668 894.682 C 691.375 922.93 655.772 939.42 614.849 938.851 C 591.175 936.782 568.876 930.684 546.675 922.452 C 559.566 910.04 572.698 897.416 582.378 882.266 C 611.081 890.953 639.628 898.023 669.793 892.78 C 688.925 889.455 709.226 880.85 720.457 864.241 C 733.47 844.996 727.554 828.104 723.533 807.621 C 721.044 794.944 721.235 783.71 728.709 772.721 L 729.48 771.608 z"/>
<path transform="translate(0,0)" fill="rgb(255,255,255)" d="M 476.021 994.567 C 517.072 1014.46 557.86 1034.9 598.373 1055.87 C 620.123 1066.96 642.567 1077.46 663.423 1090.17 C 648.481 1098.36 633.936 1107.44 619.092 1115.86 C 614.356 1118.57 609.455 1120.92 604.546 1123.3 C 564.861 1100.99 524.025 1080.71 484.217 1058.57 C 468.368 1049.75 452.376 1041.17 437.229 1031.17 C 449.831 1018.66 463.387 1007.09 476.021 994.567 z"/>
<path transform="translate(0,0)" fill="rgb(255,255,255)" d="M 791.149 857.704 C 797.298 859.668 803.187 861.249 809.561 862.282 C 828.277 888.69 841.887 918.365 849.69 949.778 C 835.458 974.088 812.716 991.821 790.493 1008.5 C 779.49 1016.57 768.27 1024.34 756.847 1031.81 C 755.12 969.252 750.521 910.65 791.149 857.704 z"/>
<path transform="translate(0,0)" fill="rgb(255,255,255)" d="M 430.426 1037.68 C 435.939 1039.47 442.296 1044.2 447.406 1047.12 L 488.754 1070.5 C 524.433 1090.17 560.5 1109.13 596.933 1127.37 C 580.309 1136.94 563.496 1146.18 546.505 1155.09 L 537.058 1159.74 C 521.362 1149.51 503.427 1141.22 486.875 1132.31 C 452.683 1113.91 418.501 1095.67 384.613 1076.71 C 400.38 1064.3 415.343 1050.9 430.426 1037.68 z"/>
<path transform="translate(0,0)" fill="rgb(92,96,112)" d="M 708.433 769.262 C 712.738 768.925 717.172 769.02 721.496 768.907 C 702.498 802.192 727.199 817.818 719.922 847.3 C 717.018 859.065 708.527 868.301 698.387 874.481 C 668.861 892.473 625.483 887.519 594.167 877.333 C 580.149 872.774 567.142 866.063 552.721 862.607 C 541.421 859.543 530.458 857.79 518.783 856.879 C 555.713 846.047 590.192 874.832 629.341 866.928 C 653.547 862.041 668.453 843.916 673.341 820.344 C 675.93 807.856 676.581 792.184 684.026 781.512 C 690.087 772.824 698.666 770.992 708.433 769.262 z"/>
<path transform="translate(0,0)" fill="rgb(255,255,255)" d="M 405.342 864.303 C 425.726 863.218 438.679 875.347 453.077 887.56 C 445.65 888.866 438.376 890.06 431.25 892.591 C 428.773 893.936 426.811 895.586 424.685 897.404 C 418.256 896.664 411.524 896.193 405.399 893.983 C 399.017 891.681 391.9 887.664 389.091 881.115 C 388.145 878.91 387.852 876.268 389.044 874.08 C 391.883 868.869 399.958 865.599 405.342 864.303 z"/>
<path transform="translate(0,0)" fill="rgb(255,255,255)" d="M 441.311 899.321 C 443.065 899.74 486.811 920.253 489.991 922.135 C 492.381 923.55 493.345 924.129 494.1 926.824 C 493.709 927.308 493.402 927.873 492.927 928.275 C 490.322 930.485 487.393 930.265 484.267 929.836 C 483.884 929.764 483.499 929.701 483.118 929.619 C 471.504 927.129 433.855 916.444 427.868 907.223 C 427.871 905.859 427.577 905.165 428.493 904.031 C 431.415 900.414 437.017 900.054 441.311 899.321 z"/>
<path transform="translate(0,0)" fill="rgb(255,255,255)" d="M 285.712 1033.73 C 295.671 1036.03 304.611 1044.14 313.804 1048.75 C 319.912 1051.81 329.268 1054.07 334.549 1057.96 C 336.266 1059.23 335.716 1059.88 335.651 1061.68 C 333.661 1063.95 332.567 1064.33 329.774 1065.13 C 311.796 1060.29 291.83 1050.12 276.653 1039.33 L 285.712 1033.73 z"/>
<path transform="translate(0,0)" fill="rgb(255,255,255)" d="M 252.676 1066.2 C 259.056 1068.22 291.961 1087.11 296.155 1091.7 C 298.043 1093.76 297.472 1094.71 297.262 1097.35 C 295.096 1097.64 292.898 1097.59 290.747 1097.2 C 279.342 1095.21 260.238 1087.05 253.612 1077.25 C 251.073 1073.5 251.934 1070.35 252.676 1066.2 z"/>
<path transform="translate(0,0)" fill="rgb(255,255,255)" d="M 402.202 940.727 C 410.156 941.714 444.328 955.926 449.751 961.294 C 449.392 964.608 448.194 965.29 446.021 967.735 C 435.686 965.961 404.264 953.015 396.201 946.57 C 397.146 943.867 399.984 942.364 402.202 940.727 z"/>
<path transform="translate(0,0)" fill="rgb(255,255,255)" d="M 334.262 1002.26 C 344.622 1006.07 368.894 1018.25 376.679 1025.83 C 377.421 1028.1 377.495 1027.99 376.46 1030.12 C 373.982 1031.07 372.937 1030.51 370.389 1029.95 C 357.284 1024.3 335.104 1016.78 324.436 1008.58 C 326.359 1005.55 331.127 1003.87 334.262 1002.26 z"/>
<path transform="translate(0,0)" fill="rgb(255,255,255)" d="M 372.017 972.633 C 378.405 973.942 409.605 989.963 413.032 994.664 C 413.954 995.93 413.404 996.581 413.114 997.979 L 410.717 999.452 C 394.871 994.863 379.198 987.023 364.559 979.454 L 372.017 972.633 z"/>
<path transform="translate(0,0)" fill="rgb(255,255,255)" d="M 500.883 883.259 C 506.647 883.476 512.602 884.889 518.188 886.286 C 522.881 887.459 528.052 889.173 530.592 893.45 L 529.505 897.5 C 520.765 896.256 507.425 890.414 500.682 884.74 L 500.883 883.259 z"/>
<path transform="translate(0,0)" fill="rgb(215,215,214)" d="M 109.739 1424.46 C 110.96 1425.14 110.321 1424.75 112.008 1426.03 C 139.623 1447.03 164.908 1472.76 189.629 1497.05 C 285.977 1591.72 368.299 1706.26 397.195 1840.28 C 400.221 1854.32 401.3 1868.78 403.334 1882.99 C 377.852 1899.58 340.111 1906.31 310.193 1906.83 C 254.09 1907.81 202.273 1887.68 162.007 1848.73 C 153.695 1840.4 146.496 1831.94 140.693 1821.68 C 186.513 1812.16 233.226 1800.77 277.986 1787.06 C 286.303 1784.51 307.319 1779.16 311.406 1771.47 L 310.789 1769.86 C 306.606 1767.29 300.965 1767.09 296.154 1767.22 C 275.496 1767.78 254.356 1772 233.885 1774.8 C 197.931 1779.46 162.012 1784.39 126.133 1789.59 C 110.417 1752.67 115.219 1714.51 118.358 1675.84 C 136.455 1673.78 195.974 1667.82 209.413 1661.23 C 212.586 1659.68 216.224 1657.02 217.109 1653.39 C 217.668 1651.11 217.006 1648.79 215.458 1647.04 C 213.897 1645.27 211.587 1644.16 209.316 1643.66 C 192.8 1640.03 141.642 1642.79 122.163 1643 C 132.57 1570.21 126.174 1495.8 109.739 1424.46 z"/>
<path transform="translate(0,0)" fill="rgb(215,215,214)" d="M 1602.31 1126.86 C 1602.61 1126.64 1602.91 1126.42 1603.21 1126.19 C 1611.89 1119.47 1618.99 1109.97 1626.53 1101.98 C 1635.29 1092.7 1645.3 1084.53 1655.54 1076.95 C 1716.14 1032.04 1810.42 987.756 1883.31 970.308 C 1895.88 967.296 1911.21 962.85 1924.07 964.261 C 1928.2 964.714 1930.97 965.697 1933.84 968.79 C 1935.24 973.416 1933.28 977.043 1931.06 981.14 C 1904.48 1030.25 1828.26 1099.66 1784.38 1133.86 C 1765.53 1148.37 1745.88 1161.81 1725.51 1174.1 C 1716.44 1179.56 1707.19 1184.72 1697.78 1189.59 C 1689.63 1193.75 1665.26 1203.13 1660.26 1208.02 C 1652.94 1199.39 1646.95 1188.11 1640.59 1178.6 C 1628.54 1160.58 1616.13 1143.55 1602.31 1126.86 z"/>
<path transform="translate(0,0)" fill="rgb(215,215,214)" d="M 1954.11 760.298 C 1957.34 759.973 1961.81 759.061 1964.88 760.5 C 1966.96 761.473 1968.15 762.941 1968.52 765.224 C 1971.37 782.417 1922.68 836.672 1910.1 850.228 C 1863.61 900.311 1803.44 946.543 1744.29 980.594 C 1728.55 989.653 1712.25 999.307 1694.49 1003.76 C 1689.1 1005.11 1683.79 1005.33 1678.26 1005.53 C 1676.18 1004.64 1674.07 1003.73 1672.22 1002.41 C 1667.71 999.166 1665.18 994.787 1664.29 989.331 C 1660.13 963.782 1688.05 907.019 1702.62 886.02 C 1710.2 874.857 1719.65 865.078 1730.54 857.108 C 1772.92 825.953 1901.74 769.688 1954.11 760.298 z"/>
<path transform="translate(0,0)" fill="rgb(215,215,214)" d="M 1594.89 393.496 C 1595.26 393.659 1595.65 393.806 1596.01 393.985 C 1615.99 403.75 1666.56 496.657 1677.15 519.1 C 1689.57 545.412 1701.22 573.457 1709.96 601.235 C 1724.52 647.52 1725.64 696.782 1702.75 740.498 C 1699.44 744.278 1695.78 749.464 1690.89 751.18 C 1688.2 752.124 1685.63 751.881 1683.11 750.586 C 1662.8 740.159 1636.2 671.888 1627.92 648.892 C 1603.55 581.262 1585.77 505.788 1588.58 433.482 C 1589.09 420.372 1589.22 405.549 1594.89 393.496 z"/>
<path transform="translate(0,0)" fill="rgb(215,215,214)" d="M 392.071 1497.5 C 423.107 1509.04 463.955 1538.9 487.748 1562.28 C 479.315 1589.74 468.72 1616.51 458.747 1643.43 C 442.29 1687.87 425.724 1731.91 406.499 1775.25 C 402.615 1784.6 399.193 1793.96 395.977 1803.56 C 386.298 1773.31 375.78 1743.68 362.156 1714.94 C 353.555 1696.8 343.573 1679.18 334.091 1661.48 C 339.373 1642.45 346.37 1624.09 352.953 1605.49 L 392.071 1497.5 z"/>
<path transform="translate(0,0)" fill="rgb(215,215,214)" d="M 1974.41 562.274 C 1976.19 562.277 1978.92 562.165 1980.56 562.726 C 1982.69 563.45 1984.04 565.42 1984.48 567.568 C 1987.55 582.544 1958.01 619.842 1948.9 631.835 C 1932.73 653.119 1913.03 673.472 1893.63 691.833 C 1864.99 718.936 1791.5 780.584 1754.72 785.51 C 1752.82 785.012 1750.53 784.196 1749.06 782.845 C 1745.55 779.638 1744.27 774.484 1743.83 769.918 C 1741.75 748.627 1757.84 705.741 1770.87 689.231 C 1804.64 646.454 1921.68 568.535 1974.41 562.274 z"/>
<path transform="translate(0,0)" fill="rgb(215,215,214)" d="M 1700.91 1262.71 C 1738.06 1238.16 1873.07 1165.21 1912.33 1173.24 C 1914.95 1173.78 1916.29 1174.78 1918.14 1176.65 C 1920.13 1181.37 1919.39 1185.03 1917.55 1189.74 C 1902.09 1229.46 1829.15 1303.61 1795.63 1331.39 C 1785.78 1339.53 1775.74 1347.43 1765.51 1355.09 C 1758.36 1360.35 1750.17 1365.28 1743.72 1371.36 C 1733.4 1357.01 1723.66 1342.28 1713.04 1328.13 C 1719.66 1322.18 1725.17 1315.41 1730.58 1308.38 C 1721.77 1292.42 1711.36 1277.62 1700.91 1262.71 z"/>
<path transform="translate(0,0)" fill="rgb(169,186,250)" d="M 213.421 360.243 C 231.093 359.165 292.08 357.964 305.998 362.159 C 313.302 364.361 319.346 370.329 322.697 377.066 C 324.114 379.858 325.05 382.869 325.464 385.972 C 327.276 399.536 327.45 475.039 323.608 486.027 C 320.362 495.311 313.005 501.084 304.438 505.242 C 289.381 505.896 274.133 505.434 259.049 505.6 C 246.472 505.738 232.976 506.846 220.469 505.574 C 215.977 505.117 211.438 503.99 207.327 502.109 C 200.336 498.91 196.204 494.961 193.676 487.713 C 192.289 483.616 191.397 479.369 191.019 475.061 C 189.608 459.44 188.946 384.788 194.685 374.092 C 198.895 366.247 205.058 362.612 213.421 360.243 z"/>
<path transform="translate(0,0)" fill="rgb(215,215,214)" d="M 122.792 1427.04 C 146.239 1426.54 219.112 1443.37 243.137 1451.42 C 236.773 1471.95 231.438 1492.21 232.638 1513.94 C 250.931 1500.05 259.912 1477.77 265.708 1456.32 C 291.57 1462.75 338.747 1472.18 361.215 1485.73 C 356.713 1513.67 351.503 1541.06 345.418 1568.7 C 341.531 1594.64 332.767 1625.12 326.733 1651.14 C 309.161 1629.37 293.817 1605.55 276.45 1583.51 C 244.098 1542.45 208.333 1504.86 170.638 1468.71 C 155.532 1454.23 140.687 1438.09 122.792 1427.04 z"/>
<path transform="translate(0,0)" fill="rgb(92,96,112)" d="M 213.517 554.136 C 229.614 553.432 298.758 552.032 310.072 556.563 C 316.223 559.027 321.637 565.779 324.058 571.79 C 327.527 580.404 326.897 670.608 323.354 677.79 C 319.082 686.449 311.717 690.285 302.859 692.971 C 284.554 693.827 219.322 696.037 205.188 690.413 C 198.591 687.788 193.029 681.172 190.7 674.556 C 187.058 664.213 188.308 596.592 189.548 583.471 C 190.016 578.531 190.764 573.743 193.123 569.315 C 197.517 561.067 204.747 556.6 213.517 554.136 z"/>
<path transform="translate(0,0)" fill="rgb(215,215,214)" d="M 512.174 1594.59 C 513.886 1596.98 515.347 1599.73 516.792 1602.29 C 538.882 1641.53 541.014 1692.78 529.052 1735.51 C 512.436 1795.28 472.688 1845.98 418.599 1876.37 L 409.778 1881.81 C 408.387 1857.1 403.456 1833.98 397.198 1810.13 C 410.015 1795.6 418.895 1775.72 428.288 1758.81 C 457.762 1704.86 485.735 1650.1 512.174 1594.59 z"/>
<path transform="translate(0,0)" fill="rgb(38,46,80)" d="M 211.222 166.078 C 229.267 165.695 295.138 163.582 308.594 167.985 C 314.807 170.018 319.232 174.813 322.041 180.592 C 323.589 183.775 324.731 187.325 325.052 190.861 C 326.184 203.341 326.564 277.231 323.271 285.736 C 320.044 294.069 312.555 299.427 304.74 303.087 C 292.219 305.526 219.512 305.454 208.165 301.684 C 201.559 299.489 197.441 296.082 194.403 289.795 C 193.035 286.964 192.391 284.068 192.108 280.948 C 190.94 268.07 190.108 189.764 193.468 181.013 C 196.414 173.339 204.273 169.414 211.222 166.078 z"/>
<path transform="translate(0,0)" fill="rgb(215,215,214)" d="M 1967.66 377.043 C 1970.99 376.807 1972.56 376.573 1975.34 378.494 C 1978.92 388.917 1971.95 407.058 1968.27 416.818 C 1943.6 482.235 1890.91 541.362 1838.97 587.161 C 1826.69 597.99 1814.49 610.232 1799.47 617.082 C 1796.85 617.191 1796.3 617.481 1794.18 616.039 C 1786.57 600.404 1794.96 573.701 1799.68 557.968 C 1822.82 480.804 1898.87 414.336 1967.66 377.043 z"/>
<path transform="translate(0,0)" fill="rgb(215,215,214)" d="M 1877.73 197.473 C 1878.23 197.773 1878.78 198.001 1879.23 198.372 C 1889.7 207.032 1887.59 264.405 1886.44 279.434 C 1882.53 330.628 1864.51 423.524 1824.2 456.685 C 1817 462.612 1811.75 463.806 1802.58 462.943 C 1801.39 461.805 1800.36 460.708 1799.43 459.349 C 1786.45 440.496 1791.91 391.269 1795.62 369.829 C 1804.73 317.177 1825.62 264.133 1857.25 220.956 C 1863.26 212.756 1869.34 203.364 1877.73 197.473 z"/>
<path transform="translate(0,0)" fill="rgb(215,215,214)" d="M 1720.13 316.37 C 1721 316.624 1721.4 316.675 1722.23 317.279 C 1735.92 327.285 1755.8 388.646 1760.95 406.596 C 1774.15 452.601 1777.6 498.853 1765.49 545.53 C 1762.44 557.286 1759.66 568.472 1753.74 579.163 C 1751.02 583.37 1748.08 587.649 1743.51 589.935 C 1741.91 589.988 1740.95 590.309 1739.5 589.436 C 1731.43 584.573 1727.21 563.223 1725.25 554.553 C 1716.14 514.331 1698.88 350.217 1720.13 316.37 z"/>
<path transform="translate(0,0)" fill="rgb(215,215,214)" d="M 1549.83 962.067 C 1565.91 981.048 1590.98 1044.45 1589.35 1068.68 C 1589.07 1072.78 1586.68 1081.05 1587.9 1084.57 C 1609.92 1069.42 1733.87 705.433 1749.68 657.003 C 1760.48 623.926 1769.8 590.062 1779.59 556.653 C 1782.61 546.365 1793.01 499.216 1796.28 495.071 C 1797.43 493.62 1798.71 493.853 1800.3 493.957 C 1802.3 496.483 1801.92 499.623 1801.55 502.643 C 1800.4 512.042 1797.24 521.428 1794.79 530.564 C 1788.72 553.194 1781.88 575.526 1775.01 597.921 C 1757.78 655.92 1739.26 713.525 1719.45 770.695 C 1697.95 832.879 1675.61 894.772 1652.45 956.358 C 1640.74 988.332 1628.88 1019.95 1616.3 1051.59 C 1608.52 1071.16 1601.74 1090.79 1590.1 1108.53 C 1587.2 1102.36 1583.4 1096.55 1579.87 1090.71 C 1584.27 1081.41 1585.41 1075.57 1584.89 1065.32 C 1584.1 1064.1 1583.28 1062.91 1582.42 1061.74 C 1577.87 1055.7 1571.1 1055.44 1564.18 1054.59 L 1563.31 1053.87 C 1559.53 1050.65 1556.22 1047.47 1554.4 1042.75 C 1548.81 1028.33 1551.49 1009.69 1551.34 994.478 C 1551.3 983.658 1550.79 972.844 1549.83 962.067 z"/>
<path transform="translate(0,0)" fill="url(#Gradient1)" d="M 1081.49 480.551 C 1085.13 481.037 1088.82 480.82 1091.22 483.729 C 1093.05 493.657 1097.2 503.813 1099.98 513.577 C 1108.52 543.594 1116.63 577.728 1114.77 609.026 C 1113.38 632.44 1101.65 653.615 1102.63 677.176 C 1103.19 690.825 1113.84 706.034 1114.4 716.743 C 1112.54 718.759 1112.65 719.026 1109.96 719.235 C 1105.18 716.146 1102.83 709.207 1100.88 704.04 C 1087.62 668.887 1096.74 658.889 1104.12 625.557 C 1106.84 613.277 1107.15 600.117 1106.2 587.618 C 1103.42 551.024 1092.27 515.4 1081.49 480.551 z"/>
</svg>