<svg version="1.1" xmlns="http://www.w3.org/2000/svg" style="display: block;" viewBox="0 0 2048 2048" width="1024" height="1024">
<defs>
	<linearGradient id="Gradient1" gradientUnits="userSpaceOnUse" x1="1324.72" y1="412.142" x2="1318.89" y2="400.046">
		<stop class="stop0" offset="0" stop-opacity="1" stop-color="rgb(0,1,5)"/>
		<stop class="stop1" offset="1" stop-opacity="1" stop-color="rgb(2,3,41)"/>
	</linearGradient>
	<linearGradient id="Gradient2" gradientUnits="userSpaceOnUse" x1="1601.09" y1="933.71" x2="1526.92" y2="983.289">
		<stop class="stop0" offset="0" stop-opacity="1" stop-color="rgb(0,0,12)"/>
		<stop class="stop1" offset="1" stop-opacity="1" stop-color="rgb(3,5,41)"/>
	</linearGradient>
	<linearGradient id="Gradient3" gradientUnits="userSpaceOnUse" x1="1480.16" y1="1119.65" x2="1004.9" y2="960.641">
		<stop class="stop0" offset="0" stop-opacity="1" stop-color="rgb(217,217,216)"/>
		<stop class="stop1" offset="1" stop-opacity="1" stop-color="rgb(255,255,255)"/>
	</linearGradient>
</defs>
<path transform="translate(0,0)" fill="rgb(255,255,255)" d="M 0 0 L 2048 0 L 2048 2048 L 0 2048 L 0 0 z"/>
<path transform="translate(0,0)" fill="rgb(2,15,43)" d="M 1112.51 401.001 C 1095.87 393.518 1083.68 385.69 1073.99 369.872 C 1069.93 363.231 1067.55 357.448 1069.36 349.68 C 1074.29 344.661 1084.35 360.42 1102.99 353.734 C 1113.54 349.952 1122.86 343.546 1131.96 337.146 C 1154.68 321.159 1175.29 306.139 1203.4 300.888 C 1226.57 296.56 1251.76 298.497 1271.6 312.214 C 1294.06 327.75 1300.72 350.995 1305.47 376.509 C 1315.78 373.515 1328.6 370.453 1338.99 374.52 C 1343.31 372.21 1347.86 369.962 1352.53 368.424 C 1369.45 362.847 1387.84 365.462 1403.49 373.594 C 1418.61 381.455 1427.39 392.864 1432.58 408.932 C 1436.54 409.466 1440.61 410.019 1444.5 410.95 C 1455.41 413.56 1467.71 420.303 1473.48 430.107 C 1476.5 435.23 1477.83 440.815 1476.23 446.606 C 1476.17 446.81 1475.38 449.326 1475.38 449.684 C 1475.42 452.065 1483.46 456.605 1485.35 459.097 C 1490.41 465.788 1493.19 474.814 1491.93 483.172 C 1490.8 490.71 1487.29 495.181 1481.2 499.456 C 1481.28 506.875 1481.41 514.506 1479.46 521.725 C 1477.23 529.989 1472.13 537.459 1464.64 541.749 C 1462.57 542.936 1460.94 543.908 1459.19 545.526 C 1458.74 555.029 1463.92 561.555 1471.19 567.331 C 1478.92 573.481 1490.03 577.001 1498.56 582.332 C 1535.95 605.712 1568.09 631.929 1587.24 672.632 C 1617.05 735.975 1639.32 804.703 1660.31 871.452 C 1668.49 897.459 1679.05 925.478 1682.06 952.631 C 1683.42 964.903 1682.15 974.718 1677.94 986.31 C 1681.28 1002.75 1686.82 1021.78 1683.77 1038.47 C 1681.56 1050.57 1685.72 1070.05 1686.89 1082.71 L 1693.26 1155.9 C 1697.18 1198.38 1700.42 1240.91 1702.99 1283.49 C 1704.42 1306.47 1703.5 1331.4 1708.06 1353.89 C 1712.58 1376.19 1727.95 1410.81 1736.45 1433.53 C 1753.57 1479.33 1769.8 1525.55 1787.82 1571.01 C 1792.96 1583.99 1797.94 1597.14 1803.49 1609.95 C 1809.63 1624.13 1816.5 1638.12 1821.78 1652.65 C 1819.23 1655 1816.3 1656.85 1813.44 1658.79 C 1815.57 1664.74 1818.15 1670.59 1820.53 1676.44 C 1821.87 1676.66 1823.2 1676.87 1824.51 1677.23 C 1830.58 1678.92 1832.68 1682.15 1835.77 1687.34 C 1850.56 1684.9 1897.64 1713.71 1909.62 1722.38 C 1926.56 1734.63 1944.15 1751.46 1947.39 1773.13 C 1949.99 1790.5 1945.34 1806.32 1934.93 1820.27 C 1896.88 1871.23 1789.16 1893.59 1729.02 1901.77 C 1619.99 1916.6 1520.63 1917.77 1411.22 1907.63 C 1389.69 1905.68 1368.26 1902.81 1346.97 1899.03 C 1333.27 1896.61 1318.8 1891.66 1304.89 1891.65 C 1266.31 1908.75 1171.22 1892.3 1130.99 1876.96 C 1121.54 1873.36 1107.63 1867.87 1103.6 1857.83 C 1101.34 1852.2 1102.64 1845.55 1105.14 1840.22 C 1113.73 1821.9 1156.2 1824.14 1173.49 1822.44 C 1185.6 1821.25 1197.57 1818.89 1209.65 1817.49 C 1215.5 1816.82 1223.5 1817 1228.89 1814.91 L 1229.44 1812.9 C 1227.45 1808.32 1221.37 1808.09 1217.51 1805.34 C 1215.04 1803.58 1213.63 1801 1213.16 1798.04 C 1210.27 1779.84 1208.89 1761 1206.82 1742.66 L 1193.41 1622.17 L 1182.85 1528.27 C 1181.31 1513.5 1178.19 1496.83 1179.45 1482.09 C 1180.97 1464.16 1186.25 1445.81 1190.04 1428.17 C 1197.35 1393.99 1204.84 1359.85 1212.5 1325.76 C 1215.97 1310.21 1221.51 1293.04 1222.22 1277.19 C 1222.66 1267.38 1220.3 1255.75 1218.77 1246.06 C 1216.5 1244.73 1214.35 1243.34 1212.39 1241.57 C 1187.56 1219.03 1190.17 1114.52 1189.09 1079.16 C 1181.95 1084.2 1174.76 1089.18 1167.52 1094.08 C 1100.97 1138.98 1071.13 1133.05 996.043 1117.81 C 984.798 1115.52 980.179 1109.04 974.267 1100.03 C 947.863 1103.26 932.082 1101.77 907.15 1092.65 C 872.841 1161.6 866.827 1245.8 864.057 1321.52 C 863.252 1343.53 864.338 1366.14 862.2 1388.01 L 862.039 1389.58 C 857.445 1390.99 852.563 1391.7 847.845 1392.61 C 853.176 1439.45 858.189 1485.91 861.113 1532.99 C 862.099 1548.87 866.152 1590.49 862.019 1604 C 857.326 1619.34 798.563 1700.28 785.668 1718.86 C 764.416 1749.47 743.809 1780.56 722.19 1810.91 C 710.481 1827.34 699.043 1843.84 685.67 1858.99 C 697.26 1868.59 709.353 1876.99 722.653 1884.08 C 730.331 1888.22 738.292 1891.82 746.477 1894.85 C 755.532 1898.19 766.813 1900.97 774.904 1906.15 C 776.947 1907.45 778.711 1909.48 779.977 1911.53 C 783.177 1916.71 785.353 1924.35 783.542 1930.36 C 781.947 1935.65 777.422 1939.19 772.657 1941.57 C 736.18 1959.78 650.439 1955.09 612.462 1942.94 C 606.68 1941.09 598.09 1938.31 595.395 1932.37 C 590.138 1920.79 600.946 1885.48 605.595 1873.97 C 608.519 1866.74 612.792 1860.01 616.281 1853.03 C 620.153 1845.29 623.258 1837.15 626.467 1829.12 C 624.268 1826.97 622.675 1825.31 621.371 1822.46 C 621.148 1819.43 621.691 1817.22 622.672 1814.35 C 629.052 1795.69 637.819 1777.17 645.207 1758.83 C 660.358 1721.21 675.292 1683.25 691.892 1646.25 C 655.977 1668.65 616.499 1686.19 578.301 1704.33 C 569.255 1708.63 557.384 1716.35 548.019 1719.01 C 546.53 1719.43 544.97 1719.29 543.445 1719.24 C 534.242 1718.92 524.441 1724.41 516.094 1728 C 516.489 1747.01 518.024 1765.58 520.041 1784.47 C 521.511 1798.24 524.132 1812.96 523.423 1826.78 C 523.197 1831.17 522.107 1835.34 519.736 1839.09 C 517.64 1842.41 514.591 1844.9 510.699 1845.69 C 505.029 1846.85 499.541 1844.29 494.844 1841.38 C 465.224 1823.08 423.788 1765.33 416.424 1731.91 C 415.039 1725.63 413.972 1716.79 417.956 1711.16 C 422.404 1704.87 432.71 1701.92 439.424 1698.43 C 444.631 1695.72 449.46 1692.29 454.535 1689.35 C 460.012 1686.17 465.998 1683.9 471.452 1680.7 C 479.579 1675.93 491.77 1665.63 496.794 1657.52 C 496.808 1655.84 496.74 1653.95 497.061 1652.3 C 498.498 1644.88 632.093 1535.02 651.657 1519.09 C 645.192 1497.86 635.439 1477.27 628.285 1456.15 C 616.144 1420.3 607.408 1383.21 599.452 1346.24 C 591.054 1342.02 583.338 1337.73 576.268 1331.47 C 576.819 1324.26 578.201 1317.07 579.517 1309.96 C 605.212 1171.1 715.675 972.596 832.783 891.896 C 819.437 888.955 806.886 884.265 797.025 874.427 C 787.012 864.438 782.105 851.365 782.332 837.294 C 782.544 824.091 787.507 812.324 797.113 803.189 C 813.563 787.545 840.169 781.961 862.151 782.098 C 862.439 778.697 862.708 775.257 863.306 771.895 C 868.14 744.753 888.824 721.06 910.786 705.69 C 934.302 689.233 966.428 682.473 994.65 687.54 C 1018.89 691.891 1044.16 706.692 1058.11 727.252 C 1070.42 745.384 1070.39 762.779 1066.29 783.497 C 1076.79 780.256 1086.99 777.696 1095.26 769.927 C 1112.41 753.8 1116.66 735.953 1117.65 713.31 C 1110.97 705.8 1106.75 697.273 1105.39 687.25 C 1103.59 673.64 1107.46 659.887 1116.1 649.214 C 1126.97 635.605 1146.03 626.865 1163.13 624.802 L 1163.41 624.027 L 1163.91 622.742 C 1170.12 606.447 1182.37 592.835 1194.23 580.371 C 1198.63 575.752 1203.65 571.243 1207.3 566.005 C 1205.9 561.502 1204.84 557.057 1203.89 552.447 C 1189.83 550.459 1177.67 546.77 1166.26 537.985 C 1130.27 510.269 1118.17 444.143 1112.51 401.001 z"/>
<path transform="translate(0,0)" fill="rgb(255,255,255)" d="M 1674.63 1052.16 C 1683.33 1124.08 1687.56 1196.65 1692.84 1268.88 C 1694.06 1286.02 1695.17 1303.17 1696.17 1320.32 C 1696.92 1332.42 1697.03 1344.94 1699.73 1356.81 C 1704.62 1378.29 1714.57 1399.8 1722.03 1420.56 C 1743.61 1479.34 1765.6 1537.97 1788.01 1596.45 C 1794.99 1614.59 1804.64 1631.96 1810.84 1650.24 C 1774.5 1670.32 1749.08 1682.21 1706.29 1679.76 C 1688.01 1645.12 1667.16 1611.45 1647.45 1577.6 C 1628.65 1545.15 1610.44 1512.38 1592.82 1479.28 C 1578.78 1453.32 1561.41 1425.25 1552.86 1397.03 C 1543.75 1366.92 1492.8 1145.44 1489.85 1141.63 C 1487.37 1141.14 1487.48 1141.2 1485.31 1142.54 C 1480.07 1151.28 1487.05 1169.74 1489.43 1179.25 L 1528.78 1340.17 C 1534.96 1364.4 1539.88 1390.66 1549.41 1413.78 C 1558.79 1436.55 1571.33 1458.42 1582.92 1480.13 C 1605.17 1521.84 1628.03 1562.81 1651.88 1603.64 C 1663.49 1623.51 1676.54 1643.45 1686.78 1664 C 1684.85 1664.98 1683.36 1664.86 1681.25 1664.53 C 1665.48 1662.1 1649.67 1658.01 1634.01 1654.82 C 1608.89 1649.62 1583.62 1645.19 1558.24 1641.53 L 1519.92 1525.81 C 1514.04 1508.4 1502.01 1481.36 1499.74 1464 C 1497.01 1443.03 1499.79 1419.46 1500.36 1398.26 C 1501.01 1373.28 1501.25 1348.28 1501.06 1323.29 C 1501.07 1295.09 1501.5 1266.69 1496.04 1238.89 C 1493.03 1223.59 1487.67 1209.19 1483.02 1194.36 C 1480.16 1185.26 1478.53 1175.67 1474.59 1166.96 C 1479.97 1159.06 1481.13 1153.69 1479.38 1144.17 C 1477.61 1134.61 1474.32 1125.33 1472.52 1115.73 C 1489.47 1116.81 1506.26 1117.84 1523.24 1116.61 C 1573 1113 1628.1 1093.86 1666.05 1060.53 C 1669.08 1057.92 1671.94 1055.12 1674.63 1052.16 z"/>
<path transform="translate(0,0)" fill="rgb(230,230,229)" d="M 1558.24 1641.53 C 1583.62 1645.19 1608.89 1649.62 1634.01 1654.82 C 1649.67 1658.01 1665.48 1662.1 1681.25 1664.53 C 1683.36 1664.86 1684.85 1664.98 1686.78 1664 C 1691.21 1671.78 1697.25 1686.11 1706.32 1688.72 C 1715.14 1691.25 1727.94 1689.09 1737.21 1688.98 C 1741.48 1692.76 1746.23 1696.48 1750.06 1700.68 C 1733.45 1720.28 1671.98 1783.82 1673.84 1807.2 C 1674.13 1810.83 1675.64 1813.9 1678.56 1816.08 C 1687.45 1822.7 1707.71 1818.7 1717.89 1816.74 C 1758.56 1808.9 1828.13 1773.4 1851.75 1737.87 C 1853.33 1735.49 1854.73 1733 1856.12 1730.51 C 1852.62 1714.84 1842.5 1701.67 1835.77 1687.34 C 1850.56 1684.9 1897.64 1713.71 1909.62 1722.38 C 1926.56 1734.63 1944.15 1751.46 1947.39 1773.13 C 1949.99 1790.5 1945.34 1806.32 1934.93 1820.27 C 1896.88 1871.23 1789.16 1893.59 1729.02 1901.77 C 1619.99 1916.6 1520.63 1917.77 1411.22 1907.63 C 1389.69 1905.68 1368.26 1902.81 1346.97 1899.03 C 1333.27 1896.61 1318.8 1891.66 1304.89 1891.65 C 1305.63 1875.95 1307.91 1860.77 1307.28 1844.93 C 1307.06 1839.39 1306.68 1833.54 1302.3 1829.67 C 1301.35 1828.84 1300.16 1827.98 1299.38 1826.97 C 1296.93 1823.78 1297.9 1816.83 1297.98 1812.97 C 1304.58 1810.66 1312.78 1808.99 1317.98 1804.07 C 1319.14 1802.97 1320.01 1801.68 1320.35 1800.09 C 1323.04 1787.42 1320.01 1754.1 1320.42 1738.81 C 1374.97 1741.55 1424.3 1737.65 1475.74 1718.13 C 1485.99 1737.16 1493.02 1759.78 1506.47 1776.68 C 1511.19 1777.32 1515.96 1777.72 1520.7 1778.19 C 1525.23 1784.42 1528.4 1790.89 1531.22 1798.02 C 1507.74 1806.86 1451.01 1834.01 1437.38 1855.21 C 1434.63 1859.49 1431.19 1866.54 1432.95 1871.77 C 1433.66 1873.88 1435.4 1875.64 1437.32 1876.7 C 1443.48 1880.09 1453.53 1879.94 1460.42 1880.33 C 1498.83 1882.85 1537.38 1878.7 1574.37 1868.06 C 1585.66 1864.82 1624.18 1853.19 1628.6 1841.8 C 1631.76 1833.67 1613.54 1792.02 1607.51 1785.92 C 1605.07 1783.45 1600.17 1783.12 1598.46 1780.33 C 1595.34 1775.27 1593.18 1768.53 1590.62 1763.08 C 1592.14 1761.58 1593.6 1760.04 1595.07 1758.49 C 1595.56 1757.18 1595.78 1756.17 1595.5 1754.77 C 1593.13 1742.87 1587.65 1730.51 1583.83 1718.88 C 1575.54 1693.02 1567 1667.23 1558.24 1641.53 z"/>
<path transform="translate(0,0)" fill="rgb(255,255,255)" d="M 1473.65 1198.81 C 1477.46 1202.4 1478.87 1211.02 1480.29 1216 C 1472.89 1221.41 1464.92 1226.06 1457.68 1231.7 C 1452.46 1235.76 1446.01 1241.86 1445.49 1248.85 C 1444.6 1260.78 1454.25 1294.15 1462.7 1302.78 C 1469.81 1310.04 1481.93 1310.71 1491.46 1310.43 C 1491.96 1359.94 1491.36 1409.45 1489.68 1458.93 C 1482.18 1460.59 1471.14 1459.5 1464.78 1463.97 C 1463.85 1466.3 1463.63 1466.38 1464.38 1468.74 C 1470.39 1472.95 1483.25 1470.05 1490.33 1469.36 C 1504.88 1506.42 1516.54 1545.16 1529.14 1582.94 L 1586.34 1754.63 C 1561.77 1768.66 1539.24 1770.77 1511.5 1768.77 L 1429.08 1604.88 C 1418.08 1583.04 1404.77 1561.41 1395.07 1539.06 C 1387.96 1522.66 1382.85 1505.29 1377.17 1488.35 C 1371.02 1469.77 1364.25 1451.39 1356.88 1433.26 C 1374.76 1396.53 1401.7 1364.25 1417.11 1326.22 C 1421.21 1316.09 1429.05 1298.79 1424.46 1287.97 C 1422.2 1286.17 1422.13 1286.36 1419.22 1286.49 C 1416.27 1292.47 1415.26 1300.86 1413.55 1307.39 C 1411.61 1314.79 1409.05 1321.67 1406.01 1328.69 C 1391.51 1361.67 1369.08 1391.72 1350.67 1422.63 C 1338.8 1442.56 1329.01 1464.23 1316.63 1483.74 C 1311.19 1492.32 1296.96 1495.86 1293.24 1505.7 C 1293.97 1508.05 1293.92 1507.97 1296.06 1509.2 C 1303.29 1508.54 1310.39 1500.79 1315.82 1496.22 C 1311.66 1528.59 1313.15 1563.27 1312.76 1595.95 C 1312.26 1638.84 1310.8 1681.68 1310.7 1724.59 C 1310.64 1748.84 1312.69 1774.55 1309.99 1798.55 C 1280.45 1810.31 1253.1 1807.19 1223.36 1797.5 C 1220.6 1781.62 1219.27 1765.48 1217.5 1749.46 L 1207.67 1659.49 C 1202.77 1618.09 1197.58 1576.83 1193.46 1535.33 C 1191.71 1517.72 1188.08 1498.26 1189.8 1480.63 C 1191.95 1458.58 1198.41 1436.04 1203.11 1414.35 C 1213.04 1368.59 1223.74 1322.91 1231.92 1276.8 C 1315 1276.27 1410.48 1255.48 1473.65 1198.81 z"/>
<path transform="translate(0,0)" fill="rgb(3,6,34)" d="M 1391.96 1267.18 C 1394.24 1267.79 1395.47 1268.33 1397.28 1269.86 C 1401.39 1280.89 1396.41 1299.44 1392.55 1310.09 C 1387.58 1323.8 1377.52 1350.07 1363.13 1356.31 C 1350.57 1361.75 1330.44 1361.19 1317.79 1356.25 C 1310.91 1353.57 1306.02 1348.91 1303.15 1342.09 C 1295.46 1323.92 1299.75 1304.41 1306.47 1286.75 C 1309.13 1280.21 1310.98 1276.25 1316.85 1271.97 C 1317.51 1272.93 1318.54 1273.72 1318.82 1274.85 C 1320.75 1282.51 1302.45 1309.2 1308.96 1332.38 C 1310.78 1338.87 1314.82 1344.33 1320.81 1347.52 C 1333.01 1354.02 1349.69 1350.99 1362.33 1347.22 C 1375.11 1331.69 1384.74 1311.28 1387.99 1291.37 C 1389.26 1283.65 1389.46 1275.73 1391.65 1268.19 C 1391.75 1267.86 1391.86 1267.52 1391.96 1267.18 z"/>
<path transform="translate(0,0)" fill="url(#Gradient3)" d="M 1311.41 859.257 L 1312.42 859.37 C 1315.62 865.184 1321.61 868.348 1324.96 873.944 C 1324.42 875.781 1323.43 878.273 1323.8 880.213 C 1324.72 885.133 1329.39 890.78 1333.26 893.721 C 1349.48 906.038 1371.16 901.788 1389.6 898.902 C 1398.45 915.148 1404.04 934.409 1410.44 951.765 C 1429.49 1003.42 1448.11 1055.85 1461.32 1109.33 C 1465.14 1124.77 1469.35 1140.5 1471.12 1156.34 C 1468.97 1160.12 1466.58 1163.43 1463.55 1166.57 C 1452.68 1177.84 1437.67 1186.32 1423.9 1193.47 C 1368.86 1222.04 1303.43 1238.52 1241.41 1240 C 1232.89 1240.2 1223.48 1239.05 1217.24 1232.61 C 1197.44 1212.2 1199.11 1103.15 1198.99 1070.96 C 1235.15 1038.86 1277.78 990.167 1286.87 941.23 C 1287 938.645 1287.24 936.479 1286.06 934.075 C 1285.21 932.337 1284.43 930.838 1283.7 929.034 C 1284.24 927.881 1285.06 926.401 1285.35 925.124 C 1286.37 920.711 1281.9 913.512 1279.53 909.752 C 1277.05 905.801 1272.61 899.839 1267.84 898.724 C 1257.06 901.123 1259.74 895.968 1255.92 895.727 C 1250.53 895.387 1248.36 898.154 1243.05 895.661 C 1241.78 895.063 1241.99 894.845 1240.69 895.21 C 1232.84 897.419 1226.04 909.784 1221.97 916.31 C 1218.78 916.107 1215.17 915.888 1212.06 916.792 C 1209.36 917.577 1207.64 919.08 1206.35 921.545 C 1197.29 938.787 1212.44 971.391 1218.4 987.809 C 1192.96 1021.63 1158.27 1055.27 1121.4 1076.26 C 1092.03 1092.97 1062.46 1104.17 1028.82 1108.85 C 1019.08 1110.21 1007.93 1111.78 998.337 1108.84 C 991.309 1106.69 986.396 1102 983.052 1095.54 C 979.092 1087.9 968.962 1058.37 973.655 1050.2 C 977.581 1043.36 1011.51 1037.4 1020.75 1034.52 C 1030.31 1031.54 1040.51 1027.99 1049.38 1023.35 C 1088.09 1003.15 1118.25 972.62 1144.65 938.369 C 1157.04 922.288 1167.78 901.195 1185.92 890.876 C 1207.31 878.713 1234.09 876.152 1257.79 871.157 C 1275.7 867.381 1293.55 863.265 1311.41 859.257 z"/>
<path transform="translate(0,0)" fill="rgb(60,83,112)" d="M 664.711 1378.31 C 720.978 1393.83 780.459 1402.34 838.636 1393.99 C 839.895 1413.8 842.496 1433.72 844.383 1453.49 C 847.253 1482.84 849.574 1512.23 851.347 1541.67 C 852.511 1559.55 855.317 1580.66 852.711 1598.4 C 852.01 1603.17 849.199 1607.61 846.717 1611.69 C 830.508 1638.27 811.319 1663.86 793.526 1689.43 L 702.181 1820.99 C 696.905 1828.66 691.436 1836.2 685.777 1843.6 C 666.611 1840.68 645.919 1831.9 630.896 1819.64 C 642.287 1789.97 655.444 1760.53 667.714 1731.18 C 676.677 1709.73 684.808 1687.95 693.759 1666.52 C 705.832 1637.61 718.933 1608.97 731.421 1580.23 C 738.851 1582.42 749.49 1587.13 756.999 1584.85 C 758.964 1582.85 758.83 1582.59 759.159 1579.76 C 756.306 1574.48 740.376 1573.57 734.21 1570.89 C 733.877 1570.75 733.55 1570.59 733.22 1570.44 C 724.86 1555.67 718.943 1538.89 712.8 1523.1 C 694.312 1475.56 679.833 1426.96 664.711 1378.31 z"/>
<path transform="translate(0,0)" fill="rgb(255,255,255)" d="M 1569.69 660.663 C 1577.53 666.979 1585.25 690.789 1589.34 700.739 C 1613.66 760.213 1635.14 820.807 1653.72 882.316 C 1660.74 905.393 1669.27 929.125 1672.44 953.068 C 1674.49 968.552 1672.28 980.404 1662.47 992.914 C 1633.54 1029.83 1567.99 1052.14 1523.02 1057.84 C 1501.58 1061.36 1478.72 1062.13 1457.17 1059.77 C 1452.62 1044.33 1447.72 1029 1442.48 1013.79 C 1438.52 1002.36 1433.3 990.371 1431.13 978.48 C 1427.79 960.151 1429.94 919.475 1430.01 898.771 C 1447.21 896.984 1464.57 894.507 1480.79 888.233 C 1517.29 874.107 1543.89 838.895 1559.09 803.994 C 1577.91 760.802 1587.13 705.408 1569.69 660.663 z"/>
<path transform="translate(0,0)" fill="url(#Gradient2)" d="M 1522.17 916.567 C 1527.51 917.558 1532.44 921.032 1537.03 923.799 C 1554.9 934.567 1572.41 944.595 1592.43 951.011 C 1599.36 953.231 1606.83 954.005 1613.66 956.386 C 1617.61 957.763 1620.96 959.345 1622.81 963.326 C 1623.04 969.472 1616.35 992.811 1612.08 997.056 C 1610.11 999.021 1608.34 998.786 1605.76 998.948 C 1573.25 994.307 1533.92 980.7 1509.45 957.922 C 1506.05 954.759 1502.98 951.186 1503.02 946.292 C 1503.11 936.881 1515.77 922.848 1522.17 916.567 z"/>
<path transform="translate(0,0)" fill="rgb(255,255,255)" d="M 1524.36 926.415 C 1559.25 948.065 1573.66 955.348 1613.98 965.196 C 1612.57 971.585 1609.46 985.828 1604.78 990.038 C 1573.28 984.831 1534.54 970.62 1511.84 947.351 C 1515.64 940.211 1520.17 933.337 1524.36 926.415 z"/>
<path transform="translate(0,0)" fill="rgb(255,255,255)" d="M 887.183 871.789 C 886.949 868.388 886.247 864.117 886.947 860.813 C 888.02 855.752 895.856 841.734 894.622 837.894 C 888.234 834.95 884.71 831.045 881.148 825.097 C 871.457 808.915 868.5 787.982 873.372 769.766 C 880.454 743.282 901.285 721.303 924.74 708.098 C 947.141 695.487 975.202 691.275 1000.07 698.459 C 1021.13 704.542 1044.24 719.93 1054.62 739.705 C 1060.61 751.135 1061.73 761.828 1058.13 774.055 C 1054.09 769.277 1049.85 764.507 1046.28 759.355 C 1041.71 752.771 1034.86 735.652 1027.95 732.682 C 1023.41 735.567 1024.92 748.936 1023.27 754.361 C 1018.3 770.753 1003.85 781.067 989.56 788.788 C 998.946 778.116 1006.12 766.622 1010.85 753.176 C 1013.25 746.334 1018.23 730.087 1014.45 723.622 C 1013.69 722.32 1012.74 722.514 1011.39 722.202 C 1006.35 724.884 1003.04 744.324 1000.99 750.288 C 999.522 754.561 997.459 758.713 995.376 762.716 C 983.453 785.633 963.907 802.774 939.307 810.573 L 941.335 810.896 L 940.764 811.732 C 936.049 812.55 925.258 813.158 921.98 816.874 C 921.135 817.832 920.749 819.445 920.371 820.637 C 920.609 820.432 920.843 820.222 921.087 820.023 C 922.004 819.273 924.31 817.34 925.355 817.001 C 928.573 815.956 934.189 816.798 937.703 816.423 C 944.925 815.653 952.816 812.475 959.521 809.735 L 959.97 811.253 C 970.686 807.208 982.105 800.867 992.788 796.182 C 1010.16 788.566 1026.39 776.149 1033.47 758.009 C 1040.12 767.74 1048.04 776.187 1056.14 784.691 C 1054.39 794.304 1056.62 804.494 1056.93 814.21 C 1057.76 840.328 1047.74 869.221 1034.61 891.499 C 1028.98 901.05 1020.96 912.712 1009.48 915.287 C 993.514 918.867 977.619 907.934 964.444 900.455 C 954.578 894.854 948.469 883.11 938.578 878.171 C 936.5 877.133 936.431 877.05 934.168 877.869 C 933.832 879.068 933.71 879.265 933.675 880.656 C 933.518 886.833 940.496 892.234 944.496 896.094 C 922.099 889.417 900.335 891.511 877.318 890.739 C 882.343 887.906 888.976 885.002 892.713 880.554 C 892.984 880.23 893.233 879.887 893.502 879.561 C 899.806 871.915 908.2 856.302 908.384 846.19 C 908.424 844.006 907.855 843.741 906.42 842.282 L 904.043 842.371 C 897.231 847.314 892.872 863.762 887.183 871.789 z"/>
<path transform="translate(0,0)" fill="rgb(3,6,34)" d="M 939.307 810.573 L 941.335 810.896 L 940.764 811.732 C 936.049 812.55 925.258 813.158 921.98 816.874 C 921.135 817.832 920.749 819.445 920.371 820.637 C 920.609 820.432 920.843 820.222 921.087 820.023 C 922.004 819.273 924.31 817.34 925.355 817.001 C 928.573 815.956 934.189 816.798 937.703 816.423 C 944.925 815.653 952.816 812.475 959.521 809.735 L 959.97 811.253 L 958.93 811.816 C 954.977 813.913 950.791 815.789 946.409 816.796 C 938.714 818.566 924.475 815.513 921.488 825.246 C 920.46 828.597 921.383 833.394 921.723 836.808 L 917.03 840.129 C 917.036 837.057 915.881 834.025 915.737 830.938 C 915.508 826.068 916.703 819.418 920.113 815.748 C 924.93 810.566 932.833 810.904 939.307 810.573 z"/>
<path transform="translate(0,0)" fill="rgb(0,1,12)" d="M 917.03 840.129 L 921.723 836.808 L 922.081 838.076 C 923.033 841.339 923.601 843.46 926.072 845.835 C 928.754 846.766 933.069 846.468 934.77 848.492 C 934.491 850.628 934.697 851.444 933.326 853.174 C 930.32 854.245 927.729 853.332 924.974 851.95 C 920.574 849.744 919.107 847.124 917.728 842.526 L 917.03 840.129 z"/>
<path transform="translate(0,0)" fill="rgb(3,6,34)" d="M 993.085 867.865 C 1008.67 872.645 1016.91 871.473 1032.08 872.958 L 1032.84 874.421 C 1031.52 877.633 1028.88 879.875 1026.49 882.315 C 1022.98 884.764 1019 887.202 1014.67 887.697 C 1009.66 888.269 1004.04 886.649 1000.25 883.305 C 995.772 879.349 993.5 873.7 993.085 867.865 z"/>
<path transform="translate(0,0)" fill="rgb(3,6,34)" d="M 1016.47 814.744 C 1017.87 814.815 1019.48 814.798 1020.8 815.351 C 1023.22 816.366 1024.79 819.346 1025.41 821.757 C 1026.94 827.701 1024.8 833.633 1021.8 838.681 C 1019.93 838.501 1018.05 838.167 1016.54 836.936 C 1014.1 834.95 1012.96 830.948 1012.8 827.905 C 1012.55 823.407 1013.33 818.097 1016.47 814.744 z"/>
<path transform="translate(0,0)" fill="rgb(2,15,43)" d="M 1045.79 801.613 C 1046.89 801.96 1048.51 802.354 1049.52 802.996 C 1052.08 804.628 1053.68 807.569 1054.09 810.541 C 1054.79 815.493 1053.19 819.295 1050.22 823.132 C 1049.09 822.883 1047.52 822.646 1046.45 822.139 C 1044.26 821.108 1043.07 818.958 1042.53 816.668 C 1041.32 811.519 1043.08 805.981 1045.79 801.613 z"/>
<path transform="translate(0,0)" fill="rgb(60,83,112)" d="M 611.24 1355.38 C 625.769 1360.85 640.027 1369.06 654.359 1375.35 C 655.637 1386.79 659.518 1398.61 662.672 1409.68 C 672.814 1445.28 685.571 1479.81 698.797 1514.36 C 706.331 1534.04 713.243 1554.89 723.281 1573.46 C 714.254 1592.8 706.154 1612.52 697.244 1631.89 C 652.114 1660.02 593.849 1685.41 545.438 1709.15 C 529.814 1702.86 513.628 1671.56 506.772 1656.75 C 519.455 1643.19 534.213 1631.26 548.272 1619.16 C 573.53 1597.5 598.967 1576.04 624.58 1554.8 C 633.467 1547.37 647.888 1532.73 657.029 1527.77 C 665.53 1523.17 673.967 1525.96 682.257 1522.85 C 683.208 1520.57 683.089 1520.43 682.467 1518.01 C 677.11 1512.76 668.556 1513.36 661.495 1512.74 C 651.884 1496.34 646.006 1476.75 640.254 1458.68 C 629.397 1424.58 620.396 1389.96 611.24 1355.38 z"/>
<path transform="translate(0,0)" fill="rgb(60,83,112)" d="M 1180.35 632.702 C 1193.15 622.528 1206.15 618.574 1222.43 620.537 C 1247.75 623.59 1277.97 642.543 1293.58 662.552 C 1308.74 681.995 1315.57 708.352 1312.36 732.757 C 1309.29 756.136 1296.97 776.343 1278.09 790.412 C 1267.39 798.384 1248.74 806.377 1235.22 804.61 C 1233.53 804.389 1231.86 803.899 1230.24 803.396 L 1229.87 802.27 C 1235.36 792.392 1249.71 772.511 1246.76 760.797 C 1246.26 758.829 1245.61 758.744 1244.11 757.517 L 1241.63 757.282 C 1236.56 763.01 1233.86 775.493 1230.41 782.829 C 1227.34 789.36 1223.56 795.406 1219.63 801.443 C 1211.2 793.132 1207.14 786.111 1203.82 774.751 C 1202.88 771.557 1202.14 768.165 1200.59 765.202 C 1199.72 763.539 1200.06 763.335 1197.99 763.245 C 1196.67 763.188 1194.36 764.223 1193.05 764.632 C 1191 767.872 1191.81 770.536 1192.62 774.138 C 1196.12 789.737 1201.35 799.458 1213.01 810.224 C 1197.5 805.217 1187.81 794.451 1180.47 780.138 C 1170.64 760.96 1179.02 746.827 1175.33 738.232 C 1174.95 737.335 1173.22 735.862 1172.52 735.066 L 1170.52 734.774 C 1166.71 738.234 1166.25 746.535 1166.06 751.526 C 1165.91 755.707 1166.04 759.921 1166.14 764.102 L 1163.03 761.737 C 1164.28 755.349 1159.23 749.98 1155.79 744.846 L 1154.29 742.611 C 1154.88 732.173 1161.21 710.681 1159.8 703.602 L 1157.9 702.982 C 1153.51 706.633 1150.94 711.083 1148.29 716.06 C 1141.2 700.24 1144.03 691.803 1144.96 675.591 C 1129.41 683.97 1130.71 691.439 1122.67 705.337 C 1116.05 694.815 1112.01 684.337 1114.69 671.681 C 1117.29 659.427 1125.71 649.933 1136.15 643.49 C 1149.03 635.541 1165.29 631.062 1180.35 632.702 z"/>
<path transform="translate(0,0)" fill="rgb(255,255,255)" d="M 1516.66 635.162 C 1525.49 634.714 1532.13 634.892 1540.14 639.35 C 1553.9 647.006 1562.53 661.977 1566.44 676.813 C 1577.08 717.194 1563.68 781.322 1542.54 817.112 C 1521.02 853.539 1499.59 874.927 1458.12 885.681 C 1449.02 886.972 1440.21 887.996 1431.02 888.274 C 1432.21 885.106 1433.42 881.793 1434.14 878.484 C 1438.88 856.628 1429.21 830.024 1417.91 811.697 C 1429.19 804.062 1435.39 809.735 1445.03 805.606 C 1447.31 804.633 1447.99 803.622 1448.97 801.429 C 1447.84 798.964 1444.57 798.026 1442.22 796.592 C 1446.71 784.086 1455.83 773.349 1460.28 760.492 C 1465.87 744.352 1470.62 727.853 1475.13 711.382 C 1480.35 692.307 1484.77 672.36 1494.3 654.856 C 1499.78 644.796 1505.54 638.461 1516.66 635.162 z"/>
<path transform="translate(0,0)" fill="rgb(255,255,255)" d="M 1343.12 384.47 C 1346.68 379.763 1357.42 376.245 1363.03 375.513 C 1380.58 373.221 1397.46 379.8 1411.17 390.367 C 1414.75 391.281 1416.51 393.316 1418.32 396.489 C 1422.26 403.418 1421.01 416.851 1424.73 421.226 C 1428 420.883 1429.73 418.973 1432.6 418.12 C 1437.41 416.692 1454.93 421.634 1458.74 424.88 C 1463.12 428.607 1469.13 436.236 1469.72 442.173 C 1470.01 445.027 1466.41 448.81 1464.75 450.983 C 1464.71 451.619 1464.37 453.174 1464.81 453.651 C 1472.76 462.397 1486.39 464.953 1486.03 479.705 C 1485.92 484.281 1483.16 487.999 1479.85 490.897 C 1476.96 493.428 1472.82 495.926 1471.22 499.471 C 1472.55 504.445 1474.96 507.591 1474.37 512.955 L 1473.56 512.95 L 1472.84 508.507 C 1471.72 514.787 1470.56 520.238 1466.95 525.673 C 1460.57 535.264 1450.27 537.621 1439.71 539.876 L 1440.75 536.015 C 1442.67 528.913 1444.14 521.204 1441.83 513.974 C 1440.73 510.551 1438.51 507.59 1435.13 506.131 C 1426.82 502.545 1418.11 507.092 1410.45 510.181 C 1389.66 505.119 1371.29 491.443 1352.45 486.645 C 1346.43 485.111 1340.11 485.024 1334.76 488.564 C 1326.18 494.238 1324.57 505.725 1322.58 514.963 C 1317.92 502.526 1307.12 492.582 1303.33 480.465 C 1300.7 472.046 1303.41 467.728 1307.22 460.384 C 1313.05 467.118 1318.64 472.148 1327.32 475.093 C 1332.39 476.815 1342.73 478.761 1347.52 475.234 C 1349.61 473.695 1349.59 472.992 1349.85 470.62 C 1348.87 468.399 1348.83 466.693 1346.12 466.316 C 1341.44 465.666 1336.55 466.872 1331.68 466.052 C 1318.34 463.804 1316.22 452.687 1306.64 446.442 C 1300.36 446.59 1294.98 462.034 1288.74 466.742 C 1276.88 475.697 1261.11 473.464 1247.44 471.202 C 1250.31 458.29 1254.5 446.789 1260.82 435.147 C 1272.68 413.297 1289.44 391.131 1314.56 384.224 C 1324.46 381.502 1333.23 381.324 1342.25 386.43 L 1343.12 384.47 z"/>
<path transform="translate(0,0)" fill="rgb(0,1,12)" d="M 1411.17 390.367 C 1414.75 391.281 1416.51 393.316 1418.32 396.489 C 1422.26 403.418 1421.01 416.851 1424.73 421.226 C 1428 420.883 1429.73 418.973 1432.6 418.12 C 1437.41 416.692 1454.93 421.634 1458.74 424.88 C 1463.12 428.607 1469.13 436.236 1469.72 442.173 C 1470.01 445.027 1466.41 448.81 1464.75 450.983 C 1464.71 451.619 1464.37 453.174 1464.81 453.651 C 1472.76 462.397 1486.39 464.953 1486.03 479.705 C 1485.92 484.281 1483.16 487.999 1479.85 490.897 C 1476.96 493.428 1472.82 495.926 1471.22 499.471 C 1472.55 504.445 1474.96 507.591 1474.37 512.955 L 1473.56 512.95 L 1472.84 508.507 C 1471.73 506.417 1470.64 503.053 1468.54 501.993 C 1466.91 504.969 1465.53 508.071 1464 511.099 C 1461.26 516.514 1457.33 524.165 1451.28 526.173 C 1448.55 525.253 1448.62 524.833 1447.07 522.336 C 1447.81 520.517 1447.33 521.186 1448.8 519.766 C 1457.17 511.668 1457.42 504.405 1463.46 495.403 C 1466.37 493.684 1467.3 494.398 1470.55 494.991 C 1474.24 493.777 1477.47 490.757 1479.77 487.675 C 1482.49 484.029 1484.13 479.292 1483.17 474.738 C 1481.07 464.748 1468.71 459.327 1461.12 454.042 C 1464.18 449.768 1466.45 446.737 1466.89 441.386 C 1467.21 437.475 1466.67 434.308 1463.93 431.348 C 1452.77 419.296 1436.59 422.467 1422.33 422.243 C 1420.3 418.347 1421.84 414.746 1421.21 410.519 C 1420.1 402.945 1415.53 396.435 1411.17 390.367 z"/>
<path transform="translate(0,0)" fill="url(#Gradient1)" d="M 1343.12 384.47 C 1346.68 385.637 1348.57 385.835 1351.11 388.667 C 1351.12 391.346 1350.86 392.471 1348.92 394.443 C 1339.21 404.337 1322.61 405.52 1311.88 413.459 C 1306.46 417.475 1303.57 424.17 1297.51 427.633 L 1295.28 427.4 C 1293.76 425.126 1293.72 424.973 1293.82 422.241 C 1301.49 407.611 1342.22 392.96 1342.76 388.928 C 1342.87 388.086 1342.42 387.263 1342.25 386.43 L 1343.12 384.47 z"/>
<path transform="translate(0,0)" fill="rgb(0,1,12)" d="M 1436.78 437.108 C 1438.55 437.543 1440.41 438.061 1441.96 439.055 C 1446.94 442.233 1449.76 449.516 1450.55 455.099 C 1451.74 463.505 1450.51 469.959 1445.5 476.78 C 1444.89 476.547 1444.27 476.373 1443.69 476.082 C 1438.05 473.238 1443.92 463.634 1443.72 458.827 C 1443.45 452.128 1437.94 445.617 1435.61 439.411 L 1436.78 437.108 z"/>
<path transform="translate(0,0)" fill="rgb(0,1,12)" d="M 1411.08 416.322 C 1413.76 417.057 1415.22 418.327 1416.82 420.527 C 1416.58 421.062 1416.56 421.765 1416.11 422.133 C 1414.6 423.354 1397.35 426.051 1393.7 427.273 C 1388.74 428.934 1384.31 431.577 1379.81 434.198 L 1376.66 434.521 L 1374.8 432.482 C 1374.92 430.865 1374.69 430.6 1375.81 429.265 C 1382.22 421.611 1401.46 417.418 1411.08 416.322 z"/>
<path transform="translate(0,0)" fill="rgb(255,255,255)" d="M 1140.82 837.921 C 1142.05 837.875 1143.28 837.846 1144.51 837.834 C 1151.63 837.792 1153.21 839.731 1158.1 844.615 C 1162.38 843.319 1166.57 841.505 1170.76 839.915 C 1158.67 854.005 1143.76 865.968 1138.44 884.572 C 1134.39 898.717 1137.25 911.077 1144.03 923.669 C 1119.14 957.276 1086.32 995.962 1047.72 1013.26 C 1043.01 1008.93 1038.44 1005.13 1033.06 1001.65 C 1019.48 993.2 1006.01 984.57 992.664 975.759 C 988.516 956.792 988.357 943.582 992.891 924.645 C 1002.43 925.407 1010.65 926.048 1019.53 921.52 C 1041.36 910.382 1053.17 877.728 1059.87 855.986 C 1072.81 860.019 1085.95 861.759 1099.45 862.687 C 1104.99 863.069 1115.9 864.198 1120.08 860.167 C 1121.85 858.466 1123.34 855.222 1125.14 853.808 C 1128.9 850.871 1135.44 852.571 1139.8 848.744 C 1141.39 845.101 1141 841.821 1140.82 837.921 z"/>
<path transform="translate(0,0)" fill="rgb(255,255,255)" d="M 1193.01 378.917 C 1195.54 380.653 1196.8 384.732 1198.12 387.44 C 1211.08 414.07 1221.33 425.478 1248.93 436.99 C 1245.19 445.939 1239.85 456.148 1238.44 465.73 C 1237.86 469.632 1238.29 473.538 1240.79 476.719 C 1244.63 481.588 1251.62 481.857 1257.27 482.692 C 1257.1 486.746 1256.76 491.024 1255.93 495.006 C 1252.61 510.982 1240.16 527.003 1226.35 535.438 C 1213.92 543.026 1202.83 542.927 1189.28 539.412 C 1174.55 534.195 1162.62 523.712 1154.16 510.734 C 1145.96 498.151 1125.43 446.835 1128.42 432.763 C 1132.01 430.848 1135.14 433.474 1138.64 431.227 C 1138.9 429.051 1138.74 428.57 1137.92 426.516 C 1134.43 424.171 1129.15 424.282 1125.04 423.21 C 1122.12 416.737 1121.61 408.035 1120.45 400.983 C 1151.1 397.71 1165.5 392.292 1193.01 378.917 z"/>
<path transform="translate(0,0)" fill="rgb(3,6,34)" d="M 1201.2 489.377 C 1203.65 490.268 1205.71 491.574 1206.7 494.119 C 1207.66 496.579 1207.12 498.582 1206.02 500.884 C 1203.85 505.388 1198.01 508.791 1193.45 510.275 C 1184.74 513.11 1176.77 511.684 1168.71 507.75 C 1167.29 505.345 1166.76 504.595 1166.97 501.701 C 1167.15 499.205 1167.96 496.731 1169.88 495.094 C 1171.78 495.259 1171.52 494.97 1172.8 495.767 C 1173.86 496.427 1174.89 497.222 1175.92 497.927 C 1180.02 500.715 1184.12 503.404 1189.33 501.871 C 1195.71 499.992 1198.17 494.752 1201.2 489.377 z"/>
<path transform="translate(0,0)" fill="rgb(3,6,34)" d="M 1176.24 430.252 C 1179.08 429.824 1181.08 429.644 1183.96 430.113 C 1186.51 431.726 1188.42 433.172 1189.72 435.985 C 1191.96 440.819 1191.27 446.722 1189.62 451.585 C 1188.11 451.828 1186.55 451.791 1185.02 451.839 C 1182.54 450.782 1180.83 449.888 1179.19 447.675 C 1175.49 442.663 1175.58 436.128 1176.24 430.252 z"/>
<path transform="translate(0,0)" fill="rgb(2,15,43)" d="M 1148.66 454.445 C 1149.78 454.873 1150.65 455.501 1151.65 456.151 C 1153.94 460.636 1164.7 477.327 1164.93 481.051 C 1164.99 482.023 1164.52 482.956 1164.32 483.908 C 1161.95 484.226 1159.41 484.852 1157.19 483.686 C 1153.44 481.722 1149.89 475.557 1148.66 471.654 C 1146.81 465.803 1145.71 460.035 1148.66 454.445 z"/>
<path transform="translate(0,0)" fill="rgb(0,1,12)" d="M 1137.63 437.324 C 1140.82 438.817 1144 442.186 1145.31 445.495 C 1147.51 451.067 1146.15 455.457 1144.06 460.771 C 1142.91 460.304 1141.93 459.96 1140.89 459.254 C 1137.51 456.979 1135.43 451.591 1134.87 447.741 C 1134.18 442.921 1134.87 441.136 1137.63 437.324 z"/>
<path transform="translate(0,0)" fill="rgb(0,1,12)" d="M 1175.78 412.235 C 1178.03 411.876 1180.75 411.455 1183.03 411.811 C 1185.39 412.18 1187.11 413.277 1188.44 415.242 L 1187.81 417.225 C 1185.04 419.276 1181.93 418.983 1178.62 419.104 C 1178.36 419.381 1178.1 419.664 1177.83 419.934 C 1175.37 422.382 1174.42 423.284 1171.01 423.339 L 1169.52 421.567 C 1169.49 420.499 1169.39 419.512 1169.67 418.448 C 1170.47 415.385 1173.3 413.797 1175.78 412.235 z"/>
<path transform="translate(0,0)" fill="rgb(255,255,255)" d="M 1222.22 308.427 C 1241.9 308.742 1260.95 313.773 1275.47 327.848 C 1288.88 340.848 1295.57 363.085 1295.51 381.423 C 1284.62 389.079 1272.69 398.411 1265.14 409.518 C 1262.19 413.862 1259.99 418.684 1257.06 423.03 C 1255.45 425.436 1254.52 427.315 1251.35 427.451 C 1242.11 427.85 1228.5 414.651 1222.51 408.28 C 1211.46 396.515 1200.05 377.434 1200.93 360.814 C 1201.23 355.158 1203.32 351.393 1206.3 346.722 C 1220.79 323.978 1234.84 332.037 1245.92 320.699 C 1247.24 319.347 1246.86 320.004 1246.77 317.911 C 1244.07 315.946 1241.9 315.959 1238.7 315.784 C 1229.08 317.551 1221.11 320.464 1213.21 326.495 C 1199.69 336.814 1194.48 349.673 1192.34 365.941 C 1191.09 367.065 1189.9 368.084 1188.52 369.057 C 1169.33 382.62 1136.93 394.916 1113.21 389.683 C 1098.02 386.333 1089.84 376.874 1082 364.301 C 1114.86 369.249 1137.86 342.133 1163.91 326.912 C 1182.28 316.176 1200.99 309.873 1222.22 308.427 z"/>
<path transform="translate(0,0)" fill="rgb(255,255,255)" d="M 1478.15 581.484 C 1505.77 593.983 1535.36 617.81 1555.99 640.119 C 1552.34 637.437 1548.61 634.476 1544.63 632.312 C 1534.45 626.781 1522.2 623.965 1510.86 627.317 C 1478.59 636.85 1466.98 707.551 1458.29 737.001 C 1454.13 751.068 1449.03 765.138 1442.16 778.122 C 1433.11 795.219 1423.49 801.669 1405.27 807.342 C 1400.98 799.048 1397.04 790.833 1393.51 782.181 C 1379.49 744.004 1368.53 680.849 1379.66 642.366 C 1383.75 653.299 1388.87 686.081 1394.78 692.366 C 1403.31 693.432 1400.97 669.188 1417.23 661.039 L 1418.4 660.466 C 1426.81 668.664 1439.19 699.102 1445.89 701.566 C 1449.45 700.661 1451.51 697.597 1453.31 694.585 C 1461.75 680.504 1482.44 620.86 1482.9 605.465 C 1483.13 597.534 1480.22 589.061 1478.15 581.484 z"/>
<path transform="translate(0,0)" fill="rgb(255,255,255)" d="M 1321.88 1647.97 C 1321.81 1619.09 1323.15 1590.16 1323.6 1561.27 C 1323.89 1542.47 1322.65 1502.41 1326.84 1485.49 C 1329.3 1475.58 1336.79 1465.52 1342.11 1456.83 C 1351.55 1494.03 1361.42 1531.13 1371.7 1568.11 C 1375.99 1583.81 1380.73 1606.67 1386.67 1621.2 C 1387.23 1622.58 1387.83 1623.52 1389.15 1624.3 C 1390.31 1625 1391.18 1625.34 1392.4 1625.88 C 1396.31 1630.63 1397.64 1639.64 1400.44 1645.49 C 1396.56 1648.67 1392.77 1652.01 1388.43 1654.56 C 1369.52 1671.55 1344.5 1680.45 1320.99 1689.01 C 1320.89 1675.45 1320.4 1661.46 1321.88 1647.97 z"/>
<path transform="translate(0,0)" fill="rgb(230,230,229)" d="M 1321.88 1647.97 C 1322.31 1653.33 1322.4 1658.53 1322.28 1663.9 C 1340.93 1659.68 1369.89 1651.66 1388.43 1654.56 C 1369.52 1671.55 1344.5 1680.45 1320.99 1689.01 C 1320.89 1675.45 1320.4 1661.46 1321.88 1647.97 z"/>
<path transform="translate(0,0)" fill="rgb(255,255,255)" d="M 1394.46 513.137 C 1398.11 514.211 1400.57 516.227 1404.61 516.12 C 1404.78 516.115 1406.82 515.986 1407.06 516.028 C 1410.28 516.58 1407.65 521.408 1409.55 524.374 C 1416.44 524.671 1421.36 512.15 1430.47 512.28 C 1432.94 514.031 1434.02 515.633 1434.5 518.691 C 1438 540.882 1422.06 529.912 1414.88 539.265 C 1414.93 541.701 1415.45 542.539 1416.9 544.467 C 1420.82 545.026 1421.94 542.539 1425.61 542.027 C 1431.67 548.176 1435.56 556.993 1440.1 564.311 C 1443.63 570.009 1447.75 575.396 1451.75 580.775 C 1445.11 602.087 1432.12 622.128 1420.37 640.973 C 1412.98 629.408 1405.8 617.886 1397.76 606.741 C 1403.48 600.16 1406.91 595.007 1408.15 586.268 C 1407.4 585.904 1406.23 585.289 1405.44 585.121 C 1399.48 583.854 1391.33 599.925 1385.74 603.503 C 1374.16 610.909 1359.74 612.411 1346.52 609.503 C 1325.55 604.889 1314.55 592.534 1303.61 575.245 C 1304.17 575.434 1304.72 575.629 1305.28 575.81 C 1311.26 577.733 1318.16 578.67 1323.85 575.473 C 1331.95 570.924 1334.71 558.215 1337.21 549.93 L 1350.89 555.112 C 1384.6 547.701 1376.22 531.575 1391.81 521.202 C 1396.79 524.295 1400.03 526.677 1406.24 525.723 L 1407.15 524.45 C 1406.99 524.03 1406.86 523.598 1406.68 523.189 C 1405.2 519.898 1403.28 517.782 1399.91 516.457 C 1398.24 515.8 1396.99 515.342 1395.6 514.159 C 1395.21 513.826 1394.84 513.477 1394.46 513.137 z"/>
<path transform="translate(0,0)" fill="rgb(3,6,34)" d="M 1370.93 561.851 L 1372.38 563.611 C 1372.4 568.651 1368.96 574.756 1366.83 579.35 C 1364.44 584.51 1360.92 589.449 1355.29 591.283 C 1349.13 593.288 1342.46 590.076 1337.07 587.327 L 1328.78 579.602 C 1348.63 579.303 1356.09 573.398 1370.93 561.851 z"/>
<path transform="translate(0,0)" fill="rgb(2,15,43)" d="M 1423.83 524.306 C 1426.1 524.078 1428.51 523.598 1430.69 524.445 C 1432.08 524.981 1431.68 525.085 1432.23 526.703 C 1431.62 527.741 1431.16 528.644 1430.33 529.552 C 1428.14 531.953 1424.12 532.112 1421.1 532.54 C 1419.92 532.629 1419.23 532.721 1418 532.615 C 1415.62 532.412 1414.31 531.644 1412.79 529.933 L 1413.6 527.79 C 1416.37 524.983 1420.1 524.896 1423.83 524.306 z"/>
<path transform="translate(0,0)" fill="rgb(3,6,34)" d="M 1337.37 555.421 C 1340.17 555.683 1342.94 555.951 1345.28 557.692 C 1347.67 559.462 1347.82 561.81 1348.13 564.488 C 1345.3 565.214 1343.01 566.055 1340.11 565.118 C 1337.72 562.68 1337.77 558.689 1337.37 555.421 z"/>
<path transform="translate(0,0)" fill="rgb(255,255,255)" d="M 1670.14 999.818 C 1670.2 999.863 1670.26 999.901 1670.32 999.953 C 1674.52 1004.11 1675.45 1028.43 1675.6 1035.11 C 1670.82 1043.9 1661.85 1052.34 1654.16 1058.61 C 1604.13 1099.36 1533.13 1111.85 1470.55 1105.72 C 1466.73 1093.78 1463.26 1081.73 1460.12 1069.59 C 1464.04 1069.76 1467.97 1069.87 1471.89 1069.9 C 1544.83 1070.63 1616.75 1052.18 1670.14 999.818 z"/>
<path transform="translate(0,0)" fill="rgb(255,255,255)" d="M 1230.37 551.622 C 1232.9 559.193 1233.91 567.026 1237.3 574.377 C 1241.4 583.261 1249.1 593.148 1258.66 596.409 C 1263.73 598.141 1269.51 597.989 1274.34 595.561 C 1284.41 590.498 1287.4 580.029 1290.35 570.08 C 1295.13 578.582 1300.12 587.112 1306.25 594.728 C 1319.16 610.781 1336.69 618.444 1356.9 620.533 C 1354.55 622.979 1352.24 625.454 1350.16 628.141 C 1320.92 665.955 1327.31 726.949 1333.33 771.694 C 1327.16 769.25 1320.64 767.705 1314.24 765.961 C 1314.19 765.91 1314.13 765.871 1314.1 765.809 C 1312.61 762.428 1318.3 750.341 1319.34 745.94 C 1325.8 717.983 1320.87 688.606 1305.64 664.29 C 1289.48 638.971 1259.18 618.906 1229.93 612.527 C 1208.39 607.831 1192.14 612.6 1173.92 624.442 C 1187.83 591.811 1213.63 581.523 1230.37 551.622 z"/>
<path transform="translate(0,0)" fill="rgb(255,255,255)" d="M 1823.64 1687.03 C 1829.91 1692.96 1834.72 1705.82 1838.82 1713.58 C 1801.8 1755.16 1752.29 1783.6 1697.73 1794.66 C 1693.82 1795.04 1689.72 1794.94 1685.79 1795.06 C 1701.27 1768.22 1736.61 1729.24 1758.69 1705.98 C 1765.99 1707.81 1773.19 1709.39 1780.76 1709.32 C 1799.46 1709.14 1811.13 1699.45 1823.64 1687.03 z"/>
<path transform="translate(0,0)" fill="rgb(255,255,255)" d="M 677.258 1867.07 C 687.319 1869.62 705.84 1886.16 717.126 1891.9 C 734.856 1900.93 754.619 1905.51 771.304 1914.2 C 746.962 1924.2 720.967 1925.65 694.997 1926.26 C 667.09 1926.81 631.535 1921.74 605.7 1911.12 C 607.928 1896.84 609.584 1883.05 615.754 1869.85 C 639.009 1875.25 654.49 1874.23 677.258 1867.07 z"/>
<path transform="translate(0,0)" fill="rgb(255,255,255)" d="M 1362.54 620.498 L 1375.08 620.261 C 1361.05 689.486 1366.26 747.306 1395.96 811.252 C 1388.11 813.341 1380.55 815.744 1373.3 819.44 L 1369.78 817.657 C 1369.84 817.354 1369.97 817.056 1369.95 816.748 C 1369.22 803.379 1352.29 786.441 1343.28 777.616 C 1339.25 738.852 1331.23 682.786 1349.13 647.069 C 1352.66 640.023 1359.14 635.075 1363.03 628.46 C 1364.58 625.821 1363.22 623.245 1362.54 620.498 z"/>
<path transform="translate(0,0)" fill="rgb(255,255,255)" d="M 1406.9 1652.69 C 1420.69 1656.24 1429.51 1658.12 1443.88 1655.98 C 1450.51 1668.73 1456.99 1681.55 1463.31 1694.45 C 1436.27 1705.12 1405.98 1708.73 1377.24 1711.77 C 1358.53 1713.42 1339.72 1713.55 1321 1712.17 L 1321.05 1698.88 C 1352.23 1687.69 1382.14 1675.4 1406.9 1652.69 z"/>
<path transform="translate(0,0)" fill="rgb(255,255,255)" d="M 856.634 791.42 L 860.558 791.188 C 863.65 794.201 864.496 808.252 866.378 813.236 C 871.022 825.537 876.203 835.753 883.797 846.515 C 881.582 850.002 879.311 853.669 878.104 857.641 C 875.688 865.591 877.699 871.399 881.391 878.503 C 873.357 882.68 864.599 886.238 855.366 884.436 C 850.045 883.441 845.4 880.225 842.597 875.594 C 838.026 868.169 837.23 855.525 840.296 847.427 C 841.831 843.37 844.923 838.252 845.272 834 C 845.5 831.214 843.585 830.235 841.784 828.475 C 837.431 831.62 835.041 835.055 833.01 840.024 C 827.149 854.357 829.706 869.787 835.73 883.497 C 831.317 882.16 826.915 880.686 823.169 877.915 C 813.536 870.79 808.182 859.771 806.722 848.057 C 804.968 833.974 808.472 819.188 817.688 808.199 C 828.093 795.793 841.418 793.072 856.634 791.42 z"/>
<path transform="translate(0,0)" fill="rgb(255,255,255)" d="M 470.867 1690.82 C 482.796 1698.64 480.898 1715.13 506.587 1726.89 C 505.425 1758.55 511.763 1790.26 514.318 1821.73 C 508.614 1817.28 503.24 1812.57 497.883 1807.71 C 472.392 1782.76 448.834 1750.47 440.262 1715.37 L 440.615 1714.83 C 448.018 1703.17 459.233 1697.4 470.867 1690.82 z"/>
<path transform="translate(0,0)" fill="rgb(255,255,255)" d="M 1218.26 1825.55 C 1219.29 1825.75 1235.89 1843.85 1250.03 1847.64 C 1267.08 1852.21 1281.99 1846.6 1296.56 1838.22 C 1298.5 1847.9 1297.95 1857.75 1297.69 1867.55 C 1269.98 1872.45 1241.6 1870.38 1213.76 1867.79 C 1188.64 1864.83 1145.34 1858.38 1124.32 1845.43 C 1121.99 1844 1119.59 1842.36 1118.99 1839.64 C 1122.15 1837.05 1128.14 1836.28 1132.18 1835.63 C 1146.12 1833.37 1160.48 1833.22 1174.53 1831.69 C 1189.17 1830.09 1203.62 1827.15 1218.26 1825.55 z"/>
<path transform="translate(0,0)" fill="rgb(255,255,255)" d="M 1600.31 1793.81 C 1605.63 1796.41 1612.48 1816.83 1615.14 1822.77 C 1565.64 1845.83 1515.37 1855.99 1460.93 1855.81 L 1447.91 1855.47 C 1473.68 1834.85 1503.06 1820.4 1532.69 1806.32 C 1536.63 1809.24 1540.16 1810.96 1545.06 1811.65 C 1564.67 1814.4 1584.94 1805.13 1600.31 1793.81 z"/>
<path transform="translate(0,0)" fill="rgb(255,255,255)" d="M 873.606 1025.09 C 867.736 1018.54 862.327 1010.81 862.746 1001.69 L 864.035 999.425 C 866.532 999.321 867.565 999.908 869.274 1001.7 C 877.443 1010.24 886.907 1027.75 898.559 1031.16 L 900.254 1030.43 C 902.134 1021.5 887.805 1010.01 886.906 1000.37 C 891.132 1000.36 895.777 1005 898.797 1007.96 C 904.743 1013.79 909.71 1020.69 913.862 1027.88 C 917.804 1034.71 926.007 1058.6 931.866 1061.48 C 939.594 1065.29 954.471 1064.38 963.309 1064.89 C 964.984 1073.53 967.2 1081.96 970.246 1090.23 C 941.385 1093.67 922.732 1090.36 897.615 1075.47 C 889.911 1070.9 882.025 1066.22 874.989 1060.67 C 863.957 1051.97 854.198 1041.95 848.135 1029.19 C 856.532 1035.8 866.048 1044.92 875.808 1049.1 C 878.377 1048.63 878.487 1049.18 880.073 1046.9 C 872.3 1036.89 845.476 1028.71 847.05 1013.91 L 848.467 1012.02 C 852.059 1012.53 864.962 1026.65 869.24 1030 L 873.606 1025.09 z"/>
<path transform="translate(0,0)" fill="rgb(0,1,12)" d="M 873.606 1025.09 C 877.145 1028.65 881.051 1031.95 883.042 1036.63 L 882.681 1038.39 C 880.215 1038.73 878.477 1037.76 876.554 1036.33 C 873.997 1034.43 871.613 1032.13 869.24 1030 L 873.606 1025.09 z"/>
<path transform="translate(0,0)" fill="rgb(255,255,255)" d="M 1467.85 1175.9 C 1469.48 1177.44 1470.09 1180.34 1470.21 1182.51 C 1470.51 1187.98 1465.35 1193.33 1461.75 1196.85 C 1422.64 1235.14 1338.46 1257.52 1284.91 1264.23 C 1267.34 1266.43 1249.95 1266.98 1232.26 1266.9 C 1229.13 1264 1229.68 1253.55 1229.45 1249.35 C 1308.82 1250.37 1404.42 1224.37 1467.85 1175.9 z"/>
<path transform="translate(0,0)" fill="rgb(255,255,255)" d="M 1236 814.123 C 1244.96 813.002 1253.97 815.842 1262.54 818.152 C 1256.65 821.62 1250.75 825.376 1245.43 829.671 C 1232.93 839.754 1221.83 852.633 1220.16 869.14 C 1195.7 874.492 1176.74 880.681 1160.22 900.369 L 1148.79 915.424 C 1145.32 902.332 1144.98 891.324 1151.22 878.825 C 1166.69 847.834 1204.28 824.797 1236 814.123 z"/>
<path transform="translate(0,0)" fill="rgb(255,255,255)" d="M 1063.22 793.12 C 1077.63 786.654 1092.98 780.965 1108.76 779.246 C 1111.19 780.549 1113.37 781.736 1115.45 783.584 C 1103.21 789.562 1083.73 787.042 1073.07 795.925 C 1071.28 797.413 1071.09 797.765 1070.86 799.95 C 1071.62 800.578 1072.12 801.073 1073.08 801.46 C 1079.49 804.032 1114.05 790.483 1122.58 787.644 C 1125.52 789.58 1128.18 791.879 1130.89 794.123 C 1117.32 796.389 1098.13 799.016 1086.48 806.477 L 1086.18 807.973 C 1097.15 812.046 1118.64 805.512 1130.9 805.354 C 1137.47 805.27 1146.18 805.47 1151.01 810.21 C 1148.83 812.709 1148.06 814.943 1147.06 818.081 C 1147.06 818.66 1146.72 819.19 1146.51 819.733 C 1128.53 822.971 1110.48 826.062 1092.58 829.739 C 1103.93 834.62 1123.95 833.489 1131.93 842.762 L 1131.44 843.816 C 1122.57 846.076 1109.18 841.022 1100.21 839.356 C 1095.08 838.405 1088.99 837.199 1084.52 840.283 C 1085.68 848.336 1109.25 846.983 1114.26 853.019 C 1104.52 857.489 1072.89 850.883 1062.45 847.107 C 1064.06 828.823 1064.71 811.445 1063.22 793.12 z"/>
<path transform="translate(0,0)" fill="rgb(3,6,34)" d="M 1151.01 810.21 C 1148.83 812.709 1148.06 814.943 1147.06 818.081 C 1135.96 811.279 1104.05 826.631 1095.94 821.833 C 1094.3 820.861 1094.82 821.223 1094.31 819.187 C 1094.49 818.921 1094.63 818.626 1094.85 818.389 C 1102.39 810.243 1138.12 811.918 1149.28 810.46 C 1149.86 810.385 1150.44 810.294 1151.01 810.21 z"/>
<path transform="translate(0,0)" fill="rgb(255,255,255)" d="M 1229.75 990.248 C 1223.08 974.467 1208.04 941.866 1212.85 925.4 C 1218.35 922.615 1222.7 938.456 1234.87 937.778 C 1241.75 937.395 1242.7 914.774 1252.65 905.521 C 1255.49 908.693 1246.13 932.866 1247.01 939.398 C 1251.75 940.02 1257.94 912.124 1263.99 908.323 C 1268.97 913.038 1254.48 934.434 1257.66 942.503 C 1262.82 942.069 1269.43 928.1 1273.07 923.856 L 1274.38 924.021 C 1274.62 926.637 1275.18 928.573 1276.16 930.972 L 1276.5 931.801 C 1276.87 933.484 1277.09 934.426 1276.87 936.163 C 1277.34 937.583 1277.57 938.826 1277.52 940.328 C 1276.73 963.657 1260.44 979.96 1244.42 994.857 C 1239.36 993.742 1234.61 992.012 1229.75 990.248 z"/>
<path transform="translate(0,0)" fill="rgb(3,6,34)" d="M 1276.5 931.801 C 1276.87 933.484 1277.09 934.426 1276.87 936.163 C 1273.9 940.877 1274.51 946.656 1271.08 951.195 C 1268.91 952.393 1268.92 952.617 1266.53 952.063 L 1265.52 949.684 C 1266.39 944.857 1269.07 933.898 1272.53 930.88 L 1274.92 932.207 L 1276.5 931.801 z"/>
<path transform="translate(0,0)" fill="rgb(255,255,255)" d="M 608.072 1243.88 C 653.751 1274.2 709.269 1290.7 763.345 1297.19 C 784.952 1299.65 806.713 1300.49 828.446 1299.71 C 835.039 1299.5 841.668 1298.36 848.204 1298.26 C 850.909 1298.22 852.319 1298.56 854.509 1300.1 C 855.476 1303.03 854.546 1305.4 853.777 1308.25 C 823.035 1311.83 791.978 1311.77 761.251 1308.06 C 714.26 1302.31 668.66 1288.28 626.563 1266.62 C 621.048 1263.8 609.925 1259.03 606.884 1253.44 C 605.441 1250.79 607.331 1246.68 608.072 1243.88 z"/>
<path transform="translate(0,0)" fill="rgb(255,255,255)" d="M 1372.71 833.696 C 1386.82 844.203 1394.65 865.98 1398.87 882.264 C 1391.9 886.918 1384.36 889.854 1376.32 892.091 C 1369.73 893.926 1359.78 896.835 1353.53 893.279 C 1354.9 891.128 1362.88 890.465 1365.76 889.518 C 1367.8 888.845 1368.43 888.95 1369.4 886.931 C 1362.61 881.236 1347.13 888.916 1338.92 885.324 C 1345.73 881.593 1353.63 881.548 1359.93 876.679 C 1360.17 876.497 1360.4 876.307 1360.63 876.121 C 1351.42 873.736 1341.15 878.438 1332.43 874.777 C 1336.7 869.669 1347.71 871.369 1352.95 866.973 C 1352.37 866.618 1351.83 866.19 1351.21 865.907 C 1344.7 862.943 1336.9 865.223 1330.42 866.863 C 1328.55 865.516 1327.1 864.141 1325.54 862.446 C 1328.25 858.892 1338.08 859.613 1342.03 856.068 C 1343.33 854.897 1343.03 854.685 1343.19 853.077 C 1341.65 850.967 1341.63 850.939 1339.1 850.281 C 1337.06 851.209 1334.97 852.202 1332.82 852.872 C 1329.4 853.94 1324.65 853.557 1321.6 851.648 C 1320.12 850.715 1320.57 850.97 1320.15 849.103 C 1327 840.711 1349.59 844.435 1359.83 841.228 C 1364.64 839.723 1368.43 836.268 1372.71 833.696 z"/>
<path transform="translate(0,0)" fill="rgb(255,255,255)" d="M 1287.95 819.141 C 1303.42 818.307 1318.08 823.362 1332.12 829.296 C 1322.79 836.082 1314.9 838.373 1311.12 850.306 C 1296.91 852.609 1282.82 855.766 1268.78 858.947 C 1258.19 861.698 1243.25 867.565 1232.41 866.347 L 1231.4 864.701 C 1231.7 860.941 1232.37 858.1 1234.24 854.782 C 1244.38 836.811 1268.8 824.36 1287.95 819.141 z"/>
<path transform="translate(0,0)" fill="rgb(255,255,255)" d="M 1451.57 562.464 C 1452.23 562.606 1452.89 562.716 1453.53 562.89 C 1458.44 564.219 1461.52 570.154 1463.98 574.197 C 1473.38 589.633 1475.44 599.639 1471.06 617.377 C 1468.83 626.432 1450.92 684.349 1445.8 687.416 L 1444.06 684.337 C 1438.34 672.235 1432.79 661.395 1423.33 651.791 C 1437.87 633.508 1455.13 603.066 1460.86 580.51 C 1458.55 574.185 1454.88 568.322 1451.57 562.464 z"/>
<path transform="translate(0,0)" fill="rgb(255,255,255)" d="M 1349.71 1444.51 C 1356.53 1448.93 1380.45 1529.78 1386.95 1544.05 C 1395.98 1563.86 1418.01 1595.53 1422.83 1615.05 L 1421.72 1616.82 C 1413.09 1617.16 1404.64 1617.84 1396.07 1618.94 C 1385.72 1587.69 1378.01 1555.37 1369.21 1523.65 C 1362.51 1499.51 1353.74 1474.23 1349.4 1449.6 C 1349.07 1447.69 1349.28 1446.37 1349.71 1444.51 z"/>
<path transform="translate(0,0)" fill="rgb(255,255,255)" d="M 656.004 1128.5 C 692.089 1151.99 729.511 1172.07 771.555 1182.68 C 787.881 1186.8 805.243 1190.39 821.98 1192.09 C 831.65 1193.07 856.632 1190.94 863.906 1195.33 C 865.379 1196.22 865.231 1197.56 865.621 1199.11 C 865.092 1201.43 864.541 1202.65 863.077 1204.53 C 801.199 1204.91 740.28 1189.23 686.271 1159.03 C 674.322 1152.45 662.014 1145.65 651.478 1136.94 C 652.844 1134.06 654.46 1131.29 656.004 1128.5 z"/>
<path transform="translate(0,0)" fill="rgb(255,255,255)" d="M 1482.36 1225.91 L 1483.1 1226.1 C 1490.61 1235.69 1490.93 1287.15 1490.7 1301.44 C 1482.86 1301.01 1475.8 1301.37 1469.34 1296.31 C 1460.35 1283.36 1455.81 1264.49 1453.28 1249.15 C 1461.18 1239.22 1471.96 1232.92 1482.36 1225.91 z"/>
<path transform="translate(0,0)" fill="rgb(255,255,255)" d="M 722.37 1021.9 C 730.158 1031.9 740.554 1040.71 750.35 1048.72 C 792.577 1083.22 834.618 1099.28 887.676 1108.96 C 886.619 1112.34 885.913 1116.16 883.003 1118.27 C 839.662 1112.36 801.086 1096.56 764.912 1072.18 C 754.96 1065.47 718.912 1039.55 716.798 1028.75 C 717.66 1025.53 719.955 1023.98 722.37 1021.9 z"/>
<path transform="translate(0,0)" fill="rgb(255,255,255)" d="M 1258.62 511.699 C 1260.7 513.742 1269.02 531.365 1271.97 535.92 C 1269.97 542.153 1268.35 548.944 1270.54 555.369 C 1272.77 561.931 1277.23 565.168 1283.14 568.24 C 1281.94 571.137 1280.69 574.016 1279.39 576.878 C 1276.56 583.079 1273.83 586.083 1267.41 588.465 C 1267.07 588.363 1266.73 588.256 1266.39 588.157 C 1263.27 587.244 1260.18 586.446 1257.4 584.677 C 1243.22 575.643 1240.66 555.782 1237.6 540.634 C 1245.56 531.351 1252.77 522.474 1258.62 511.699 z"/>
<path transform="translate(0,0)" fill="rgb(255,255,255)" d="M 1145.65 744.264 C 1147.36 747.093 1148.67 750.109 1150.29 752.982 C 1153.61 758.846 1156.72 759.998 1163.03 761.737 L 1166.14 764.102 C 1167.06 772.465 1169.49 780.591 1173.32 788.083 C 1180.31 801.765 1190.7 810.96 1205.42 815.653 C 1197.3 821.753 1188.68 827.344 1180.36 833.179 C 1171.83 831.646 1165.63 832.579 1157.42 834.676 C 1158.29 828.58 1159.28 822.587 1159.1 816.407 C 1158.57 798.532 1149.92 762.723 1145.65 744.264 z"/>
<path transform="translate(0,0)" fill="rgb(255,255,255)" d="M 1306.89 774.822 C 1320.68 777.505 1333.12 780.765 1343.43 791.002 C 1348.66 796.197 1359.78 808.473 1359.83 815.907 C 1354.56 818.448 1343.29 809.446 1337.68 807.716 C 1333.97 806.571 1329.48 806.552 1325.61 806.289 C 1306.65 806.854 1289.04 808.345 1270.66 813.479 L 1263.32 809.065 C 1282.65 800.505 1293.43 790.881 1306.89 774.822 z"/>
<path transform="translate(0,0)" fill="rgb(255,255,255)" d="M 1134.42 695.516 C 1135.82 708.792 1138.32 716.785 1146.09 727.701 C 1139.66 744.099 1140.16 753.931 1143.58 770.942 C 1143.86 774.44 1143.97 778.038 1144.7 781.471 C 1146.65 786.681 1147.7 792.079 1148.88 797.501 C 1148.39 798.694 1148.53 799.415 1147.16 799.814 C 1143.77 800.802 1140.34 798.778 1137.49 797.184 L 1137.37 796.329 C 1137.3 795.856 1137.22 795.384 1137.15 794.91 C 1136.9 793.032 1136.82 791.134 1135.96 789.404 C 1133.36 784.22 1127.48 782.911 1122.44 781.198 C 1110.97 765.32 1107.99 775.936 1103.25 771.284 C 1112.29 761.354 1121.05 752.32 1122.39 738.293 C 1122.87 733.266 1122.85 728.538 1124.81 723.817 C 1126.53 726.692 1127.61 728.679 1130.9 729.573 L 1132.14 728.009 C 1133.03 722.655 1132.28 718.742 1129.63 714.005 L 1134.42 695.516 z"/>
<path transform="translate(0,0)" fill="rgb(3,6,34)" d="M 1144.7 781.471 C 1142.89 781.394 1140.72 781.218 1139.11 780.335 C 1137.36 779.38 1136.15 778.004 1135.46 776.164 C 1134.84 774.501 1135.54 773.875 1136.17 772.337 C 1138.94 770.659 1140.39 770.974 1143.58 770.942 C 1143.86 774.44 1143.97 778.038 1144.7 781.471 z"/>
<path transform="translate(0,0)" fill="rgb(255,255,255)" d="M 1112.19 1848.63 C 1122.48 1856.23 1135.84 1860.41 1147.95 1864.05 C 1196.17 1878.56 1245.32 1881.29 1295.3 1877.34 L 1296.55 1878.53 C 1296.82 1880.96 1296.63 1882.13 1295.69 1884.39 C 1286.91 1886.47 1277.99 1887.87 1269 1888.56 C 1235.34 1891.19 1139.29 1879.89 1115.15 1857.55 C 1112.02 1854.65 1112.24 1852.6 1112.19 1848.63 z"/>
<path transform="translate(0,0)" fill="rgb(255,255,255)" d="M 601.827 1919.36 C 613.963 1922.09 625.547 1926.93 637.914 1929.47 C 673.561 1936.88 710.313 1937.27 746.108 1930.6 C 752.976 1929.26 760.297 1928.12 766.757 1925.36 C 769.157 1924.34 770.599 1923.66 773.274 1923.68 C 775.119 1925.91 774.665 1926.79 774.635 1929.62 C 761.818 1935.94 748.034 1940.08 733.852 1941.86 C 705.845 1945.59 624.912 1945.7 604.285 1927.82 C 601.391 1925.31 601.972 1922.89 601.827 1919.36 z"/>
<path transform="translate(0,0)" fill="rgb(255,255,255)" d="M 1843.54 1722.74 C 1845.61 1724.68 1845.81 1726.31 1845.91 1728.94 C 1843.72 1733.54 1839.71 1737.05 1836.17 1740.64 C 1798.45 1778.97 1742.21 1810.19 1687.27 1810.65 C 1685.38 1809.66 1685.26 1809.48 1684.2 1807.77 C 1684.39 1807.12 1684.42 1806.39 1684.78 1805.81 C 1686.08 1803.73 1710.79 1800.99 1714.99 1800.18 C 1724.17 1798.4 1732.73 1795.04 1741.41 1791.65 C 1780.83 1776.24 1814.05 1752.74 1843.54 1722.74 z"/>
<path transform="translate(0,0)" fill="rgb(255,255,255)" d="M 1616.61 1831.85 L 1618.06 1831.94 C 1619.62 1833.72 1619.7 1834.23 1620.18 1836.58 C 1619.51 1838.33 1618.68 1839.33 1617.22 1840.46 C 1610.59 1845.63 1601.68 1848.73 1593.93 1851.77 C 1549.46 1869.22 1496.29 1875.83 1448.89 1869.8 L 1444.93 1868.91 C 1443.97 1866.93 1444.01 1866.99 1444.62 1864.87 C 1448.89 1863.06 1483.35 1865.02 1493.08 1864.37 C 1535.98 1861.67 1577.94 1850.62 1616.61 1831.85 z"/>
<path transform="translate(0,0)" fill="rgb(255,255,255)" d="M 1293.01 476.084 C 1293.77 476.778 1294.02 477.93 1294.37 478.888 C 1299.74 493.814 1311.16 506.93 1317.42 521.896 C 1309.58 519.927 1301.69 518.152 1293.76 516.573 C 1292.34 516.227 1290.81 515.825 1289.37 515.651 C 1284.37 515.053 1281.07 518.602 1277.53 521.554 C 1274.2 516.439 1270.74 510.818 1268.93 504.981 C 1268.77 504.468 1268.63 503.949 1268.47 503.434 C 1266.5 496.847 1266.66 490.104 1266.53 483.281 C 1276.08 481.908 1284.29 480.339 1293.01 476.084 z"/>
<path transform="translate(0,0)" fill="rgb(0,1,12)" d="M 1278.79 494.06 C 1283.78 494.171 1288.6 495.595 1293.43 496.762 L 1285.37 501.57 C 1285.06 501.794 1284.79 502.072 1284.45 502.242 C 1282.23 503.35 1279.2 503.989 1276.8 503.153 C 1274.46 502.332 1274.31 501.253 1273.63 499.148 C 1274.91 496.253 1276.2 495.801 1278.79 494.06 z"/>
<path transform="translate(0,0)" fill="rgb(255,255,255)" d="M 430.269 1711.68 L 431.344 1712.82 C 435.816 1751.62 464.423 1788.47 492.206 1814.34 C 497.21 1819 509.353 1826.6 512.672 1830.85 C 512.506 1833.93 510.767 1836.12 509.166 1838.64 C 492.287 1831.16 478.686 1815.92 467.191 1801.87 C 452.422 1783.83 422.049 1743.69 425.012 1719.72 C 425.523 1715.58 427.208 1714.11 430.269 1711.68 z"/>
<path transform="translate(0,0)" fill="rgb(255,255,255)" d="M 1466.22 1703.02 L 1467.28 1703.24 C 1469.18 1705.13 1469.61 1705.48 1470.27 1708.04 L 1468.9 1709.98 C 1431.26 1727.96 1370.95 1733.66 1329.76 1729.46 C 1329.3 1729.42 1328.85 1729.37 1328.4 1729.34 C 1324.93 1729.08 1323.29 1728.98 1320.48 1726.81 C 1319.97 1725.72 1319.11 1724.9 1319.86 1723.69 C 1322.58 1719.32 1338.36 1721.52 1343.21 1721.64 C 1385.49 1722.61 1426.06 1716.1 1466.22 1703.02 z"/>
<path transform="translate(0,0)" fill="rgb(255,255,255)" d="M 1582.18 1768 C 1585.91 1770.87 1589.3 1784.12 1591.4 1789.14 C 1577.01 1797.8 1561.18 1803.77 1544.18 1802.4 C 1540.28 1794.45 1536.11 1786.63 1531.69 1778.96 C 1549.97 1778.64 1565.51 1775.52 1582.18 1768 z"/>
<path transform="translate(0,0)" fill="rgb(255,255,255)" d="M 1802.54 1665.9 L 1803.38 1665.94 C 1808.06 1668.88 1810.85 1678.56 1812.8 1683.57 C 1809.23 1687.6 1805.21 1691.52 1800.64 1694.41 C 1788.59 1702.03 1775.93 1700.54 1762.82 1697.48 C 1757.11 1694.43 1752.36 1690.67 1747.39 1686.56 C 1767.23 1681.46 1784.42 1675.71 1802.54 1665.9 z"/>
<path transform="translate(0,0)" fill="rgb(255,255,255)" d="M 1238.86 1811.58 C 1255.88 1815.49 1270.84 1815.7 1288.17 1814.84 L 1288.65 1832.14 L 1280.61 1836.34 C 1274.78 1838.43 1268.62 1839.45 1262.43 1839.36 C 1249.02 1839.18 1238.52 1833.49 1229.48 1824 C 1232.47 1823.18 1235.1 1822.41 1237.81 1820.9 C 1239.75 1818 1239.07 1814.88 1238.86 1811.58 z"/>
<path transform="translate(0,0)" fill="rgb(255,255,255)" d="M 499.09 1667.84 C 504.784 1672.68 509.421 1684.43 513.703 1690.99 C 519.091 1699.23 525.039 1705.73 532.541 1712.09 C 526.801 1713.81 520.977 1715.26 515.181 1716.79 C 513.302 1717.04 512.013 1717.06 510.133 1716.59 C 499.253 1713.87 486.582 1695.31 481.312 1686.17 C 487.374 1680.21 493.189 1673.96 499.09 1667.84 z"/>
<path transform="translate(0,0)" fill="rgb(255,255,255)" d="M 1347.86 521.559 L 1348.58 520.455 L 1352.39 523.423 L 1354.26 523.031 C 1355.61 520.759 1356.17 520.52 1355.73 517.956 C 1353.67 516.157 1351.57 516.145 1348.98 515.82 L 1347.78 515.679 L 1347.88 514.737 C 1349.62 512.287 1351.26 509.918 1354.29 508.956 C 1356.77 508.169 1359.53 508.775 1361.81 509.901 C 1369.76 513.834 1374.68 521.166 1377.21 529.386 C 1375.73 531.851 1374.1 534.444 1372.19 536.595 C 1367.7 541.64 1361 545.414 1354.17 545.623 C 1348.91 545.816 1343.8 543.818 1340.07 540.106 C 1337.49 537.503 1335.64 534 1335.7 530.267 C 1335.79 525.006 1339.1 521.305 1342.73 517.905 L 1343.9 518.337 L 1344.26 522.163 L 1347.86 521.559 z"/>
<path transform="translate(0,0)" fill="rgb(0,1,12)" d="M 1347.86 521.559 C 1352.58 526.829 1358.24 525.654 1362.74 529.924 L 1362.62 531.581 C 1360.47 533.734 1358.19 534.666 1355.19 534.941 C 1352.15 535.219 1348.83 534.51 1346.63 532.241 C 1343.91 529.429 1343.9 525.775 1344.26 522.163 L 1347.86 521.559 z"/>
<path transform="translate(0,0)" fill="rgb(255,255,255)" d="M 1388.81 822.832 C 1391.4 824.762 1393.98 826.715 1396.23 829.043 C 1411.67 845.029 1417.16 869.031 1417.19 890.586 L 1405.2 892.891 L 1403.6 893.542 C 1404.11 890.315 1405 887.161 1405.17 883.889 C 1406.16 864.667 1392.7 841.005 1379.92 827.345 L 1388.81 822.832 z"/>
<path transform="translate(0,0)" fill="rgb(255,255,255)" d="M 633.86 1834.53 C 642.136 1839.41 651.017 1843.95 659.962 1847.46 C 664.735 1849.34 675.152 1850.89 678.453 1854.12 L 677.664 1855.96 C 674.233 1858.24 671.19 1859.16 667.22 1860.19 C 652.53 1863.84 638.809 1865.01 624.295 1860.07 L 633.86 1834.53 z"/>
<path transform="translate(0,0)" fill="rgb(255,255,255)" d="M 811.435 921.074 C 821.411 938.392 834.233 953.323 848.511 967.248 C 854.048 972.648 860.673 977.261 865.503 983.272 C 863.952 983.639 862.428 984.016 860.903 984.484 L 859.704 984.863 C 857.581 986.17 856.808 987.234 854.254 986.391 C 841.117 982.057 811.163 939.719 804.111 928.284 C 806.248 925.577 808.882 923.377 811.435 921.074 z"/>
<path transform="translate(0,0)" fill="rgb(255,255,255)" d="M 1390.06 611.485 C 1397.54 617.733 1403.32 629.192 1408.55 637.483 C 1403.59 643.959 1400.82 650.073 1398.25 657.701 L 1397.81 660.043 L 1396.59 660.655 C 1393.64 649.199 1388.7 639.853 1383.28 629.467 C 1384.64 622.866 1386.22 617.113 1390.06 611.485 z"/>
<path transform="translate(0,0)" fill="rgb(255,255,255)" d="M 917.784 934.808 C 934.327 937.05 952.484 949.504 966.606 958.259 C 972.411 961.859 983.979 968.472 985.57 975.35 L 983.621 975.74 C 960.412 963.299 937.056 951.135 913.557 939.251 L 913.8 937.572 L 917.784 934.808 z"/>
<path transform="translate(0,0)" fill="rgb(255,255,255)" d="M 1426.62 1625.49 L 1427.98 1625.58 C 1428.52 1626.14 1429.22 1626.85 1429.71 1627.49 C 1432.7 1631.41 1438.52 1641.97 1437.94 1646.66 C 1432.47 1649.21 1425.87 1648.04 1420.04 1647.44 C 1417.51 1646.95 1414.27 1646.56 1412.13 1645.06 C 1407.23 1641.63 1405.65 1632.71 1403.99 1627.31 C 1411.61 1627.12 1419.06 1626.37 1426.62 1625.49 z"/>
<path transform="translate(0,0)" fill="rgb(255,255,255)" d="M 1312.14 533.165 C 1319.07 536.06 1322.92 540.899 1327.85 546.363 C 1325.42 555.621 1323.16 563.237 1315.52 569.592 C 1310.95 568.399 1306.63 567.42 1302.69 564.717 C 1299.06 558.584 1308.6 551.404 1310.85 545.535 C 1312.28 541.785 1312.07 537.14 1312.14 533.165 z"/>
<path transform="translate(0,0)" fill="rgb(255,255,255)" d="M 1406.92 816.255 C 1407.25 816.35 1407.61 816.391 1407.93 816.54 C 1417.36 820.958 1423 841.662 1425.1 851.18 C 1426.87 859.154 1429.55 876.119 1424.94 883.343 L 1424.33 882.016 C 1421.9 860.423 1416.58 842.911 1403.56 825.198 C 1402.26 823.424 1399.28 820.359 1399.6 818.294 L 1406.92 816.255 z"/>
<path transform="translate(0,0)" fill="rgb(255,255,255)" d="M 806.277 806.955 C 806.932 810.26 801.491 818.448 800.148 822.193 C 794.407 838.204 796.751 853.181 803.934 868.071 L 802.899 868.245 C 795.424 858.389 791.015 845.283 791.908 832.905 C 792.733 821.478 797.786 814.059 806.277 806.955 z"/>
<path transform="translate(0,0)" fill="rgb(255,255,255)" d="M 1339.72 494.988 C 1351.69 494.567 1360.28 498.186 1370.77 503.333 C 1362.01 501.97 1354.34 502.204 1345.58 503.18 C 1337.39 507.066 1333.6 512.357 1328.67 519.615 C 1331.12 510.644 1332.87 501.769 1339.72 494.988 z"/>
<path transform="translate(0,0)" fill="rgb(255,255,255)" d="M 1346.51 826.054 C 1353.78 825.544 1360.87 826.097 1367.41 829.561 L 1367.89 831.409 C 1365.5 833.843 1361.03 833.818 1357.74 834.249 C 1350.22 835.805 1343.11 837.007 1335.41 837.406 C 1338.84 833.264 1342.03 829.126 1346.51 826.054 z"/>
<path transform="translate(0,0)" fill="rgb(255,255,255)" d="M 1301.21 525.814 C 1302.78 526.471 1303.92 527.167 1305.32 528.1 C 1305.98 529.514 1306.57 530.824 1306.7 532.404 C 1307.44 540.892 1301.24 548.867 1296.35 555.225 L 1291.54 543.25 C 1290.88 541.775 1289.88 539.939 1289.6 538.361 C 1289.08 535.383 1289.71 534.746 1291.33 532.452 L 1292.89 532.974 C 1293.46 535.572 1294.08 537.97 1294.98 540.483 L 1296.77 541.227 C 1297.63 540.953 1299.26 540.476 1299.99 540.024 C 1304.79 537.077 1300.65 531.535 1301.04 527.293 C 1301.09 526.799 1301.16 526.307 1301.21 525.814 z"/>
<path transform="translate(0,0)" fill="rgb(255,255,255)" d="M 1241.78 905.027 C 1241.81 905.081 1241.87 905.127 1241.89 905.19 C 1242.81 908.433 1239.29 913.082 1238.17 916.426 C 1236.03 922.877 1236.75 930.031 1233.68 936.21 C 1233.51 935.932 1233.31 935.667 1233.15 935.376 C 1230.51 930.381 1229.7 921.817 1231.39 916.443 C 1233.37 910.136 1236.03 908.004 1241.78 905.027 z"/>
<path transform="translate(0,0)" fill="rgb(255,255,255)" d="M 975.215 920.653 C 978.064 920.847 979.745 920.907 982.27 922.394 C 984.404 927.36 981.787 932.924 980.34 937.931 C 978.519 932.739 973.394 927.993 972.77 922.684 L 975.215 920.653 z"/>
<path transform="translate(0,0)" fill="rgb(255,255,255)" d="M 1369.75 503.586 C 1375.78 505.53 1381.67 508.407 1386.56 512.462 L 1386.56 514.274 C 1384.7 515.183 1382.95 516.242 1380.81 516.127 C 1377.02 515.924 1372.11 506.449 1369.75 503.586 z"/>
<path transform="translate(0,0)" fill="rgb(255,255,255)" d="M 1281.56 543.784 C 1282.28 544.691 1282.64 545.693 1283.04 546.768 C 1284.38 550.388 1287.04 556.324 1285.43 559.701 C 1284.51 559.162 1283.59 558.64 1282.71 558.046 C 1279.94 556.173 1278.43 554.404 1277.76 551.065 C 1278.16 547.651 1279.41 546.257 1281.56 543.784 z"/>
<path transform="translate(0,0)" fill="rgb(60,83,112)" d="M 242.25 106.041 C 317.957 103.951 381.144 163.386 383.688 239.079 C 386.231 314.772 327.177 378.314 251.5 381.312 C 175.179 384.336 110.976 324.668 108.411 248.33 C 105.846 171.991 165.898 108.148 242.25 106.041 z"/>
<path transform="translate(0,0)" fill="rgb(230,230,229)" d="M 240.388 572.621 C 315.724 566.293 381.941 622.197 388.338 697.527 C 394.735 772.856 338.891 839.125 263.567 845.59 C 188.146 852.063 121.774 796.132 115.369 720.705 C 108.964 645.279 164.956 578.957 240.388 572.621 z"/>
<path transform="translate(0,0)" fill="rgb(230,230,229)" d="M 554.081 350.728 C 628.963 342.798 696.133 396.978 704.231 471.842 C 712.33 546.706 658.3 613.997 583.455 622.263 C 508.371 630.556 440.82 576.317 432.695 501.215 C 424.571 426.114 478.962 358.684 554.081 350.728 z"/>
</svg>