<svg version="1.1" xmlns="http://www.w3.org/2000/svg" style="display: block;" viewBox="0 0 2048 2048" width="1024" height="1024">
<defs>
	<linearGradient id="Gradient1" gradientUnits="userSpaceOnUse" x1="300.465" y1="404.133" x2="246.339" y2="381.76">
		<stop class="stop0" offset="0" stop-opacity="1" stop-color="rgb(117,123,148)"/>
		<stop class="stop1" offset="1" stop-opacity="1" stop-color="rgb(141,144,161)"/>
	</linearGradient>
</defs>
<path transform="translate(0,0)" fill="rgb(255,255,255)" d="M 0 0 L 2048 0 L 2048 2048 L 0 2048 L 0 0 z"/>
<path transform="translate(0,0)" fill="rgb(2,4,56)" d="M 418.036 226.839 C 427.324 229.639 436.229 233.155 444.302 238.627 C 463.678 251.761 464.595 264.398 462.245 285.454 C 461.745 289.934 460.877 295.061 461.901 299.513 C 462.417 301.753 462.401 301.837 464.433 303.096 C 472.766 297.099 480.14 288.098 487.44 280.845 C 502.584 265.797 518.366 250.993 532.718 235.208 C 538.153 229.231 542.958 220.559 548.866 215.361 C 550.833 213.631 553.944 213.336 556.347 212.46 C 561.543 210.565 566.286 203.962 569.554 199.623 C 592.372 169.316 586.118 155.126 595.287 122.029 C 598.381 110.858 601.555 99.5367 605.266 88.5615 C 608.042 80.3492 611.593 72.3063 614.047 63.9992 C 615.474 59.1655 615.021 53.3013 617.269 48.8431 C 618.597 46.2088 620.561 43.9717 623.48 43.1857 C 628.166 41.9241 639.205 40.6605 643.192 43.7072 C 645.886 45.7663 647.516 49.7722 649.04 52.7105 C 665.538 84.5162 663.961 123.223 669.096 157.991 C 675.746 161.114 681.881 165.333 688.516 168.538 C 694.64 171.497 701.179 173.595 707.421 176.301 C 718.577 181.137 729.577 186.725 740.385 192.295 C 772.911 209.061 803.214 232.555 830.489 256.892 C 867.731 290.122 890.944 321.128 935.906 347.745 C 938.694 341.907 939.969 332.924 945.206 329.348 C 942.909 322.585 930.97 314.164 926.024 308.393 C 920.315 301.731 914.745 294.663 909.994 287.282 C 904.813 279.234 899.508 268.976 901.951 259.17 C 903.707 252.118 907.93 248.84 913.851 245.162 C 938.403 243.456 978.243 263.952 1000.71 274.178 C 1007.71 270.326 1014.73 266.606 1022.25 263.852 C 1045.24 255.487 1070.61 256.584 1092.79 266.901 C 1106.41 273.374 1109.18 278.495 1119.24 288.793 C 1132.81 302.683 1142.74 309.687 1149.42 328.811 C 1159.07 356.454 1155.13 378.937 1141.96 404.356 C 1138.82 410.405 1133.57 417.622 1131.49 423.954 C 1129.81 429.086 1141.51 454.182 1143.7 460.403 C 1148.39 473.68 1148.63 485.817 1142.48 498.656 C 1164.13 507.946 1185.25 519.073 1207.56 526.687 C 1234.13 515.825 1258.91 505.696 1288.19 511.529 C 1295.87 513.059 1303.04 516.048 1310.57 517.89 C 1314.22 518.783 1318.81 516.736 1322.06 518.09 C 1327.77 520.475 1329.09 525.705 1332.85 530.064 C 1335.92 533.624 1340.09 536.408 1343.41 539.811 C 1354.59 551.29 1363.93 565.07 1369.66 580.08 C 1379.47 605.742 1372.71 626.841 1361.79 650.844 C 1363.83 651.462 1365.86 652.127 1367.87 652.837 C 1386.48 659.493 1394.06 674.549 1407.95 686.662 C 1419.17 696.446 1431.87 703.847 1442.53 714.487 C 1473.83 745.707 1489.06 789.908 1499.01 832.016 C 1503.51 851.059 1507.22 870.469 1514.17 888.811 C 1526.85 922.267 1546.64 953.718 1562.09 986.046 C 1577.11 1017.49 1591.09 1050.23 1578.91 1084.77 C 1594.17 1118.72 1603.43 1176.21 1603.95 1213.9 C 1604.4 1246.31 1599.24 1278.82 1595.8 1310.99 L 1576.54 1481.28 C 1576.69 1481.57 1576.8 1481.89 1576.98 1482.16 C 1580.56 1487.26 1666.06 1530.56 1679.63 1538.3 C 1781.82 1596.55 1927.36 1696.37 1983.57 1801.64 C 1995.51 1823.99 2005.51 1850.23 2003.23 1876.02 C 2001.12 1899.9 1986.68 1918.07 1968.68 1932.79 C 1910.02 1980.74 1789.51 1996 1715.8 1999.16 C 1686.65 2000.4 1657.66 1999.71 1628.52 1999 C 1571.51 1997.86 1514.57 1994.22 1457.88 1988.12 C 1425.79 1984.72 1306.49 1970.06 1283.64 1959.5 C 1282.44 1959.86 1281.23 1960.2 1280.01 1960.49 C 1266.52 1963.68 1252.22 1963.85 1238.46 1962.59 C 1213.87 1960.34 1190.27 1952.63 1166.2 1947.64 C 1147.98 1943.87 1129.13 1942.24 1111.21 1937.18 C 1102.09 1934.6 1093.03 1931.01 1084.98 1925.97 C 1075.19 1919.82 1067.34 1911.2 1064.94 1899.62 C 1063.74 1893.79 1064.47 1888 1067.91 1883.03 C 1081.12 1863.97 1136.96 1868.43 1161.17 1862.16 C 1176.59 1858.17 1190.09 1848.9 1205.54 1845.73 C 1208.7 1846.65 1211.8 1847.94 1214.89 1849.1 C 1215.01 1836.26 1214.74 1823.43 1214.96 1810.59 C 1202.26 1806.49 1192.58 1801.58 1185.1 1789.95 C 1185.04 1782.56 1184.19 1775.6 1183.53 1768.26 C 1182.84 1760.61 1183.55 1757.32 1188.45 1751.48 C 1182.53 1699.9 1178.94 1647.03 1176.96 1595.14 C 1176.67 1594.73 1176.44 1594.27 1176.07 1593.93 C 1174.15 1592.13 1171.03 1593.18 1168.69 1593.45 C 1162.01 1602.98 1154.21 1612.38 1145 1619.57 C 1146.41 1628.54 1145.51 1643.87 1148.36 1651.34 C 1149.98 1655.56 1156.92 1657.58 1159.12 1662.32 C 1160.69 1665.69 1178.13 1725.98 1178.63 1730.05 C 1179.13 1734.04 1179.09 1737.54 1176.58 1740.89 C 1169.43 1750.44 1156.37 1753.79 1145.04 1755.06 C 1127.27 1757.04 1108.5 1755.77 1090.87 1753.05 C 1056.92 1747.82 971.988 1724.39 946.767 1704.31 C 939.178 1698.27 932.038 1690.11 930.738 1680.17 C 929.925 1673.97 931.324 1668.09 935.304 1663.2 C 940.296 1657.07 947.75 1653.22 955.16 1650.83 C 972.606 1645.18 992.688 1645.09 1010.88 1643.41 C 1026.14 1642 1041.36 1639.97 1056.64 1638.77 C 1062.34 1638.32 1068.79 1638.93 1074.16 1636.94 C 1075.57 1634.88 1075.63 1634.93 1075.34 1632.47 C 1073.03 1629.34 1070.38 1628.1 1067.04 1626.24 C 1054.42 1619.19 1050.43 1612.75 1046.05 1599.38 C 1021.05 1583.55 993.598 1571.69 967.428 1557.93 C 900.854 1522.92 835.315 1486.69 775.451 1440.84 C 755.924 1425.88 736.986 1410.59 720.147 1392.58 C 709.676 1381.39 691.663 1362.21 692.781 1345.55 C 693.17 1339.76 696.108 1335.37 700.443 1331.67 C 716.23 1318.18 744.326 1320.14 763.581 1321.35 C 790.309 1312.34 835.847 1322.91 860.66 1335.22 L 861.899 1335.85 C 845.722 1281.18 830.232 1226.69 817.286 1171.14 C 809.976 1139.78 800.447 1104.33 802.094 1071.98 C 802.855 1057.03 808.699 1041.49 815.746 1028.43 C 826.335 1008.8 840.347 990.694 853.272 972.57 C 859.708 963.545 868.435 953.512 872.24 943.035 C 879.721 922.436 871.712 897.494 867.778 877.474 C 866.031 868.238 864.845 858.905 864.227 849.526 C 862.43 819.233 865.973 788.709 865.243 758.319 C 864.891 743.665 864.058 728.812 862.203 714.268 C 860.921 704.21 858.743 694.226 857.991 684.113 C 849.081 672.741 837.972 661.565 830.448 649.343 C 820.014 632.395 820.742 599.742 817.717 579.626 C 781.522 557.003 683.043 443.553 664.195 404.435 C 649.63 374.207 636.585 319.662 628.913 286.202 C 625.852 272.853 620.224 252.323 627.772 239.766 C 625.573 228.538 623.386 217.811 623.71 206.304 C 616.609 224.464 606.175 240.603 598.301 258.261 C 591.45 273.625 587.247 290.101 580.266 305.565 C 554.476 362.689 517.453 421.185 478.631 470.405 C 492.755 516.398 506.858 574.351 482.75 619.721 C 476.222 632.008 467.515 642.959 463.667 656.522 L 463.998 657.864 C 471.319 686.668 490.261 708.091 473.172 738.664 C 470.867 742.787 467.992 746.234 464.754 749.642 L 465.282 751.522 C 472.633 777.251 484.289 802.447 493.541 827.623 C 514.845 885.595 564.473 1031.31 559.554 1087.41 C 558.037 1104.71 551.154 1120.42 542.93 1135.52 C 533.439 1152.95 522.518 1169.73 511.962 1186.54 C 493.175 1216.57 473.804 1246.23 453.861 1275.51 C 442.793 1291.76 431.381 1312.2 417.033 1325.52 C 411.724 1326.27 406.424 1327.07 401.133 1327.93 C 396.062 1336.66 390.315 1345.41 386.09 1354.56 C 386.581 1358.58 386.806 1361.72 390.103 1364.54 C 392.249 1366.37 395.682 1367.44 398.273 1368.51 L 398.798 1369.81 C 401.621 1376.63 406.21 1382.51 408.892 1389.26 C 412.623 1398.65 413.733 1408.83 418.112 1418.06 C 421.153 1424.47 428.029 1431.02 429.968 1437.45 C 430.524 1439.3 430.369 1441.72 430.369 1443.65 C 442.036 1457.5 477.529 1476.97 475.396 1497.52 C 474.883 1502.46 471.85 1507.25 467.802 1510.07 C 451.32 1521.56 415.186 1516.33 396.928 1512.42 C 376.204 1507.98 362.775 1500.51 348.918 1484.57 C 330.827 1460.76 302.018 1438.01 286.656 1414.35 C 289.963 1399.01 308.2 1352.29 321.56 1344.38 C 324.252 1342.78 327.443 1341.72 330.363 1340.61 C 338.026 1323.66 344.255 1306.15 350.978 1288.8 C 347.52 1281.63 346.595 1279.05 349.255 1271.38 C 354.287 1256.87 360.546 1242.6 366.367 1228.38 C 379.303 1195.87 393.653 1163.93 409.377 1132.67 C 416.167 1119.19 422.627 1104.09 432.455 1092.53 C 411.287 1053.06 390.354 1013.62 368.106 974.743 C 354.65 1037.44 337.721 1102.66 316.918 1163.29 C 302.755 1204.56 281.392 1242.8 264.706 1283.11 C 247.289 1325.19 229.345 1367.14 212.396 1409.4 C 199.661 1441.15 188.175 1473.42 173.833 1504.51 C 171.841 1508.83 170.023 1510.15 166.067 1512.69 L 165.185 1513.25 C 157.452 1529.31 152.215 1549.21 147.895 1566.51 C 160.532 1574.93 168.444 1594.8 174.039 1608.38 L 174.46 1609.47 C 179.689 1622.55 187.826 1634.45 196.447 1645.51 C 207.405 1659.57 239.785 1687.27 231.456 1706.63 C 228.692 1713.06 222.221 1716.84 215.85 1718.97 C 203.094 1723.24 188.997 1723.03 175.702 1723.03 C 161.485 1721.11 134.919 1719.5 124.756 1708.78 C 112.47 1695.81 102.963 1680.57 91.3013 1667.04 C 81.1069 1655.2 67.8146 1644.71 59.1001 1631.89 C 56.5458 1628.13 57.4213 1624.14 58.3008 1619.82 C 60.8392 1607.33 72.6752 1562.31 79.0076 1553.28 C 81.0103 1550.43 85.0991 1548.21 87.9943 1546.3 C 95.5625 1529.67 99.1201 1509.68 103.73 1491.96 C 101.627 1488.44 99.7076 1484.79 97.7286 1481.19 C 105.752 1446.4 112.094 1410.93 118.312 1375.78 C 123.96 1343.85 129.425 1311 138.729 1279.91 C 145.671 1256.71 155.456 1233.85 165.779 1211.96 C 173.777 1195 182.675 1177.05 194.157 1162.2 C 197.27 1137.11 196.233 1110.34 195.348 1085.11 C 193.32 1027.31 187.28 969.791 182.594 912.174 C 181.053 893.226 179.763 874.103 179.26 855.098 C 178.906 841.755 179.389 828.391 178.709 815.059 C 173.595 839.149 168.634 863.272 163.825 887.425 C 160.659 903.857 158.595 921.528 153.627 937.492 C 152.302 941.75 150.493 945.218 147.893 948.833 C 157.476 966.415 172.995 1000.43 167.255 1020.91 C 166.315 1024.27 164.049 1025.63 161.333 1027.46 C 163.985 1033.34 166.92 1039.52 168.034 1045.91 C 168.776 1050.16 169.026 1053.45 166.467 1057.11 C 156.102 1062.89 152.151 1049.76 143.762 1048.99 C 135.911 1048.26 119.012 1034.26 113.116 1028.41 C 92.1376 1007.58 96.6108 974.183 97.0216 947.203 C 93.1601 943.266 90.4366 939.958 89.0834 934.475 C 85.5165 920.025 87.075 902.716 87.0391 887.781 C 86.7712 776.062 130.514 574.373 188.751 478.353 C 187.899 478.247 187.046 478.143 186.197 478.011 C 180.682 477.153 176.566 476.457 173.289 471.553 C 168.423 464.275 169.52 452.374 171.201 444.092 C 173.141 434.534 176.386 425.041 178.944 415.617 C 189.813 375.571 201.396 368.299 234.767 346.412 C 228.038 330.274 221.234 314.226 216.771 297.275 C 207.562 262.298 205.454 215.49 217.742 180.957 C 220.538 173.099 225.033 163.919 233.126 160.436 C 254.129 151.395 316.566 164.065 337.353 170.843 C 354.846 176.546 372.408 184.926 389.373 192.172 C 405.298 198.975 411.925 211.473 418.036 226.839 z"/>
<path transform="translate(0,0)" fill="rgb(188,190,200)" d="M 1409.13 1408.36 C 1415.08 1409.43 1426.46 1413.33 1431.81 1409.69 C 1434.62 1407.79 1434.36 1403.5 1434.84 1400.44 C 1434.85 1436.78 1434.85 1495.78 1445.48 1529.36 C 1453.14 1553.57 1469.06 1577.32 1483.25 1598.28 C 1508.02 1634.84 1535.95 1669.85 1562.61 1705.08 C 1570.49 1715.51 1586.57 1734.23 1592.39 1744.68 C 1593.18 1746.09 1592.93 1746.86 1592.93 1748.36 C 1592.91 1755.4 1607.48 1774.75 1612.88 1780.19 C 1614.56 1781.88 1615.93 1783.22 1618.45 1783.27 C 1621.95 1783.34 1625.78 1780.36 1628.53 1778.48 C 1638.05 1790.42 1647.44 1803.46 1658.55 1813.99 C 1655.13 1824.53 1652.81 1835.31 1649.72 1845.94 C 1645.24 1861.37 1640.14 1876.68 1635.04 1891.92 C 1631.99 1901.04 1629.06 1911.45 1624.46 1919.91 C 1620.34 1927.51 1613.84 1934.29 1608.31 1940.89 C 1601.57 1948.92 1591.54 1958.83 1596.91 1970.17 C 1600.57 1977.88 1608.16 1981.72 1615.71 1984.64 C 1640.52 1982.4 1714.3 1961.4 1729.48 1943.28 C 1743.8 1926.2 1784.59 1850.45 1782.93 1829.38 C 1781.63 1812.99 1755.65 1794.04 1743.69 1784.82 C 1735.54 1778.53 1728.1 1773 1718.14 1769.93 C 1709.28 1758.28 1701.46 1746.6 1694.48 1733.69 C 1698.06 1731.36 1701.89 1729.03 1703.1 1724.64 C 1705.57 1715.75 1695.31 1696.57 1690.34 1689.13 C 1689.11 1687.29 1687.94 1686.58 1686.13 1685.38 C 1684.73 1684.46 1683.8 1683.67 1682.9 1682.22 C 1674.57 1668.79 1668.2 1652.95 1660.91 1638.84 C 1644.35 1606.81 1627.38 1574.51 1609.45 1543.23 C 1599.45 1525.78 1588.6 1506.83 1575.34 1491.69 C 1575.66 1488.51 1575.55 1484.26 1576.54 1481.28 C 1576.69 1481.57 1576.8 1481.89 1576.98 1482.16 C 1580.56 1487.26 1666.06 1530.56 1679.63 1538.3 C 1781.82 1596.55 1927.36 1696.37 1983.57 1801.64 C 1995.51 1823.99 2005.51 1850.23 2003.23 1876.02 C 2001.12 1899.9 1986.68 1918.07 1968.68 1932.79 C 1910.02 1980.74 1789.51 1996 1715.8 1999.16 C 1686.65 2000.4 1657.66 1999.71 1628.52 1999 C 1571.51 1997.86 1514.57 1994.22 1457.88 1988.12 C 1425.79 1984.72 1306.49 1970.06 1283.64 1959.5 C 1289.76 1957.13 1295.1 1954.47 1300.04 1950.01 C 1305.46 1945.12 1308.52 1939.58 1308.66 1932.21 C 1308.9 1919.15 1298.86 1875.9 1293.02 1864.11 C 1291.53 1861.09 1289.02 1858.59 1286.73 1856.17 L 1286.99 1812.57 C 1295 1810.07 1301.04 1807.36 1307.47 1801.87 C 1307.14 1794.78 1310.31 1770.14 1308.36 1766.43 C 1307.69 1765.14 1306.93 1763.86 1306.25 1762.58 C 1303.79 1758 1308.98 1671.6 1309.17 1659.56 C 1308.37 1641.54 1309.95 1622.72 1310.11 1604.6 L 1310.12 1504.07 C 1343.83 1472.91 1376.84 1441 1409.13 1408.36 z"/>
<path transform="translate(0,0)" fill="rgb(255,255,255)" d="M 1309.17 1659.56 C 1309.65 1656.82 1309.84 1651.78 1311.79 1649.98 C 1333.4 1648.21 1387.27 1673.72 1406.69 1685.23 C 1415.67 1690.55 1424.21 1696.92 1432.17 1703.67 C 1444.42 1714.04 1462.97 1728.63 1464.63 1745.52 C 1465.63 1755.67 1460.69 1764.99 1454.23 1772.47 C 1429.77 1800.77 1373.59 1826.2 1338.05 1838.75 C 1321.1 1844.74 1303.27 1849.16 1286.73 1856.17 L 1286.99 1812.57 C 1295 1810.07 1301.04 1807.36 1307.47 1801.87 C 1307.14 1794.78 1310.31 1770.14 1308.36 1766.43 C 1307.69 1765.14 1306.93 1763.86 1306.25 1762.58 C 1303.79 1758 1308.98 1671.6 1309.17 1659.56 z"/>
<path transform="translate(0,0)" fill="rgb(255,255,255)" d="M 1178.81 924.87 C 1186.12 928.114 1193.72 931.125 1200.65 935.123 C 1208.31 947.396 1214.79 960.42 1221.72 973.115 C 1240.28 1007.12 1261.65 1043.94 1262.01 1083.72 C 1262.19 1102.76 1256.66 1127.32 1262.89 1145.37 C 1266.42 1155.6 1276.1 1162.73 1284.96 1168.25 C 1286.16 1180.14 1286.87 1192.07 1289.7 1203.71 C 1268.16 1259.73 1242.64 1314.07 1218.57 1369.05 C 1181.64 1360.32 1145.87 1348.3 1109.34 1338.14 C 1099.67 1307 1101.57 1272.99 1101.73 1240.72 C 1101.99 1186.12 1105.63 1131.87 1107.37 1077.34 C 1143.17 1036.78 1183.32 991.379 1179.64 933.499 C 1179.44 930.616 1179.16 927.738 1178.81 924.87 z"/>
<path transform="translate(0,0)" fill="rgb(188,190,200)" d="M 1046.05 1599.38 C 1021.05 1583.55 993.598 1571.69 967.428 1557.93 C 900.854 1522.92 835.315 1486.69 775.451 1440.84 C 755.924 1425.88 736.986 1410.59 720.147 1392.58 C 709.676 1381.39 691.663 1362.21 692.781 1345.55 C 693.17 1339.76 696.108 1335.37 700.443 1331.67 C 716.23 1318.18 744.326 1320.14 763.581 1321.35 C 757.106 1325.99 752.057 1331.41 750.945 1339.61 C 749.33 1351.52 756.434 1363.22 763.609 1372.16 C 787.162 1401.51 869.56 1452.14 905.623 1466.43 C 913.773 1469.73 922.35 1471.87 931.098 1472.76 C 944.482 1474.22 968.55 1472.58 979.44 1463.85 C 982.983 1461.01 984.119 1456.86 984.487 1452.47 C 985.358 1442.09 978.591 1433.58 976.218 1423.88 C 973.531 1412.89 973.933 1401.29 971.141 1390.28 C 967.717 1376.79 961.03 1364.33 958.037 1350.76 C 962.133 1348.75 966.242 1346.48 970.528 1344.91 C 986.628 1386.82 997.946 1431.44 1010.1 1474.64 C 1021.82 1516.3 1034.48 1557.68 1046.05 1599.38 z"/>
<path transform="translate(0,0)" fill="rgb(188,190,200)" d="M 1109.34 1338.14 C 1145.87 1348.3 1181.64 1360.32 1218.57 1369.05 C 1194.19 1423.87 1171.72 1461.37 1172.62 1524.44 C 1172.96 1548.02 1176.79 1571.59 1176.96 1595.14 C 1176.67 1594.73 1176.44 1594.27 1176.07 1593.93 C 1174.15 1592.13 1171.03 1593.18 1168.69 1593.45 C 1153.81 1507.99 1137.17 1420.39 1109.34 1338.14 z"/>
<path transform="translate(0,0)" fill="rgb(255,255,255)" d="M 1409.13 1408.36 C 1417.5 1399.48 1426.51 1391.13 1435.28 1382.63 L 1434.84 1400.44 C 1434.36 1403.5 1434.62 1407.79 1431.81 1409.69 C 1426.46 1413.33 1415.08 1409.43 1409.13 1408.36 z"/>
<path transform="translate(0,0)" fill="rgb(255,255,255)" d="M 1583.57 1134.83 C 1591.48 1155.78 1595.35 1199.12 1595 1221.69 C 1594.59 1247.85 1590.25 1274.6 1587.43 1300.63 C 1580.7 1362.59 1572.28 1424.45 1566.75 1486.52 C 1552.6 1491.13 1531.87 1497.81 1519.64 1505.8 C 1516.97 1507.54 1515.59 1508.89 1514.86 1512 L 1516.32 1513.85 C 1524.54 1517.15 1557.84 1499.4 1568.03 1495.72 C 1607.71 1554.62 1640.57 1618.47 1672.28 1681.98 C 1639.84 1689.96 1618.07 1711.24 1599.21 1737.79 C 1581.92 1716.08 1565.64 1693.43 1548.98 1671.22 C 1521.93 1635.17 1467 1566.75 1454.59 1526.29 C 1444.05 1491.97 1443.27 1408.97 1445.68 1372.09 C 1457.35 1358.49 1538.83 1281.8 1541.17 1274.03 C 1541.98 1271.31 1541.85 1270.79 1540.67 1268.41 L 1538.11 1268.15 C 1535.91 1268.99 1534.27 1269.83 1532.47 1271.37 C 1520.27 1281.83 1509.05 1294.71 1497.7 1306.16 L 1433.68 1370.22 C 1421.86 1381.94 1410.34 1394.06 1397.87 1405.08 C 1375.79 1427.38 1353.41 1449.38 1330.74 1471.08 C 1321.69 1479.77 1312.65 1490.42 1302.27 1497.38 C 1288.14 1498.77 1273.92 1500.35 1259.71 1499.92 C 1255.02 1499.77 1241.95 1496.93 1238.53 1497.93 C 1237.05 1498.36 1236.79 1499.43 1236.02 1500.63 C 1236.41 1503.53 1236.57 1503.87 1238.44 1506.12 C 1254.08 1513.68 1283.38 1508.04 1299.93 1504.61 C 1302.59 1562.65 1300.9 1621.7 1299.12 1679.76 C 1298.37 1704.32 1298.48 1741.16 1294.38 1764.62 C 1286.53 1769 1278.04 1772.42 1269.16 1773.96 C 1247.16 1777.78 1214.67 1768.38 1196.68 1755.74 C 1195.76 1726.64 1193.02 1697.6 1190.81 1668.58 L 1186.11 1597.99 C 1183.68 1563.6 1180.43 1529.34 1183.78 1494.89 C 1185.08 1481.61 1187.49 1468.25 1191.56 1455.53 C 1199.97 1429.32 1212.89 1403.93 1224.26 1378.86 L 1260.91 1295.91 C 1273.56 1267.56 1284.78 1238.69 1297.22 1210.31 C 1313.79 1218.37 1329.92 1224.69 1348.22 1227.55 C 1412.14 1237.54 1486.83 1214.86 1538.63 1176.93 C 1540.51 1194.11 1542.52 1210.93 1542.81 1228.23 C 1542.91 1233.82 1541.9 1243.5 1544.6 1248.27 C 1547.06 1249.19 1547.33 1249.18 1549.89 1248.58 C 1550.55 1247.91 1550.92 1247.64 1551.31 1246.66 C 1555.51 1236.07 1548.74 1183.53 1544.8 1172.28 C 1558.88 1160.69 1571.39 1148.37 1583.57 1134.83 z"/>
<path transform="translate(0,0)" fill="rgb(255,255,255)" d="M 928.306 672.271 C 948.706 674.798 984.75 708.787 1003.3 721.54 C 1021.2 733.849 1041.36 746.168 1062.03 752.9 C 1087.16 761.085 1127.37 760.14 1153.95 759.88 C 1165.06 759.771 1176.84 758.468 1187.83 760.222 L 1189.2 760.454 C 1219.79 792.945 1231.09 840.999 1231.03 884.441 C 1231.01 898.03 1228.95 911.605 1229.02 925.115 C 1229.04 928.823 1229.01 932.924 1231.64 935.836 C 1233.1 937.454 1232.34 936.979 1234.69 937.052 C 1236.75 934.945 1237.37 932.459 1238 929.654 C 1240.98 916.193 1241 899.856 1240.7 886.116 C 1239.57 833.527 1229.26 804.42 1201.7 759.992 C 1213.12 769.187 1223.28 779.956 1234.02 789.921 C 1258.17 812.315 1286.69 835.51 1317.33 847.996 C 1341.52 857.852 1370.79 860.396 1395.15 849.796 C 1412.66 842.175 1427.69 828.659 1434.56 810.577 C 1448.7 773.29 1427.25 733.87 1412.23 700.373 C 1425.01 711.533 1437.72 721.746 1448.38 735.132 C 1481.61 776.876 1486.03 829.252 1500.86 878.29 C 1506.22 895.999 1513.79 912.004 1522.01 928.492 C 1538.59 963.464 1584.09 1034.53 1573.8 1072.03 C 1565.8 1101.19 1518.58 1135.83 1493.15 1150.31 C 1445.18 1177.65 1381.25 1192.02 1326.96 1176.95 C 1311.68 1172.7 1281.87 1161.17 1274.04 1146.69 C 1265.01 1129.98 1274.72 1081.47 1269.19 1056.84 C 1260.27 1017.19 1233.63 974.458 1213.36 938.952 C 1222.23 944.113 1235.32 954.056 1245.27 955.723 C 1247.67 956.125 1248.6 955.806 1250.43 954.313 L 1250.63 951.809 C 1236.71 933.583 1161.31 908.105 1136.34 898.42 C 1051.88 865.659 927.526 806.029 889.141 719.027 C 890.686 711.314 892.756 703.238 896.353 696.205 C 903.377 682.47 914.219 676.62 928.306 672.271 z"/>
<path transform="translate(0,0)" fill="rgb(2,4,49)" d="M 1499.46 926.589 C 1501.24 926.977 1502.56 927.273 1504.14 928.245 C 1505.17 928.879 1505.3 928.722 1505.39 929.809 C 1506.17 938.475 1463.02 1017.51 1455.56 1030.27 C 1449.37 1040.94 1442.75 1051.36 1435.71 1061.49 C 1433.44 1062.01 1433.31 1061.92 1431.16 1060.98 L 1430.19 1058.47 C 1431.51 1047.69 1446.29 1028.54 1451.96 1018.49 C 1468.94 988.379 1482.81 956.752 1499.46 926.589 z"/>
<path transform="translate(0,0)" fill="rgb(59,68,102)" d="M 1164.71 974.101 L 1165.35 974.646 C 1161.4 994.052 1124.9 1047.86 1109.52 1060.79 L 1108.29 1060.66 C 1108.1 1058.63 1107.97 1056.98 1107.3 1055.04 C 1106.71 1053.31 1106.27 1053.54 1104.73 1052.79 C 1101.98 1053.27 1101.73 1053.29 1099.77 1055.26 C 1097.11 1065.49 1097.66 1077.83 1097.15 1088.45 L 1094.53 1148.68 C 1093.16 1181.43 1092.33 1214.2 1092.03 1246.97 C 1091.86 1269.43 1091.29 1292.63 1094.49 1314.91 C 1098.76 1344.71 1111.05 1373.74 1118.62 1402.89 C 1130.17 1447.84 1140.04 1493.2 1148.2 1538.87 C 1151.63 1557.08 1155.82 1575.22 1158.49 1593.54 C 1148.27 1606.94 1131.94 1619.92 1115.77 1625.15 C 1102.57 1629.28 1088.26 1627.98 1076.02 1621.53 C 1070.13 1618.48 1064.81 1614.34 1061.08 1608.8 C 1051.02 1593.88 1042.2 1548.13 1035.9 1528.6 C 1020.96 1476.51 1006.69 1424.35 990.335 1372.67 C 976.857 1330.08 961.012 1288.3 948.161 1245.48 C 923.165 1162.18 903.032 1064.03 895.672 977.467 C 921.579 998.094 953.332 1009.51 985.879 1014.63 C 1045.36 1023.99 1115.81 1009.76 1164.71 974.101 z"/>
<path transform="translate(0,0)" fill="rgb(2,4,56)" d="M 1077.74 1309.79 C 1080.07 1310.29 1080.79 1310.88 1082.39 1312.64 C 1082.53 1314.92 1082.45 1315.64 1081.18 1317.7 C 1075.42 1327.09 1053.55 1333.88 1043.23 1335.97 L 1041.52 1335.67 C 1039.59 1333.65 1039.45 1333.29 1038.88 1330.55 C 1039.73 1328.67 1039.88 1327.88 1041.81 1326.89 C 1046.29 1324.62 1052.12 1324.2 1056.89 1322.42 C 1063.99 1319.77 1071.1 1313.72 1077.74 1309.79 z"/>
<path transform="translate(0,0)" fill="rgb(89,97,128)" d="M 394.685 799.736 C 398.467 813.504 395.053 845.466 390.495 858.756 C 386.588 862.442 381.764 866.042 380.012 871.265 C 375.463 884.831 373.864 900.797 371.109 914.912 C 366.731 937.344 361.675 959.694 356.814 982.029 C 345.729 1032.96 330.864 1083.86 316.187 1133.87 C 309.774 1155.73 302.839 1177.83 293.23 1198.51 C 283.997 1218.38 272.589 1237.5 264.257 1257.73 L 203.141 1408.78 L 182.593 1460.7 C 177.501 1473.5 172.533 1488.63 164.685 1499.96 C 161.836 1501.36 159.502 1502.25 156.305 1502.47 C 139.391 1503.62 119.795 1492.07 107.519 1481.38 C 110.02 1458.97 117.619 1431.25 122.234 1408.55 C 129.955 1366.47 135.694 1321.7 148.798 1281.01 C 159.783 1246.9 176.046 1215.85 190.893 1183.42 C 195.921 1189.89 205.715 1201.06 214.283 1202.27 C 216.481 1201.41 216.456 1201.47 217.529 1199.37 C 215.61 1191.02 203.582 1184.82 199.256 1176.73 C 199.077 1176.4 198.905 1176.06 198.73 1175.72 C 216.697 1135.84 196.809 960.332 192.889 907.584 C 190.553 877.628 189.134 847.608 188.632 817.565 C 227.313 846.549 269.585 862.502 315.578 875.871 C 315.898 875.716 316.221 875.568 316.538 875.405 C 334.987 865.928 341.271 851.031 347.363 832.506 C 366.844 824.53 380.118 814.787 394.685 799.736 z"/>
<path transform="translate(0,0)" fill="rgb(255,255,255)" d="M 667.244 229.13 C 674.585 228.691 681.721 228.733 689.065 229.086 C 709.751 254.063 728.42 294.892 740.26 325.323 C 746.225 340.653 751.162 361.198 761.017 374.291 C 765.887 380.759 773.192 386.389 779.286 391.744 C 805.46 414.746 832.143 434.683 864.283 448.648 C 888.574 459.202 913.353 465.192 933.522 483.682 C 958.603 506.674 968.621 538.337 983.719 567.781 C 999.309 598.183 1020.86 628.974 1046.11 652.014 C 1058.83 663.62 1081.29 682.223 1099.49 680.841 C 1119.42 679.326 1136.31 655.028 1148.22 640.873 C 1151.97 648.571 1157.65 648.668 1162.32 654.408 C 1159.82 655.49 1157.5 656.714 1155.13 658.047 C 1151.47 664.726 1165.11 675.079 1164.14 683.486 L 1160.91 682.335 L 1159.28 683.205 C 1158.85 684.481 1158.43 685.737 1158.08 687.038 C 1155.05 698.198 1148.5 716.503 1155.24 727.175 C 1160.17 734.975 1170.73 737.692 1179.15 739.728 C 1185.21 741.191 1190.87 740.213 1196.96 739.426 C 1190.6 742.746 1184.57 746.009 1178.81 750.303 L 1180.44 750.416 L 1173.61 750.674 C 1092.99 751.687 1063.1 755.955 994.871 704.158 C 979.193 692.256 962.176 675.371 943.785 668.179 C 936.669 665.397 928.912 664.733 921.713 662.186 C 913.957 659.441 904.94 652.603 901.593 644.897 C 896.328 632.774 904.788 623.955 908.416 613.173 C 909.142 611.016 909.537 608.11 908.301 606.076 C 906.986 603.912 904.479 602.152 901.975 601.651 C 898.699 600.996 896.492 602.508 893.981 604.307 C 891.846 605.837 889.857 607.111 887.537 608.34 C 886.619 608.023 885.693 607.723 884.795 607.35 C 874.016 602.867 862.771 603.449 851.247 603.134 C 850.018 602.43 850.115 602.524 848.761 601.527 C 836.827 592.745 829.06 574.815 827.064 560.482 C 826.058 553.257 826.23 545.907 825.266 538.67 C 824.845 535.504 824.322 532.428 821.645 530.41 C 819.855 530.764 819.741 530.469 818.482 532 C 812.709 539.015 817.342 561.22 818.178 570.162 C 811.898 564.631 805.663 559.051 799.471 553.422 C 767.391 523.909 738.758 489.557 711.359 455.742 C 698.349 439.684 682.996 422.163 673.971 403.505 C 661.248 377.204 654.728 347.086 647.172 319.011 C 640.945 295.876 633.383 273.381 632.41 249.274 C 642.123 238.628 653.288 232.408 667.244 229.13 z"/>
<path transform="translate(0,0)" fill="rgb(89,97,128)" d="M 449.297 547.544 C 455.404 551.11 462.728 558.071 467.193 563.615 C 487.085 588.319 460.683 622.513 451.977 647.068 C 446.088 663.675 442.751 682.431 442.907 700.067 C 443.222 735.618 465.127 780.033 477.815 813.561 C 505.756 887.394 532.64 964.477 545.907 1042.45 C 548.494 1057.66 551.584 1073.67 549.931 1089.12 C 548.546 1102.06 542.399 1114.81 536.482 1126.23 C 523.366 1151.54 428.433 1304.38 412.78 1316.22 C 408.968 1319.11 404.185 1319.67 399.606 1318.7 C 380.456 1314.62 366.15 1295.38 356.539 1279.78 C 367.981 1244.28 415.714 1129.37 438.386 1102.65 C 441.285 1105.78 444.163 1108.86 447.587 1111.43 C 453.392 1115.79 463.755 1123.16 471.353 1121.49 C 472.808 1121.17 472.725 1120.45 473.336 1119.25 C 471.341 1111.24 451.659 1104.47 445.81 1095.38 C 437.639 1082.7 431.005 1068.51 423.918 1055.17 C 412.726 1033.79 401.033 1012.68 388.848 991.844 C 383.427 982.535 377.981 971.115 370.529 963.347 C 377.483 933.864 383.06 903.998 388.804 874.259 C 399.87 863.138 411.01 848.681 418.887 835.191 C 421.657 830.447 425.428 824.201 423.945 818.702 L 421.681 817.976 C 420.478 818.291 419.136 818.279 418.07 818.922 C 416.392 819.936 405.805 839.531 402.373 843.759 C 403.937 832.943 405.078 821.958 404.606 811.015 C 404.195 801.488 401.664 791.578 403.252 782.091 C 404.564 774.253 406.892 766.485 408.481 758.68 C 414.741 727.921 421.766 697.321 429.548 666.911 C 439.962 625.398 449.188 591.01 449.297 547.544 z"/>
<path transform="translate(0,0)" fill="rgb(59,68,102)" d="M 192.553 530.327 C 200.768 529.274 209.845 529.324 218.029 530.687 C 231.213 532.882 242.076 538.469 249.786 549.597 C 261.834 566.987 263.1 590.245 258.129 610.31 C 248.393 649.603 218.265 680.182 201.72 716.443 C 171.953 781.684 160.311 854.216 147.132 924.223 L 146.423 927.473 C 145.384 932.358 144.238 936.45 142.043 940.956 C 141.23 941.403 140.402 941.825 139.562 942.219 C 130.321 946.552 118.549 946.953 108.982 943.215 C 104.57 941.491 100.74 938.558 99.0682 933.992 C 95.1164 923.197 97.0456 905.2 96.9729 893.454 C 96.3074 785.864 129.734 635.239 171.57 535.416 C 178.273 532.826 185.463 531.35 192.553 530.327 z"/>
<path transform="translate(0,0)" fill="rgb(59,68,102)" d="M 875.526 957.512 C 879.049 960.006 882.036 964.232 884.9 967.482 C 897.217 1094.06 925.539 1218.57 969.188 1338.02 C 947.85 1346.77 927.657 1350.25 904.66 1350.09 C 893.467 1350.08 883.343 1347.68 873.159 1343.18 C 861.534 1306.86 852.512 1269.4 842.871 1232.51 C 831.756 1189.99 819.466 1145.86 813.399 1102.3 C 811.595 1089.34 810.449 1075.99 812.885 1063.03 C 819.074 1030.11 854.944 984.836 875.526 957.512 z"/>
<path transform="translate(0,0)" fill="rgb(255,255,255)" d="M 871.978 709.777 C 876.629 714.556 879.772 721.891 882.937 727.729 C 891.974 744.4 900.818 759.889 915.074 772.683 C 915.344 789.436 917.608 806.952 920.022 823.531 C 922.393 839.819 933.338 900.159 944.18 908.23 C 946.405 908.322 946.734 908.299 948.669 907.217 C 949.967 904.54 949.8 902.421 949.208 899.578 C 946.496 886.553 940.674 873.619 937.375 860.506 C 931.026 835.273 927.414 809.341 923.697 783.614 C 971.885 828.346 1012.26 852.305 1070.71 881.557 C 1094.79 893.457 1120.72 902.082 1145.4 912.726 C 1118.89 938.997 1075.34 951.398 1039.11 954.041 C 985.281 957.97 933.605 942.835 892.823 906.951 C 888.304 902.974 882.924 898.028 880.827 892.278 C 869.863 862.22 875.615 801.388 875.205 767.286 C 874.975 748.101 873.3 728.91 871.978 709.777 z"/>
<path transform="translate(0,0)" fill="rgb(255,255,255)" d="M 702.156 183.254 C 744.367 199.072 799.39 240.356 832.521 271.247 C 852.071 289.476 869.987 309.793 890.256 327.201 C 903.189 338.308 917.306 347.597 931.613 356.793 C 925.331 359.789 917.238 362.763 912.296 367.803 C 907.593 372.6 911.847 376.026 911.519 381.359 C 911.311 384.74 910.423 386.53 907.975 388.719 C 906.474 390.06 905.433 391.152 904.326 392.874 C 903.548 398.254 906.723 403.796 909.285 408.33 C 906.119 414.165 903.268 419.517 901.455 425.956 C 900.831 433.605 902.284 440.867 903.724 448.333 C 897.111 448.526 890.752 448.326 884.163 447.742 C 870.961 439.579 855.777 420.645 844.649 409.266 C 829.169 393.513 813.412 378.036 797.383 362.843 C 790.006 355.766 782.785 348.232 775.032 341.595 C 767.207 334.897 755.945 328.284 749.86 320.237 C 740.68 308.097 735.966 290.486 728.773 276.847 C 721.522 263.097 714.091 249.251 705.387 236.355 C 700.424 229.002 694.609 222.36 689.574 215.067 C 695.367 204.224 700.352 195.716 702.156 183.254 z"/>
<path transform="translate(0,0)" fill="rgb(255,255,255)" d="M 1358.24 657.57 C 1371.89 662.589 1387.75 672.081 1394.85 685.219 C 1405.43 704.797 1393.43 742.485 1383.18 760.688 C 1379.22 767.724 1371.17 777.061 1369.44 784.684 C 1368.89 787.085 1369.54 787.525 1370.79 789.483 L 1373.16 789.767 C 1374.32 789.095 1375.34 788.482 1376.33 787.571 C 1380.5 783.757 1383.61 777.556 1386.52 772.744 C 1398.87 752.362 1405.43 735.733 1406.79 711.829 C 1413.58 724.083 1418.88 737.677 1423.3 750.954 C 1430.2 771.695 1433.44 794.037 1422.8 814.192 C 1415 828.986 1400.72 839.136 1384.97 844.067 C 1357.68 852.612 1329.97 844.602 1305.5 831.957 C 1279.55 818.568 1255.85 797.468 1234.17 778.054 C 1227.35 771.941 1220.7 765.215 1213.56 759.506 C 1208.9 755.787 1205.56 756.23 1200.08 756.143 C 1196.44 756.085 1194.8 753.19 1192.45 750.779 C 1202.9 743.289 1214.42 738.996 1226.73 735.69 C 1235.72 733.275 1245.2 730.37 1254.56 730.113 C 1276.96 729.497 1314.16 742.586 1334.27 737.362 C 1337.13 736.617 1338.97 735.644 1340.43 733.076 L 1339.61 731.322 C 1337.28 729.839 1335.34 729.059 1332.55 728.813 C 1326.04 728.236 1319.41 729.29 1312.83 728.769 C 1298.38 727.623 1283.79 724.828 1269.38 722.988 C 1315.86 705.94 1334.7 704.377 1358.24 657.57 z"/>
<path transform="translate(0,0)" fill="rgb(2,4,56)" d="M 1354.15 673.838 C 1355.98 673.763 1358.22 673.727 1359.95 674.383 C 1364.87 676.25 1367.63 682.475 1369.44 686.941 C 1375.49 701.939 1377.58 719.051 1370.76 734.23 C 1362.83 751.88 1345.38 763.06 1327.96 769.799 C 1292.15 783.656 1261.56 776.103 1227.39 761.056 C 1225.06 759.741 1222.23 758.464 1220.85 756.09 C 1220.07 754.75 1220.41 754.869 1220.82 753.216 C 1229.8 749.048 1259.33 764.538 1270.77 766.599 C 1282.08 768.635 1294.89 768.496 1306.2 766.466 C 1324.99 763.093 1347.99 752.841 1358.85 736.445 C 1368.66 721.648 1367.06 704.541 1360.06 689.075 C 1358.17 684.897 1355.06 679.952 1354.36 675.426 C 1354.27 674.898 1354.22 674.367 1354.15 673.838 z"/>
<path transform="translate(0,0)" fill="rgb(255,255,255)" d="M 910.547 456.984 C 916.074 457.115 921.995 458.747 927.421 459.859 C 956.625 465.846 988.417 476.63 1010.88 497.038 C 1028.5 513.052 1042.6 531.705 1065.03 541.777 C 1069.36 543.721 1078.46 547.435 1082.82 545.759 L 1083.05 544.089 C 1078.52 539.215 1069.62 536.111 1063.88 532.373 C 1046.76 521.238 1031.26 508.261 1018.32 492.441 C 1051.01 500.564 1106.4 507.229 1139.61 502.87 C 1135.96 505.261 1132.23 507.578 1128.77 510.229 C 1121.45 515.831 1114.24 523.329 1113.2 532.905 C 1111.88 545.132 1119.93 555.315 1127.19 564.191 C 1136.9 575.138 1146.5 582.918 1159.15 590.317 C 1160.46 598.559 1161.13 606.487 1161.28 614.837 C 1149.6 627.105 1117.06 665.794 1102.23 670.606 C 1091.97 673.933 1082.12 666.694 1073.92 661.417 C 1033.94 635.675 1006.45 592.071 985.863 550.049 C 975.776 529.455 966.51 508.332 952.426 490.055 C 940.91 475.111 926.806 466.015 910.547 456.984 z"/>
<path transform="translate(0,0)" fill="rgb(2,4,56)" d="M 1011.96 534.917 C 1019.37 539.383 1027.48 553.731 1033.65 560.661 C 1040.26 568.102 1047.92 574.755 1055.59 581.072 C 1102.31 619.541 1111.8 577.33 1126.85 578.132 C 1128.41 580.419 1127.92 581.101 1127.85 583.779 C 1120.65 593.481 1109.48 601.673 1097.68 604.464 C 1084.52 607.579 1071.73 603.437 1060.72 596.2 C 1041.88 583.807 1016.59 557.844 1011.96 534.917 z"/>
<path transform="translate(0,0)" fill="rgb(59,68,102)" d="M 200.415 479.429 C 238.601 486.199 344.88 513.957 372.653 535.657 C 362.116 578.303 309.93 641.046 283.897 677.098 C 274.421 690.221 261.564 712.115 250.065 722.602 C 235.164 732.909 218.261 739.962 200.454 743.304 C 210.468 714.42 228.355 690.498 243.686 664.473 C 262.252 632.957 276.954 601.746 267.123 564.671 C 262.998 549.116 254.824 536.461 240.567 528.46 C 218.633 516.15 197.901 518.871 174.665 525.38 C 181.757 509.262 190.848 494.171 200.415 479.429 z"/>
<path transform="translate(0,0)" fill="rgb(255,255,255)" d="M 1047.18 268.396 C 1054.44 267.31 1062.81 267.922 1069.98 269.361 C 1083.97 272.168 1097.68 278.975 1107.18 289.747 C 1110.19 293.155 1112.88 297.96 1116.19 300.891 C 1124.79 308.507 1125.74 306.218 1133.33 317.806 C 1145.53 336.455 1146.87 358.8 1142.34 380.108 C 1129.83 383.462 1121.37 383.443 1109.23 378.594 C 1108.97 378.769 1108.71 378.94 1108.46 379.118 C 1104.31 382.055 1097.72 387.855 1097.45 393.338 C 1097.33 395.8 1098.48 397.542 1100.22 399.14 C 1107.09 405.432 1124.16 405.207 1132.96 404.061 C 1130.93 408.266 1128.55 412.262 1126.21 416.298 C 1123.59 418.063 1121.07 419.366 1117.9 419.745 C 1111.99 420.451 1105.95 419.429 1100.1 418.612 C 1074.01 414.972 1054.13 403.627 1033.47 387.572 C 1010.53 369.744 994.027 344.875 990.54 315.51 C 989.45 306.327 990.464 297.188 996.537 289.845 C 1007.83 276.198 1030.31 270.217 1047.18 268.396 z"/>
<path transform="translate(0,0)" fill="rgb(2,4,49)" d="M 1106.97 321.515 L 1109.86 322.301 C 1111.75 324.229 1111.7 324.19 1111.84 326.886 C 1105.83 336.616 1098.7 345.616 1092.7 355.354 C 1087.01 364.592 1082.74 377.542 1075.37 385.265 C 1072.85 385.056 1071.82 385.171 1069.76 383.787 C 1069.77 383.345 1069.77 382.901 1069.81 382.46 C 1070.8 368.547 1096.17 330.857 1106.97 321.515 z"/>
<path transform="translate(0,0)" fill="rgb(59,68,102)" d="M 375.772 593.78 C 377.023 602.39 369.165 663.135 366.47 672.044 C 362.982 683.575 354.469 693.259 347.259 702.682 C 322.641 734.854 296.695 762.26 260.858 782.222 C 272.233 768.075 285.486 753.959 295.589 738.991 C 297.343 736.394 299.605 733.399 299.013 730.116 L 296.984 729.49 C 288.161 733.863 251.49 776.721 247.214 786.665 C 245.936 789.637 245.864 791.323 247.114 794.269 C 248.256 794.812 248.459 794.992 249.866 795.21 C 257.417 796.383 266.924 789.1 272.902 785.411 C 301.957 767.477 324.979 744.843 345.754 717.984 C 351.064 711.119 356.859 699.517 363.331 694.386 L 363.452 697.227 C 361.363 718.8 357.2 739.865 352.487 760.986 C 339.688 768.805 331.12 784.694 322.121 796.424 C 311.749 809.942 301.29 823.685 289.437 835.949 C 267.299 828.297 244.93 818.851 224.781 806.836 C 212.095 799.272 200.136 790.323 187.726 782.283 C 190.364 772.53 193.765 762.934 196.896 753.329 C 198.794 753.026 200.689 752.706 202.581 752.368 C 222.113 748.858 241.722 740.583 258.016 729.264 C 272.79 719.001 284.935 705.667 297.124 692.572 C 311.052 677.609 325.392 662.741 338.087 646.705 C 351.491 629.775 363.454 611.515 375.772 593.78 z"/>
<path transform="translate(0,0)" fill="rgb(255,255,255)" d="M 1259.16 519.323 C 1275.17 516.724 1300.01 521.352 1314.31 528.877 L 1314.54 530.044 C 1308.64 533.956 1301.22 535.473 1294.71 538.252 C 1283.85 542.893 1271.12 553.075 1262.92 561.637 C 1260.75 563.905 1259.78 565.692 1259.81 568.817 L 1261.58 569.943 C 1268.83 569.414 1282.35 554.802 1290.28 550.167 C 1300.75 544.041 1312.46 540.431 1323.61 535.737 C 1324.9 536.695 1326.19 537.672 1327.46 538.67 C 1346.81 553.916 1364.34 579.015 1366.65 604.135 C 1367.08 608.753 1366.27 613.597 1363.07 617.135 C 1356.1 624.858 1338.89 624.519 1329.03 625.379 C 1328.41 625.77 1327.8 626.174 1327.21 626.591 C 1323.8 628.995 1322.96 631.246 1322.25 635.171 C 1322.86 636.536 1322.88 637.502 1324.35 638.149 C 1333.54 642.192 1353.23 633.346 1361.73 629.727 C 1357.08 639.129 1352.53 648.506 1346.96 657.414 C 1313 656.754 1266.46 643.941 1241.63 619.655 C 1220.64 599.119 1206.91 567.633 1206.62 538.345 C 1223.59 528.847 1239.94 522.491 1259.16 519.323 z"/>
<path transform="translate(0,0)" fill="rgb(59,68,102)" d="M 556.128 223.776 C 561.255 226.686 582.824 249.039 588.253 254.712 C 577.036 313.205 510.807 413.837 474.014 462.692 C 470.729 456.243 467.396 449.82 464.015 443.422 C 454.778 427.634 442.336 414.128 433.326 398.256 L 434.986 398.094 C 454.164 396.178 472.832 390.152 485.361 374.609 C 493.027 365.099 497.538 353.299 495.866 340.988 C 493.582 324.174 483.509 316.948 471.181 307.144 C 502.518 283.616 529.868 252.76 556.128 223.776 z"/>
<path transform="translate(0,0)" fill="rgb(255,255,255)" d="M 883.104 910.713 C 895.106 919.71 905.024 929.51 918.254 937.148 C 968.636 966.233 1027.68 971.231 1083.48 955.827 C 1105.6 949.72 1140.88 936.24 1152.9 915.214 C 1157.74 916.76 1162.45 918.581 1167.18 920.421 C 1170.47 932.525 1171.01 943.72 1166.48 955.642 C 1163.69 960.883 1159.64 965.67 1155.17 969.54 C 1121.59 998.649 1042.6 1010.56 999.147 1007.07 C 954.916 1003.51 911.625 985.446 882.654 951.152 C 883.604 937.603 883.446 924.28 883.104 910.713 z"/>
<path transform="translate(0,0)" fill="rgb(255,255,255)" d="M 382.637 241.287 C 385.642 245.141 389.663 247.94 393.471 250.929 C 398.182 254.627 406.56 261.417 407.289 267.498 C 403.361 271.837 394.689 269.792 390.379 274.955 C 388.784 276.866 388.427 278.393 388.449 280.796 L 390.199 282.332 C 396.282 282.25 401.286 276.376 407.095 276.462 C 408.559 276.484 409.839 276.558 410.77 277.773 C 416.795 285.635 423.835 332.838 422.086 344.96 C 419.933 359.874 412.175 384.531 399.403 393.555 C 391.513 399.13 382.106 396.967 373.25 395.594 C 348.79 390.363 330.032 375.705 313.28 357.875 C 314.674 351.482 316.127 344.96 316.285 338.391 C 316.509 329.087 314.197 321.813 307.764 315.085 C 314.023 308.325 319.295 300.406 324.967 293.134 C 341.199 272.326 359.175 253.743 382.637 241.287 z"/>
<path transform="translate(0,0)" fill="rgb(2,4,56)" d="M 392.309 302.795 C 397.662 310.243 402.338 315.283 409.081 321.541 C 412.211 324.447 417.01 327.922 416.576 332.656 C 415.871 340.355 406.722 349.416 401.306 354.547 C 393.363 362.072 389.152 361.591 378.747 361.259 C 376.424 360.622 376.06 361.086 374.799 358.889 C 377.374 356.714 382.547 357.106 385.812 356.369 C 396.217 354.02 405.419 341.238 410.579 332.509 C 404.538 326.343 392.013 318.565 390.193 309.884 C 389.459 306.382 390.549 305.576 392.309 302.795 z"/>
<path transform="translate(0,0)" fill="rgb(2,4,56)" d="M 358.76 281.982 C 361.759 282.015 363.684 281.974 366.122 283.851 L 366.288 285.524 C 363.294 292.004 353.26 293.012 347.871 297.061 C 347.395 297.419 346.934 297.798 346.466 298.167 C 344.888 299.518 343.894 300.508 341.812 300.899 L 340.661 299.216 C 340.841 297.611 341.058 296.241 341.849 294.802 C 345.868 287.493 351.048 284.554 358.76 281.982 z"/>
<path transform="translate(0,0)" fill="rgb(2,4,56)" d="M 359.308 301.987 L 363.981 302.331 C 366.048 303.615 367.568 304.824 368.295 307.28 C 369.057 309.859 368.33 312.793 366.949 315.036 C 365.517 317.359 363.885 318.512 361.271 319.249 C 358.604 318.529 358.364 318.116 356.495 316.031 L 356.596 314.213 C 359.522 311.748 362.403 309.231 365.238 306.663 C 364.838 306.548 364.445 306.409 364.039 306.318 C 355.013 304.287 354.606 313.671 348.644 317.011 C 346.745 314.695 346.493 314.629 346.428 311.671 C 349.148 306.442 354.088 304.207 359.308 301.987 z"/>
<path transform="translate(0,0)" fill="rgb(2,4,56)" d="M 409.754 286.994 L 411.439 287.295 L 412.318 288.899 C 410.6 293.195 410.418 297.212 409.29 301.593 C 408.562 304.42 407.959 305.648 405.485 307.147 L 404.488 305.755 C 404.409 300.767 404.338 299.598 400.858 296.051 C 394.415 297.269 389.517 300.744 384.039 304.13 C 391.58 294.871 398.869 291.284 409.754 286.994 z"/>
<path transform="translate(0,0)" fill="rgb(2,4,49)" d="M 371.444 343.8 C 372.975 345.614 373.367 346.775 373.845 349.089 C 372.812 352.225 371.449 353.172 368.884 354.98 C 367.777 353.799 367.121 352.774 366.299 351.396 C 367.01 347.966 369.141 346.386 371.444 343.8 z"/>
<path transform="translate(0,0)" fill="rgb(255,255,255)" d="M 973.607 1437.49 C 974.61 1442.69 976.886 1449.97 973.598 1454.69 C 969.263 1460.92 955.411 1462.37 948.279 1462.94 C 936.226 1463.91 924.432 1462.24 912.977 1458.45 C 884.431 1449.01 811.133 1403.23 788.528 1383.76 C 777.882 1374.6 762.329 1359.06 760.936 1344.32 C 760.55 1340.23 761.607 1336.79 764.425 1333.77 C 770.304 1327.46 780.31 1326.79 788.42 1326.87 C 810.978 1327.11 835.469 1336.75 856.274 1345.14 C 858.917 1346.21 863.885 1347.52 866.058 1349.2 C 866.497 1349.54 866.802 1350.02 867.175 1350.44 C 865.346 1351.99 864.417 1352.25 862.041 1352.49 C 861.492 1351.12 861.09 1349.99 860.726 1348.58 C 858.32 1349 856.444 1349.97 854.971 1351.97 C 852.301 1355.59 851.956 1359.91 848.592 1363.2 L 848.26 1363.29 C 847.534 1364.04 846.794 1364.78 846.046 1365.51 C 842.706 1365.39 840.886 1363.4 838.173 1361.52 L 835.156 1359.58 C 834.944 1356.41 835.195 1354.69 836.24 1351.69 L 834.85 1350.19 C 827.463 1351.43 830.18 1357.3 820.164 1351.88 C 816.923 1350.13 811.576 1348.78 807.938 1350.03 C 806.422 1350.54 806.123 1350.8 804.871 1351.57 C 804.253 1353.22 803.766 1353.34 804.621 1355.09 C 807.912 1361.82 836.22 1372.05 844.059 1374.35 C 846.987 1375.21 849.987 1375.67 853.009 1376.04 C 856.126 1370.85 859.123 1365.44 862.56 1360.46 C 866.668 1359.27 870.857 1358.2 874.891 1356.78 C 887.215 1372.82 900.916 1386.28 921.952 1389.22 C 935.401 1391.1 946.898 1388.69 957.735 1380.42 C 962.326 1393.41 970.925 1418.46 964.249 1431.75 C 962.174 1435.88 958.521 1438.34 954.172 1439.63 C 921.99 1449.19 865.964 1412.05 838.184 1396.03 C 820.518 1385.83 799.188 1371.38 784.761 1356.96 C 778.854 1351.06 776.175 1337.53 768.346 1334.73 C 766.544 1335.99 765.78 1336.58 765.445 1338.98 C 764.266 1347.42 775.752 1360.22 781.421 1365.94 C 802.873 1387.56 878.277 1432.56 905.863 1443.07 C 917.685 1447.7 930.248 1450.17 942.947 1450.33 C 952.137 1450.37 962.559 1448.91 969.388 1442.2 C 970.881 1440.71 972.29 1439.14 973.607 1437.49 z"/>
<path transform="translate(0,0)" fill="rgb(2,4,49)" d="M 838.173 1361.52 C 839.064 1358.25 839.735 1356.08 841.967 1353.48 C 844.538 1352.42 844.882 1352.21 847.585 1352.73 L 848.942 1354.55 C 848.235 1357.76 844.599 1358.33 845.414 1361.07 L 848.592 1363.2 L 848.26 1363.29 C 847.534 1364.04 846.794 1364.78 846.046 1365.51 C 842.706 1365.39 840.886 1363.4 838.173 1361.52 z"/>
<path transform="translate(0,0)" fill="rgb(255,255,255)" d="M 405.696 472.655 C 410.673 477.504 421.114 508.864 425.364 517.727 C 429.166 525.656 433.494 532.22 439.118 538.96 C 439.214 550.589 440.819 564.404 438.035 575.702 C 434.432 590.329 403.336 612.989 400.593 623.419 C 400.198 624.922 401.014 625.737 401.653 627.032 L 403.872 627.642 C 415.582 623.819 428.991 603.422 436.762 594.09 L 406.651 719.833 L 403.3 736.745 C 389.436 746.729 376.678 758.231 362.737 768.201 C 369.357 725.683 376.021 683.32 381.068 640.572 C 384.051 615.299 387.349 589.087 386.622 563.619 C 385.944 539.893 382.83 518.674 374.664 496.447 C 376.383 494.572 380.386 494.037 382.921 493.313 C 393.026 490.426 399.933 480.982 405.696 472.655 z"/>
<path transform="translate(0,0)" fill="rgb(255,255,255)" d="M 246.815 167.371 C 283.668 164.906 330.706 173.839 363.208 192.242 C 328.167 207.623 302.241 230.332 277.229 258.875 C 260.671 277.92 246.981 298.526 234.662 320.509 C 229.582 308.265 225.776 295.53 223.303 282.507 C 218.281 256.363 215.158 195.691 231.302 173.386 C 235.199 168.002 240.761 168.207 246.815 167.371 z"/>
<path transform="translate(0,0)" fill="rgb(255,255,255)" d="M 1049.64 1649.51 C 1052.59 1649.65 1054.73 1650.09 1057.54 1650.99 C 1051.04 1655.37 1040.45 1653.22 1033.57 1657.92 L 1034.5 1659.11 C 1049.47 1662.55 1064.22 1658.08 1078.9 1655.1 C 1084.93 1662.77 1091.61 1668.55 1101.01 1671.7 C 1117.54 1677.25 1134.58 1673.96 1149.69 1666.13 C 1156.3 1681.31 1159.14 1697.09 1162.99 1713.08 C 1143.88 1725.37 1125.42 1726.8 1103.22 1724.07 C 1075.02 1720.34 1032.13 1708.46 1005.06 1699.02 C 990.459 1693.93 958.982 1683.89 952.681 1668.83 C 951.698 1666.48 951.327 1665.04 952.19 1662.64 C 955.693 1660.25 959.693 1659.09 963.806 1658.17 C 973.659 1655.97 1028.49 1649.06 1035.91 1650.31 C 1037.48 1651.95 1038.21 1652.76 1040.33 1653.69 C 1043.06 1652.77 1045.94 1651.97 1048.36 1650.39 C 1048.8 1650.1 1049.22 1649.8 1049.64 1649.51 z"/>
<path transform="translate(0,0)" fill="rgb(2,4,56)" d="M 1040.01 1663.35 C 1040.16 1663.41 1040.32 1663.43 1040.45 1663.51 C 1044.61 1665.82 1047.07 1670 1047.97 1674.6 C 1048.46 1677.12 1048.2 1679.8 1046.49 1681.84 C 1044.66 1684 1041.83 1684.84 1039.14 1685.26 C 1025.39 1687.36 997.373 1681.74 986.356 1673.28 C 987.238 1671.85 988.517 1669.72 990.013 1668.87 C 994.817 1666.15 1024.58 1679.62 1037.02 1675 C 1036.28 1673.05 1030 1671.75 1027.78 1670.69 C 1025.73 1669.72 1025.31 1669.84 1024.52 1667.6 C 1028.31 1664.48 1035.21 1664.17 1040.01 1663.35 z"/>
<path transform="translate(0,0)" fill="rgb(255,255,255)" d="M 1214.09 1861.97 C 1223.37 1866.17 1231.03 1872.54 1241.12 1875.72 C 1257.65 1880.93 1270.12 1873.33 1284.42 1866.23 C 1290.5 1884.05 1293.3 1903.83 1297.06 1922.3 C 1251.12 1933.09 1230.79 1933.27 1184.99 1921.92 C 1158.35 1916.05 1128.74 1915.21 1103.44 1904.74 C 1096.02 1901.67 1087.16 1895.98 1084.42 1887.96 C 1083.58 1885.52 1083.89 1884.46 1084.99 1882.23 C 1101.8 1876.81 1120.64 1876.84 1138.09 1874.87 C 1150.29 1873.48 1162.2 1871.06 1174.33 1869.25 C 1178.87 1868.57 1179.93 1867.91 1183.82 1870.85 L 1185.16 1871.88 C 1193.94 1873.65 1206.61 1866.18 1214.09 1861.97 z"/>
<path transform="translate(0,0)" fill="rgb(2,4,56)" d="M 1147.92 1890.13 L 1151.39 1889.78 L 1151.6 1888.6 L 1153.74 1888.73 L 1150.35 1887.48 C 1148.3 1884.93 1146.88 1883.01 1145.91 1879.87 C 1148.43 1878.1 1160.49 1880.38 1164.18 1880.73 C 1165.37 1879.27 1164.94 1879.97 1165.83 1878.12 C 1166.05 1877.66 1166.26 1877.2 1166.48 1876.74 C 1167.44 1876.17 1167.53 1876.04 1168.8 1875.74 C 1173 1874.75 1182.38 1876.2 1186.01 1878.55 C 1188.34 1880.06 1189.09 1881.89 1189.75 1884.43 C 1189.03 1886.58 1188.21 1887.86 1186.36 1889.24 C 1176.04 1896.9 1138.07 1900.68 1125.44 1898.69 C 1122.21 1898.18 1119.96 1897.41 1118 1894.62 C 1117.81 1892.13 1117.37 1892.31 1118.99 1890.16 C 1124.93 1888.72 1132.71 1890.15 1138.98 1889.94 C 1138.49 1886.57 1138.21 1885.75 1139.56 1882.52 L 1141.59 1881.7 C 1144.4 1882.97 1145.87 1884.01 1146.96 1887 C 1147.33 1888.03 1147.61 1889.08 1147.92 1890.13 z"/>
<path transform="translate(0,0)" fill="rgb(255,255,255)" d="M 1572.57 1093.76 C 1576.77 1101.72 1578.98 1112.5 1581.61 1121.16 C 1556.62 1161.24 1503.96 1191.64 1460.1 1206.36 C 1408.58 1223.65 1352.42 1227.74 1302.71 1202.95 C 1301.75 1202.47 1300.97 1202.13 1300.12 1201.43 C 1294.18 1196.47 1295 1181 1294.77 1173.94 C 1328.64 1192.21 1366.54 1195.02 1404.31 1190.08 C 1470.77 1181.05 1531.12 1146.5 1572.57 1093.76 z"/>
<path transform="translate(0,0)" fill="rgb(59,68,102)" d="M 221.298 367.388 L 224.212 368.396 C 220.385 372.685 216.842 376.951 214.928 382.46 C 213.143 387.598 213.123 393.301 215.787 398.146 C 221.237 408.061 253.882 422.588 265.114 425.854 C 268.008 426.696 272.129 425.593 274.517 426.801 C 279.101 429.12 287.617 441.148 293.322 445.588 C 315.756 463.048 353.744 480.868 366.734 506.74 C 369.116 511.485 370.181 517.457 371.5 522.601 C 351.879 512.536 332.28 506.821 311.583 499.689 C 285.67 490.758 259.63 481.237 232.829 475.277 C 219.154 472.235 205.1 471.051 191.351 468.48 C 187.547 467.768 183.146 466.82 181.187 463.109 C 176.609 454.438 181.125 440.658 184.471 432.094 C 209.093 448.498 239.943 453.693 267.062 465.097 C 288.985 474.316 308.092 487.427 328.456 499.445 C 332.534 501.852 338.969 506.234 343.78 505.006 C 345.632 503.324 345.831 503.796 346.032 501.106 C 340.96 494.089 332.35 491.036 325.305 486.458 C 306.959 474.537 288.468 463.28 268.088 455.043 C 253.334 449.08 198.752 434.817 191.432 425.28 C 189.525 422.796 188.869 418.178 189.031 415.138 C 190.084 395.374 207.436 379.349 221.298 367.388 z"/>
<path transform="translate(0,0)" fill="rgb(255,255,255)" d="M 374.059 199.098 C 378.837 198.704 382.669 199.33 387.115 201.202 C 397.782 205.694 403.134 214.78 407.311 225.002 C 406.589 225.085 405.867 225.175 405.147 225.27 C 343.085 233.609 300.628 309.777 265.807 355.315 C 264.684 356.822 262.692 359.093 260.912 359.856 C 259.498 360.462 258.097 360.841 256.611 360.333 C 248.066 357.416 241.184 335.757 237.956 327.768 C 249.309 314.967 258.307 299.871 268.276 285.965 C 294.656 249.163 329.681 212.648 374.059 199.098 z"/>
<path transform="translate(0,0)" fill="rgb(188,190,200)" d="M 1762.21 1821.05 C 1764.78 1820.94 1767.07 1820.84 1769.4 1822.22 C 1771.28 1823.34 1772.46 1825.18 1772.99 1827.28 C 1777.13 1843.66 1740.1 1910.84 1730.26 1926.78 C 1726.78 1932.42 1722.69 1937.39 1717.34 1941.36 C 1695.5 1957.57 1651.95 1967.96 1625.21 1974.22 L 1624.34 1974.41 C 1621.16 1975.07 1617.49 1975.88 1614.66 1974.04 C 1617.68 1969.93 1635.45 1962.58 1641.09 1958.92 C 1675.92 1936.3 1686.13 1912.37 1705.06 1877.99 C 1718.86 1852.93 1733.35 1829.46 1762.21 1821.05 z"/>
<path transform="translate(0,0)" fill="rgb(255,255,255)" d="M 946.261 337.691 C 948.273 341.093 958.59 356.28 961.752 357.568 L 961.803 353.947 C 963.569 355.072 964.608 356.357 965.912 357.978 C 966.152 359.149 966.64 360.135 967.113 361.227 C 969.561 360.109 970.654 354.508 971.97 351.813 C 977.275 353.834 977.029 362.697 980.059 367.155 L 981.41 365.873 C 981.569 363.319 981.661 360.793 981.693 358.234 C 983.871 361.06 988.381 382.54 990.065 387.742 C 984.596 397.384 970.578 413.021 967.553 421.457 C 966.534 424.298 966.846 425.966 968.198 428.568 C 979.325 435.175 987.649 420.248 997.528 422.082 L 998.293 424.897 C 995.199 439.152 981.649 452.771 972.431 463.429 C 953.499 455.14 932.757 451.612 912.664 447.208 C 909.585 439.978 907.373 430.613 909.591 422.854 C 911.769 415.229 917.775 412.507 924.263 409.051 C 926.501 403.565 915.205 401.714 912.972 396.23 C 913.104 394.02 912.612 393.151 914.255 391.554 C 917.474 393.47 920.498 397.087 924.161 397.481 C 925.963 394.352 925.066 389.801 924.863 386.295 C 923.079 384.657 921.21 383.015 919.609 381.196 C 917.796 379.135 917.781 377.138 917.982 374.499 C 921.554 367.449 932.143 364.41 939.088 361.27 C 942.907 353.705 944.553 345.916 946.261 337.691 z"/>
<path transform="translate(0,0)" fill="rgb(2,4,56)" d="M 946.593 360.439 C 947.948 361.011 948.419 361.4 949.333 362.592 C 952.121 366.229 955.599 369.817 957.866 373.773 C 958.801 375.406 957.891 376.562 957.397 378.276 L 953.012 378.226 C 949.971 376.626 947.551 374.994 946.153 371.708 C 944.377 367.534 944.87 364.46 946.593 360.439 z"/>
<path transform="translate(0,0)" fill="rgb(2,4,56)" d="M 950.032 350.341 C 955.659 352.96 957.98 360.95 962.381 365.188 C 962.682 365.478 962.993 365.757 963.298 366.041 L 962.339 368.892 C 962.082 368.824 961.822 368.771 961.57 368.688 C 956.792 367.121 951.569 363.628 949.4 358.963 C 947.725 355.361 948.761 353.684 950.032 350.341 z"/>
<path transform="translate(0,0)" fill="rgb(255,255,255)" d="M 317.714 375.39 C 337.83 393.106 358.035 403.884 384.675 408.003 C 383.994 409.203 383.193 410.489 382.679 411.781 C 378.796 421.542 397.482 452.376 402.297 462.935 C 394.173 474.716 387.283 482.587 372.959 486.394 L 366.817 487.358 C 360.051 483.754 353.802 476.577 347.513 471.874 C 329.578 458.46 297.9 442.104 286.602 422.86 C 293.987 419.739 300.959 416.326 306.772 410.623 C 316.863 400.723 317.872 388.71 317.714 375.39 z"/>
<path transform="translate(0,0)" fill="rgb(255,255,255)" d="M 313.853 1367.87 C 322.585 1382.78 333.307 1389.23 349.526 1394.29 C 349.86 1394.16 350.192 1394.02 350.527 1393.89 C 351.037 1393.69 351.553 1393.52 352.062 1393.32 C 356.548 1391.56 360.669 1391.39 365.277 1393.11 C 363.295 1393.65 361.602 1394.2 359.777 1395.15 C 359.664 1397.16 359.402 1396.76 360.062 1398.2 C 360.524 1399.21 361.29 1400.27 361.589 1401.34 C 362.303 1403.89 361.447 1404.63 360.215 1406.81 C 357.628 1409.97 356.144 1412.1 356.582 1416.29 C 356.907 1419.4 358.259 1422.26 360.908 1424.06 C 363.719 1425.98 367.402 1426.2 370.537 1425 C 372.903 1424.09 374.618 1421.11 376.02 1419.1 C 378.198 1417.61 380.241 1416.49 382.621 1415.39 C 385.379 1415.91 385.304 1415.86 386.994 1418.11 C 380.381 1421.95 377.066 1427.01 373.018 1433.23 C 378.164 1436.94 384.552 1443.02 391.417 1441.59 C 393.003 1441.26 393.21 1441.13 394.593 1440.62 C 396.736 1441.96 397.321 1441.94 398.464 1444.3 L 395.657 1447.93 L 395.979 1448.89 L 400.41 1448.64 C 396.991 1451.54 392.523 1451.57 388.549 1453.3 C 386.048 1454.39 385.292 1455.33 384.279 1457.78 C 384.905 1460.12 385.089 1460.49 386.809 1462.19 C 398.085 1464.83 415.511 1455.73 428.272 1455.09 L 429.613 1455.03 C 440.64 1462.68 451.67 1473.83 459.891 1484.43 C 443.933 1488.79 423.907 1488.82 407.727 1485.56 C 373.162 1478.6 356.857 1450.44 334.409 1426.41 C 324.564 1415.87 312.116 1406.08 304.217 1394.04 C 307.064 1385.1 310.094 1376.48 313.853 1367.87 z"/>
<path transform="translate(0,0)" fill="rgb(132,136,159)" d="M 398.893 236.885 C 413.102 233.55 425.162 237.477 437.347 244.93 C 444.568 249.348 452.353 255.811 454.624 264.33 C 454.984 265.681 455.13 267.045 455.293 268.429 C 457.384 289.613 437.33 314.216 454.779 328.445 C 460.54 333.143 468.667 337.894 469.671 346.01 C 470.164 349.998 468.375 355.23 470.007 358.727 C 472.551 357.424 473.815 355.02 474.578 352.353 C 476.054 347.198 475.112 341.952 472.482 337.33 C 464.756 323.751 450.141 324.039 454.09 304.339 L 455.433 304.098 C 455.696 304.427 455.952 304.761 456.222 305.084 C 468.134 319.375 488.387 325.041 487.145 347.794 C 486.62 357.42 480.551 367.805 473.461 374.119 C 461.612 384.671 444.142 391.473 428.233 390.54 C 424.972 390.349 423.15 389.548 420.571 387.602 L 418.924 384.394 C 424.333 372.393 429.991 360.689 433.072 347.83 C 434.15 348.162 435.483 348.496 436.484 349.057 C 438.749 350.327 440.636 351.933 441.276 354.563 C 442.751 360.626 435.499 365.982 432.606 370.63 C 431.352 372.645 431.28 372.811 431.877 374.987 L 434.274 375.937 C 439.741 371.732 444.566 363.974 446.291 357.349 C 447.201 353.854 447.227 349.943 444.96 346.92 C 442.191 343.227 438.212 342.998 434 342.611 C 434.268 328.867 430.352 315.802 427.106 302.561 C 436.348 292.561 443.513 282.161 445.411 268.363 C 443.107 264.67 440.783 261.451 436.941 259.226 C 430.051 255.238 422.617 256.767 415.312 258.476 L 415.777 260.395 L 414.742 261.28 C 410.506 255.733 405.531 251.669 400.198 247.209 L 388.797 239.021 C 392.136 238.112 395.488 237.498 398.893 236.885 z"/>
<path transform="translate(0,0)" fill="rgb(119,125,150)" d="M 398.893 236.885 C 413.102 233.55 425.162 237.477 437.347 244.93 C 444.568 249.348 452.353 255.811 454.624 264.33 C 454.984 265.681 455.13 267.045 455.293 268.429 C 453.931 266.828 453.125 265.544 452.319 263.643 C 449.28 256.478 444.046 251.756 437.715 247.518 C 430.149 247.184 422.103 245.949 414.601 246.886 C 413.576 249.474 414.883 251.916 415.588 254.565 C 423.69 255.346 438.858 254.204 443.884 261.931 C 444.907 263.504 446.035 266.47 445.411 268.363 C 443.107 264.67 440.783 261.451 436.941 259.226 C 430.051 255.238 422.617 256.767 415.312 258.476 L 415.777 260.395 L 414.742 261.28 C 410.506 255.733 405.531 251.669 400.198 247.209 L 388.797 239.021 C 392.136 238.112 395.488 237.498 398.893 236.885 z"/>
<path transform="translate(0,0)" fill="rgb(89,97,128)" d="M 388.797 239.021 C 392.136 238.112 395.488 237.498 398.893 236.885 C 400.961 241.695 406.003 242.941 410.493 244.837 C 412.828 248.402 413.333 250.282 413.183 254.421 C 413.129 255.932 413.162 255.416 413.535 257.34 L 415.312 258.476 L 415.777 260.395 L 414.742 261.28 C 410.506 255.733 405.531 251.669 400.198 247.209 L 388.797 239.021 z"/>
<path transform="translate(0,0)" fill="rgb(2,4,56)" d="M 461.868 342.384 L 463.848 344.569 C 465.143 351.008 464.613 355.964 461.304 361.774 C 455.724 371.57 447.155 378.377 436.32 381.182 C 434.453 376.608 446.737 372.619 449.964 369.787 C 457.85 362.865 459.088 351.91 461.868 342.384 z"/>
<path transform="translate(0,0)" fill="rgb(255,255,255)" d="M 72.5244 1609.27 C 73.4614 1599.82 75.906 1590.65 78.8292 1581.64 C 85.2701 1589.3 88.7717 1593.46 99.2915 1594.03 C 101.896 1594.17 104.887 1594.26 107.311 1595.32 C 110.869 1596.86 110.082 1603.1 111.478 1606.9 C 117.832 1612.52 125.111 1606.31 133.029 1607.19 C 133.317 1608.34 121.707 1620 120.377 1623.43 C 120.553 1626.05 120.578 1626.16 122.29 1628.15 L 129.103 1627.12 L 129.329 1627.71 L 126.987 1630.75 L 127.233 1632.54 C 129.455 1632.36 130.216 1631.74 131.893 1630.32 C 132.331 1628.69 132.58 1627.31 133.673 1625.96 C 133.872 1625.72 134.111 1625.51 134.331 1625.28 C 139.999 1623 145.435 1620.28 151.625 1620.13 C 149.585 1621.72 147.636 1623.01 146.168 1625.17 C 142.504 1627.81 139.081 1630.32 135.892 1633.55 L 145.006 1642.31 C 154.973 1638.35 164.722 1632.36 173.77 1626.6 L 174.433 1629.48 C 169.181 1633.23 163.04 1635.01 157.951 1639.18 C 152.412 1643.63 143.968 1648.42 142.868 1655.91 C 143.562 1658.9 144.336 1659.7 146.502 1661.7 L 148.985 1662.14 C 153.708 1658.64 155.162 1653.33 160.453 1649.92 C 160.566 1649.85 160.675 1649.77 160.787 1649.69 C 165.965 1647.51 176.135 1641.22 181.727 1642.85 C 184.95 1643.78 186.109 1646.74 187.878 1649.35 C 180.85 1650.63 173.348 1651.62 166.548 1653.78 C 158.084 1656.48 152.16 1659.98 148.18 1668.19 C 146.23 1672.21 144.85 1676.33 146.256 1680.72 L 148.115 1681.52 C 154.33 1679.12 156.863 1672.41 159.81 1666.89 C 170.856 1663.08 182.069 1660.14 193.458 1657.56 C 202.087 1666.31 210.226 1674.8 216.842 1685.23 C 207.906 1688.89 198.439 1690.63 188.817 1691.08 C 165.141 1692.18 141.531 1690.42 126.866 1669.27 C 120.418 1659.97 114.839 1650.02 107.552 1641.32 C 97.4386 1629.25 84.1994 1619.79 72.5244 1609.27 z"/>
<path transform="translate(0,0)" fill="rgb(255,255,255)" d="M 1144.56 510.858 C 1152.73 510.787 1188.1 528.586 1198.45 532.581 C 1198.25 533.566 1198.06 534.553 1197.9 535.544 C 1193.89 559.437 1207.5 589.692 1221.16 608.644 C 1215.32 605.966 1209.24 603.76 1203.25 601.435 C 1176.55 591.149 1140.09 573.587 1125.38 547.483 C 1122.46 542.308 1120.57 536.371 1122.42 530.498 C 1125.5 520.766 1136.05 515.161 1144.56 510.858 z"/>
<path transform="translate(0,0)" fill="rgb(59,68,102)" d="M 413.211 392.52 C 415.621 392.964 418.178 394.598 419.908 396.296 C 423.497 399.816 425.069 406.42 428.222 410.592 C 435.54 420.275 443.689 429.449 450.218 439.705 C 470.449 471.482 484.544 513.251 485.484 551.122 C 483.218 547.309 480.7 543.738 478.122 540.136 C 469.161 532.155 459.691 524.176 452.589 514.424 C 444.282 503.018 439.228 489.635 433.569 476.815 C 424.537 456.359 409.433 422.994 395.972 406.046 C 403.08 402.696 407.861 398.097 413.211 392.52 z"/>
<path transform="translate(0,0)" fill="rgb(255,255,255)" d="M 1717.89 1779.02 C 1726.98 1781.42 1736.74 1791.32 1743.93 1797.16 C 1696.91 1817.91 1687.9 1861.79 1661.21 1900.62 C 1654.68 1910.13 1646.59 1917.95 1638.3 1925.87 C 1633.78 1930.01 1629.28 1933.73 1624.25 1937.23 C 1631.86 1924.32 1637.3 1911.03 1642.84 1897.15 C 1647.33 1895.03 1650.12 1893.06 1653.13 1889.04 C 1658.74 1881.56 1665.25 1870.41 1663.52 1860.63 C 1662.9 1857.15 1659.8 1855.37 1657.16 1853.35 C 1660.48 1842.08 1662.39 1830.4 1666.51 1819.37 C 1695.09 1807.31 1691.78 1788.08 1717.89 1779.02 z"/>
<path transform="translate(0,0)" fill="rgb(255,255,255)" d="M 1169.83 595.795 C 1189.46 608.848 1207.2 610.961 1227.49 620.392 C 1226.13 625.888 1225.24 631.472 1224.29 637.048 L 1228.96 647.515 C 1227.01 654.33 1225.17 661.066 1222.29 667.554 C 1221.17 668.29 1220.03 668.987 1218.87 669.643 C 1209.17 675.292 1197.6 676.796 1186.77 673.816 C 1178.96 670.422 1171.69 665.226 1164.48 660.712 C 1168.65 657.289 1171.28 655.925 1176.49 654.878 C 1178.4 654.494 1178.49 654.065 1179.87 652.762 C 1180.84 647.946 1179.16 642.086 1178.35 637.26 C 1176.95 641.547 1176.07 645.92 1172.02 648.432 C 1165.23 649.888 1157.22 643.171 1151.57 639.678 C 1154.29 634.871 1157.52 630.978 1161.08 626.768 C 1170.03 616.165 1170.95 609.303 1169.83 595.795 z"/>
<path transform="translate(0,0)" fill="rgb(2,4,49)" d="M 1176.66 611.717 C 1175 609.554 1174.06 608.552 1173.89 605.722 C 1175.49 604.644 1174.78 604.671 1176.52 605.066 C 1184.94 606.982 1202 622.913 1206.61 630.369 L 1206.65 631.402 C 1197.98 627.473 1188.1 619.535 1179.63 614.388 L 1176.66 611.717 z"/>
<path transform="translate(0,0)" fill="rgb(2,4,56)" d="M 1176.66 611.717 L 1179.63 614.388 C 1182.96 618.1 1187.1 621.516 1189.92 625.607 C 1191.91 628.509 1194.81 633.408 1194.05 636.989 C 1192.24 636.978 1190.88 636.168 1189.45 635.077 C 1181.85 629.254 1178.13 620.83 1176.66 611.717 z"/>
<path transform="translate(0,0)" fill="rgb(255,255,255)" d="M 919.242 254.935 C 939.43 255.346 970.276 275.365 992.413 279.377 C 989.875 282.354 987.409 285.484 985.477 288.897 C 975.025 307.361 984.163 329.88 989.93 348.295 L 989.398 349.746 C 984.079 347.164 979.034 342.381 974.341 338.752 C 953.225 322.422 923.095 296.832 912.95 272.028 C 911.38 268.192 910.337 263.546 912.403 259.672 C 913.937 256.796 916.389 255.948 919.242 254.935 z"/>
<path transform="translate(0,0)" fill="rgb(255,255,255)" d="M 111.846 1497.3 C 126.162 1504.52 139.255 1510.47 155.136 1513.14 C 148.286 1533.38 142.738 1553.17 138.041 1574.03 L 122.251 1576.52 C 115.899 1578.18 113.333 1581.1 108.499 1585.3 C 105.946 1585.35 103.409 1585.36 100.879 1584.96 C 96.5336 1584.28 92.0397 1583.22 89.3513 1579.48 C 89.2133 1572.8 108.146 1509.17 111.846 1497.3 z"/>
<path transform="translate(0,0)" fill="rgb(255,255,255)" d="M 1679 1730.86 C 1685.28 1735.06 1703.07 1765.29 1707.05 1773.08 C 1692.52 1782.14 1687.97 1793.15 1676.19 1803.84 C 1673.37 1806.4 1669.17 1808.54 1665.31 1808.44 C 1655.01 1795.31 1644.67 1781.8 1633.17 1769.7 C 1646.49 1754.27 1659.69 1738.69 1679 1730.86 z"/>
<path transform="translate(0,0)" fill="rgb(255,255,255)" d="M 1673.51 1692.22 C 1675.36 1692.04 1676.89 1691.88 1678.75 1692.21 C 1680.78 1692.57 1681.94 1693.83 1683.02 1695.54 C 1687.02 1701.93 1695.56 1715.34 1693.83 1723.1 C 1689.17 1726.27 1680.08 1723.17 1674.36 1723.85 C 1657.36 1725.88 1634.62 1753.94 1625.04 1766.61 C 1623.93 1768.25 1622.77 1769.85 1621.61 1771.46 L 1619.45 1771.71 C 1612.2 1767.5 1608.2 1756.66 1602.89 1750.05 L 1602.06 1749.03 C 1619.81 1724.18 1642 1697.93 1673.51 1692.22 z"/>
<path transform="translate(0,0)" fill="rgb(255,255,255)" d="M 613.531 94.6754 C 621.109 117.245 611.464 156.021 615.306 181.802 C 616.134 187.357 618.217 192.833 619.998 198.144 C 617.906 199.643 615.579 201.257 614.208 203.483 C 607.572 214.258 600.368 235.338 595.09 247.839 C 589.191 241.623 582.445 236.064 576.051 230.355 L 564.476 219.293 C 581.635 202.287 593.949 181.945 597.465 157.904 C 599.535 143.745 600.838 130.242 605.379 116.569 C 605.674 119.201 605.756 123.198 606.816 125.583 C 607.847 127.903 608.213 128.296 610.556 129.036 C 611.446 128.019 611.904 127.207 612.181 125.87 C 613.275 120.574 613.595 108.005 610.432 103.672 C 610.153 103.29 609.835 102.938 609.536 102.571 C 610.807 99.909 612.139 97.2764 613.531 94.6754 z"/>
<path transform="translate(0,0)" fill="rgb(255,255,255)" d="M 621.137 64.6651 C 625.938 68.2774 644.543 112.381 648.132 121.001 C 650.723 122.693 653.189 124.58 655.683 126.409 C 660.094 151.912 656.22 170.965 669.57 194.849 C 655.633 194.896 644.951 196.617 632.472 203.318 L 631.262 203.417 C 629.985 191.786 623.658 181.387 623.12 169.623 C 622.531 156.733 627.381 144.519 628.317 131.799 C 628.983 122.734 625.933 111.452 624.608 102.316 C 628.268 108.456 629.015 116.504 633.224 121.975 C 635.701 121.539 635.147 121.573 636.465 119.722 C 637.923 109.478 628.41 95.1087 625.395 85.0181 C 623.409 78.3722 622.307 71.4914 621.137 64.6651 z"/>
<path transform="translate(0,0)" fill="rgb(255,255,255)" d="M 828.043 590.837 C 835.398 599.287 837.228 606.549 847.499 612.999 C 855.943 613.139 864.78 611.354 873.143 612.609 C 879.834 613.613 882.154 615.397 886.146 620.743 C 890.197 616.367 893.892 612.272 899.02 609.127 C 901.295 610.545 900.624 610.628 899.889 613.023 C 895.003 628.936 888.921 627.398 894.736 647.492 C 895.253 649.279 895.702 650.375 895.486 652.264 C 882.09 656.544 872.417 663.523 863.351 674.121 C 829.021 634.5 835.759 641.7 828.043 590.837 z"/>
<path transform="translate(0,0)" fill="rgb(255,255,255)" d="M 105.91 952.297 C 118.095 955.239 127.823 955.629 140.128 952.597 C 153.027 974.588 157.371 993.769 158.937 1019.04 C 157.34 1015.58 155.508 1011.96 154.517 1008.27 C 152.198 999.615 153.431 988.81 147.561 981.605 L 145.651 981.027 C 143.62 982.728 143.248 985.238 142.962 987.761 C 141.212 1003.23 158.965 1042.92 157.519 1045.7 C 148.841 1039.33 139.582 1012.44 136.309 1010.48 C 135.712 1010.12 134.917 1010.42 134.221 1010.39 C 132.767 1012.99 133.39 1015.33 134.23 1018.11 C 136.181 1024.55 143.209 1034.5 143.513 1040.63 C 141.513 1040.77 141.134 1040.87 139.579 1039.4 C 132.629 1032.79 125.864 1013.53 122.448 1004.28 L 120.625 1003.28 L 118.859 1004.92 C 117.747 1006.59 118.489 1005.85 116.495 1006.99 C 114.303 1006.14 112.31 1005.1 110.235 1004.01 C 104.301 988.317 104.98 968.795 105.91 952.297 z"/>
<path transform="translate(0,0)" fill="rgb(255,255,255)" d="M 943.538 1668.71 C 944.521 1669.63 944.24 1669.17 944.749 1670.38 C 946.166 1673.76 947.641 1676.85 949.839 1679.81 C 952.178 1682.96 955.059 1686.26 958.319 1688.5 C 986.628 1707.89 1069.37 1729.38 1103.9 1733.55 C 1124.68 1736.05 1148.97 1735.53 1166.19 1722.07 C 1168.3 1726.34 1170.22 1730.08 1171.01 1734.84 C 1168.08 1737.55 1165.16 1739.49 1161.48 1741.09 C 1118.61 1759.73 1015.47 1725 972.674 1707.73 C 961.239 1703.12 946.886 1695.03 942.238 1682.97 C 940.141 1677.53 941.126 1673.8 943.538 1668.71 z"/>
<path transform="translate(0,0)" fill="rgb(255,255,255)" d="M 1191.92 1762.62 C 1195.42 1764.19 1198.76 1766.83 1202.14 1768.75 C 1209.27 1772.78 1216.8 1776.04 1224.61 1778.5 C 1254.7 1788.14 1271.36 1786.73 1299.17 1772.35 C 1298.85 1780.6 1298.17 1788.83 1297.88 1797.09 L 1297.15 1799.12 C 1289.43 1804.46 1276.83 1807.05 1267.54 1808.26 C 1244.42 1811.27 1215.01 1804.09 1196.43 1789.92 C 1193.77 1781.09 1192.64 1771.79 1191.92 1762.62 z"/>
<path transform="translate(0,0)" fill="rgb(255,255,255)" d="M 1076.34 1886.68 C 1077.62 1892 1079.13 1896.58 1082.44 1901.03 C 1086.84 1906.92 1092.98 1910.79 1099.78 1913.38 C 1120.71 1921.36 1143.93 1923.04 1165.84 1927.16 C 1191.43 1931.99 1216.97 1940.23 1243.23 1940.32 C 1257.67 1940.37 1289.88 1932.97 1298.14 1934.21 L 1299.09 1935.97 C 1298.3 1939 1296.75 1940.83 1294.85 1943.21 C 1292.52 1944.48 1290.15 1945.71 1287.76 1946.87 C 1253.85 1963.16 1211.55 1946.87 1177.09 1940.33 C 1154.08 1935.96 1129.88 1933.35 1107.71 1925.62 C 1096.47 1921.7 1081.1 1914.98 1076.01 1903.47 C 1073.31 1897.38 1073.98 1892.69 1076.34 1886.68 z"/>
<path transform="translate(0,0)" fill="rgb(255,255,255)" d="M 1224.3 1812.74 C 1243.23 1819.27 1257.73 1819.81 1277.24 1816.04 C 1277.04 1826.03 1279.91 1854.79 1273.72 1861.62 C 1268.69 1864.23 1263.58 1866.38 1257.94 1867.16 C 1244.45 1869.01 1233.35 1864.17 1222.77 1856.34 C 1224.37 1841.93 1224.12 1827.23 1224.3 1812.74 z"/>
<path transform="translate(0,0)" fill="rgb(255,255,255)" d="M 357.371 1298.59 C 360.012 1300.98 362.199 1304.51 364.555 1307.25 C 373.153 1317.22 381.388 1321.56 393.566 1325.79 C 385.447 1336.14 378.108 1349.16 375.937 1362.22 C 370.336 1363.46 364.809 1364.89 359.266 1366.36 C 355.53 1368.51 352.997 1370.71 350.146 1373.94 C 343.148 1369.23 337.141 1363.74 331.138 1357.84 C 341.763 1338.79 349.452 1318.86 357.371 1298.59 z"/>
<path transform="translate(0,0)" fill="rgb(255,255,255)" d="M 68.7292 1619.43 C 81.3038 1627.38 93.8909 1639.84 103.051 1651.57 C 111.739 1662.71 122.983 1685.42 134.97 1692.07 C 149.794 1700.3 184.647 1701.82 201.238 1699.37 C 207.442 1698.46 213.123 1695.66 219.226 1694.56 C 221.569 1694.13 222.187 1694.18 224.231 1695.19 C 225.282 1699.36 223.532 1701.93 221.512 1705.51 C 220.339 1706.33 219.16 1707.14 217.929 1707.87 C 200.959 1717.95 163.115 1713.4 144.964 1708.64 C 139.381 1707.17 134.413 1705.16 130.084 1701.26 C 117.151 1689.6 105.024 1667.21 92.1936 1653.63 C 85.7247 1646.78 71.0857 1635.69 67.7678 1627.56 C 66.5193 1624.5 67.8019 1622.37 68.7292 1619.43 z"/>
<path transform="translate(0,0)" fill="rgb(255,255,255)" d="M 298.951 1403.73 C 303.585 1407.45 307.729 1412.51 311.854 1416.81 C 319.537 1424.83 327.359 1432.77 334.747 1441.06 C 348.717 1456.74 361.522 1475.12 380.15 1485.61 C 399.488 1496.5 423.047 1497.82 444.732 1496.43 C 449.608 1496.11 454.456 1494.64 459.29 1494.53 C 461.74 1494.47 462.547 1494.68 464.554 1495.92 C 465.128 1498.55 464.449 1499.93 463.558 1502.38 C 441.805 1510.42 415.172 1507.89 393.273 1501.66 C 385.573 1499.47 376.312 1496.54 369.71 1491.92 C 362.339 1486.76 300.155 1419.26 297.228 1412.69 C 295.943 1409.8 297.843 1406.46 298.951 1403.73 z"/>
<path transform="translate(0,0)" fill="rgb(255,255,255)" d="M 1749.98 1806.08 C 1752.88 1805.8 1754.89 1805.76 1757.23 1807.74 C 1758.65 1808.94 1758.2 1808.42 1758.25 1810.51 C 1754.64 1814.64 1746.43 1816.57 1741.51 1819.55 C 1733.11 1824.65 1725.84 1831.45 1719.56 1838.97 C 1703.18 1858.59 1693.64 1880.95 1681.27 1902.94 C 1665.9 1930.26 1640.29 1951.34 1612.27 1964.65 C 1611.52 1964.96 1610.46 1965.43 1609.68 1965.55 C 1607.2 1965.92 1606.57 1965.39 1604.79 1963.93 L 1604.91 1961.6 C 1610.58 1952.86 1626 1947.47 1634.61 1941.29 C 1641.81 1936.03 1648.47 1930.08 1654.51 1923.51 C 1680.89 1894.73 1698.82 1841.2 1726.12 1818.59 C 1733.45 1812.52 1741.06 1809.13 1749.98 1806.08 z"/>
<path transform="translate(0,0)" fill="rgb(255,255,255)" d="M 186.167 790.774 C 213.019 813.341 246.951 831.173 280.246 842.321 C 294.34 847.041 310.235 850.236 323.634 856.498 C 323.149 859.502 321.295 861.053 319.414 863.403 L 316.963 864.609 C 307.403 864.815 296.452 860.109 287.453 856.967 C 248.932 843.521 215.503 827.074 183.568 801.273 L 186.167 790.774 z"/>
<path transform="translate(0,0)" fill="url(#Gradient1)" d="M 270.234 368.837 L 271.478 371.266 C 268.182 374.018 263.862 376.977 261.68 380.716 C 259.666 384.167 258.945 387.49 259.822 391.369 C 261.617 394.11 263.41 395.262 266.552 395.956 C 279.283 398.771 291.664 392.684 299.024 382.248 C 301.516 378.715 303.748 373.195 307.321 370.783 C 308.756 373.126 308.957 375.034 308.893 377.772 C 308.737 384.539 303.587 390.812 298.807 395.091 C 290.268 402.734 279.865 408.309 268.212 407.655 C 266.015 407.532 267.047 407.234 265.213 408.526 C 268.987 409.45 272.984 410.159 276.885 409.817 C 287.092 408.924 298.722 401.178 305.092 393.245 C 306.332 391.701 307.459 390.382 308.978 389.094 C 309.489 388.662 310.01 388.24 310.525 387.812 C 308.671 392.424 306.72 397.354 303.717 401.351 C 297.397 409.762 287.537 415.255 277.14 416.631 C 268.359 417.794 259.156 415.919 252.073 410.432 C 246.791 406.34 243.056 400.193 242.576 393.456 C 242.181 388.241 243.895 383.086 247.334 379.146 C 252.59 373.113 262.392 369.471 270.234 368.837 z"/>
<path transform="translate(0,0)" fill="rgb(59,68,102)" d="M 350.821 770.872 L 351.264 771.351 C 354.608 779.95 335.155 839.722 330.479 850.485 C 324.356 847.915 317.981 845.792 311.742 843.507 C 307.767 842.113 303.83 840.592 299.882 839.124 C 309.989 826.746 320.295 814.455 329.715 801.542 C 337.032 791.512 343.589 780.962 350.821 770.872 z"/>
<path transform="translate(0,0)" fill="rgb(255,255,255)" d="M 1135.76 1625.86 C 1138.32 1636.85 1138.23 1649.39 1138.98 1660.66 C 1136.4 1661.56 1133.82 1662.46 1131.17 1663.12 C 1118.29 1666.36 1103.83 1664.02 1092.56 1657.2 C 1085.92 1650.88 1084.37 1644.97 1083.15 1636.23 C 1103.99 1639.22 1117.7 1636.78 1135.76 1625.86 z"/>
<path transform="translate(0,0)" fill="rgb(255,255,255)" d="M 755.071 337.363 C 765.94 342.22 841.914 419.88 854.234 433.077 C 852.618 432.658 851.099 432.1 849.577 431.408 C 829.289 422.19 780.336 384.386 767.322 366.104 C 761.516 357.948 758.518 346.732 755.071 337.363 z"/>
<path transform="translate(0,0)" fill="rgb(255,255,255)" d="M 398.809 751.924 C 398.857 751.976 398.926 752.013 398.952 752.078 C 400.302 755.42 397.658 761.964 396.674 765.633 C 388.643 795.602 378.558 805.771 352.108 821.097 L 351.591 820.631 C 350.512 817.109 359.265 786.117 360.732 779.312 C 374.533 771.91 387.149 762.316 398.809 751.924 z"/>
<path transform="translate(0,0)" fill="rgb(255,255,255)" d="M 1263.39 648.993 C 1268.33 648.578 1273.55 649.033 1277.64 652.164 C 1280.23 654.155 1281.69 657.022 1281.98 660.261 C 1282.57 666.662 1279.43 673.234 1275.2 677.865 C 1268.21 685.533 1259.69 687.666 1249.78 688.223 L 1248 688.414 C 1247.34 689.521 1246.66 690.62 1245.98 691.711 C 1243.36 692.991 1242.13 694.405 1239.26 693.424 C 1235.46 688.144 1236.95 678.545 1237.17 672.356 C 1245.17 664.083 1253.21 654.543 1263.39 648.993 z"/>
<path transform="translate(0,0)" fill="rgb(132,136,159)" d="M 302.369 320.665 C 304.462 323.136 306.259 326.197 307.108 329.33 C 310.806 342.987 303.609 365.154 296.24 376.816 C 292.312 383.031 285.68 389.821 278.113 391.098 C 274.161 391.765 269.793 391.372 266.486 389.001 C 265.889 386.32 266.145 385.951 267.146 383.353 C 276.707 372.403 286.151 367.627 294.146 354.701 C 290.73 352.498 286.954 350.749 283.344 348.881 C 284.111 347.551 284.903 346.234 285.719 344.933 C 287.022 342.9 288.323 339.752 290.708 339.241 L 292.531 344.484 L 294.575 345.235 L 295.707 344.017 C 295.802 340.121 294.696 337.148 293.409 333.504 C 296.19 329.023 299.184 324.859 302.369 320.665 z"/>
<path transform="translate(0,0)" fill="rgb(255,255,255)" d="M 947.217 1354.26 C 950.218 1357.16 952.377 1366.48 953.854 1370.7 C 948.876 1374.88 944.435 1378.38 937.911 1379.84 C 924.877 1382.77 911.07 1378.15 900.036 1371.27 C 894.163 1366.88 889.734 1361.81 885.123 1356.18 C 905.848 1361.49 926.697 1359.87 947.217 1354.26 z"/>
<path transform="translate(0,0)" fill="rgb(255,255,255)" d="M 375.787 556.954 C 377.088 558.713 376.908 562.212 376.934 564.389 C 377.273 592.515 301.6 675.928 280.131 696.92 L 279.724 695.859 C 289.908 679.397 303.892 664.297 315.651 648.808 C 337.996 619.371 358.158 589.425 375.787 556.954 z"/>
<path transform="translate(0,0)" fill="rgb(255,255,255)" d="M 899.496 659.785 C 903.745 660.491 910.619 665.13 914.884 667.049 C 896.465 677.857 888.58 688.895 881.512 708.562 C 875.189 704.25 869.38 691.67 865.959 684.711 C 876.551 673.239 885.301 666.391 899.496 659.785 z"/>
<path transform="translate(0,0)" fill="rgb(255,255,255)" d="M 1272.6 691.105 C 1275.92 692.826 1285.24 702.681 1289.26 705.847 C 1276.77 712.517 1260.94 718.438 1247.23 722.026 L 1234.25 725.221 C 1241.08 715.927 1245.46 705.708 1248.6 694.67 C 1257.72 695.944 1264.32 694.592 1272.6 691.105 z"/>
<path transform="translate(0,0)" fill="rgb(255,255,255)" d="M 656.212 204.224 C 659.436 204.029 662.74 203.747 665.969 203.828 C 671.07 203.957 676.021 204.738 679.521 208.762 C 681.48 211.014 682.019 212.615 681.825 215.555 C 677.72 220.668 667.194 219.639 661.106 221.145 C 657.855 221.95 654.706 223.417 651.64 224.75 C 645.754 228.072 640.573 231.731 635.271 235.918 C 634.724 229.341 632.476 218.58 636.69 212.916 C 641.081 207.015 649.471 205.819 656.212 204.224 z"/>
<path transform="translate(0,0)" fill="rgb(59,68,102)" d="M 457.032 667.678 C 460.247 672.681 462.555 679.587 464.676 685.2 C 471.628 703.592 471.832 718.632 463.669 736.787 L 461.854 738.702 L 460.472 738.026 C 451.963 721.12 452.413 685.695 457.032 667.678 z"/>
<path transform="translate(0,0)" fill="rgb(255,255,255)" d="M 394.998 423.8 C 406.155 432.864 431.135 498.837 442.269 516.837 C 453.22 534.542 465.572 537.959 477.525 551.744 C 482.404 557.371 484.401 561.85 484.064 569.26 C 473.872 550.816 455.517 544.161 442.95 528.727 C 429.565 512.287 423.777 487.337 415.044 468.053 C 408.429 453.445 399.964 439.056 394.998 423.8 z"/>
<path transform="translate(0,0)" fill="rgb(2,4,49)" d="M 1098.27 455.043 L 1095.45 454.165 C 1092.63 448.264 1094.57 438.699 1094.93 432.171 C 1096.82 430.448 1095.36 431.594 1097.06 430.588 C 1098.43 429.777 1099.04 428.756 1099.93 427.483 C 1103.37 428.877 1104.63 432.292 1106.01 435.556 C 1108.79 442.099 1113.13 450.556 1114.28 457.512 L 1113.33 459.237 C 1111.29 457.396 1110.35 454.958 1109.18 452.527 L 1108.17 452.723 L 1106.04 459.363 C 1108.45 465.113 1117.54 482.003 1115.6 487.633 L 1113.63 487.499 C 1113.49 487.268 1113.34 487.04 1113.19 486.808 L 1112.48 485.642 C 1106.88 476.648 1105.13 464.471 1099.1 456.145 C 1098.83 455.773 1098.55 455.41 1098.27 455.043 z"/>
<path transform="translate(0,0)" fill="rgb(1,1,20)" d="M 1098.27 455.043 C 1097.71 452.191 1096.89 449.674 1098.06 446.873 L 1100.32 446.186 C 1103.88 448.772 1104.33 455.366 1106.04 459.363 C 1108.45 465.113 1117.54 482.003 1115.6 487.633 L 1113.63 487.499 C 1113.49 487.268 1113.34 487.04 1113.19 486.808 L 1112.48 485.642 C 1106.88 476.648 1105.13 464.471 1099.1 456.145 C 1098.83 455.773 1098.55 455.41 1098.27 455.043 z"/>
<path transform="translate(0,0)" fill="rgb(2,4,49)" d="M 995.526 408.032 C 993.408 406.921 990.633 413.129 987.832 413.5 C 987.793 403.252 1000.82 397.054 1001.26 386.453 L 999.835 385.676 C 998.81 383.476 1001.16 377.494 1001.52 374.641 C 1001.71 373.117 1001.41 374.06 1002.87 372.235 C 1003.24 372.634 1003.66 372.995 1003.98 373.433 C 1009.18 380.47 1006.9 383.627 1005.62 391.251 L 1005.4 392.62 L 1007.57 391.702 C 1007.93 392.212 1008.28 392.726 1008.65 393.231 C 1010.03 395.148 1009.37 394.479 1010.86 395.674 C 1012.77 391.953 1014.25 388.327 1015.55 384.355 L 1016.87 384.314 C 1018.53 387.373 1018.1 389.91 1017.17 393.142 C 1015.07 400.499 1008 410.533 1001.11 414.174 C 1000.1 414.709 999.722 414.684 998.72 414.808 C 997.203 412.733 996.466 410.408 995.526 408.032 z"/>
<path transform="translate(0,0)" fill="rgb(255,255,255)" d="M 1010.86 395.674 C 1012.77 391.953 1014.25 388.327 1015.55 384.355 L 1016.87 384.314 C 1018.53 387.373 1018.1 389.91 1017.17 393.142 C 1015.07 400.499 1008 410.533 1001.11 414.174 C 1000.1 414.709 999.722 414.684 998.72 414.808 C 1002.1 408.143 1007.36 402.44 1010.86 395.674 z"/>
<path transform="translate(0,0)" fill="rgb(119,125,150)" d="M 415.777 260.395 C 416.072 260.477 416.366 260.562 416.662 260.641 C 422.767 262.258 434.58 260.928 438.02 267.696 C 440.694 272.958 436.245 281.03 433.891 285.777 L 433.133 287.296 L 429.85 284.073 L 428.909 284.455 L 427.095 282.699 L 427.565 283.575 C 431.286 290.635 427.596 294.616 426.576 301.78 C 423.497 288.117 421.252 273.79 414.742 261.28 L 415.777 260.395 z"/>
<path transform="translate(0,0)" fill="rgb(255,255,255)" d="M 1077.58 435.106 C 1076.91 431.538 1075.8 428.066 1077.39 424.619 L 1078.37 424.763 C 1080.78 431.792 1081.61 439.364 1083.62 446.553 C 1085.38 452.881 1098.64 490.566 1097.93 493.055 C 1095.65 494.137 1095.81 493.665 1093.56 492.885 C 1089.94 489.083 1088.83 477.489 1087.71 472.23 C 1085.79 473.204 1083.7 474.094 1081.88 475.24 C 1080.25 463.842 1077.69 452.731 1074.75 441.603 C 1075.11 439.139 1076.37 437.229 1077.58 435.106 z"/>
<path transform="translate(0,0)" fill="rgb(2,4,49)" d="M 1077.58 435.106 L 1087.71 472.23 C 1085.79 473.204 1083.7 474.094 1081.88 475.24 C 1080.25 463.842 1077.69 452.731 1074.75 441.603 C 1075.11 439.139 1076.37 437.229 1077.58 435.106 z"/>
<path transform="translate(0,0)" fill="rgb(255,255,255)" d="M 669.193 168.261 C 676.331 171.545 688.292 175.683 690.914 183.93 C 692.567 189.13 690.782 193.829 688.255 198.39 L 685.544 201.578 C 683.321 201.565 684.109 201.935 682.443 200.542 C 674.664 194.04 670.253 177.881 669.193 168.261 z"/>
<path transform="translate(0,0)" fill="rgb(255,255,255)" d="M 1048.5 461.46 C 1040.11 439.596 1041.25 428.868 1043.6 406.074 L 1044.85 405.7 C 1049.82 411.948 1047.08 432.812 1048.1 441.448 C 1048.8 447.447 1050.33 452.938 1052.33 458.62 C 1055.26 466.718 1061.71 479.769 1060.86 488.234 C 1053.92 483.753 1051.39 468.96 1048.5 461.46 z"/>
<path transform="translate(0,0)" fill="rgb(255,255,255)" d="M 1010.03 424.512 C 1013.85 421.282 1018.36 417.821 1021.15 413.658 C 1024.15 409.189 1025.28 399.672 1029.49 397.115 L 1032.43 397.937 C 1028.71 401.977 1028.18 409.355 1026.11 414.476 C 1024.16 419.324 1011.43 447.091 1008.26 447.8 C 1008.06 439.704 1008.65 432.471 1010.03 424.512 z"/>
<path transform="translate(0,0)" fill="rgb(255,255,255)" d="M 1063.61 454.716 C 1060.3 444.363 1051.97 425.032 1054.99 414.61 L 1056.55 414.11 C 1057.49 414.812 1058.64 415.306 1059.39 416.216 C 1061.82 419.163 1065.02 442.302 1066.48 447.538 C 1069.24 457.396 1072.91 466.374 1077.38 475.574 C 1077.1 475.506 1076.8 475.478 1076.53 475.369 C 1070.67 473.014 1066.02 460.333 1063.61 454.716 z"/>
<path transform="translate(0,0)" fill="rgb(255,255,255)" d="M 1036.69 402.05 C 1037.89 412.137 1033.9 423.07 1032.07 433.04 C 1029.01 449.702 1030.56 467.541 1034.07 484.008 L 1033.44 485.23 C 1030.19 482.202 1029.48 474.44 1028.57 469.971 C 1024.43 449.865 1026.45 435.104 1032.25 415.623 C 1033.62 411.045 1034.59 406.36 1036.69 402.05 z"/>
<path transform="translate(0,0)" fill="rgb(255,255,255)" d="M 127.375 1585.06 C 132.289 1585.86 137.577 1585 142.393 1586.16 C 145.295 1586.86 148.055 1589.21 149.171 1592.01 C 150.082 1594.29 149.537 1595.16 148.475 1597.08 L 144.25 1597.04 C 138.97 1597.1 133.502 1597.41 128.241 1597.07 C 125.001 1596.87 122.386 1596.37 120.251 1593.95 L 120.58 1591.47 C 122.699 1588.85 124.645 1587.02 127.375 1585.06 z"/>
<path transform="translate(0,0)" fill="rgb(255,255,255)" d="M 379.433 1371.18 C 379.733 1371.14 380.032 1371.04 380.334 1371.06 C 383.401 1371.28 382.046 1376.12 384.124 1378.91 C 387.559 1379.31 388.649 1377.75 391.449 1375.85 C 392.204 1378.07 392.215 1376.93 391.22 1379.26 C 386.898 1381.98 381.691 1383.01 376.809 1384.38 C 374.583 1384.7 372.57 1384.94 370.315 1384.78 C 366.266 1384.5 361.758 1384.11 359.066 1380.86 L 359.324 1379.04 C 364.464 1372.9 371.989 1372.58 379.433 1371.18 z"/>
<path transform="translate(0,0)" fill="rgb(59,68,102)" d="M 236.706 373.115 C 236.601 376.694 232.976 379.574 232.767 383.133 C 232.421 389.03 235.692 395.231 235.517 401.373 L 230.286 399.333 C 228.795 398.298 227.305 397.231 225.972 395.993 C 224.004 394.167 222.86 391.881 223.072 389.118 C 223.595 382.283 231.714 376.928 236.706 373.115 z"/>
<path transform="translate(0,0)" fill="rgb(255,255,255)" d="M 1037.32 436.71 C 1041.16 444.061 1041.44 459.644 1043.36 468.454 C 1044.85 475.258 1047.13 481.808 1049.48 488.354 C 1047.12 487.786 1045.53 487.353 1043.89 485.449 C 1037.51 478.008 1036.52 446.753 1037.32 436.71 z"/>
<path transform="translate(0,0)" fill="rgb(255,255,255)" d="M 399.776 1392.11 L 400.936 1392.95 C 400.494 1394.46 400.519 1395.13 399.293 1396.26 C 393.322 1401.8 380.846 1400.01 373.391 1399.74 C 373.472 1398.17 373.076 1397.66 374.447 1396.59 C 378.959 1393.09 389.005 1392.21 394.656 1392.61 C 396.607 1392.75 397.857 1392.73 399.776 1392.11 z"/>
<path transform="translate(0,0)" fill="rgb(255,255,255)" d="M 161.974 1610.25 C 161.605 1608.06 160.956 1606.83 162.005 1604.8 C 166.945 1609.33 167.661 1617.28 170.23 1623.09 C 165.783 1627.93 157.999 1629.29 151.758 1631.71 L 149.922 1631.41 C 154.938 1624.99 160.333 1623.55 166.562 1619.11 L 166.719 1616.76 C 165.285 1614.35 164.019 1612.22 161.974 1610.25 z"/>
<path transform="translate(0,0)" fill="rgb(59,68,102)" d="M 239.562 352.095 L 244.932 362.896 C 236.802 363.127 231.466 364.327 224.212 368.396 L 221.298 367.388 C 227.309 362.428 234.097 357.622 239.562 352.095 z"/>
<path transform="translate(0,0)" fill="rgb(255,255,255)" d="M 142.487 1609.98 L 154.824 1611.13 C 156.398 1613.29 157.315 1613.87 157.251 1616.6 C 155.669 1617.8 154.385 1618.61 152.522 1619.31 C 152.311 1619.13 152.074 1618.99 151.887 1618.79 C 151.542 1618.42 151.256 1618 150.934 1617.61 C 146.98 1612.87 136.013 1618.35 130.098 1617.84 C 133.859 1614.73 138.278 1612.44 142.487 1609.98 z"/>
<path transform="translate(0,0)" fill="rgb(255,255,255)" d="M 388.861 1420.66 C 395.261 1414.01 401.636 1415.94 410.038 1414.56 L 409.079 1415.41 C 402.02 1421.72 403.266 1425.36 392.918 1426.46 C 392.618 1425.11 392.391 1423.76 392.158 1422.39 L 388.861 1420.66 z"/>
<path transform="translate(0,0)" fill="rgb(132,136,159)" d="M 270.234 368.837 C 269.405 365.745 269.971 364.476 271.54 361.633 C 272.84 359.25 275.034 357.481 277.639 356.717 C 279.997 356.018 281.459 356.465 283.363 357.79 C 283.422 360.382 282.213 362.15 280.457 363.938 C 277.907 366.535 274.563 369.332 271.478 371.266 L 270.234 368.837 z"/>
<path transform="translate(0,0)" fill="rgb(255,255,255)" d="M 110.235 1004.01 C 112.31 1005.1 114.303 1006.14 116.495 1006.99 C 118.489 1005.85 117.747 1006.59 118.859 1004.92 C 119.167 1014.62 122.996 1021.73 127.314 1030.18 C 119.374 1022.3 113.904 1014.73 110.235 1004.01 z"/>
<path transform="translate(0,0)" fill="rgb(255,255,255)" d="M 407.289 1434.93 C 408.814 1435.66 410.315 1436.51 411.774 1437.36 C 414.507 1438.95 417.901 1440.87 418.737 1444.11 L 417.704 1445.66 L 412.333 1446.49 C 410.109 1447.15 408.019 1447.61 405.722 1447.94 C 405.509 1443.51 408.663 1442.33 407.56 1436.34 L 407.289 1434.93 z"/>
<path transform="translate(0,0)" fill="rgb(255,255,255)" d="M 1064.45 470.424 C 1068.29 471.569 1071.44 476.577 1073.23 479.994 C 1074.68 482.748 1076.57 486.929 1075.36 490.039 C 1075.21 490.434 1075.01 490.809 1074.84 491.194 C 1074.37 491.1 1073.88 491.071 1073.43 490.911 C 1070.28 489.793 1065.88 474.308 1064.45 470.424 z"/>
<path transform="translate(0,0)" fill="rgb(188,190,200)" d="M 386.09 1354.56 C 412.638 1345.04 441.641 1348.41 466.956 1360.3 C 483.47 1368.05 500.116 1378.67 515.023 1389.22 C 556.174 1418.35 743.652 1565.22 758.503 1604.47 C 759.888 1608.13 760.558 1611.97 758.684 1615.59 C 755.841 1621.09 746.438 1623.49 740.919 1624.54 C 715.104 1629.42 683.685 1624.48 657.813 1620.48 C 583.301 1608.97 509.09 1589.83 436.662 1569.19 C 398.997 1558.46 361.519 1548.13 324.622 1534.88 C 309.04 1529.28 289.731 1523.76 276.206 1514.1 C 272.707 1511.6 269.035 1507.8 268.34 1503.36 C 267.905 1500.57 268.068 1498.63 269.621 1496.23 C 274.155 1489.22 289.203 1487.83 296.861 1487 C 314.143 1485.14 331.555 1484.9 348.918 1484.57 C 362.775 1500.51 376.204 1507.98 396.928 1512.42 C 415.186 1516.33 451.32 1521.56 467.802 1510.07 C 471.85 1507.25 474.883 1502.46 475.396 1497.52 C 477.529 1476.97 442.036 1457.5 430.369 1443.65 C 430.369 1441.72 430.524 1439.3 429.968 1437.45 C 428.029 1431.02 421.153 1424.47 418.112 1418.06 C 413.733 1408.83 412.623 1398.65 408.892 1389.26 C 406.21 1382.51 401.621 1376.63 398.798 1369.81 L 398.273 1368.51 C 395.682 1367.44 392.249 1366.37 390.103 1364.54 C 386.806 1361.72 386.581 1358.58 386.09 1354.56 z"/>
<path transform="translate(0,0)" fill="rgb(188,190,200)" d="M 174.039 1608.38 C 216.727 1617.69 380.972 1721.33 404.147 1756.02 C 407.123 1760.47 409.797 1766.04 408.659 1771.52 C 407.83 1775.52 405.417 1778.63 401.979 1780.75 C 383.28 1792.26 342.956 1783.23 323.422 1777.94 C 298.005 1771.05 189.95 1734.51 175.702 1723.03 C 188.997 1723.03 203.094 1723.24 215.85 1718.97 C 222.221 1716.84 228.692 1713.06 231.456 1706.63 C 239.785 1687.27 207.405 1659.57 196.447 1645.51 C 187.826 1634.45 179.689 1622.55 174.46 1609.47 L 174.039 1608.38 z"/>
</svg>