<svg version="1.1" xmlns="http://www.w3.org/2000/svg" style="display: block;" viewBox="0 0 2048 2048" width="1024" height="1024">
<defs>
	<linearGradient id="Gradient1" gradientUnits="userSpaceOnUse" x1="290.872" y1="1708.66" x2="264.239" y2="1714.1">
		<stop class="stop0" offset="0" stop-opacity="1" stop-color="rgb(0,0,0)"/>
		<stop class="stop1" offset="1" stop-opacity="1" stop-color="rgb(2,0,21)"/>
	</linearGradient>
	<linearGradient id="Gradient2" gradientUnits="userSpaceOnUse" x1="1877.28" y1="1876.16" x2="1882.85" y2="1891.81">
		<stop class="stop0" offset="0" stop-opacity="1" stop-color="rgb(5,6,43)"/>
		<stop class="stop1" offset="1" stop-opacity="1" stop-color="rgb(35,47,99)"/>
	</linearGradient>
	<linearGradient id="Gradient3" gradientUnits="userSpaceOnUse" x1="1616.09" y1="1649.16" x2="1626.84" y2="1654.81">
		<stop class="stop0" offset="0" stop-opacity="1" stop-color="rgb(0,0,0)"/>
		<stop class="stop1" offset="1" stop-opacity="1" stop-color="rgb(9,10,32)"/>
	</linearGradient>
	<linearGradient id="Gradient4" gradientUnits="userSpaceOnUse" x1="1591.23" y1="1584.75" x2="1442.6" y2="1746.25">
		<stop class="stop0" offset="0" stop-opacity="1" stop-color="rgb(29,42,87)"/>
		<stop class="stop1" offset="1" stop-opacity="1" stop-color="rgb(53,71,113)"/>
	</linearGradient>
	<linearGradient id="Gradient5" gradientUnits="userSpaceOnUse" x1="584.933" y1="1332.43" x2="607.964" y2="1344.3">
		<stop class="stop0" offset="0" stop-opacity="1" stop-color="rgb(0,0,0)"/>
		<stop class="stop1" offset="1" stop-opacity="1" stop-color="rgb(1,1,23)"/>
	</linearGradient>
</defs>
<path transform="translate(0,0)" fill="rgb(255,254,251)" d="M 0 0 L 2048 0 L 2048 2048 L 0 2048 L 0 0 z"/>
<path transform="translate(0,0)" fill="rgb(55,64,93)" d="M 701.345 516.724 C 722.772 495.812 745.814 478.228 773.71 466.778 C 796.358 457.738 820.278 452.288 844.606 450.626 C 861.523 449.334 879.055 449.203 895.492 444.649 C 927.923 435.665 978.854 406.226 1009.46 406.772 C 1019.13 406.944 1029.35 409.269 1036.2 416.569 C 1047.4 428.498 1046.04 448.33 1045.14 463.462 C 1041.23 528.714 1018.05 588.41 994.811 648.754 L 993.532 652.098 C 988.366 666.609 983.25 681.217 979.316 696.116 C 996.454 709.666 1011.34 724.583 1025.55 741.111 C 1046.66 765.643 1058.31 780.673 1067.57 812.413 C 1070.88 823.746 1073.78 835.819 1075.16 847.579 C 1075.2 847.84 1075.22 848.102 1075.24 848.363 C 1079.68 859.219 1080.73 902.436 1078.13 915.375 C 1077.81 930.932 1072.65 966.256 1061.84 978.168 C 1060.09 980.1 1059.03 980.366 1056.51 980.495 C 1054.7 979.319 1053.95 979.037 1053.14 976.962 C 1050.92 971.299 1050.13 964.257 1048.81 958.296 C 1046.29 946.975 1043.5 935.374 1039.61 924.442 C 1033.38 906.947 1023.8 890.358 1013.51 874.968 C 994.361 850.957 972.922 828.479 946.621 812.231 C 942.295 822.395 939.683 833.282 934.767 843.199 C 937.465 852.716 939.622 861.797 940.104 871.708 C 941.692 880.784 942.747 903.486 940.234 911.978 C 938.642 962.39 910.765 1061.98 873.966 1096.69 C 870.016 1100.41 864.72 1105.04 858.999 1105.14 C 856.607 1103.82 855.743 1103.2 854.89 1100.52 C 849.499 1083.61 854.287 1041.92 854.712 1022.65 C 855.079 1006 854.317 988.35 851.445 971.924 C 820.428 1045.77 774.177 1110.36 722.626 1171.23 C 707.785 1188.76 692.719 1206.82 676.383 1222.93 C 607.793 1295.16 562.747 1366.65 538.509 1464.02 C 536.974 1471.72 536.045 1480.4 533.543 1487.78 C 526.534 1532.08 518.28 1626 545.838 1662.76 C 559.215 1680.61 583.817 1688.06 605.002 1690.6 C 647.292 1695.68 685.282 1695.47 714.356 1731.64 C 723.285 1742.74 730.045 1755.52 740.282 1765.55 C 750.901 1775.95 764.687 1783.34 774.513 1794.49 L 772.161 1796.82 L 772.072 1798.26 C 770.387 1797.88 768.931 1797.44 767.345 1796.76 C 769.118 1799.27 769.41 1799.63 769.561 1802.67 C 756.27 1797.43 746.012 1795.88 731.711 1796.2 C 727.517 1796.91 723.421 1797.14 719.172 1797.29 C 707.046 1799.99 694.113 1801.35 681.741 1802.45 C 673.044 1804.86 656.883 1804.2 648.166 1802.4 C 624.311 1799.08 604.65 1789.41 586.125 1774.16 C 591.223 1787.33 596.263 1800.39 596.981 1814.65 C 599.371 1862.15 573.715 1890.01 595.393 1940.68 C 598.502 1947.94 602.969 1958.03 608.18 1963.75 C 608.233 1965.45 608.03 1966.69 607.58 1968.32 C 605.433 1969.56 604.117 1969.86 601.611 1969.5 C 581.224 1966.62 552.059 1939.19 540.201 1922.94 C 513.147 1885.87 484.097 1815.21 483.133 1770.03 C 482.584 1744.3 487.173 1718.35 479.24 1693.24 C 468.734 1659.98 442.214 1630.26 425.387 1599.59 C 377.751 1512.76 357.805 1416.32 362.489 1317.76 C 363.301 1300.65 363.842 1283.25 366.545 1266.32 C 368.435 1242.49 374.784 1218.35 380.257 1195.12 C 398.847 1116.21 422.539 1049.79 452.798 975.046 C 473.062 924.992 494.425 875.425 520.111 827.868 C 551.059 770.566 587.839 716.525 619.623 659.705 C 627.025 646.472 634.103 632.89 640.182 618.994 C 649.874 596.836 658.086 574.274 671.601 554.035 C 675.503 543.789 692.567 523.746 701.345 516.724 z"/>
<path transform="translate(0,0)" fill="rgb(0,0,2)" d="M 701.345 516.724 C 722.772 495.812 745.814 478.228 773.71 466.778 C 796.358 457.738 820.278 452.288 844.606 450.626 C 861.523 449.334 879.055 449.203 895.492 444.649 C 927.923 435.665 978.854 406.226 1009.46 406.772 C 1019.13 406.944 1029.35 409.269 1036.2 416.569 C 1047.4 428.498 1046.04 448.33 1045.14 463.462 C 1041.23 528.714 1018.05 588.41 994.811 648.754 L 993.532 652.098 C 988.366 666.609 983.25 681.217 979.316 696.116 C 996.454 709.666 1011.34 724.583 1025.55 741.111 C 1046.66 765.643 1058.31 780.673 1067.57 812.413 C 1070.88 823.746 1073.78 835.819 1075.16 847.579 C 1075.2 847.84 1075.22 848.102 1075.24 848.363 C 1079.68 859.219 1080.73 902.436 1078.13 915.375 C 1077.81 930.932 1072.65 966.256 1061.84 978.168 C 1060.09 980.1 1059.03 980.366 1056.51 980.495 C 1054.7 979.319 1053.95 979.037 1053.14 976.962 C 1050.92 971.299 1050.13 964.257 1048.81 958.296 C 1046.29 946.975 1043.5 935.374 1039.61 924.442 C 1033.38 906.947 1023.8 890.358 1013.51 874.968 C 994.361 850.957 972.922 828.479 946.621 812.231 C 942.295 822.395 939.683 833.282 934.767 843.199 C 937.465 852.716 939.622 861.797 940.104 871.708 C 941.692 880.784 942.747 903.486 940.234 911.978 C 938.642 962.39 910.765 1061.98 873.966 1096.69 C 870.016 1100.41 864.72 1105.04 858.999 1105.14 C 856.607 1103.82 855.743 1103.2 854.89 1100.52 C 849.499 1083.61 854.287 1041.92 854.712 1022.65 C 855.079 1006 854.317 988.35 851.445 971.924 C 820.428 1045.77 774.177 1110.36 722.626 1171.23 C 707.785 1188.76 692.719 1206.82 676.383 1222.93 C 607.793 1295.16 562.747 1366.65 538.509 1464.02 C 536.974 1471.72 536.045 1480.4 533.543 1487.78 C 532.881 1486.71 533.368 1487.14 531.924 1486.71 L 527.013 1490.44 C 521.203 1538.49 513.545 1608.14 533.277 1653.27 L 531.258 1653.87 C 531.3 1659.92 533.672 1666.05 534.033 1672.19 C 534.228 1675.5 533.846 1677.15 531.618 1679.59 C 529.128 1680 527.691 1680.44 525.38 1678.97 C 502.94 1664.69 479.432 1534.01 476.83 1503.24 L 480.776 1501.04 C 478.891 1485.5 478.262 1469.71 477.724 1454.07 C 478.013 1440.01 477.858 1425.92 477.881 1411.87 C 479.972 1387.26 481.455 1362.6 486.609 1338.4 C 503.432 1259.38 542.066 1185.65 583.833 1117.21 C 601.656 1088.01 620.718 1059.67 637.645 1029.91 C 658.446 993.335 677.999 951.02 693.167 911.821 C 707.256 875.409 720.048 838.079 729.289 800.128 C 744.812 736.384 746.674 663.56 787.537 609.6 C 803.941 588.115 823.292 569.05 845.02 552.969 C 880.533 526.294 1012.96 453.858 1026.7 422.822 L 1029.12 418.035 C 1018.61 411.011 1007.89 411.499 995.987 413.849 C 961.827 420.589 931.081 440.038 897.333 449.109 C 866.508 457.395 833.722 455.302 802.612 462.76 C 793.412 464.975 784.382 467.846 775.592 471.35 C 757.394 478.632 741.587 488.262 726.172 500.311 C 719.879 505.229 713.642 511.292 706.898 515.5 C 704.668 516.891 703.894 516.799 701.345 516.724 z"/>
<path transform="translate(0,0)" fill="rgb(255,254,251)" d="M 758.627 726.835 C 781.029 746.048 785.643 774.588 791.997 801.907 C 794.982 814.381 798.202 826.798 801.656 839.151 C 792.719 857.292 787.854 878.841 780.912 897.938 C 767.123 936.94 750.594 974.918 731.449 1011.59 C 702.419 1066.46 668.982 1118.9 634.866 1170.72 C 569.463 1270.05 523.65 1327.62 525.032 1453.55 C 526.415 1456.07 527.328 1457.58 530.194 1458.71 C 530.545 1458.84 530.927 1458.88 531.293 1458.97 L 532.631 1461.76 L 533.101 1460.97 L 534.107 1461.95 C 535.1 1462.95 535.971 1463.94 536.848 1465.03 L 538.509 1464.02 C 536.974 1471.72 536.045 1480.4 533.543 1487.78 C 532.881 1486.71 533.368 1487.14 531.924 1486.71 L 527.013 1490.44 C 521.203 1538.49 513.545 1608.14 533.277 1653.27 L 531.258 1653.87 C 508.339 1594.66 499.769 1533.51 498.52 1470.27 C 496.225 1354.01 522.331 1262.21 580.053 1161.58 C 593.488 1138.16 608.454 1115.69 622.145 1092.43 C 638.83 1064.08 654.199 1034.61 668.624 1005.05 C 711.167 916.849 741.449 823.243 758.627 726.835 z"/>
<path transform="translate(0,0)" fill="rgb(13,24,55)" d="M 525.032 1453.55 C 526.415 1456.07 527.328 1457.58 530.194 1458.71 C 530.545 1458.84 530.927 1458.88 531.293 1458.97 L 532.631 1461.76 L 533.101 1460.97 L 534.107 1461.95 C 535.1 1462.95 535.971 1463.94 536.848 1465.03 L 538.509 1464.02 C 536.974 1471.72 536.045 1480.4 533.543 1487.78 C 532.881 1486.71 533.368 1487.14 531.924 1486.71 L 527.013 1490.44 C 526.13 1478.16 525.469 1465.86 525.032 1453.55 z"/>
<path transform="translate(0,0)" fill="rgb(55,64,93)" d="M 759.605 721.161 C 760.774 715.961 761.97 705.341 765.705 701.37 C 768.427 698.474 772.044 697.294 775.913 696.983 C 805.282 694.623 815.99 718.161 830.471 737.638 C 838.406 748.479 847.437 758.473 857.423 767.462 C 873.479 781.701 892.985 790.663 909.393 804.268 C 930.397 821.683 934.983 855.631 937.235 881.255 C 937.576 881.006 937.942 880.786 938.26 880.508 C 940.368 878.666 939.969 874.296 940.104 871.708 C 941.692 880.784 942.747 903.486 940.234 911.978 C 937.963 914.932 937.076 918.035 935.941 921.549 C 934.162 935.196 931.823 948.764 928.929 962.219 C 921.67 995.612 894.598 1082.24 864.254 1099.56 C 861.876 1100.91 860.702 1101.08 858.096 1100.45 C 855.978 1082.75 858.235 1064.88 859.168 1047.17 C 860.505 1021.79 860.124 994.485 855.598 969.471 C 848.756 931.651 829.182 897.365 815.656 861.764 C 804.632 832.747 797.935 803.764 790.505 773.742 C 785.744 754.505 777.493 731.994 759.605 721.161 z"/>
<path transform="translate(0,0)" fill="rgb(2,2,25)" d="M 940.104 871.708 C 941.692 880.784 942.747 903.486 940.234 911.978 C 937.963 914.932 937.076 918.035 935.941 921.549 C 937.416 908.031 936.838 894.768 937.235 881.255 C 937.576 881.006 937.942 880.786 938.26 880.508 C 940.368 878.666 939.969 874.296 940.104 871.708 z"/>
<path transform="translate(0,0)" fill="rgb(255,254,251)" d="M 803.966 847.109 C 813.365 865.217 823.702 892.547 831.408 912.034 C 825.808 921.163 821.699 931.245 817.065 940.887 C 808.918 957.837 800.638 974.826 791.903 991.48 C 778.819 1016.42 764.846 1040.93 751.6 1065.8 C 724.907 1115.91 698.329 1166.58 668.19 1214.71 C 670.09 1215 671.968 1215.26 673.884 1215.41 C 674.532 1216.66 674.744 1217.45 674.996 1218.86 C 675.281 1220.47 675.665 1221.49 676.383 1222.93 C 607.793 1295.16 562.747 1366.65 538.509 1464.02 L 536.848 1465.03 C 535.971 1463.94 535.1 1462.95 534.107 1461.95 L 533.101 1460.97 L 532.631 1461.76 L 531.293 1458.97 C 524.662 1353.89 568.431 1283.33 623.32 1199.12 C 652.517 1154.32 682.374 1110.1 709.25 1063.84 C 749.477 994.589 780.439 923.571 803.966 847.109 z"/>
<path transform="translate(0,0)" fill="url(#Gradient5)" d="M 533.101 1460.97 C 550.289 1398.41 574.317 1340.63 612.62 1287.86 C 625.55 1270.05 641.218 1255.03 653.978 1237.88 C 659.306 1230.72 663.033 1222.13 668.19 1214.71 C 670.09 1215 671.968 1215.26 673.884 1215.41 C 674.532 1216.66 674.744 1217.45 674.996 1218.86 C 675.281 1220.47 675.665 1221.49 676.383 1222.93 C 607.793 1295.16 562.747 1366.65 538.509 1464.02 L 536.848 1465.03 C 535.971 1463.94 535.1 1462.95 534.107 1461.95 L 533.101 1460.97 z"/>
<path transform="translate(0,0)" fill="rgb(55,64,93)" d="M 977.654 698.14 C 984.675 705.459 992.831 711.801 1000.14 718.857 C 1014.23 732.453 1042.56 763.531 1051.21 780.378 C 1057.26 792.148 1061.45 805.499 1065.15 818.182 C 1067.13 824.957 1069.42 841.163 1072.83 846.319 C 1073.42 847.196 1074.44 847.682 1075.24 848.363 C 1079.68 859.219 1080.73 902.436 1078.13 915.375 C 1077.81 930.932 1072.65 966.256 1061.84 978.168 C 1060.09 980.1 1059.03 980.366 1056.51 980.495 C 1054.7 979.319 1053.95 979.037 1053.14 976.962 C 1050.92 971.299 1050.13 964.257 1048.81 958.296 C 1046.29 946.975 1043.5 935.374 1039.61 924.442 C 1033.38 906.947 1023.8 890.358 1013.51 874.968 C 1014.48 873.682 1015.05 872.38 1015.74 870.93 C 997.545 845.86 973.092 823.956 947.372 806.861 C 958.997 771.01 967.409 734.373 977.654 698.14 z"/>
<path transform="translate(0,0)" fill="rgb(2,2,25)" d="M 1015.74 870.93 C 1040.44 901.27 1049.75 940.009 1057.46 977.5 C 1066.4 961.005 1070.89 946.068 1073.42 927.505 C 1074.37 920.507 1074.72 912.821 1076.77 906.081 C 1078.14 907.891 1077.94 912.954 1078.13 915.375 C 1077.81 930.932 1072.65 966.256 1061.84 978.168 C 1060.09 980.1 1059.03 980.366 1056.51 980.495 C 1054.7 979.319 1053.95 979.037 1053.14 976.962 C 1050.92 971.299 1050.13 964.257 1048.81 958.296 C 1046.29 946.975 1043.5 935.374 1039.61 924.442 C 1033.38 906.947 1023.8 890.358 1013.51 874.968 C 1014.48 873.682 1015.05 872.38 1015.74 870.93 z"/>
<path transform="translate(0,0)" fill="rgb(255,254,251)" d="M 1029.12 418.035 C 1031.81 420.27 1035.6 423.054 1035.73 426.939 C 1036.02 435.42 1019.48 448.157 1013.33 453.023 C 945.207 506.88 844.728 547.643 794.273 618.41 C 761.979 663.706 756.295 718.148 744.252 770.823 C 721.873 868.7 688.466 956.063 642.006 1044.99 C 623.041 1081.3 600.646 1115.24 579.799 1150.39 C 538.971 1219.24 507.194 1293.9 497.47 1373.89 C 489.94 1438.79 491.346 1504.41 501.649 1568.93 C 505.714 1593.26 511.254 1617.24 519.413 1640.54 C 522.675 1649.85 530.907 1666.02 529.667 1675.78 L 528.227 1676.23 C 511.911 1665.48 495.677 1588.2 491.435 1567.52 C 486.96 1545.71 482.44 1523.29 480.776 1501.04 C 478.891 1485.5 478.262 1469.71 477.724 1454.07 C 478.013 1440.01 477.858 1425.92 477.881 1411.87 C 479.972 1387.26 481.455 1362.6 486.609 1338.4 C 503.432 1259.38 542.066 1185.65 583.833 1117.21 C 601.656 1088.01 620.718 1059.67 637.645 1029.91 C 658.446 993.335 677.999 951.02 693.167 911.821 C 707.256 875.409 720.048 838.079 729.289 800.128 C 744.812 736.384 746.674 663.56 787.537 609.6 C 803.941 588.115 823.292 569.05 845.02 552.969 C 880.533 526.294 1012.96 453.858 1026.7 422.822 L 1029.12 418.035 z"/>
<path transform="translate(0,0)" fill="rgb(255,254,251)" d="M 939.991 510.321 C 952.245 502.717 964.327 494.84 976.23 486.698 C 989.553 537.381 989.406 585.37 986.625 637.229 C 985.439 642.774 985.103 648.627 984.79 654.286 C 981.639 674.484 973.736 694.811 968.267 714.547 C 957.179 754.55 948.677 794.378 932.098 832.705 C 928.552 819.947 921.963 811.848 913.538 801.942 C 929.235 717.082 954.75 595.192 939.991 510.321 z"/>
<path transform="translate(0,0)" fill="rgb(255,254,251)" d="M 982.841 482.291 C 994.37 474.12 1006.19 466.166 1017.24 457.355 C 1022.23 473.974 1028.02 490.114 1034.22 506.319 C 1024.77 550.775 1011.02 594.207 993.164 636.001 L 992.239 635.758 C 999.025 589.438 993.484 527.959 982.841 482.291 z"/>
<path transform="translate(0,0)" fill="rgb(2,2,25)" d="M 984.79 654.286 C 985.103 648.627 985.439 642.774 986.625 637.229 L 987.709 638.523 C 989.18 637.564 990.634 636.473 992.239 635.758 L 993.164 636.001 C 993.46 640.372 993.77 644.476 994.811 648.754 L 993.532 652.098 C 990.623 653.107 987.854 653.912 984.79 654.286 z"/>
<path transform="translate(0,0)" fill="rgb(255,254,251)" d="M 934.635 513.889 C 937.635 520.372 937.353 531.848 937.713 538.982 C 941.063 605.265 930.756 673.798 919.123 738.907 C 915.633 758.439 912.519 778.172 908.123 797.518 C 901.489 792.694 894.418 788.396 887.524 783.951 C 881.355 779.878 875.493 775.662 869.735 771.025 C 873.768 713.93 885.421 658.519 892.127 601.862 C 894.686 580.247 895.487 558.61 896.413 536.88 C 908.929 528.865 921.821 521.413 934.635 513.889 z"/>
<path transform="translate(0,0)" fill="rgb(255,254,251)" d="M 889.713 541.844 C 893.261 568.177 884.478 615.703 880.237 642.949 C 873.819 684.178 866.471 725.376 864.837 767.145 C 856.396 760.065 848.903 752.334 841.684 744.024 C 833.725 734.817 827.002 724.412 820.455 714.173 C 822.098 693.918 826.931 673.418 830.221 653.331 C 834.467 627.403 837.227 599.671 844.614 574.437 C 857.938 562.024 874.741 552.234 889.713 541.844 z"/>
<path transform="translate(0,0)" fill="rgb(255,254,251)" d="M 833.365 918.666 C 839.055 924.51 846.458 952.667 849.731 962.41 C 838.623 988.115 826.817 1013.27 812.763 1037.52 C 779.755 1094.48 730.239 1156.45 685.29 1204.87 L 674.448 1216.06 C 682.515 1201.03 692.377 1186.74 700.802 1171.85 C 723.521 1131.2 745.777 1090.29 767.567 1049.14 C 790.742 1006.38 814.875 963.744 833.365 918.666 z"/>
<path transform="translate(0,0)" fill="rgb(255,254,251)" d="M 836.758 579.845 C 836.208 590.502 833.153 601.958 831.354 612.592 C 825.967 644.427 819.042 676.529 815.711 708.619 C 805.139 699.371 794.823 693.48 780.654 692.133 C 775.593 692.67 770.898 693.671 765.987 694.925 C 779.426 645.466 800.226 615.403 836.758 579.845 z"/>
<path transform="translate(0,0)" fill="rgb(255,254,251)" d="M 1038.57 436.699 C 1038.65 436.991 1038.73 437.28 1038.8 437.573 C 1040.81 446.701 1039.92 481.386 1035.27 489.208 C 1033.13 487.965 1032.82 484.91 1032.04 482.588 C 1028.56 473.247 1025.1 463.939 1022.13 454.421 L 1038.57 436.699 z"/>
<path transform="translate(0,0)" fill="rgb(0,0,2)" d="M 474.787 1393.34 C 474.972 1386.79 475.731 1380.19 476.461 1373.68 C 487.518 1275.03 537.515 1182.85 588.577 1099.47 C 601.491 1078.38 615.777 1058.38 628.137 1036.9 C 638.727 1018.5 647.727 999.36 656.958 980.258 C 669.993 953.283 682.833 926.358 693.353 898.273 C 704.805 867.701 715.857 836.19 723.468 804.436 C 737.366 746.455 744.285 660.976 779.161 612.952 C 821.957 554.024 877.585 527.803 936.408 489.067 C 957.367 475.266 978.498 461.145 998.468 445.943 C 1008.15 438.576 1017.18 430.395 1026.7 422.822 C 1012.96 453.858 880.533 526.294 845.02 552.969 C 823.292 569.05 803.941 588.115 787.537 609.6 C 746.674 663.56 744.812 736.384 729.289 800.128 C 720.048 838.079 707.256 875.409 693.167 911.821 C 677.999 951.02 658.446 993.335 637.645 1029.91 C 620.718 1059.67 601.656 1088.01 583.833 1117.21 C 542.066 1185.65 503.432 1259.38 486.609 1338.4 C 481.455 1362.6 479.972 1387.26 477.881 1411.87 C 474.566 1406.15 475.196 1399.7 474.787 1393.34 z"/>
<path transform="translate(0,0)" fill="rgb(2,2,25)" d="M 366.545 1266.32 L 367.871 1268.65 L 370.704 1269.09 C 359.013 1394.96 372.554 1492.7 433.198 1604.75 C 449.278 1634.46 474.238 1661.56 484.13 1694.11 C 491.586 1718.64 487.104 1744.96 488.165 1770.17 C 490.124 1816.71 519.816 1891.83 549.939 1927.95 C 558.839 1938.63 587.226 1963.32 600.739 1965.25 C 602.086 1965.44 601.73 1965.39 602.729 1964.48 C 604.437 1964.21 606.471 1963.64 608.18 1963.75 C 608.233 1965.45 608.03 1966.69 607.58 1968.32 C 605.433 1969.56 604.117 1969.86 601.611 1969.5 C 581.224 1966.62 552.059 1939.19 540.201 1922.94 C 513.147 1885.87 484.097 1815.21 483.133 1770.03 C 482.584 1744.3 487.173 1718.35 479.24 1693.24 C 468.734 1659.98 442.214 1630.26 425.387 1599.59 C 377.751 1512.76 357.805 1416.32 362.489 1317.76 C 363.301 1300.65 363.842 1283.25 366.545 1266.32 z"/>
<path transform="translate(0,0)" fill="rgb(0,0,2)" d="M 671.601 554.035 L 673.581 557.037 C 668.916 566.822 663.591 576.198 659.213 586.138 C 653.085 600.051 647.973 614.532 641.369 628.218 C 634.977 641.467 627.5 654.444 620.319 667.292 C 607.578 690.087 593.106 712.083 579.52 734.394 C 556.008 772.764 533.604 811.802 512.336 851.461 C 489.681 894.503 470.855 940.277 452.89 985.454 C 424.842 1055.98 400.062 1126.31 383.322 1200.5 C 378.211 1223.16 372.95 1245.93 370.704 1269.09 L 367.871 1268.65 L 366.545 1266.32 C 368.435 1242.49 374.784 1218.35 380.257 1195.12 C 398.847 1116.21 422.539 1049.79 452.798 975.046 C 473.062 924.992 494.425 875.425 520.111 827.868 C 551.059 770.566 587.839 716.525 619.623 659.705 C 627.025 646.472 634.103 632.89 640.182 618.994 C 649.874 596.836 658.086 574.274 671.601 554.035 z"/>
<path transform="translate(0,0)" fill="rgb(0,0,2)" d="M 527.013 1490.44 L 531.924 1486.71 C 533.368 1487.14 532.881 1486.71 533.543 1487.78 C 526.534 1532.08 518.28 1626 545.838 1662.76 C 559.215 1680.61 583.817 1688.06 605.002 1690.6 C 647.292 1695.68 685.282 1695.47 714.356 1731.64 C 723.285 1742.74 730.045 1755.52 740.282 1765.55 C 750.901 1775.95 764.687 1783.34 774.513 1794.49 L 772.161 1796.82 C 760.443 1785.55 746.187 1777.25 734.967 1765.42 C 728.216 1758.3 723.051 1749.54 717.361 1741.57 C 700.57 1718.02 681.058 1705.93 652.534 1700.58 C 630.316 1696.41 607.104 1697.46 585.242 1691.6 C 562.307 1685.46 545.185 1673.9 533.277 1653.27 C 513.545 1608.14 521.203 1538.49 527.013 1490.44 z"/>
<path transform="translate(0,0)" fill="rgb(0,0,2)" d="M 547.007 1712.27 C 554.175 1723.43 559.359 1735.54 567.275 1746.34 C 585.781 1771.58 610.109 1792.94 641.975 1797.68 C 644.046 1799.21 646.262 1800.67 648.166 1802.4 C 624.311 1799.08 604.65 1789.41 586.125 1774.16 C 591.223 1787.33 596.263 1800.39 596.981 1814.65 C 599.371 1862.15 573.715 1890.01 595.393 1940.68 C 598.502 1947.94 602.969 1958.03 608.18 1963.75 C 606.471 1963.64 604.437 1964.21 602.729 1964.48 C 601.497 1960.27 598.58 1956.04 596.591 1952.09 C 590.833 1940.67 585.302 1928.98 583.332 1916.23 C 577.305 1877.17 600.823 1839.03 592.538 1801.74 C 589.85 1789.65 583.674 1774.23 577.136 1763.7 C 564.44 1743.27 555.659 1736.9 547.007 1712.27 z"/>
<path transform="translate(0,0)" fill="rgb(2,2,25)" d="M 474.787 1393.34 C 475.196 1399.7 474.566 1406.15 477.881 1411.87 C 477.858 1425.92 478.013 1440.01 477.724 1454.07 C 478.262 1469.71 478.891 1485.5 480.776 1501.04 L 476.83 1503.24 C 475.66 1494.97 475.225 1486.71 474.773 1478.38 C 472.612 1462.31 470.676 1405.96 474.787 1393.34 z"/>
<path transform="translate(0,0)" fill="rgb(13,24,55)" d="M 679.947 1799.01 C 693.588 1795.95 708.361 1794.58 722.279 1792.94 C 721.083 1794.32 719.733 1795.53 719.172 1797.29 C 707.046 1799.99 694.113 1801.35 681.741 1802.45 C 673.044 1804.86 656.883 1804.2 648.166 1802.4 C 646.262 1800.67 644.046 1799.21 641.975 1797.68 C 655.34 1799.86 666.626 1799.3 679.947 1799.01 z"/>
<path transform="translate(0,0)" fill="rgb(0,0,2)" d="M 739.153 1791.91 C 748.894 1792.08 758.279 1792.86 767.345 1796.76 C 769.118 1799.27 769.41 1799.63 769.561 1802.67 C 756.27 1797.43 746.012 1795.88 731.711 1796.2 C 734.039 1794.6 736.684 1793.3 739.153 1791.91 z"/>
<path transform="translate(0,0)" fill="rgb(2,2,25)" d="M 722.279 1792.94 C 727.917 1792.34 733.489 1792.08 739.153 1791.91 C 736.684 1793.3 734.039 1794.6 731.711 1796.2 C 727.517 1796.91 723.421 1797.14 719.172 1797.29 C 719.733 1795.53 721.083 1794.32 722.279 1792.94 z"/>
<path transform="translate(0,0)" fill="rgb(0,0,2)" d="M 749.531 549.369 C 755.427 549.33 760.805 550.073 766 553.066 C 771.158 556.012 774.828 561.004 776.101 566.805 C 777.697 573.747 776.121 580.846 772.385 586.837 C 766.812 595.774 759.058 599.715 749.193 602.093 C 741.478 602.241 734.527 601.464 728.202 596.58 C 723.331 592.848 720.203 587.282 719.547 581.181 C 718.678 573.622 721.567 565.849 726.448 560.125 C 732.857 552.61 740.021 550.166 749.531 549.369 z"/>
<path transform="translate(0,0)" fill="rgb(255,254,251)" d="M 744.456 553.193 C 748.964 552.776 753.82 552.601 758.121 554.204 C 763.863 556.343 768.518 560.534 770.755 566.287 C 772.915 571.901 772.608 578.165 769.909 583.541 C 765.792 591.706 759.025 594.706 750.89 597.569 C 745.895 598.124 741.06 598.102 736.259 596.403 C 731.153 594.595 727.062 591.004 724.93 585.993 C 722.594 580.501 723.068 574.104 725.49 568.727 C 729.351 560.155 736.032 556.267 744.456 553.193 z"/>
<path transform="translate(0,0)" fill="rgb(0,0,2)" d="M 742.772 562.123 C 745.39 561.861 748.244 561.43 750.862 561.77 C 754.492 562.24 757.756 564.464 759.818 567.438 C 761.679 570.122 762.194 573.332 761.475 576.482 C 760.175 582.174 756.372 584.817 751.597 587.597 C 748.625 587.998 745.54 588.499 742.572 587.819 C 739.306 587.071 736.314 585.035 734.586 582.148 C 732.825 579.207 732.526 575.721 733.505 572.46 C 735.044 567.334 738.327 564.736 742.772 562.123 z"/>
<path transform="translate(0,0)" fill="rgb(55,64,93)" d="M 744.026 566.048 C 748.858 564.194 754.277 566.617 756.118 571.455 C 757.958 576.292 755.52 581.704 750.678 583.531 C 745.854 585.351 740.467 582.925 738.634 578.106 C 736.801 573.288 739.213 567.894 744.026 566.048 z"/>
<path transform="translate(0,0)" fill="rgb(0,0,2)" d="M 639.376 827.496 C 646.105 824.889 653.684 828.131 656.446 834.798 C 659.208 841.465 656.142 849.117 649.542 852.033 C 645.134 853.98 640.017 853.387 636.171 850.483 C 632.325 847.579 630.354 842.821 631.019 838.048 C 631.684 833.275 634.883 829.237 639.376 827.496 z"/>
<path transform="translate(0,0)" fill="rgb(255,254,251)" d="M 640.549 830.92 C 644.616 831.625 650.037 832.743 652.399 836.617 C 653.695 838.743 654.307 840.566 653.469 843.014 C 652.464 845.949 649.764 847.557 647.293 849.113 L 645.61 849.115 C 641.7 849.089 638.801 848.93 636.001 845.848 C 634.349 844.03 633.366 841.583 633.817 839.099 C 634.525 835.201 637.419 832.913 640.549 830.92 z"/>
<path transform="translate(0,0)" fill="rgb(0,0,2)" d="M 676.59 695.945 C 678.564 695.891 680.658 695.783 682.602 696.175 C 686.352 696.931 689.784 699.8 691.851 702.935 C 694.054 706.278 694.783 710.234 693.795 714.127 C 692.569 718.96 689.744 721.222 685.593 723.62 C 684.252 723.631 682.918 723.662 681.584 723.498 C 677.222 722.96 673.454 720.551 671.029 716.9 C 668.845 713.613 668.045 709.719 668.938 705.854 C 670.064 700.978 672.53 698.613 676.59 695.945 z"/>
<path transform="translate(0,0)" fill="rgb(255,254,251)" d="M 676.926 701.923 C 681.639 699.807 687.172 701.938 689.249 706.668 C 691.326 711.397 689.15 716.913 684.404 718.952 C 679.712 720.966 674.273 718.821 672.22 714.146 C 670.167 709.47 672.268 704.014 676.926 701.923 z"/>
<path transform="translate(0,0)" fill="rgb(0,0,2)" d="M 706.144 636.95 C 708.014 636.909 709.629 636.971 711.474 637.363 C 715.057 638.124 718.546 640.678 720.388 643.834 C 722.104 646.773 722.469 650.295 721.649 653.572 C 720.3 658.957 716.935 661.303 712.436 664.128 C 710.397 664.164 708.475 664.164 706.446 663.876 C 703.109 663.401 700.068 661.027 698.258 658.264 C 696.348 655.351 695.856 651.883 696.591 648.501 C 697.902 642.468 701.042 639.967 706.144 636.95 z"/>
<path transform="translate(0,0)" fill="rgb(255,254,251)" d="M 706.051 642.685 C 709.204 641.66 712.665 642.408 715.113 644.644 C 717.56 646.881 718.617 650.26 717.88 653.492 C 717.143 656.725 714.726 659.312 711.551 660.266 C 706.718 661.718 701.616 659.011 700.109 654.194 C 698.602 649.378 701.252 644.246 706.051 642.685 z"/>
<path transform="translate(0,0)" fill="rgb(0,0,2)" d="M 560.693 1012.09 C 563.308 1011.74 565.802 1011.43 568.428 1011.89 C 572.178 1012.54 575.806 1015.22 577.946 1018.32 C 579.829 1021 580.52 1024.35 579.855 1027.56 C 578.94 1032.12 576.278 1034 572.645 1036.44 C 570.671 1036.78 568.762 1037.06 566.752 1036.99 C 562.836 1036.86 559.33 1035.11 556.763 1032.14 C 554.544 1029.57 553.542 1026.31 553.807 1022.94 C 554.214 1017.77 556.828 1015.21 560.693 1012.09 z"/>
<path transform="translate(0,0)" fill="rgb(255,254,251)" d="M 563.575 1016.45 C 566.621 1015.28 570.065 1015.85 572.567 1017.95 C 575.069 1020.05 576.234 1023.34 575.609 1026.54 C 574.984 1029.75 572.668 1032.36 569.562 1033.36 C 564.938 1034.86 559.966 1032.4 558.344 1027.82 C 556.722 1023.24 559.041 1018.2 563.575 1016.45 z"/>
<path transform="translate(0,0)" fill="rgb(0,0,2)" d="M 430.915 1311.01 C 433.346 1310.95 435.788 1310.88 438.169 1311.46 C 441.189 1312.2 443.724 1314.24 445.083 1317.04 C 446.276 1319.51 446.275 1322.32 445.476 1324.9 C 443.889 1330.03 440.094 1333.06 435.524 1335.46 C 433.264 1335.39 430.953 1335.3 428.751 1334.73 C 425.803 1333.96 422.5 1331.68 421.127 1328.89 C 419.706 1326 419.377 1323.18 420.557 1320.13 C 422.499 1315.12 426.302 1313.22 430.915 1311.01 z"/>
<path transform="translate(0,0)" fill="rgb(255,254,251)" d="M 429.862 1315.04 C 433.427 1314.9 437.89 1314.87 440.659 1317.51 C 442.372 1319.14 443.062 1321.21 442.675 1323.55 C 442.146 1326.74 439.696 1328.99 437.459 1331.09 C 433.444 1331.46 428.853 1331.82 425.841 1328.45 C 424.227 1326.65 423.74 1324.5 424.226 1322.15 C 424.881 1318.97 427.506 1316.98 429.862 1315.04 z"/>
<path transform="translate(0,0)" fill="rgb(0,0,2)" d="M 446.023 1247.12 C 452.79 1245.87 459.296 1250.32 460.578 1257.09 C 461.859 1263.85 457.433 1270.37 450.676 1271.68 C 443.88 1273 437.307 1268.54 436.018 1261.74 C 434.729 1254.94 439.215 1248.38 446.023 1247.12 z"/>
<path transform="translate(0,0)" fill="rgb(255,254,251)" d="M 445.99 1251.21 C 449.058 1250.3 452.378 1251.16 454.624 1253.44 C 456.87 1255.72 457.675 1259.05 456.717 1262.11 C 455.76 1265.16 453.196 1267.44 450.051 1268.03 C 445.521 1268.87 441.121 1266.03 440.039 1261.55 C 438.957 1257.07 441.572 1252.53 445.99 1251.21 z"/>
<path transform="translate(0,0)" fill="rgb(0,0,2)" d="M 466.503 1182.83 C 472.276 1179.73 479.469 1181.94 482.511 1187.74 C 485.552 1193.55 483.274 1200.72 477.44 1203.7 C 471.688 1206.64 464.639 1204.4 461.639 1198.68 C 458.64 1192.96 460.81 1185.89 466.503 1182.83 z"/>
<path transform="translate(0,0)" fill="rgb(255,254,251)" d="M 469.254 1186.45 C 472.024 1185.32 475.19 1185.81 477.493 1187.72 C 479.796 1189.63 480.861 1192.65 480.266 1195.58 C 479.671 1198.51 477.512 1200.88 474.647 1201.74 C 470.498 1202.99 466.101 1200.75 464.66 1196.67 C 463.218 1192.58 465.241 1188.08 469.254 1186.45 z"/>
<path transform="translate(0,0)" fill="rgb(255,254,251)" d="M 657.959 766.608 C 660.816 765.167 664.229 765.38 666.885 767.165 C 669.541 768.95 671.027 772.03 670.772 775.22 C 670.517 778.41 668.56 781.214 665.654 782.554 C 661.268 784.576 656.071 782.711 653.972 778.361 C 651.873 774.012 653.647 768.782 657.959 766.608 z"/>
<path transform="translate(0,0)" fill="rgb(255,254,251)" d="M 494.839 1126.92 C 497.485 1125.26 500.828 1125.18 503.554 1126.71 C 506.281 1128.23 507.955 1131.13 507.919 1134.25 C 507.883 1137.38 506.143 1140.23 503.382 1141.7 C 499.324 1143.85 494.289 1142.41 491.989 1138.43 C 489.689 1134.45 490.948 1129.37 494.839 1126.92 z"/>
<path transform="translate(0,0)" fill="rgb(255,254,251)" d="M 593.829 955.346 C 597.991 953.372 602.967 955.076 605.046 959.187 C 607.124 963.298 605.546 968.316 601.49 970.497 C 598.773 971.959 595.477 971.832 592.88 970.165 C 590.284 968.499 588.796 965.555 588.993 962.476 C 589.19 959.397 591.041 956.668 593.829 955.346 z"/>
<path transform="translate(0,0)" fill="rgb(255,254,251)" d="M 531.747 1073.95 C 535.187 1073.87 538.68 1073.7 541.27 1076.44 C 542.833 1078.09 543.474 1080.26 543.054 1082.49 C 542.297 1086.53 539.646 1088.52 536.467 1090.65 C 533.893 1090.68 531.007 1090.52 528.846 1088.98 C 526.958 1087.64 525.924 1085.72 525.956 1083.39 C 526.016 1079.01 528.741 1076.64 531.747 1073.95 z"/>
<path transform="translate(0,0)" fill="rgb(255,254,251)" d="M 616.662 894.676 C 620.753 892.895 625.517 894.71 627.386 898.762 C 629.254 902.814 627.541 907.616 623.529 909.57 C 620.857 910.872 617.69 910.627 615.251 908.929 C 612.812 907.231 611.482 904.346 611.774 901.389 C 612.067 898.431 613.937 895.863 616.662 894.676 z"/>
<path transform="translate(0,0)" fill="rgb(255,254,251)" d="M 426.973 1380.34 C 430.97 1379.53 434.898 1382.02 435.867 1385.98 C 436.837 1389.94 434.501 1393.96 430.579 1395.08 C 427.903 1395.85 425.024 1395.09 423.074 1393.1 C 421.124 1391.12 420.417 1388.23 421.23 1385.56 C 422.043 1382.9 424.246 1380.9 426.973 1380.34 z"/>
<path transform="translate(0,0)" fill="rgb(255,254,251)" d="M 443.137 1511.5 C 444.997 1512.05 447.329 1513 448.683 1514.41 C 449.858 1515.64 450.534 1517.29 450.514 1518.96 C 450.46 1523.48 447.979 1525.72 444.874 1528.57 C 443.057 1528.11 441.584 1527.73 440.099 1526.49 C 438.165 1524.87 437.024 1522.6 437.189 1520.05 C 437.462 1515.82 439.993 1513.8 443.137 1511.5 z"/>
<path transform="translate(0,0)" fill="rgb(255,254,251)" d="M 431.21 1450.47 C 433.764 1449.64 436.565 1450.32 438.46 1452.22 C 440.354 1454.13 441.021 1456.93 440.185 1459.48 C 439.35 1462.03 437.154 1463.9 434.502 1464.31 C 430.824 1464.88 427.323 1462.53 426.462 1458.91 C 425.601 1455.29 427.668 1451.61 431.21 1450.47 z"/>
<path transform="translate(0,0)" fill="rgb(255,254,251)" d="M 461.358 1570.86 C 464.712 1569.63 468.434 1571.28 469.784 1574.59 C 471.134 1577.89 469.628 1581.67 466.375 1583.14 C 464.16 1584.15 461.575 1583.86 459.635 1582.39 C 457.696 1580.93 456.712 1578.52 457.071 1576.12 C 457.431 1573.71 459.075 1571.7 461.358 1570.86 z"/>
<path transform="translate(0,0)" fill="rgb(255,254,251)" d="M 481.566 1618.91 C 483.747 1617.26 486.836 1617.58 488.633 1619.65 C 490.43 1621.71 490.32 1624.81 488.381 1626.75 C 487.005 1628.12 484.979 1628.61 483.128 1628.02 C 481.276 1627.43 479.908 1625.86 479.579 1623.94 C 479.251 1622.03 480.017 1620.09 481.566 1618.91 z"/>
<path transform="translate(0,0)" fill="rgb(171,181,197)" d="M 1056.38 1544.49 C 1058.21 1520.12 1055.62 1496.16 1055.19 1471.81 C 1054.73 1429.49 1060.73 1387.35 1072.99 1346.84 C 1078.59 1328.22 1085.11 1309.9 1092.52 1291.93 C 1100.84 1272.16 1117.01 1240.16 1120.3 1220.2 C 1122.95 1204.16 1121.83 1185.85 1122.48 1169.5 C 1123.72 1142.49 1125.65 1115.52 1128.25 1088.62 C 1134.29 1028.95 1144.16 969.727 1157.8 911.324 C 1162.23 891.526 1166.07 871.584 1171.17 851.945 C 1188.14 786.362 1211.92 722.728 1242.09 662.075 C 1267.13 612.959 1296.75 566.322 1330.57 522.788 C 1368.37 474.99 1410.49 430.142 1443.24 378.544 C 1465.3 343.79 1481.51 305.424 1496.62 267.284 C 1508.37 237.622 1519.74 208.958 1525.53 177.434 C 1526.7 184.529 1521.59 206.445 1520.18 214.02 C 1506.19 289.39 1478.25 359.474 1439.12 425.185 C 1431.83 437.422 1424.73 450.045 1416.47 461.652 C 1381.96 510.105 1340.53 552.895 1304.87 600.318 C 1291.97 617.468 1280.25 636.377 1269.34 654.841 C 1209.48 756.195 1186.58 920.086 1175.49 1036.41 C 1171.73 1075.92 1168.12 1115.71 1167.71 1155.42 C 1167.43 1183.49 1169.24 1211.55 1171.49 1239.52 C 1178.73 1224.32 1183.61 1207.07 1189.06 1191.12 C 1199.03 1161.95 1209.56 1131.9 1216.4 1101.84 C 1221.36 1080.02 1223.1 1057.7 1227.1 1035.73 C 1234.8 993.373 1246.6 949.789 1261.17 909.292 C 1273.26 875.707 1291.04 844.983 1308.71 814.121 C 1340.2 759.11 1372.84 704.388 1389.63 642.761 C 1397.13 615.225 1401.32 587.168 1406.25 559.106 C 1418.35 689.459 1343.29 813.241 1289.81 926.824 C 1272.33 963.943 1255.92 1002.64 1243.5 1041.75 C 1231.08 1080.86 1224.99 1120.6 1217.52 1160.83 C 1208.39 1209.98 1197.41 1259.83 1178.15 1306.1 C 1188.01 1373.24 1206.79 1437.59 1228.07 1501.85 C 1233.57 1518.46 1238.16 1535.85 1244.6 1552.09 C 1265.57 1513.96 1281.6 1463.27 1278.7 1419.46 C 1277.75 1405.04 1274.05 1391.15 1270.58 1377.18 C 1292.85 1410.24 1289.77 1452.46 1282.46 1489.89 C 1276.42 1520.84 1268.66 1552.18 1256.41 1581.27 C 1275.78 1622.71 1287.33 1668.18 1298.92 1712.25 C 1303.64 1705.22 1308.69 1698.15 1312.28 1690.46 C 1338.75 1633.75 1352.62 1523.62 1340.66 1462.72 C 1333.24 1424.94 1317.43 1389.92 1307.34 1353.03 C 1274.61 1233.49 1269.17 1102.94 1340.48 995.607 C 1360.93 964.814 1385.13 937.274 1410.5 910.476 C 1433.22 886.48 1456.8 863.067 1476.61 836.52 C 1493.79 813.062 1508.12 787.643 1519.3 760.8 C 1524.35 748.762 1524.58 740.603 1528.28 730.229 L 1529.29 730.049 C 1529.8 745.078 1522.73 772.245 1518.13 786.41 C 1503.56 831.197 1478.81 873.762 1450.81 911.412 C 1395.93 985.202 1342.28 1032.85 1324.35 1128.82 C 1313 1189.55 1318.42 1253.04 1328.11 1313.57 C 1331.88 1337.16 1336.74 1360.56 1340.02 1384.23 C 1344.05 1413.42 1347.43 1442.73 1351.15 1471.97 C 1353.22 1488.25 1355.97 1504.5 1357.58 1520.82 C 1360.49 1550.37 1361.85 1580.27 1363.39 1609.92 C 1374.19 1591.27 1386.57 1572.44 1395.08 1552.64 C 1410.01 1570.65 1424.15 1591.38 1431.71 1613.75 C 1431.58 1614.41 1431.43 1615.06 1431.31 1615.71 C 1429.85 1623.16 1430.06 1631.64 1429.62 1639.25 C 1428.81 1653.18 1427.89 1666.98 1426.16 1680.83 C 1417.3 1751.94 1400.91 1817.35 1371.61 1882.81 C 1368.08 1890.69 1364.58 1898.64 1360.63 1906.32 C 1356.6 1914.15 1342.77 1933.85 1341.75 1941.61 C 1327.62 1938.57 1311.72 1937.24 1297.28 1935.56 L 1286.6 1934.02 C 1258.6 1928.65 1230.29 1925.01 1202.31 1919.44 C 1192.62 1918.2 1182.86 1916.04 1173.23 1914.33 L 1167.95 1913.34 C 1162 1911.79 1155.87 1910.66 1149.87 1909.33 C 1154.93 1897.46 1165.16 1887.38 1170.91 1875.47 C 1166.67 1867.41 1162.31 1859.54 1157.53 1851.79 C 1157.63 1851.33 1157.82 1850.89 1157.82 1850.42 C 1157.86 1847.03 1155.13 1843.71 1153.31 1841.07 C 1142.33 1822.81 1132.68 1804.33 1124.6 1784.62 C 1115.38 1762.15 1107.94 1738.99 1098.2 1716.73 C 1098.22 1727.19 1098.84 1738.18 1097.13 1748.51 C 1096.78 1738.65 1099 1726.13 1096.34 1716.75 L 1094.85 1717.61 C 1094.87 1717.41 1094.84 1717.2 1094.91 1717.01 C 1095.38 1715.52 1096.23 1714.17 1096.35 1712.56 C 1096.92 1704.56 1079.66 1659.4 1076.36 1647.47 C 1071.83 1631.13 1063.92 1576.6 1056.93 1566.71 C 1056 1559.43 1057.39 1551.9 1056.38 1544.49 z"/>
<path transform="translate(0,0)" fill="rgb(255,254,251)" d="M 1411.92 1575.66 C 1412.25 1593.65 1410.56 1611.11 1408.57 1628.96 C 1398.23 1722 1363.49 1807.4 1321.26 1890.09 C 1317.4 1897.64 1303.15 1930.09 1299.34 1934.37 C 1298.61 1935.19 1298.37 1935.12 1297.28 1935.56 L 1286.6 1934.02 C 1292.51 1915.39 1298.41 1896.85 1301.63 1877.52 C 1304.06 1862.95 1304.21 1846.97 1308.15 1832.84 C 1313.01 1815.37 1328.7 1792.88 1335.74 1773.83 C 1342.45 1755.65 1348.73 1736.71 1352.87 1717.77 C 1355.47 1705.89 1356.44 1693.05 1360.23 1681.51 C 1364.12 1669.7 1370.14 1658.28 1375.56 1647.11 C 1387.2 1623.08 1399.83 1599.47 1411.92 1575.66 z"/>
<path transform="translate(0,0)" fill="rgb(255,254,251)" d="M 1184.92 1894.94 C 1191.69 1900.28 1197.23 1910.11 1202.38 1917.11 C 1202.51 1919.08 1202.69 1918.33 1202.31 1919.44 C 1192.62 1918.2 1182.86 1916.04 1173.23 1914.33 C 1176.88 1907.65 1180.69 1901.26 1184.92 1894.94 z"/>
<path transform="translate(0,0)" fill="rgb(153,167,186)" d="M 1176.42 1881.92 L 1178.17 1881.95 C 1180.84 1885.52 1183.37 1888.93 1185.49 1892.87 L 1184.92 1894.94 C 1181.06 1893.71 1177.69 1887.06 1175.44 1883.83 L 1175.29 1882.28 L 1176.42 1881.92 z"/>
<path transform="translate(0,0)" fill="rgb(255,254,251)" d="M 1132.29 1415.6 C 1135.58 1419 1148.44 1476.43 1151.07 1486.07 C 1165.42 1538.54 1185.83 1589.04 1203.92 1640.28 C 1190.09 1670.46 1179.68 1700.57 1171.64 1732.78 L 1170.85 1735.09 C 1167.52 1733.39 1163.81 1721.07 1162.35 1717.27 C 1147.33 1678.19 1104.78 1545.96 1105.11 1511 C 1105.33 1486.55 1122.2 1438.37 1132.29 1415.6 z"/>
<path transform="translate(0,0)" fill="rgb(255,254,251)" d="M 1118.46 1274.73 C 1120.53 1286.62 1120.16 1300.32 1121.09 1312.5 C 1122.26 1327.76 1124.61 1343.03 1125.21 1358.31 C 1125.36 1362.11 1125.41 1365.81 1124.48 1369.54 C 1122.12 1379.1 1117.38 1388.77 1113.81 1397.97 C 1107.47 1414.3 1101.9 1430.61 1098.21 1447.77 C 1097.98 1449.16 1097.58 1450.31 1097.12 1451.63 C 1096.82 1451.14 1096.45 1450.68 1096.23 1450.15 C 1094.68 1446.47 1095.29 1437.66 1095.15 1433.54 C 1093.74 1391.98 1099.52 1350.98 1108.55 1310.52 C 1111.2 1298.67 1113.77 1285.93 1118.46 1274.73 z"/>
<path transform="translate(0,0)" fill="rgb(255,254,251)" d="M 1241.5 1766.81 C 1241.75 1767.11 1242.08 1767.37 1242.26 1767.72 C 1243.93 1771.1 1244.4 1776.78 1244.97 1780.53 C 1249.97 1813.4 1246.98 1847.05 1243.33 1879.85 L 1231.87 1861.3 C 1222.75 1846.68 1215.41 1831.71 1208.45 1815.99 C 1218.41 1798.94 1231.51 1783.96 1241.5 1766.81 z"/>
<path transform="translate(0,0)" fill="rgb(255,254,251)" d="M 1220.32 1682.73 C 1225.83 1690.45 1235.02 1730.54 1236.8 1741.84 C 1228.28 1757.52 1214.71 1772.23 1203.68 1786.34 C 1201.94 1788.63 1200.61 1790.46 1198.04 1791.91 L 1196.36 1791.11 C 1192.36 1776.39 1215.1 1700 1220.32 1682.73 z"/>
<path transform="translate(0,0)" fill="rgb(0,0,2)" d="M 1500.33 1296.77 C 1461.75 1288.43 1420.68 1271.6 1398.37 1237.21 C 1390.78 1225.51 1383.29 1205.65 1386.59 1191.64 C 1389.19 1180.62 1401.56 1173.72 1409.57 1166.63 C 1433.49 1145.46 1456.46 1125.38 1484.29 1109.33 C 1519.32 1089.13 1561.66 1070.08 1602.72 1081.5 C 1645.51 1093.39 1676.4 1136.41 1696.99 1173.44 C 1707.72 1192.75 1739.49 1252.64 1734.15 1272.26 C 1730.01 1287.46 1707.58 1303.2 1694.27 1309.91 C 1660.81 1326.75 1624.75 1324.72 1588.92 1318.36 C 1575.38 1387.43 1566.05 1457.27 1560.96 1527.48 C 1558.63 1555.92 1556.03 1584.61 1555.39 1613.15 C 1586.53 1658.96 1576.74 1657.74 1577.13 1709.84 C 1577.73 1716.99 1577.14 1724.96 1578.56 1731.9 L 1577.32 1732.36 L 1576.47 1729.95 C 1573.68 1735.28 1574.66 1764.52 1575.04 1772.03 C 1574.75 1780.26 1574.5 1788.19 1575.91 1796.33 C 1582.24 1832.84 1609.24 1862.93 1613.1 1900.66 C 1614.97 1918.83 1610.09 1935.78 1608.54 1953.67 C 1604.21 1954.12 1599.68 1954.91 1595.34 1954.86 L 1592.1 1955.29 C 1589.86 1956.12 1585.96 1956.61 1583.69 1955.83 C 1577.54 1953.71 1574.98 1930.02 1571.8 1923.76 C 1571.53 1923.22 1571.23 1922.7 1570.95 1922.16 L 1569.08 1923.92 C 1572.56 1932.19 1577.76 1946.05 1575.88 1954.98 C 1574.31 1955.95 1573.37 1956.09 1571.54 1956.18 C 1561.38 1958.05 1550.46 1957.14 1540.19 1956.75 C 1534.7 1958.8 1527.12 1957.95 1521.42 1956.82 C 1514.8 1955.5 1507.23 1955.77 1500.46 1955.42 C 1486.06 1954.73 1471.66 1953.93 1457.27 1953.02 C 1418.65 1950.5 1380.12 1946.69 1341.75 1941.61 C 1342.77 1933.85 1356.6 1914.15 1360.63 1906.32 C 1364.58 1898.64 1368.08 1890.69 1371.61 1882.81 C 1400.91 1817.35 1417.3 1751.94 1426.16 1680.83 C 1427.89 1666.98 1428.81 1653.18 1429.62 1639.25 C 1430.06 1631.64 1429.85 1623.16 1431.31 1615.71 C 1431.43 1615.06 1431.58 1614.41 1431.71 1613.75 C 1424.15 1591.38 1410.01 1570.65 1395.08 1552.64 C 1393.89 1551.17 1392.5 1549.62 1391.59 1547.96 C 1390.27 1545.53 1390.39 1543.88 1391.06 1541.32 L 1393.4 1540.11 C 1397.22 1540.05 1399.96 1542.67 1402.89 1544.83 C 1421.42 1514.22 1440.57 1473.28 1454.72 1440.1 C 1459.24 1429.49 1461.79 1417.93 1466.77 1407.57 C 1479.44 1371.1 1490.63 1334.14 1500.33 1296.77 z"/>
<path transform="translate(0,0)" fill="rgb(255,254,251)" d="M 1517.18 1251.99 C 1541.89 1260.24 1566.33 1268.08 1591.58 1274.54 C 1570.58 1385.81 1554.42 1498.23 1551.79 1611.61 C 1546.29 1607.25 1540.37 1602.1 1532.84 1603.21 C 1530.62 1603.54 1530.42 1603.91 1528.71 1605.16 C 1528.02 1609.08 1529.23 1611.47 1531.52 1614.65 C 1537.33 1622.71 1544.71 1629.21 1550.28 1637.61 C 1548.47 1678.55 1548.13 1719.55 1549.27 1760.52 C 1550.64 1798.17 1553.67 1835.82 1554.14 1873.5 C 1535.24 1847.97 1530.01 1833.62 1534.77 1801.67 C 1537.09 1786.08 1540.59 1770.07 1539.51 1754.25 C 1537.16 1719.75 1506.87 1695.13 1504.76 1660.64 C 1502.89 1630.13 1523.91 1600.48 1525.26 1569.27 C 1524.28 1570.47 1523.47 1571.4 1522.89 1572.86 C 1519.5 1581.45 1518.17 1591.7 1515.55 1600.61 C 1511.53 1614.31 1505.98 1627.11 1503.26 1641.25 C 1501.57 1650.07 1500.68 1659.08 1501.5 1668.06 C 1504.15 1697.12 1529.16 1715.73 1534.77 1744.05 C 1540.61 1773.6 1527.87 1804.04 1528.49 1833.98 C 1524.47 1823.02 1520.44 1813.83 1522.43 1801.88 C 1521.81 1799.88 1520.86 1797.91 1520.08 1795.97 C 1519.65 1798.58 1519.2 1801.03 1518.35 1803.55 L 1517.01 1803.62 C 1510.95 1794.92 1505.38 1785.91 1498.63 1777.7 C 1484.02 1759.94 1466.13 1743.78 1456.78 1722.34 C 1440.64 1685.32 1461.63 1651.73 1450.86 1617.39 C 1445.32 1599.72 1433.62 1583.47 1423.82 1567.95 C 1417.37 1559.58 1411.27 1551.39 1402.89 1544.83 C 1421.42 1514.22 1440.57 1473.28 1454.72 1440.1 C 1459.24 1429.49 1461.79 1417.93 1466.77 1407.57 C 1473.21 1401.97 1490.62 1346.93 1495.14 1334.73 C 1502.77 1307.47 1507.92 1278.66 1517.18 1251.99 z"/>
<path transform="translate(0,0)" fill="rgb(171,181,197)" d="M 1466.77 1407.57 C 1473.21 1401.97 1490.62 1346.93 1495.14 1334.73 C 1496.4 1342.24 1494.65 1350.74 1493.64 1358.27 C 1487.17 1406.47 1471.42 1451.35 1454.64 1496.79 C 1445.71 1520.97 1436.87 1545.62 1423.82 1567.95 C 1417.37 1559.58 1411.27 1551.39 1402.89 1544.83 C 1421.42 1514.22 1440.57 1473.28 1454.72 1440.1 C 1459.24 1429.49 1461.79 1417.93 1466.77 1407.57 z"/>
<path transform="translate(0,0)" fill="url(#Gradient4)" d="M 1510.85 1569.7 C 1512.08 1557.06 1513.28 1543.71 1510.38 1531.2 C 1508.81 1524.38 1505.84 1517.54 1505.45 1510.53 C 1505.28 1507.42 1505.59 1505.5 1507.6 1503.13 C 1511.31 1503.78 1513.29 1505.98 1515.37 1509.05 C 1524.04 1521.87 1529.41 1553 1525.7 1568 C 1525.59 1568.44 1525.41 1568.85 1525.26 1569.27 C 1524.28 1570.47 1523.47 1571.4 1522.89 1572.86 C 1519.5 1581.45 1518.17 1591.7 1515.55 1600.61 C 1511.53 1614.31 1505.98 1627.11 1503.26 1641.25 C 1501.57 1650.07 1500.68 1659.08 1501.5 1668.06 C 1504.15 1697.12 1529.16 1715.73 1534.77 1744.05 C 1540.61 1773.6 1527.87 1804.04 1528.49 1833.98 C 1524.47 1823.02 1520.44 1813.83 1522.43 1801.88 C 1521.81 1799.88 1520.86 1797.91 1520.08 1795.97 C 1520.26 1784.91 1523.07 1773.41 1523.7 1762.24 C 1521.82 1728.14 1497.73 1709.17 1490.47 1677.71 C 1480.67 1651.69 1501.16 1609.02 1508.37 1583.91 L 1510.85 1569.7 z"/>
<path transform="translate(0,0)" fill="rgb(2,2,25)" d="M 1490.47 1677.71 C 1492.39 1678.31 1493.55 1678.53 1495.07 1679.9 C 1505.57 1714.7 1529.51 1730.72 1527.76 1771.21 C 1526.55 1781.63 1525.08 1791.72 1522.43 1801.88 C 1521.81 1799.88 1520.86 1797.91 1520.08 1795.97 C 1520.26 1784.91 1523.07 1773.41 1523.7 1762.24 C 1521.82 1728.14 1497.73 1709.17 1490.47 1677.71 z"/>
<path transform="translate(0,0)" fill="rgb(13,24,55)" d="M 1510.85 1569.7 C 1515.17 1576.18 1512.93 1582.12 1511.58 1589.3 C 1502.73 1617.3 1485.76 1650.14 1495.07 1679.9 C 1493.55 1678.53 1492.39 1678.31 1490.47 1677.71 C 1480.67 1651.69 1501.16 1609.02 1508.37 1583.91 L 1510.85 1569.7 z"/>
<path transform="translate(0,0)" fill="rgb(255,254,251)" d="M 1431.71 1613.75 C 1434.32 1620 1436.57 1626.26 1437.54 1633 C 1438.18 1644.34 1434.34 1655.83 1435.16 1666.84 C 1435.39 1667.36 1435.65 1667.87 1435.86 1668.39 C 1438.94 1676.16 1436.1 1688.35 1436.73 1696.72 C 1437.72 1709.84 1443.71 1724.28 1449.43 1735.97 C 1452.48 1742.23 1456.38 1748.16 1460.51 1753.75 C 1474.13 1772.16 1491.39 1788.14 1502.38 1808.45 C 1513.31 1828.66 1517.75 1850.42 1530.94 1869.91 C 1542.91 1887.58 1562.37 1902.53 1570.95 1922.16 L 1569.08 1923.92 C 1572.56 1932.19 1577.76 1946.05 1575.88 1954.98 C 1574.31 1955.95 1573.37 1956.09 1571.54 1956.18 C 1561.38 1958.05 1550.46 1957.14 1540.19 1956.75 C 1534.7 1958.8 1527.12 1957.95 1521.42 1956.82 C 1514.8 1955.5 1507.23 1955.77 1500.46 1955.42 C 1486.06 1954.73 1471.66 1953.93 1457.27 1953.02 C 1418.65 1950.5 1380.12 1946.69 1341.75 1941.61 C 1342.77 1933.85 1356.6 1914.15 1360.63 1906.32 C 1364.58 1898.64 1368.08 1890.69 1371.61 1882.81 C 1400.91 1817.35 1417.3 1751.94 1426.16 1680.83 C 1427.89 1666.98 1428.81 1653.18 1429.62 1639.25 C 1430.06 1631.64 1429.85 1623.16 1431.31 1615.71 C 1431.43 1615.06 1431.58 1614.41 1431.71 1613.75 z"/>
<path transform="translate(0,0)" fill="rgb(0,0,2)" d="M 1435.16 1666.84 C 1435.39 1667.36 1435.65 1667.87 1435.86 1668.39 C 1438.94 1676.16 1436.1 1688.35 1436.73 1696.72 C 1437.72 1709.84 1443.71 1724.28 1449.43 1735.97 C 1452.48 1742.23 1456.38 1748.16 1460.51 1753.75 C 1474.13 1772.16 1491.39 1788.14 1502.38 1808.45 C 1513.31 1828.66 1517.75 1850.42 1530.94 1869.91 C 1542.91 1887.58 1562.37 1902.53 1570.95 1922.16 L 1569.08 1923.92 C 1572.56 1932.19 1577.76 1946.05 1575.88 1954.98 C 1574.31 1955.95 1573.37 1956.09 1571.54 1956.18 C 1561.38 1958.05 1550.46 1957.14 1540.19 1956.75 C 1534.7 1958.8 1527.12 1957.95 1521.42 1956.82 L 1525.72 1956 L 1526.21 1955.05 C 1503.32 1936.03 1496.07 1907.48 1484.61 1881.2 C 1477.95 1868.32 1470.12 1856.07 1460.38 1845.28 C 1454.93 1839.24 1436.13 1825.29 1433.6 1819.76 C 1432.4 1817.12 1432.8 1816.36 1433.88 1813.94 C 1436.61 1812.05 1438.95 1811.54 1442.22 1811.92 C 1451.34 1813 1459.12 1820.21 1465.39 1826.41 C 1486.32 1847.11 1499.17 1869.66 1513.17 1895.09 C 1519.48 1906.55 1525.73 1918.39 1533.8 1928.73 L 1534.63 1929.76 C 1534.01 1914.67 1535.34 1897.47 1532.53 1882.72 C 1530.6 1872.57 1522.55 1863.9 1518.06 1854.73 C 1510.85 1839.99 1506.47 1824.09 1498.43 1809.66 C 1487.01 1789.18 1470.61 1773.46 1456.68 1754.94 C 1436.77 1728.49 1430.61 1699.32 1435.16 1666.84 z"/>
<path transform="translate(0,0)" fill="rgb(55,64,93)" d="M 1487 1879.04 C 1480.44 1866.65 1473.82 1855.54 1464.51 1844.94 C 1459.09 1838.77 1439.43 1823.34 1437.58 1817 C 1438.67 1815.71 1438.43 1815.36 1439.87 1815.26 C 1449.55 1814.55 1468.07 1834.21 1474.24 1840.61 C 1492.53 1859.59 1503.68 1887.21 1516.59 1909.98 C 1523.95 1922.97 1532.83 1935.64 1541.8 1947.56 C 1542.73 1948.8 1546.07 1954.13 1547.27 1954.65 C 1547.32 1954.67 1550.26 1954.89 1550.32 1954.89 C 1550.76 1954.9 1551.21 1954.87 1551.66 1954.87 C 1555.56 1957.42 1566.66 1956.16 1571.54 1956.18 C 1561.38 1958.05 1550.46 1957.14 1540.19 1956.75 C 1534.7 1958.8 1527.12 1957.95 1521.42 1956.82 L 1525.72 1956 L 1526.21 1955.05 C 1503.32 1936.03 1496.07 1907.48 1484.61 1881.2 L 1487 1879.04 z"/>
<path transform="translate(0,0)" fill="rgb(13,24,55)" d="M 1487 1879.04 C 1487.17 1879.3 1487.35 1879.56 1487.52 1879.82 C 1504.04 1905.71 1505.77 1944.9 1540.19 1956.75 C 1534.7 1958.8 1527.12 1957.95 1521.42 1956.82 L 1525.72 1956 L 1526.21 1955.05 C 1503.32 1936.03 1496.07 1907.48 1484.61 1881.2 L 1487 1879.04 z"/>
<path transform="translate(0,0)" fill="rgb(255,254,251)" d="M 1538.78 1887.21 C 1550.03 1898.39 1560.56 1910.53 1569.08 1923.92 C 1572.56 1932.19 1577.76 1946.05 1575.88 1954.98 C 1574.31 1955.95 1573.37 1956.09 1571.54 1956.18 C 1566.66 1956.16 1555.56 1957.42 1551.66 1954.87 C 1548.18 1948.75 1543.89 1942.86 1540.11 1936.89 C 1540.14 1920.34 1538.87 1903.79 1538.78 1887.21 z"/>
<path transform="translate(0,0)" fill="rgb(255,254,251)" d="M 1558.36 1878.61 C 1556.75 1838.23 1553.75 1797.89 1552.53 1757.51 C 1551.47 1718.92 1551.76 1680.3 1553.4 1641.72 C 1565.59 1660.3 1563.19 1680.05 1562.69 1701.2 C 1562.43 1734.09 1558.29 1785.36 1569.3 1815.29 C 1569.4 1815.66 1569.49 1816.02 1569.6 1816.38 C 1572.56 1826.66 1577.4 1836.42 1581.86 1846.12 C 1597.89 1880.93 1603.03 1896.83 1598.37 1935.37 C 1597.94 1937.58 1597.23 1939.69 1596.55 1941.83 L 1595.54 1941.75 C 1585.79 1917.34 1573.89 1899.6 1558.36 1878.61 z"/>
<path transform="translate(0,0)" fill="rgb(55,64,93)" d="M 1437.54 1633 L 1438.6 1633.48 C 1439.88 1630.61 1439.04 1627.59 1438.59 1624.61 C 1438.54 1624.26 1438.5 1623.92 1438.45 1623.58 C 1435.69 1604.63 1413.71 1565.87 1401.22 1550.97 L 1402.04 1550.17 C 1417.71 1561.99 1446.77 1608.76 1449.49 1627.97 C 1453.47 1656.14 1440.61 1684.31 1449.92 1715.72 C 1458.7 1745.31 1484.46 1765.08 1501.78 1789.39 C 1508.58 1798.93 1515.62 1809.18 1520.84 1819.67 C 1527.68 1833.42 1533.09 1847.61 1540.78 1861.02 C 1555.54 1886.77 1578.35 1905.27 1587.59 1934.46 C 1589.72 1941.19 1590.69 1948.37 1592.1 1955.29 C 1589.86 1956.12 1585.96 1956.61 1583.69 1955.83 C 1577.54 1953.71 1574.98 1930.02 1571.8 1923.76 C 1571.53 1923.22 1571.23 1922.7 1570.95 1922.16 C 1562.37 1902.53 1542.91 1887.58 1530.94 1869.91 C 1517.75 1850.42 1513.31 1828.66 1502.38 1808.45 C 1491.39 1788.14 1474.13 1772.16 1460.51 1753.75 C 1456.38 1748.16 1452.48 1742.23 1449.43 1735.97 C 1443.71 1724.28 1437.72 1709.84 1436.73 1696.72 C 1436.1 1688.35 1438.94 1676.16 1435.86 1668.39 C 1435.65 1667.87 1435.39 1667.36 1435.16 1666.84 C 1434.34 1655.83 1438.18 1644.34 1437.54 1633 z"/>
<path transform="translate(0,0)" fill="rgb(55,64,93)" d="M 1566.25 1697.88 C 1566.66 1686.13 1568.02 1673.51 1565.56 1661.93 C 1561.08 1640.78 1533.63 1610.78 1533.24 1607.97 C 1535.2 1606.75 1535.26 1606.7 1537.43 1607.17 C 1548.43 1609.56 1561.52 1627.15 1566.95 1636.48 C 1579.4 1657.89 1574.89 1679.56 1574.95 1703.08 C 1574.96 1708.7 1574.7 1714.53 1576.21 1719.98 L 1576.52 1719.98 C 1576.69 1716.61 1576.74 1713.19 1577.13 1709.84 C 1577.73 1716.99 1577.14 1724.96 1578.56 1731.9 L 1577.32 1732.36 L 1576.47 1729.95 C 1573.68 1735.28 1574.66 1764.52 1575.04 1772.03 C 1574.75 1780.26 1574.5 1788.19 1575.91 1796.33 C 1582.24 1832.84 1609.24 1862.93 1613.1 1900.66 C 1614.97 1918.83 1610.09 1935.78 1608.54 1953.67 C 1604.21 1954.12 1599.68 1954.91 1595.34 1954.86 C 1596.34 1948.56 1599.55 1942.39 1599.54 1936 L 1598.37 1935.37 C 1603.03 1896.83 1597.89 1880.93 1581.86 1846.12 C 1577.4 1836.42 1572.56 1826.66 1569.6 1816.38 C 1569.49 1816.02 1569.4 1815.66 1569.3 1815.29 C 1558.29 1785.36 1562.43 1734.09 1562.69 1701.2 L 1566.25 1697.88 z"/>
<path transform="translate(0,0)" fill="rgb(13,24,55)" d="M 1562.69 1701.2 L 1566.25 1697.88 C 1567.02 1723.46 1564.77 1748.85 1566.26 1774.5 C 1566.95 1786.19 1572.46 1804.3 1569.3 1815.29 C 1558.29 1785.36 1562.43 1734.09 1562.69 1701.2 z"/>
<path transform="translate(0,0)" fill="rgb(171,181,197)" d="M 1566.27 1084.35 C 1584.58 1081.98 1603.18 1085.33 1619.51 1093.95 C 1671.41 1121.36 1711.24 1202.93 1727.8 1257.81 C 1712.66 1258.6 1699.03 1264.55 1684.52 1268.34 C 1647.32 1278.06 1607.43 1274.34 1570.75 1264.37 C 1554.65 1259.97 1538.84 1254.16 1522.9 1249.2 C 1493.21 1239.97 1462.9 1233.36 1436.05 1216.84 C 1421.33 1207.78 1408.7 1195.76 1395.86 1184.3 C 1409.2 1174.43 1420.85 1162.35 1433.54 1151.66 C 1470.98 1120.14 1517.06 1091.13 1566.27 1084.35 z"/>
<path transform="translate(0,0)" fill="rgb(171,181,197)" d="M 1393.09 1187.41 C 1401.72 1193.24 1411.97 1205.57 1420.95 1212.72 C 1446.87 1233.36 1480.15 1242.64 1511.65 1250.84 C 1508.38 1262.71 1505.65 1274.79 1502.69 1286.75 C 1502.29 1288.79 1502.02 1289.81 1500.61 1291.37 C 1494.14 1292.24 1476.55 1285.3 1469.73 1282.87 C 1441.56 1272.82 1411.51 1254.71 1398.42 1226.52 C 1392.95 1214.73 1388.41 1200.04 1393.09 1187.41 z"/>
<path transform="translate(0,0)" fill="rgb(171,181,197)" d="M 1720.67 1263.12 C 1724.03 1262.98 1726.02 1263.03 1728.65 1265.25 C 1729 1266.61 1729.14 1266.86 1729.14 1268.43 C 1729.16 1277.71 1714.92 1290.11 1708.06 1295.4 C 1676.42 1319.79 1637.16 1320.32 1599.24 1315.48 C 1596.19 1314.76 1592.55 1314.74 1589.4 1314.41 C 1591.4 1301.45 1594.04 1288.55 1596.69 1275.71 C 1622.56 1280.05 1652.98 1280.28 1678.62 1274.66 C 1692.76 1271.56 1706.63 1266.75 1720.67 1263.12 z"/>
<path transform="translate(0,0)" fill="rgb(171,181,197)" d="M 402.247 100.059 C 497.691 91.3821 582.143 161.612 591.016 257.038 C 599.889 352.465 529.833 437.061 434.425 446.13 C 338.739 455.225 253.843 384.92 244.944 289.216 C 236.046 193.513 306.525 108.761 402.247 100.059 z"/>
<path transform="translate(0,0)" fill="rgb(0,0,2)" d="M 1669.38 1547.3 C 1647.92 1535.55 1616.32 1510.84 1609.06 1486.36 C 1607.32 1480.49 1606.74 1473.55 1609.75 1467.98 C 1618.98 1450.9 1678.75 1429.21 1698.54 1424.15 C 1717.98 1419.17 1738.03 1417.51 1755.84 1428.28 C 1781.62 1443.85 1794.8 1474.77 1801.52 1502.81 C 1805.13 1517.88 1814.38 1547.52 1806.67 1560.86 C 1801.14 1570.44 1790.56 1575.36 1780.17 1577.74 C 1751.41 1584.31 1723.22 1574.16 1696.84 1563.53 C 1656.14 1648.37 1630.43 1735.31 1623.48 1829.36 C 1622.43 1843.59 1620.94 1858.23 1620.96 1872.49 L 1618.74 1873.42 C 1618.35 1876.46 1618.29 1879.52 1618.17 1882.58 L 1618.08 1881.32 C 1618.09 1887.14 1619.14 1895.5 1617.39 1900.91 C 1617.16 1900.72 1616.91 1900.56 1616.71 1900.34 C 1613.31 1896.68 1610.66 1884.32 1610.72 1879.34 C 1612.79 1879.76 1612.2 1879.52 1613.84 1880.24 C 1615.23 1880.86 1614.42 1880.84 1615.97 1880.29 C 1615.8 1874.79 1615.33 1869.34 1614.86 1863.86 C 1613.94 1869.33 1614.11 1875.46 1613.85 1881.01 C 1597.87 1834.08 1570.59 1803.58 1580.55 1750.68 L 1579.45 1749.14 C 1574.4 1755.17 1576.18 1764.69 1575.04 1772.03 C 1574.66 1764.52 1573.68 1735.28 1576.47 1729.95 L 1577.32 1732.36 L 1578.56 1731.9 C 1586.81 1709.16 1597.21 1687.21 1607.57 1665.37 C 1624.79 1629.04 1643.37 1592.69 1663.7 1557.98 L 1669.38 1547.3 z"/>
<path transform="translate(0,0)" fill="rgb(255,254,251)" d="M 1686.15 1523.7 L 1703.88 1535.28 C 1661.43 1625.36 1628.28 1708 1618.01 1808.24 C 1616.17 1826.24 1613.65 1845.77 1614.86 1863.86 C 1613.94 1869.33 1614.11 1875.46 1613.85 1881.01 C 1597.87 1834.08 1570.59 1803.58 1580.55 1750.68 L 1579.45 1749.14 C 1574.4 1755.17 1576.18 1764.69 1575.04 1772.03 C 1574.66 1764.52 1573.68 1735.28 1576.47 1729.95 L 1577.32 1732.36 L 1578.56 1731.9 C 1586.81 1709.16 1597.21 1687.21 1607.57 1665.37 C 1624.79 1629.04 1643.37 1592.69 1663.7 1557.98 C 1665.86 1557.13 1667.23 1555.93 1669.44 1556.88 C 1675.97 1546.34 1681.05 1534.99 1686.15 1523.7 z"/>
<path transform="translate(0,0)" fill="url(#Gradient3)" d="M 1663.7 1557.98 C 1665.86 1557.13 1667.23 1555.93 1669.44 1556.88 C 1638.7 1618.17 1599.22 1684.51 1580.55 1750.68 L 1579.45 1749.14 C 1574.4 1755.17 1576.18 1764.69 1575.04 1772.03 C 1574.66 1764.52 1573.68 1735.28 1576.47 1729.95 L 1577.32 1732.36 L 1578.56 1731.9 C 1586.81 1709.16 1597.21 1687.21 1607.57 1665.37 C 1624.79 1629.04 1643.37 1592.69 1663.7 1557.98 z"/>
<path transform="translate(0,0)" fill="rgb(171,181,197)" d="M 1718.24 1425.33 C 1731.68 1424.3 1743.59 1426.26 1754.99 1433.88 C 1787.8 1455.79 1795.62 1497.73 1802.17 1533.57 C 1798.34 1536.58 1794.56 1539.3 1790.07 1541.24 C 1768.53 1550.53 1742.75 1545.26 1721.74 1537.29 C 1682.49 1520.32 1652.41 1493.13 1625.31 1460.76 C 1653.23 1444.5 1686.21 1430.08 1718.24 1425.33 z"/>
<path transform="translate(0,0)" fill="rgb(171,181,197)" d="M 1708.19 1537.39 C 1720.08 1542.94 1732.64 1546.95 1745.55 1549.3 C 1765.7 1552.83 1786.48 1552.11 1803.64 1539.95 C 1804.15 1543.55 1804.9 1547.5 1804.66 1551.13 C 1804.24 1557.48 1799.83 1561.04 1795.49 1565.01 C 1792.42 1567.16 1789.11 1569.22 1785.65 1570.66 C 1757.58 1582.37 1725.22 1569.17 1698.81 1559 C 1701.61 1551.7 1705.04 1544.55 1708.19 1537.39 z"/>
<path transform="translate(0,0)" fill="rgb(171,181,197)" d="M 1620.26 1463.71 C 1627.71 1468.28 1639.3 1485.68 1646.94 1493.06 C 1657.62 1503.4 1669.75 1512.32 1681.46 1521.46 C 1678.73 1528.37 1675.16 1535.08 1671.95 1541.78 C 1671.44 1542.3 1670.69 1542.5 1670.05 1542.84 C 1656.89 1534.44 1644.56 1525.18 1633.78 1513.85 C 1624.93 1504.54 1612.37 1490.59 1613.08 1476.88 C 1613.4 1470.9 1616.09 1467.71 1620.26 1463.71 z"/>
<path transform="translate(0,0)" fill="rgb(2,2,25)" d="M 1954.61 1416.8 C 1960.01 1415.86 1964.84 1415.63 1969.9 1418.01 C 1970.93 1419.26 1971.5 1419.32 1971.33 1421.05 C 1971.17 1422.7 1970.78 1423.33 1969.86 1424.65 C 1969.4 1425.1 1968.95 1425.56 1968.47 1425.99 C 1963.36 1430.65 1954.59 1432.16 1948.08 1434.16 C 1922.48 1442.03 1903.39 1458.63 1888.33 1480.49 C 1859.94 1521.71 1849.92 1561.83 1841.02 1609.96 C 1836.93 1632.06 1832.76 1653.86 1823.87 1674.66 C 1810.84 1705.13 1792.61 1732.67 1772.2 1758.65 C 1763.61 1769.58 1754.21 1779.98 1746.12 1791.29 C 1719.31 1828.77 1693.2 1890.59 1689.28 1936.42 C 1689.13 1938.13 1689.19 1939.57 1689.42 1941.26 L 1690.78 1942.06 C 1695.08 1938.42 1698.22 1922.89 1700.98 1916.97 C 1707.61 1902.74 1715.8 1890.78 1726.54 1879.29 C 1753.81 1850.09 1796.55 1839.28 1819.79 1806.38 C 1833.01 1787.66 1838.68 1766.62 1845.24 1745 C 1857.76 1703.81 1878.5 1665.91 1912.55 1638.54 C 1920.99 1631.75 1934.29 1622.3 1945.62 1623 C 1948.73 1623.19 1950.08 1624.12 1952.41 1625.95 C 1953.47 1628.48 1953.89 1629.01 1952.66 1631.68 C 1949.32 1638.95 1927.62 1647.55 1920.45 1653.07 C 1909.68 1661.41 1900.05 1671.14 1891.81 1681.99 C 1861.72 1721.66 1860.57 1773.27 1833.24 1813.79 C 1808.39 1850.62 1769.41 1863.45 1741.38 1894.75 C 1734.29 1902.66 1728.76 1911.66 1723.65 1920.94 C 1721.64 1924.59 1717.06 1931.14 1717.05 1935.12 C 1719.63 1936.05 1720.97 1935.6 1723.58 1935.17 C 1739.18 1937.08 1772.81 1920.06 1790.73 1917.29 C 1793.17 1918.25 1794.23 1918.08 1795.44 1920.55 C 1794.2 1922.67 1793.4 1922.44 1791.17 1923.26 L 1791.77 1924.58 C 1767.69 1933.33 1741.55 1940.28 1716.54 1945.85 C 1669 1956.44 1618.3 1962.77 1569.63 1964.41 C 1516.94 1966.19 1463.64 1962.5 1411.24 1957.43 C 1346.43 1951.19 1281.9 1942.3 1217.81 1930.8 C 1178.95 1923.87 1140.39 1915.23 1101.56 1908.33 C 1065.9 1902.09 1030.04 1897.09 994.038 1893.34 C 965.628 1890.21 936.446 1890.11 907.911 1890.74 C 894.723 1891.03 881.047 1892.46 867.897 1891.88 C 864.542 1891.74 861.416 1891.46 858.527 1889.63 C 858.072 1887.41 857.791 1888.02 859.199 1885.82 C 868.922 1883.46 880.104 1883.57 890.1 1883.08 C 925.685 1881.32 960.546 1882.42 996.062 1884.4 C 995.983 1879.79 996.014 1875.56 996.897 1871 C 998.253 1873.28 998.483 1875.69 998.989 1878.27 C 999.419 1876.45 999.579 1875.36 1000.7 1873.83 L 1002.49 1874.96 C 1002.59 1871.18 1002.85 1867.43 1003.15 1863.66 C 1003.85 1870.75 1003.6 1877.74 1003.38 1884.85 C 1016.88 1886.71 1054.02 1894.03 1064.78 1893 C 1065.97 1891.67 1067.16 1890.36 1068.31 1889.01 C 1069.91 1890.31 1071.47 1891.54 1072.88 1893.06 L 1073 1894.37 C 1076.14 1895.13 1079.27 1895.91 1082.4 1896.73 C 1092.83 1897.75 1103.23 1900.15 1113.52 1902.11 C 1101.5 1874.96 1091.74 1841.24 1090.02 1811.68 C 1089.32 1799.57 1090.3 1787.75 1091.25 1775.7 C 1092.72 1757.16 1095.69 1737.63 1094.92 1719.08 L 1094.85 1717.61 L 1096.34 1716.75 C 1099 1726.13 1096.78 1738.65 1097.13 1748.51 C 1098.84 1738.18 1098.22 1727.19 1098.2 1716.73 C 1107.94 1738.99 1115.38 1762.15 1124.6 1784.62 C 1132.68 1804.33 1142.33 1822.81 1153.31 1841.07 C 1155.13 1843.71 1157.86 1847.03 1157.82 1850.42 C 1157.82 1850.89 1157.63 1851.33 1157.53 1851.79 C 1162.31 1859.54 1166.67 1867.41 1170.91 1875.47 C 1165.16 1887.38 1154.93 1897.46 1149.87 1909.33 C 1155.87 1910.66 1162 1911.79 1167.95 1913.34 L 1173.23 1914.33 C 1182.86 1916.04 1192.62 1918.2 1202.31 1919.44 C 1230.29 1925.01 1258.6 1928.65 1286.6 1934.02 L 1297.28 1935.56 C 1311.72 1937.24 1327.62 1938.57 1341.75 1941.61 C 1380.12 1946.69 1418.65 1950.5 1457.27 1953.02 C 1471.66 1953.93 1486.06 1954.73 1500.46 1955.42 C 1507.23 1955.77 1514.8 1955.5 1521.42 1956.82 C 1527.12 1957.95 1534.7 1958.8 1540.19 1956.75 C 1550.46 1957.14 1561.38 1958.05 1571.54 1956.18 C 1573.37 1956.09 1574.31 1955.95 1575.88 1954.98 C 1577.76 1946.05 1572.56 1932.19 1569.08 1923.92 L 1570.95 1922.16 C 1571.23 1922.7 1571.53 1923.22 1571.8 1923.76 C 1574.98 1930.02 1577.54 1953.71 1583.69 1955.83 C 1585.96 1956.61 1589.86 1956.12 1592.1 1955.29 L 1595.34 1954.86 C 1599.68 1954.91 1604.21 1954.12 1608.54 1953.67 C 1610.09 1935.78 1614.97 1918.83 1613.1 1900.66 C 1609.24 1862.93 1582.24 1832.84 1575.91 1796.33 C 1574.5 1788.19 1574.75 1780.26 1575.04 1772.03 C 1576.18 1764.69 1574.4 1755.17 1579.45 1749.14 L 1580.55 1750.68 C 1570.59 1803.58 1597.87 1834.08 1613.85 1881.01 C 1614.11 1875.46 1613.94 1869.33 1614.86 1863.86 C 1615.33 1869.34 1615.8 1874.79 1615.97 1880.29 C 1614.42 1880.84 1615.23 1880.86 1613.84 1880.24 C 1612.2 1879.52 1612.79 1879.76 1610.72 1879.34 C 1610.66 1884.32 1613.31 1896.68 1616.71 1900.34 C 1616.91 1900.56 1617.16 1900.72 1617.39 1900.91 C 1619.14 1895.5 1618.09 1887.14 1618.08 1881.32 L 1618.17 1882.58 C 1618.29 1879.52 1618.35 1876.46 1618.74 1873.42 L 1620.96 1872.49 C 1619.76 1899.9 1617.24 1926 1611.62 1952.91 C 1627.37 1951.27 1643.36 1948.93 1659.16 1948.07 C 1661.31 1948.72 1663.39 1949 1665.61 1949.32 C 1667.73 1948.65 1668.98 1947.48 1670.22 1945.68 C 1672.64 1942.18 1674.72 1937.33 1673.79 1933.11 C 1673.94 1889.5 1695.65 1828.82 1717.53 1791.57 C 1730.57 1771.81 1745.15 1753.47 1759.91 1734.98 C 1775.61 1715.31 1793.23 1695.42 1803.46 1672.22 C 1810.37 1656.56 1814.11 1638.76 1818.45 1622.22 C 1825.72 1569.74 1841.22 1514.55 1872.19 1471.06 C 1891.6 1443.8 1921.27 1422.31 1954.61 1416.8 z"/>
<path transform="translate(0,0)" fill="rgb(55,64,93)" d="M 1954.61 1416.8 C 1960.01 1415.86 1964.84 1415.63 1969.9 1418.01 C 1970.93 1419.26 1971.5 1419.32 1971.33 1421.05 C 1971.17 1422.7 1970.78 1423.33 1969.86 1424.65 C 1965.15 1425.47 1961.01 1427.34 1956.41 1428.51 C 1923.8 1436.86 1905.74 1448.69 1886 1476.98 C 1860.25 1513.89 1847.19 1551.41 1839.84 1595.55 C 1835.6 1621.01 1831.79 1646.82 1821.61 1670.75 C 1801.54 1717.97 1775.95 1745.54 1746.58 1785.6 C 1713.21 1831.1 1688.93 1888.92 1684.45 1945.34 C 1681.31 1946.05 1676.85 1947.76 1673.88 1946.73 C 1673.79 1944.41 1673.57 1944.81 1674.88 1942.66 C 1677.16 1938.96 1680.41 1904.75 1681.58 1897.86 C 1686.83 1866.95 1701.72 1818.72 1719.98 1793.84 L 1717.53 1791.57 C 1730.57 1771.81 1745.15 1753.47 1759.91 1734.98 C 1775.61 1715.31 1793.23 1695.42 1803.46 1672.22 C 1810.37 1656.56 1814.11 1638.76 1818.45 1622.22 C 1825.72 1569.74 1841.22 1514.55 1872.19 1471.06 C 1891.6 1443.8 1921.27 1422.31 1954.61 1416.8 z"/>
<path transform="translate(0,0)" fill="rgb(2,2,25)" d="M 1818.45 1622.22 C 1825.72 1569.74 1841.22 1514.55 1872.19 1471.06 C 1891.6 1443.8 1921.27 1422.31 1954.61 1416.8 C 1957.19 1416.95 1959.69 1416.7 1961.93 1418.08 C 1953.65 1420.3 1945.25 1421.38 1937.17 1424.37 C 1907.09 1435.48 1881.65 1460.05 1865.76 1487.38 C 1851.32 1512.21 1839.67 1540.3 1833.11 1568.34 C 1829.22 1585 1826.88 1601.99 1823.11 1618.66 C 1819.51 1639.95 1813.06 1663.31 1802.92 1682.45 C 1796.1 1695.32 1786.84 1706.59 1777.95 1718.05 C 1758.59 1743 1736.98 1767.23 1719.98 1793.84 L 1717.53 1791.57 C 1730.57 1771.81 1745.15 1753.47 1759.91 1734.98 C 1775.61 1715.31 1793.23 1695.42 1803.46 1672.22 C 1810.37 1656.56 1814.11 1638.76 1818.45 1622.22 z"/>
<path transform="translate(0,0)" fill="rgb(255,254,251)" d="M 1098.2 1716.73 C 1107.94 1738.99 1115.38 1762.15 1124.6 1784.62 C 1132.68 1804.33 1142.33 1822.81 1153.31 1841.07 C 1150.51 1849.66 1129.03 1901.17 1124.06 1904.25 C 1122.41 1903.9 1121.32 1903.74 1120.12 1902.38 C 1116.46 1898.26 1114.01 1887.8 1111.89 1882.36 C 1101.69 1856.14 1093.97 1825.65 1094.44 1797.43 C 1094.71 1781.11 1096.8 1764.86 1097.13 1748.51 C 1098.84 1738.18 1098.22 1727.19 1098.2 1716.73 z"/>
<path transform="translate(0,0)" fill="rgb(255,254,251)" d="M 1157.53 1851.79 C 1162.31 1859.54 1166.67 1867.41 1170.91 1875.47 C 1165.16 1887.38 1154.93 1897.46 1149.87 1909.33 C 1144.33 1907.95 1138.64 1906.92 1133.06 1905.73 C 1140.7 1887.59 1148.26 1869.16 1157.53 1851.79 z"/>
<path transform="translate(0,0)" fill="rgb(0,0,2)" d="M 1094.85 1717.61 L 1096.34 1716.75 C 1099 1726.13 1096.78 1738.65 1097.13 1748.51 C 1096.8 1764.86 1094.71 1781.11 1094.44 1797.43 C 1093.97 1825.65 1101.69 1856.14 1111.89 1882.36 C 1114.01 1887.8 1116.46 1898.26 1120.12 1902.38 C 1121.32 1903.74 1122.41 1903.9 1124.06 1904.25 C 1129.03 1901.17 1150.51 1849.66 1153.31 1841.07 C 1155.13 1843.71 1157.86 1847.03 1157.82 1850.42 C 1157.82 1850.89 1157.63 1851.33 1157.53 1851.79 C 1148.26 1869.16 1140.7 1887.59 1133.06 1905.73 C 1138.64 1906.92 1144.33 1907.95 1149.87 1909.33 C 1155.87 1910.66 1162 1911.79 1167.95 1913.34 C 1167.12 1913.7 1166.35 1914.35 1165.45 1914.41 C 1165.35 1914.42 1135.26 1908.13 1133.35 1907.6 L 1132.5 1905.89 C 1133.44 1893.25 1143.03 1881.27 1147.04 1869.38 C 1149.34 1862.55 1154.36 1856.76 1155.8 1849.81 C 1155.36 1848.08 1155.5 1847.33 1154.11 1846.12 C 1146.73 1852.38 1136.28 1896.01 1124.35 1905.54 C 1121.71 1906.16 1121.8 1906.28 1119.46 1904.93 C 1115.73 1899.24 1113.78 1891.81 1111.43 1885.38 C 1100.89 1856.49 1092.56 1828.08 1092.99 1796.95 C 1093.18 1783.53 1096.86 1767.18 1094.56 1754.18 C 1093.99 1756.36 1094 1755.58 1094.12 1757.61 C 1094.58 1765.43 1092.99 1771.99 1092.33 1779.68 C 1090.8 1797.37 1090.92 1813.99 1094.06 1831.53 C 1096.53 1844.79 1099.85 1857.87 1104 1870.69 C 1107.32 1880.71 1113.51 1892.61 1114.55 1902.91 C 1113.89 1903.02 1113.24 1903.23 1112.56 1903.26 C 1107.83 1903.46 1084.95 1899.53 1082.4 1896.73 C 1092.83 1897.75 1103.23 1900.15 1113.52 1902.11 C 1101.5 1874.96 1091.74 1841.24 1090.02 1811.68 C 1089.32 1799.57 1090.3 1787.75 1091.25 1775.7 C 1092.72 1757.16 1095.69 1737.63 1094.92 1719.08 L 1094.85 1717.61 z"/>
<path transform="translate(0,0)" fill="rgb(55,64,93)" d="M 1940.64 1626.17 C 1944.38 1626.06 1947.42 1626.15 1950.86 1627.73 C 1950.91 1628.23 1951.18 1628.75 1951.02 1629.23 C 1949.97 1632.23 1935.58 1638.3 1932.41 1640.27 C 1919.09 1648.63 1907.08 1658.92 1896.76 1670.8 C 1863.11 1708.94 1860.61 1746.27 1841.59 1790.17 C 1816.97 1846.99 1772.92 1851.92 1737 1893.6 C 1730.39 1901.27 1712.11 1936.2 1706.73 1938.32 C 1704.85 1938.91 1702.8 1939.72 1700.86 1940.04 C 1698.25 1940.46 1697.86 1940.35 1695.93 1938.85 C 1695.03 1933.33 1701.26 1924.01 1703.89 1918.95 C 1711.87 1903.63 1721.37 1888.76 1734.02 1876.85 C 1761.11 1851.36 1798.39 1840.15 1821.79 1809.67 C 1840.46 1785.34 1845.27 1753.15 1855.72 1724.93 C 1871.08 1683.52 1899.74 1644.79 1940.64 1626.17 z"/>
<path transform="translate(0,0)" fill="rgb(55,64,93)" d="M 1785.83 631.22 C 1832.46 626.227 1874.28 660.042 1879.16 706.681 C 1884.04 753.321 1850.13 795.061 1803.48 799.828 C 1756.98 804.579 1715.42 770.804 1710.55 724.324 C 1705.69 677.843 1739.36 636.196 1785.83 631.22 z"/>
<path transform="translate(0,0)" fill="rgb(55,64,93)" d="M 212.942 784.88 C 254.542 779.1 292.921 808.223 298.554 849.844 C 304.186 891.465 274.927 929.74 233.286 935.224 C 191.854 940.681 153.812 911.6 148.208 870.188 C 142.604 828.775 171.549 790.63 212.942 784.88 z"/>
<path transform="translate(0,0)" fill="rgb(255,254,251)" d="M 925.221 1383.55 C 942.929 1342.9 944.654 1350.99 937.058 1305.64 L 937.977 1304.89 C 938.27 1305.19 938.598 1305.45 938.857 1305.78 C 942.066 1309.8 942.949 1317.16 943.761 1322.19 C 946.878 1341.53 943.842 1353.47 936.121 1370.95 C 933.911 1375.95 931.889 1380.66 931.306 1386.17 C 929.562 1402.65 953.036 1483.43 961.067 1500 C 965.733 1509.63 972.643 1518.05 979.263 1526.37 C 978.092 1503.51 981.327 1480.94 980.814 1458.16 C 980.503 1444.37 976.011 1418.96 977.436 1407.58 C 983.689 1415.16 985.846 1461.61 985.44 1472.86 C 995.245 1451.5 994.907 1442.58 995.471 1420.26 L 996.652 1420.35 C 1001.22 1430.92 998.064 1451.42 994.821 1461.93 C 992.477 1469.53 988.12 1476.58 986.106 1484.27 C 984.316 1491.11 984.005 1498.66 983.95 1505.69 C 983.621 1548.28 1014.59 1572 1034.47 1605.73 C 1046.1 1585.51 1045.06 1560.56 1042.96 1537.98 C 1042.37 1531.56 1040.94 1525.07 1041.23 1518.62 C 1041.41 1518.83 1041.61 1519.02 1041.76 1519.25 C 1050.12 1531.33 1047.45 1578.67 1045.93 1593.28 C 1052.01 1576.91 1054.74 1561.78 1056.38 1544.49 C 1057.39 1551.9 1056 1559.43 1056.93 1566.71 C 1063.92 1576.6 1071.83 1631.13 1076.36 1647.47 C 1079.66 1659.4 1096.92 1704.56 1096.35 1712.56 C 1096.23 1714.17 1095.38 1715.52 1094.91 1717.01 C 1094.84 1717.2 1094.87 1717.41 1094.85 1717.61 L 1094.92 1719.08 C 1095.69 1737.63 1092.72 1757.16 1091.25 1775.7 C 1090.3 1787.75 1089.32 1799.57 1090.02 1811.68 C 1091.74 1841.24 1101.5 1874.96 1113.52 1902.11 C 1103.23 1900.15 1092.83 1897.75 1082.4 1896.73 C 1079.27 1895.91 1076.14 1895.13 1073 1894.37 L 1072.88 1893.06 C 1071.47 1891.54 1069.91 1890.31 1068.31 1889.01 C 1072.04 1880.4 1076.07 1872.49 1078.49 1863.32 C 1081.27 1852.85 1082.27 1840.85 1080.32 1830.13 C 1077.92 1816.91 1067.63 1801.67 1063.43 1788.3 C 1060.6 1779.31 1058.28 1769.77 1056.63 1760.5 C 1054.53 1748.68 1055.77 1729.01 1047.78 1719.9 C 1029.33 1698.85 993.329 1695.12 976.108 1665.26 C 965.097 1646.16 965.608 1624.3 971.278 1603.7 C 970.306 1615.53 969.476 1627.23 971.497 1639.01 C 978.152 1677.81 1005.87 1684.09 1034.03 1704.07 C 1021.23 1684.65 1009.32 1665.05 1002.76 1642.53 C 1007.24 1648.29 1010.27 1655.58 1013.67 1662.06 C 1023.92 1681.52 1034.52 1702.54 1051.59 1716.85 C 1054.42 1700.65 1058.27 1683.28 1056.15 1666.8 C 1051.57 1631.09 1020.65 1597.81 1000.58 1569.13 C 993.089 1558.43 986.748 1546.91 979.105 1536.32 C 971.428 1525.68 962.378 1515.84 956.25 1504.17 C 944.141 1481.11 929.935 1417.98 926.18 1390.81 C 908 1374.42 893.275 1359.52 885.019 1336.09 C 889.947 1341.67 893.749 1348.44 898.35 1354.36 C 906.544 1364.89 915.683 1374.27 925.221 1383.55 z"/>
<path transform="translate(0,0)" fill="rgb(0,0,2)" d="M 925.221 1383.55 C 942.929 1342.9 944.654 1350.99 937.058 1305.64 L 937.977 1304.89 C 938.27 1305.19 938.598 1305.45 938.857 1305.78 C 942.066 1309.8 942.949 1317.16 943.761 1322.19 C 946.878 1341.53 943.842 1353.47 936.121 1370.95 C 933.911 1375.95 931.889 1380.66 931.306 1386.17 C 929.562 1402.65 953.036 1483.43 961.067 1500 C 965.733 1509.63 972.643 1518.05 979.263 1526.37 C 978.092 1503.51 981.327 1480.94 980.814 1458.16 C 980.503 1444.37 976.011 1418.96 977.436 1407.58 C 983.689 1415.16 985.846 1461.61 985.44 1472.86 C 995.245 1451.5 994.907 1442.58 995.471 1420.26 L 996.652 1420.35 C 1001.22 1430.92 998.064 1451.42 994.821 1461.93 C 992.477 1469.53 988.12 1476.58 986.106 1484.27 C 984.316 1491.11 984.005 1498.66 983.95 1505.69 C 983.621 1548.28 1014.59 1572 1034.47 1605.73 C 1046.1 1585.51 1045.06 1560.56 1042.96 1537.98 C 1042.37 1531.56 1040.94 1525.07 1041.23 1518.62 C 1041.41 1518.83 1041.61 1519.02 1041.76 1519.25 C 1050.12 1531.33 1047.45 1578.67 1045.93 1593.28 C 1052.01 1576.91 1054.74 1561.78 1056.38 1544.49 C 1057.39 1551.9 1056 1559.43 1056.93 1566.71 C 1055.15 1584.99 1048.74 1597.33 1038.04 1611.99 C 1053.15 1636.29 1064.38 1657.47 1061.5 1686.93 C 1060.34 1698.79 1058.11 1710.73 1057.96 1722.65 C 1057.55 1754.38 1067.72 1788.52 1081.74 1816.67 C 1080.21 1806.91 1079.02 1797.68 1079.73 1787.8 C 1088.13 1818.53 1093.04 1859.34 1076.24 1888.12 C 1075.24 1889.84 1074.07 1891.46 1072.88 1893.06 C 1071.47 1891.54 1069.91 1890.31 1068.31 1889.01 C 1072.04 1880.4 1076.07 1872.49 1078.49 1863.32 C 1081.27 1852.85 1082.27 1840.85 1080.32 1830.13 C 1077.92 1816.91 1067.63 1801.67 1063.43 1788.3 C 1060.6 1779.31 1058.28 1769.77 1056.63 1760.5 C 1054.53 1748.68 1055.77 1729.01 1047.78 1719.9 C 1029.33 1698.85 993.329 1695.12 976.108 1665.26 C 965.097 1646.16 965.608 1624.3 971.278 1603.7 C 970.306 1615.53 969.476 1627.23 971.497 1639.01 C 978.152 1677.81 1005.87 1684.09 1034.03 1704.07 C 1021.23 1684.65 1009.32 1665.05 1002.76 1642.53 C 1007.24 1648.29 1010.27 1655.58 1013.67 1662.06 C 1023.92 1681.52 1034.52 1702.54 1051.59 1716.85 C 1054.42 1700.65 1058.27 1683.28 1056.15 1666.8 C 1051.57 1631.09 1020.65 1597.81 1000.58 1569.13 C 993.089 1558.43 986.748 1546.91 979.105 1536.32 C 971.428 1525.68 962.378 1515.84 956.25 1504.17 C 944.141 1481.11 929.935 1417.98 926.18 1390.81 C 908 1374.42 893.275 1359.52 885.019 1336.09 C 889.947 1341.67 893.749 1348.44 898.35 1354.36 C 906.544 1364.89 915.683 1374.27 925.221 1383.55 z"/>
<path transform="translate(0,0)" fill="rgb(171,181,197)" d="M 1836.5 227.685 C 1867 225.428 1893.61 248.207 1896.07 278.689 C 1898.53 309.172 1875.94 335.929 1845.47 338.6 C 1814.71 341.296 1787.64 318.432 1785.15 287.656 C 1782.67 256.881 1805.71 229.965 1836.5 227.685 z"/>
<path transform="translate(0,0)" fill="rgb(0,0,2)" d="M 805.145 1389.72 C 820.424 1424.06 803.629 1453.45 811.666 1487.96 C 831.333 1509.18 841.313 1517.05 856.248 1543.16 C 876.824 1492.81 867.624 1497.32 861.001 1447.6 C 872.435 1469.6 876.306 1491.65 872.144 1515.86 C 882.995 1502.41 893.337 1487.72 897.565 1470.63 C 899.129 1464.31 899.258 1457.68 901.661 1451.59 C 905.232 1458.63 900.777 1475.1 898.414 1482.34 C 891.091 1504.79 880.806 1509.33 869.13 1527.15 C 864.565 1534.11 862.076 1542.05 859.269 1549.82 C 865.014 1568.56 872.417 1586.82 878.806 1605.36 C 885.47 1624.69 890.963 1645.25 900.277 1663.49 C 905.95 1674.6 913.285 1684.63 920.644 1694.66 C 927.249 1662.79 922.608 1623.91 918.441 1591.84 C 917.612 1585.46 912.115 1565.27 913.344 1560.14 C 924.877 1578.05 924.142 1606.45 927.219 1626.94 C 935.836 1613.28 945.312 1596.88 947.821 1580.65 C 948.721 1574.83 948.019 1567.99 950.199 1562.52 C 953.477 1566.91 951.095 1579.97 950.338 1585.32 C 948.737 1596.66 943.849 1607.61 938.583 1617.67 C 946.137 1610.25 954.085 1602.93 961.071 1594.98 C 963.679 1592.02 971.652 1579.59 974.683 1578.58 C 975.15 1584.42 966.709 1593.91 963.002 1598.25 C 952.213 1610.9 938.333 1621.2 928.061 1633.94 C 928.793 1656.6 930.787 1677.51 925.723 1699.93 C 940.686 1717.82 961.99 1731.14 975.112 1750.16 C 978.163 1754.59 980.307 1759.73 982.758 1764.5 L 983.787 1763.45 C 993.254 1753.58 999.517 1738.85 1000.55 1725.18 C 1000.83 1721.48 999.915 1716.64 1001.47 1713.3 C 1003.01 1713.68 1003.08 1713.33 1003.8 1714.52 C 1007.32 1720.3 1001.8 1739.46 999.664 1745.84 C 996.332 1755.8 991.828 1763.66 983.521 1770.27 C 989.099 1791.42 993.918 1812.39 1000.75 1833.22 C 1013.2 1818.76 1021.85 1806.91 1026.32 1787.99 C 1027.56 1782.72 1028.17 1775.47 1030.65 1770.74 L 1031.85 1771.4 C 1034.4 1786.12 1025.92 1809.23 1017.52 1821.28 C 1013.07 1827.68 1007.62 1833.49 1002.33 1839.21 C 1003.02 1847.01 1003.63 1855.85 1003.15 1863.66 C 1002.85 1867.43 1002.59 1871.18 1002.49 1874.96 L 1000.7 1873.83 C 999.579 1875.36 999.419 1876.45 998.989 1878.27 C 998.483 1875.69 998.253 1873.28 996.897 1871 C 992.351 1868.96 986.369 1869.18 981.446 1868.44 C 968.559 1866.49 947.353 1862.03 937.812 1852.5 C 943.453 1852.98 948.964 1855.54 954.275 1857.41 C 967.404 1862.05 978.292 1863.5 992.199 1862.9 C 979.76 1836.95 935.386 1792.27 911.085 1775.27 C 903.372 1769.88 893.463 1767.86 885.442 1762.67 C 863.297 1748.36 833.206 1711.09 821.415 1687.48 C 827.683 1692.83 832.761 1700.21 837.878 1706.67 C 855.691 1729.15 872.855 1752.14 899.925 1763.87 C 895.869 1756.76 892.272 1749.57 888.856 1742.13 L 893.884 1734.88 C 894.51 1745.69 903.026 1761.36 911.435 1768.44 C 915.195 1771.61 919.439 1774.21 923.194 1777.41 C 946.046 1796.92 982.55 1831.04 996.5 1856.77 C 995.888 1836.63 991.156 1825.44 986.141 1806.5 C 979.243 1780.46 977.026 1758.03 956.65 1738.67 C 907.848 1692.31 898.699 1683.42 877.037 1619.22 C 865.657 1611.69 854.185 1605.1 841.43 1600.16 C 830.825 1596.06 819.775 1592.92 809.443 1588.15 C 778.547 1573.86 748.544 1544.25 739.449 1510.81 C 739.704 1511.14 739.962 1511.47 740.214 1511.8 C 745.987 1519.42 750.252 1527.98 755.651 1535.85 C 768.837 1555.06 787.548 1570.18 807.464 1581.97 C 797.409 1570.68 773.066 1544.1 772.599 1528.66 C 772.587 1528.27 772.652 1527.87 772.679 1527.47 L 773.749 1526.72 C 777.953 1533.75 780.906 1541.41 785.042 1548.46 C 793.908 1563.56 809.486 1578.49 823.43 1588.92 C 815.231 1574.05 810.196 1562.09 807.896 1545.19 C 815.126 1564.02 819.829 1584.05 839.927 1593.16 C 851.72 1598.5 863.507 1603.05 874.978 1609.18 C 864.165 1582.93 857.621 1553.82 841.814 1530.03 C 830.506 1513.01 813.957 1496.33 798.973 1482.5 C 790.578 1474.75 781.741 1467.75 774.578 1458.76 C 767.594 1450 762.267 1439.83 757.718 1429.63 C 753.827 1420.9 750.439 1411.54 749.486 1401.99 C 761.044 1430.06 771.544 1452.65 795.268 1472.55 C 787.979 1456.99 769.286 1412.98 775.098 1396.72 L 776.481 1397.51 C 777.881 1405.88 778.447 1414.59 780.375 1422.83 C 784.991 1442.56 794.702 1465.02 805.428 1482.29 C 804.309 1461.44 807.178 1441.52 807.525 1420.81 C 807.703 1410.23 805.521 1400.15 805.145 1389.72 z"/>
<path transform="translate(0,0)" fill="rgb(171,181,197)" d="M 156.931 558.131 C 186.142 555.511 211.95 577.057 214.588 606.267 C 217.225 635.476 195.695 661.297 166.487 663.952 C 137.254 666.61 111.406 645.057 108.766 615.823 C 106.126 586.588 127.695 560.753 156.931 558.131 z"/>
<path transform="translate(0,0)" fill="rgb(0,0,2)" d="M 299.29 1797.62 C 249.659 1787.51 205.535 1797.31 173.851 1749.55 C 166.696 1738.77 151.165 1712.68 153.172 1699.37 C 153.223 1699.04 153.336 1698.71 153.418 1698.38 C 156.961 1702.96 160.502 1717.15 163.615 1723.63 C 184.388 1766.86 205.263 1779.47 251.503 1785.35 C 230.279 1769.32 202.88 1747.36 195.925 1720.52 C 213.474 1743.87 234.477 1774.03 263.138 1784.35 C 272.537 1787.73 282.707 1788.9 292.549 1790.29 L 294.731 1790.6 C 288.405 1781.97 281.879 1773.42 276.064 1764.43 C 278.704 1763.07 279.075 1762.74 280.66 1760.24 C 292.13 1782.58 318.128 1810.4 333.934 1831.26 C 344.132 1844.73 352.774 1859.74 363.32 1872.79 C 359.072 1844.01 364.135 1815.45 361.097 1786.67 C 359.645 1772.92 348.719 1759.98 347.43 1747.99 C 347.679 1748.12 347.943 1748.23 348.176 1748.38 C 357.69 1754.77 362.905 1776 365.612 1786.49 C 373.155 1774.43 379.727 1757.89 377.149 1743.46 C 376.473 1739.68 374.098 1735.6 375.057 1731.81 L 376.628 1731.28 C 379.73 1733.9 380.736 1737.65 381.313 1741.59 C 383.948 1759.57 376.914 1779.44 366.31 1793.67 C 367.567 1808.44 367.109 1823.46 367.073 1838.29 C 376.044 1828.9 385.254 1810.54 393.054 1804.35 C 393.062 1804.66 393.102 1804.96 393.077 1805.26 C 392.191 1816.21 375.424 1837.04 366.811 1843.48 C 366.985 1847.51 367.22 1851.54 367.515 1855.57 C 369.603 1881.93 376.875 1904.03 403.754 1914.33 C 407.909 1915.92 415.634 1917.55 418.652 1920.63 C 419.708 1921.7 419.333 1921.65 419.278 1923.33 C 416.639 1923.92 414.618 1923.26 412.097 1922.49 C 398.889 1918.44 385.692 1912.1 372.635 1907.33 C 357.278 1901.72 341.344 1897.41 325.664 1892.78 C 288.268 1908.88 262.019 1920.19 219.85 1920.08 C 216.741 1920.07 215.825 1919.59 213.719 1917.53 C 214.969 1915.77 215.605 1915.94 217.656 1915.61 C 223.806 1914.6 230.292 1914.77 236.515 1914.18 C 247.789 1913.1 258.374 1910.6 269.244 1907.48 C 257.862 1904.71 234.479 1899.9 225.295 1893.66 L 225.3 1892.29 C 231.064 1892.33 237.772 1895.17 243.419 1896.71 C 274.017 1905.1 286.986 1905.1 315.505 1890.59 C 303.012 1884.66 278.433 1867.66 267.282 1865.25 C 255.947 1862.79 243.837 1863.81 232.343 1864.48 C 188.835 1867.01 143.845 1874.61 107.739 1843.81 C 136.815 1854.44 137.001 1859.82 170.059 1861.85 C 150.976 1848.3 131.141 1829.71 116.751 1811.29 C 126.878 1816.99 136.661 1827.7 145.417 1835.43 C 155.85 1844.65 166.418 1853.11 177.885 1861.04 C 206.815 1862.04 235.576 1857.72 264.648 1858.97 C 250.625 1847.92 207.194 1808.05 195.25 1802.69 C 185.529 1798.32 172.596 1799.1 162.097 1797.56 C 144.394 1794.96 100.764 1783.46 88.5368 1770.64 C 93.839 1770.06 126.758 1783.45 135.035 1785.76 C 119.759 1774.56 92.2028 1751.62 84.0228 1734.93 C 97.4992 1747.66 136.277 1784.57 151.217 1789.41 C 162.972 1793.23 177.079 1793.15 189.361 1795 C 165.509 1771.79 144.506 1748.15 126.2 1720.28 C 128.516 1719.46 129.809 1718.14 131.64 1716.56 C 161.154 1763.38 199.814 1797.35 241.919 1832.29 C 262.284 1849.19 282.383 1866.37 306.317 1878.1 C 329.456 1889.45 354.719 1893.46 378.121 1903.46 C 352.551 1867.66 326.269 1832.37 299.29 1797.62 z"/>
<path transform="translate(0,0)" fill="rgb(0,0,2)" d="M 172.199 1542.02 C 170.596 1519.3 169.911 1496.32 173.073 1473.7 C 176.309 1450.54 182.241 1427.84 183.611 1404.44 C 184.153 1395.18 182.652 1352.51 184.999 1348.39 C 191.204 1369.39 188.487 1401.17 186.678 1423.19 C 193.124 1409.24 201.3 1386.62 209.741 1375.08 C 205.067 1397.7 192.426 1414.75 186.359 1436.12 C 170.196 1493.05 174.916 1551.65 194.355 1606.98 C 199.781 1622.43 207.509 1637.07 212.786 1652.51 C 212.944 1634.98 217.585 1534.84 225.533 1522.83 C 228.509 1530.87 225.531 1544.49 224.576 1553.03 C 237.676 1539.37 249.61 1525.4 258.461 1508.6 C 259.247 1507.11 258.992 1507.6 260.41 1506.17 C 261.403 1508.56 259.81 1512.03 258.851 1514.44 C 250.855 1534.52 227.355 1549.49 222.263 1569.39 C 220.459 1576.44 220.822 1584.6 220.807 1591.84 C 226.388 1587.45 246.104 1569.09 251.084 1568.94 C 248.486 1576.52 227.199 1592.39 220.574 1598.75 C 218.774 1607.53 218.536 1616.66 218.241 1625.6 C 217.921 1635.27 217.497 1645.23 219.277 1654.79 C 223.968 1679.97 242.028 1706.2 256.073 1727.43 C 261.436 1735.54 266.846 1743.7 272.802 1751.39 L 268.089 1754.8 C 250.848 1733.39 237.025 1710.04 224.1 1685.85 C 216.672 1681.32 208.404 1677.89 200.758 1673.67 C 184.315 1664.61 167.241 1651.44 155.191 1636.91 L 155.518 1635.9 C 162.172 1639.03 169.185 1646.94 175.064 1651.65 C 184.377 1659.11 193.945 1665.64 204.408 1671.37 C 196.229 1661.52 164.935 1623.41 165.217 1613.34 C 168.93 1615.35 179.359 1632.7 182.517 1637.1 C 193.836 1652.88 206.884 1667.83 222.08 1679.98 C 198.064 1639.79 181.303 1595.69 172.564 1549.7 C 159.452 1538.7 154.563 1525.67 145.415 1511.95 C 141.72 1506.4 136.843 1501.6 132.409 1496.66 C 126.854 1490.46 102.977 1463.94 103.423 1455.44 C 107.283 1457.29 117.766 1474.12 121.396 1478.61 C 127.575 1486.22 134.111 1493.53 140.981 1500.52 C 137.339 1487.91 133.6 1475.49 131.584 1462.49 C 133.197 1460.05 134.449 1457.46 137.263 1456.28 C 135.727 1479.91 152.305 1519.77 167.818 1537.56 C 169.19 1539.13 170.685 1540.59 172.199 1542.02 z"/>
<path transform="translate(0,0)" fill="rgb(13,24,55)" d="M 1659.16 1948.07 C 1658.78 1937.04 1657.46 1926.04 1657.16 1914.98 C 1655.99 1871.75 1664.24 1834.35 1685.63 1796.61 C 1696 1778.31 1708.48 1761.03 1715.7 1741.1 C 1720.36 1728.24 1721.96 1714.66 1722.92 1701.11 C 1723.36 1694.96 1722.96 1686.22 1725.01 1680.5 C 1725.78 1678.37 1727.19 1677.06 1729.46 1676.6 C 1731.91 1676.1 1733.87 1676.67 1735.83 1678.07 C 1739.67 1684.39 1739.85 1695.15 1739.94 1702.45 C 1740.61 1761.86 1707.8 1786.58 1688.66 1834.92 C 1676.74 1865.02 1669.8 1901 1672.5 1933.42 L 1673.79 1933.11 C 1674.72 1937.33 1672.64 1942.18 1670.22 1945.68 C 1668.98 1947.48 1667.73 1948.65 1665.61 1949.32 C 1663.39 1949 1661.31 1948.72 1659.16 1948.07 z"/>
<path transform="translate(0,0)" fill="rgb(55,64,93)" d="M 1728.83 1679.2 C 1730.7 1679.67 1731.75 1680.22 1733.29 1681.37 C 1736.81 1686.92 1736.5 1696.57 1736.58 1703.06 C 1737.32 1763.74 1699.48 1789.72 1682.32 1839.68 C 1669.56 1876.83 1668.04 1907.02 1668.63 1945.43 C 1666.26 1945.55 1666.31 1945.42 1664.43 1943.93 C 1660.33 1936.03 1661.7 1920.29 1661.5 1911.31 C 1660.57 1868.62 1668.42 1831.14 1690.52 1794.2 C 1701.4 1776.01 1712.72 1758.86 1719.89 1738.73 C 1726.82 1719.25 1724.88 1700.04 1728.59 1680.35 C 1728.67 1679.97 1728.75 1679.58 1728.83 1679.2 z"/>
<path transform="translate(0,0)" fill="rgb(55,64,93)" d="M 285.224 1035.61 C 304.255 1033.52 321.415 1047.16 323.681 1066.17 C 325.948 1085.18 312.473 1102.47 293.484 1104.91 C 274.245 1107.38 256.679 1093.69 254.383 1074.43 C 252.087 1055.17 265.941 1037.73 285.224 1035.61 z"/>
<path transform="translate(0,0)" fill="rgb(55,64,93)" d="M 1735.4 987.285 C 1741.19 987.067 1747.37 989.004 1752.31 991.958 C 1760.09 996.614 1765.22 1004.62 1767.39 1013.32 C 1769.94 1023.51 1768.46 1034.65 1762.78 1043.55 C 1756.77 1052.96 1749.15 1056.08 1738.75 1058.16 C 1731.18 1057.96 1724.24 1056.7 1717.86 1052.39 C 1710.05 1047.12 1705.22 1038.49 1703.69 1029.29 C 1701.98 1018.99 1704.36 1008.48 1710.74 1000.17 C 1717.24 991.72 1725.24 988.658 1735.4 987.285 z"/>
<path transform="translate(0,0)" fill="rgb(55,64,93)" d="M 1875.51 471.968 C 1892.88 471.25 1907.57 484.699 1908.39 502.067 C 1909.2 519.435 1895.83 534.2 1878.47 535.111 C 1860.97 536.029 1846.06 522.533 1845.24 505.028 C 1844.42 487.522 1858 472.691 1875.51 471.968 z"/>
<path transform="translate(0,0)" fill="rgb(55,64,93)" d="M 1678.98 439.462 C 1695.93 435.442 1712.93 445.937 1716.93 462.894 C 1720.92 479.85 1710.41 496.834 1693.44 500.809 C 1676.51 504.778 1659.57 494.283 1655.58 477.358 C 1651.59 460.433 1662.06 443.474 1678.98 439.462 z"/>
<path transform="translate(0,0)" fill="rgb(171,181,197)" d="M 385.497 650.919 C 402.434 650.637 416.464 663.998 417.006 680.929 C 417.549 697.86 404.405 712.093 387.484 712.896 C 376.305 713.427 365.708 707.892 359.756 698.414 C 353.803 688.937 353.42 676.987 358.753 667.148 C 364.086 657.308 374.307 651.106 385.497 650.919 z"/>
<path transform="translate(0,0)" fill="rgb(171,181,197)" d="M 712.638 294.647 C 727.564 293.013 741.042 303.653 742.917 318.551 C 744.792 333.449 734.371 347.097 719.505 349.212 C 709.673 350.611 699.85 346.601 693.807 338.72 C 687.764 330.839 686.439 320.312 690.341 311.18 C 694.243 302.047 702.766 295.728 712.638 294.647 z"/>
<path transform="translate(0,0)" fill="url(#Gradient2)" d="M 1723.58 1935.17 C 1770.92 1921.04 1818.37 1907.01 1864.42 1889.01 C 1885.11 1880.91 1905.54 1872.16 1925.67 1862.77 C 1936.32 1857.84 1953.68 1845.85 1964.63 1844.2 C 1967.18 1843.82 1967.39 1844.37 1969.29 1845.9 C 1969.56 1847.27 1969.98 1847.8 1969.21 1849.11 C 1965.93 1854.69 1955.35 1858.39 1949.73 1861.41 C 1901.9 1887.07 1844.67 1911.96 1791.77 1924.58 L 1791.17 1923.26 C 1793.4 1922.44 1794.2 1922.67 1795.44 1920.55 C 1794.23 1918.08 1793.17 1918.25 1790.73 1917.29 C 1772.81 1920.06 1739.18 1937.08 1723.58 1935.17 z"/>
<path transform="translate(0,0)" fill="rgb(171,181,197)" d="M 1929.9 931.179 C 1934.95 931.433 1939.53 932.706 1943.66 935.725 C 1949.8 940.223 1953.49 947.601 1954.25 955.096 C 1954.97 962.235 1953.41 969.44 1948.79 975.055 C 1943.75 981.196 1937.82 982.554 1930.24 983.35 C 1926.18 982.672 1922.1 981.946 1918.42 980.011 C 1912.4 976.845 1907.9 970.89 1906.19 964.344 C 1904.39 957.51 1905.49 950.238 1909.22 944.239 C 1914.13 936.351 1921.16 933.158 1929.9 931.179 z"/>
<path transform="translate(0,0)" fill="url(#Gradient1)" d="M 262.938 1620.88 C 270.421 1639.23 274.233 1659.16 280.955 1677.92 C 289.192 1660.54 289.733 1643.5 292.006 1624.77 C 296.069 1648.99 287.238 1666.52 283.277 1689.69 C 281.672 1699.08 282.033 1708.83 282.17 1718.32 L 282.356 1724.04 C 278.512 1728.4 279.869 1749.79 280.281 1755.94 C 280.371 1757.38 280.498 1758.81 280.66 1760.24 C 279.075 1762.74 278.704 1763.07 276.064 1764.43 L 268.089 1754.8 L 272.802 1751.39 L 273.656 1751.34 C 277.023 1735.12 278.243 1691.71 274.87 1676.03 C 270.915 1657.64 263.946 1639.81 262.938 1620.88 z"/>
<path transform="translate(0,0)" fill="rgb(13,24,55)" d="M 64.6083 1657.37 C 81.1974 1673.17 97.1168 1688.91 115.463 1702.73 C 114.075 1699.41 112.916 1695.97 111.681 1692.59 L 117.915 1692.51 C 122.38 1700.55 126.646 1708.83 131.64 1716.56 C 129.809 1718.14 128.516 1719.46 126.2 1720.28 C 120.135 1712.24 112.577 1706.36 104.962 1699.89 C 90.1266 1687.27 74.9335 1674.06 64.6083 1657.37 z"/>
<path transform="translate(0,0)" fill="rgb(0,0,2)" d="M 111.681 1692.59 L 111.342 1691.66 C 105.03 1674.82 82.7356 1632.61 86.3606 1617.01 C 88.5605 1618.27 90.6681 1627.12 91.5232 1629.79 C 98.5617 1651.74 107.32 1672.04 117.915 1692.51 L 111.681 1692.59 z"/>
<path transform="translate(0,0)" fill="rgb(0,0,2)" d="M 282.17 1718.32 C 298.239 1706.38 305.202 1699.75 312.306 1680.67 C 312.821 1679.28 312.748 1679.68 314.048 1678.37 C 315.455 1679.85 315.385 1680.17 315.303 1682.16 C 314.808 1694.26 302.389 1708.32 293.524 1715.85 C 290.038 1718.81 286.188 1721.53 282.356 1724.04 L 282.17 1718.32 z"/>
<path transform="translate(0,0)" fill="rgb(0,0,2)" d="M 889.711 1725.9 C 889.548 1715.98 886.118 1682.4 889.453 1675.67 C 893.226 1687.54 895.156 1717.96 894.705 1730.79 L 893.166 1730.48 C 892.36 1729.17 891.592 1728.02 890.578 1726.86 C 890.295 1726.53 890 1726.22 889.711 1725.9 z"/>
<path transform="translate(0,0)" fill="rgb(2,2,25)" d="M 134.39 1448.61 L 135.998 1447.69 C 143.062 1435.37 142.319 1416.19 147.65 1407.12 L 148.574 1407.93 C 148.211 1418.6 142.003 1446.76 137.263 1456.28 C 134.449 1457.46 133.197 1460.05 131.584 1462.49 L 129.836 1449.83 L 134.39 1448.61 z"/>
<path transform="translate(0,0)" fill="rgb(0,0,2)" d="M 129.836 1449.83 C 128.463 1436.91 124.129 1414.22 126.691 1402.07 L 127.652 1403.38 L 126.871 1402.18 L 126.658 1404.56 L 127.961 1404.25 C 131.657 1418.47 132.565 1434.03 134.39 1448.61 L 129.836 1449.83 z"/>
<path transform="translate(0,0)" fill="rgb(0,0,2)" d="M 882.571 1725.57 C 878.105 1714.02 866.362 1693.74 865.647 1682.45 L 866.679 1682.6 C 874.2 1695.74 881.364 1710.16 887.716 1723.92 L 882.571 1725.57 z"/>
<path transform="translate(0,0)" fill="rgb(2,2,25)" d="M 887.716 1723.92 L 889.711 1725.9 C 890 1726.22 890.295 1726.53 890.578 1726.86 C 891.592 1728.02 892.36 1729.17 893.166 1730.48 L 894.705 1730.79 C 894.557 1732.26 894.619 1733.57 893.884 1734.88 L 888.856 1742.13 L 882.571 1725.57 L 887.716 1723.92 z"/>
<path transform="translate(0,0)" fill="rgb(2,2,25)" d="M 772.161 1796.82 L 774.513 1794.49 C 776.833 1797.73 778.544 1800.05 779.227 1804.02 L 778.507 1806.13 C 776.014 1806.77 775.831 1806.52 773.473 1805.2 C 772.13 1804.45 770.842 1803.52 769.561 1802.67 C 769.41 1799.63 769.118 1799.27 767.345 1796.76 C 768.931 1797.44 770.387 1797.88 772.072 1798.26 L 772.161 1796.82 z"/>
</svg>