<svg version="1.1" xmlns="http://www.w3.org/2000/svg" style="display: block;" viewBox="0 0 2048 2048" width="1024" height="1024">
<defs>
	<linearGradient id="Gradient1" gradientUnits="userSpaceOnUse" x1="1746.88" y1="991.752" x2="1434.88" y2="2009.68">
		<stop class="stop0" offset="0" stop-opacity="1" stop-color="rgb(11,14,50)"/>
		<stop class="stop1" offset="1" stop-opacity="1" stop-color="rgb(4,33,89)"/>
	</linearGradient>
</defs>
<path transform="translate(0,0)" fill="rgb(255,255,255)" d="M 0 0 L 2048 0 L 2048 2048 L 0 2048 L 0 0 z"/>
<path transform="translate(0,0)" fill="rgb(6,24,71)" d="M 564.893 79.4008 C 566.239 79.3097 567.587 79.2327 568.935 79.1698 C 633.98 76.1522 737.473 133.328 785.325 176.846 C 826.409 164.228 868.888 159.217 911.764 158.011 C 928.974 157.527 1002.45 158.058 1013.57 168.578 C 1014.49 171.238 1014.9 172.054 1013.77 174.826 C 1011.47 180.445 999.799 185.966 994.591 189.035 C 947.475 216.801 897.475 235.657 845.963 253.401 C 852.051 268.71 861.908 283.021 869.246 297.825 C 879.983 319.491 872.12 335.043 864.977 355.937 C 872.967 375.185 890.795 395.443 906.863 408.401 C 915.184 415.112 924.732 421.035 931.935 428.979 C 936.451 433.961 939.84 439.743 939.179 446.688 C 937.554 463.765 919.376 471.323 907.793 480.765 C 889.437 495.729 912.164 505.31 909.021 518.875 C 907.196 526.754 899.04 530.182 892.585 533.477 C 895.465 538.749 899.722 543.25 900.331 549.482 C 901.21 558.491 894.049 565.578 888.94 572.187 C 888.525 593.387 898.539 627.099 885.966 645.23 C 882.469 650.198 877.621 654.061 871.996 656.359 C 855.802 663.163 814.344 666.649 794.103 670.975 C 780.977 673.781 765.688 677.733 755.789 687.346 C 742.47 700.282 732.195 739.204 723.814 757.588 C 714.553 777.903 703.622 798.984 691.452 817.652 C 701.223 831.098 714.334 842.567 725.339 855.087 C 726.203 850.175 727.264 845.3 728.518 840.473 C 740.198 795.549 770.342 765.067 803.375 734.652 C 813.458 725.368 824.213 714.425 836.034 707.443 C 832.373 703.85 828.891 700.014 828.192 694.723 C 827.641 690.556 829.104 686.419 831.596 683.114 C 838.908 673.416 860.36 664.323 872.3 663.22 C 877.62 662.728 879.852 665.46 883.637 668.754 C 896.835 663.591 909.647 657.461 922.86 652.306 C 963.535 636.436 1018.26 618.92 1062.03 619.255 C 1132.46 619.793 1179.73 678.403 1222.22 726.747 C 1234.14 740.306 1246.6 753.241 1259.21 766.15 C 1312.66 747.637 1368.66 737.509 1425.21 736.126 C 1437.92 735.92 1451.7 735.514 1464.04 738.877 C 1473.51 741.456 1483.27 747.778 1487.84 756.734 C 1490.12 761.221 1490.63 766.32 1488.76 771.041 C 1485.59 779.031 1477.39 783.055 1469.59 785.247 C 1451.37 790.375 1431.01 788.762 1412.2 790.42 C 1372.9 793.882 1318.17 803.355 1281.59 817.909 C 1311.1 852.571 1320.13 872.235 1312.01 916.793 C 1309.66 929.688 1306.64 942.754 1306.95 955.929 L 1307 957.518 C 1320.35 981.068 1344.02 1001.2 1365.21 1017.67 C 1371.62 1022.65 1380.05 1025.95 1384.72 1032.77 C 1387.37 1036.64 1388.55 1041.06 1387.49 1045.71 C 1383.18 1064.55 1358.1 1070.29 1344.28 1079.65 C 1335.76 1095.38 1354.25 1106.53 1353.1 1120.67 C 1352.39 1129.31 1345.51 1134.41 1339.58 1139.79 C 1341.32 1143.26 1343.15 1146.87 1344.1 1150.64 C 1346.81 1161.37 1337.52 1173.18 1336.1 1183.84 C 1335.35 1189.4 1336.06 1195.34 1336.2 1200.94 C 1336.61 1217.86 1335.32 1235.15 1325.96 1249.81 C 1299.89 1290.64 1222.04 1268.14 1181.3 1277.69 C 1170.95 1280.12 1161.52 1284.96 1153.96 1292.51 C 1132.27 1314.16 1114.89 1358.66 1101.56 1386.52 C 1093.73 1402.86 1085.31 1418.92 1077.76 1435.41 C 1071.72 1448.62 1066.66 1463.4 1058.95 1475.69 L 1058.22 1476.83 C 1075.9 1504.2 1092.59 1531.39 1107.45 1560.44 C 1117.94 1580.94 1126.86 1603.13 1138.59 1622.87 C 1142.89 1630.11 1161.96 1648.71 1163 1653.71 C 1162.38 1656.24 1162.23 1657.34 1160.35 1659.24 C 1156.24 1663.38 1147.92 1664.1 1142.45 1663.86 C 1118.75 1662.8 1097.9 1637.33 1083.47 1620.9 C 1096.36 1651.23 1109.9 1681.29 1121.82 1712.03 C 1145.12 1772.52 1163.93 1834.65 1178.1 1897.9 C 1181.35 1912.77 1185.41 1927.9 1187.76 1942.9 C 1188.45 1947.27 1189.28 1952.63 1186.54 1956.42 C 1175.34 1962.86 1129.2 1962.5 1113.92 1963.25 C 999.102 1968.99 884.062 1968.86 769.253 1962.86 C 696.492 1959.16 622.692 1953.83 550.783 1941.84 L 522.249 1937.53 C 507.214 1935.22 439.388 1926.64 433.113 1918.09 C 430.588 1903.07 436.62 1881.81 439.339 1866.91 C 449.542 1810.06 462.628 1753.75 478.546 1698.22 C 485.19 1674.87 491.511 1651.02 500.709 1628.52 C 510.852 1603.72 523.05 1578.67 537.471 1556.06 C 546.86 1541.34 558.015 1527.59 568.78 1513.88 C 591.3 1485.18 614.565 1458.02 639.528 1431.43 C 663.062 1406.37 695.78 1372.95 713.752 1344.22 C 720.069 1334.09 725.901 1323.65 731.228 1312.96 C 738.304 1298.58 753.671 1255.87 769.025 1250.12 C 788.326 1242.89 822.197 1263.06 839.38 1271.26 C 842.436 1257.2 844.786 1243 846.422 1228.7 C 816.275 1231.59 803.759 1229.36 774.777 1223.75 C 767.156 1222.28 759.306 1221.56 751.766 1219.77 C 732.591 1215.16 716.129 1202.92 706.189 1185.89 C 695.289 1167.46 691.281 1144.38 696.894 1123.63 C 706.217 1089.17 731.683 1068.09 761.462 1051.25 L 760.918 1049.85 C 758.094 1042.42 753.593 1037.92 747.628 1032.92 C 718.198 1008.21 679.973 987.638 640.493 991.467 C 592.552 996.116 551.072 1033.85 525.601 1072.29 C 442.031 1198.4 406.65 1458.5 397.948 1611.5 C 394.858 1664.87 393.236 1718.32 393.082 1771.78 C 393.296 1800.34 394.076 1828.9 395.421 1857.43 C 396.021 1871.24 398.212 1886.73 397.186 1900.37 C 397.011 1902.7 396.472 1904.26 394.969 1906.1 C 393.066 1906.99 391.46 1907.37 389.376 1907.42 C 374.917 1907.74 357.259 1901.62 343.274 1898.11 C 275.988 1881.22 208.8 1860.95 145.243 1832.91 C 132.88 1827.46 117.535 1821.9 107.905 1812.31 C 107.243 1792.45 108.952 1772.24 109.902 1752.4 C 111.682 1715.23 113.97 1678.35 116.848 1641.25 C 132.223 1443.03 161.878 1245.58 224.505 1056.33 C 240.626 1007.62 257.804 960.544 278.88 913.707 C 293.455 881.317 307.851 848.751 325.909 818.115 C 306.921 797.477 338.434 780.54 343.979 762.186 C 348.14 748.413 344.675 733.3 344.91 719.192 C 345.08 708.975 347.982 699.946 355.618 692.841 C 374.344 675.418 406.592 676.394 430.224 677.695 C 432.905 669.801 436.095 662.043 439.092 654.262 C 431.184 653.28 424.228 651.821 417.537 647.234 C 404.127 638.041 399.535 622.988 397.021 607.825 C 393.118 613.941 390.968 624.436 384.455 627.991 C 382.827 627.859 382.172 628.083 380.826 626.982 C 376.986 623.838 375.88 618.09 375.529 613.379 C 374.491 599.439 383.665 589.108 391.961 579.113 C 382.766 572.642 378.209 566.984 373.71 556.825 C 370.185 559.434 365.897 562.242 361.51 562.987 C 358.417 563.512 355.578 562.859 353.038 560.994 C 336.642 548.959 296.005 441.776 289.03 418.961 C 283.857 402.038 279.115 383.12 277.402 365.499 C 273.117 321.427 317.397 255.076 344.689 221.801 C 396.681 158.411 480.322 87.6644 564.893 79.4008 z"/>
<path transform="translate(0,0)" fill="rgb(255,255,255)" d="M 392.542 805.428 C 404.238 804.248 416.804 805.397 428.53 806.454 C 490.753 812.062 551.033 833.122 606.061 862.153 C 625.554 898.669 639.409 939.214 654.131 977.83 C 649.84 977.893 645.554 978.147 641.286 978.589 C 596.026 982.869 558.064 1009.63 529.861 1044.01 C 502.366 1077.53 484.249 1119.25 469.128 1159.51 C 409.292 1318.86 389.631 1501.68 382.077 1671.09 C 378.825 1744.01 377.26 1817.46 384.311 1890.23 C 384.161 1892.21 384.44 1892.17 383.059 1893.79 C 361.475 1890.85 339.389 1883.88 318.34 1878.13 C 251.256 1859.82 183.551 1839.22 122.081 1806.08 C 121.904 1761.58 124.866 1716.32 127.981 1671.91 C 131.088 1621.93 135.529 1572.04 141.3 1522.3 C 164.574 1323 204.235 1126.04 281.734 940.175 C 299.614 897.294 320.637 855.391 341.38 813.834 C 358.112 808.664 375.166 806.831 392.542 805.428 z"/>
<path transform="translate(0,0)" fill="rgb(255,255,255)" d="M 948.659 1511.41 C 970.988 1508.14 1003.73 1512.38 1022.55 1525.45 C 1027.1 1528.61 1029.85 1532.6 1032.6 1537.34 C 1038.69 1547.86 1043.36 1559.53 1048.33 1570.62 C 1059.27 1595.02 1069.37 1619.65 1079.46 1644.41 C 1099.24 1692.99 1120.53 1741.22 1136.11 1791.39 C 1145.18 1820.62 1152.4 1850.44 1159.67 1880.16 C 1165.01 1901.98 1170.93 1923.87 1174.55 1946.06 C 1149.91 1949.45 1124.11 1949.66 1099.24 1950.89 C 1042.83 1954.11 986.326 1955.43 929.828 1954.83 C 853.325 1955.15 777.261 1951.01 700.973 1945.71 C 703.287 1919.14 704.605 1892.61 708.45 1866.18 C 721.685 1775.21 754.597 1658.17 813.752 1586.22 C 848.662 1543.75 893.504 1516.74 948.659 1511.41 z"/>
<path transform="translate(0,0)" fill="rgb(255,255,255)" d="M 719.629 293.735 C 731.455 287.499 746.17 284.07 758.927 280.042 C 782.772 272.736 806.531 265.155 830.201 257.3 C 841.605 271.46 862.466 305.165 862.029 322.843 C 861.588 340.732 846.378 351.59 856.745 370.362 C 863.923 383.358 876.881 397.028 887.285 407.696 C 893.55 414.122 924.719 438.192 925.866 444.644 C 927.844 455.769 900.625 469.473 893.588 476.693 C 880.457 490.166 894.871 502.694 894.638 516.803 C 894.6 519.043 894.013 520.268 892.255 521.737 C 879.926 532.039 857.869 532.284 842.685 531.494 L 838.432 526.564 C 835.662 525.374 834.459 525.149 831.351 525.558 C 828.916 526.868 827.588 528.315 826.635 530.917 C 825.397 534.295 825.656 538.674 827.36 541.851 C 828.675 544.303 830.453 545.568 833.126 546.173 C 835.523 546.716 837.273 545.604 839.203 544.284 C 842.923 541.742 860.575 543.348 865.989 542.883 C 871.46 542.414 876.916 541.398 882.32 540.438 C 884.652 543.828 886.326 547.528 888.116 551.22 C 884.425 556.837 879.316 562.68 877.467 569.21 C 871.899 588.88 887.588 622.266 874.978 638.882 C 868.144 647.887 845.252 650.181 834.486 651.733 C 782.576 659.217 705.667 631.201 670.82 592.567 C 667.724 589.135 664.568 585.459 662.185 581.492 C 657.714 574.047 653.872 561.193 647.081 556.042 C 644.665 556.432 644.816 556.873 643.244 558.599 C 640.213 569.73 649.741 581.816 652.8 592.149 C 651.753 594.562 650.394 596.577 648.917 598.733 C 651.79 597.318 654.141 595.866 657.333 596.617 L 657.864 598.53 C 655.431 600.336 653.009 601.919 651.266 604.45 C 654.765 603.569 658.643 602.163 662.264 602.524 C 665.968 605.784 670.466 614.57 673.39 616.461 C 674.173 616.967 677.126 616.619 678.076 616.562 L 680.143 618.369 L 679.119 621.772 L 680.415 623.606 C 682.807 623.507 682.121 622.374 683.886 621.655 C 685.098 621.161 709.061 637.488 713.34 639.355 C 719.487 642.038 725.163 643.592 728.612 649.715 L 730.476 649.96 L 732.582 647.782 C 735.815 648.118 737.185 651.205 740.402 652.186 C 752.945 656.01 766.515 658.942 779.515 660.579 C 772.388 663.123 761.676 669.686 754.476 667.192 C 753.94 667.006 753.388 666.87 752.843 666.709 C 751.497 668.782 751.736 670.234 751.794 672.613 C 750.151 674.36 749.049 676.305 746.353 676.209 C 745.547 676.181 744.05 675.698 743.246 675.464 C 741.584 676.88 741.461 676.526 741.033 678.845 L 743.688 680.539 C 738.621 689.542 733.678 698.511 729.223 707.838 L 728.182 708.096 L 726.415 705.772 L 725.195 706.842 L 725.738 708.718 C 727.401 714.676 723.4 722.269 721.365 728.048 L 720.582 727.858 L 719.15 723.843 C 717.875 724.657 717.789 724.303 717.582 725.627 C 717.318 727.324 717.688 728.337 718.068 729.959 C 718.93 733.643 718.765 736.369 716.654 739.583 C 715.008 742.091 712.598 744.334 710.497 746.481 C 711.262 747.523 712.044 748.552 712.843 749.568 C 710.981 753.416 708.675 760.451 705.394 763.066 L 702.774 762.529 C 701.768 768.737 700.871 774.378 696.74 779.398 L 693.627 780.175 C 692.827 783.309 694.469 785.069 692.469 787.638 C 692.091 787.295 691.724 786.94 691.336 786.608 C 689.612 785.129 690.337 785.625 688.074 784.825 L 686.465 786.489 C 687.617 789.821 689.749 791.99 689.369 795.686 C 686.998 798.719 684.819 798.918 681.573 800.785 C 682.242 802.718 682.965 804.593 683.763 806.475 L 682.911 807.904 L 680.334 808.44 C 678.6 805.679 680.381 804.577 679.515 802.216 C 678.585 799.678 676.21 800.075 676.272 796.711 C 679.458 795.347 680.899 795.329 682.571 792.207 L 682.116 790.3 L 678.27 792.35 C 676.646 790.664 677.053 789.976 676.858 787.721 C 678.222 785.857 678.319 785.965 680.589 785.423 C 679.346 782.084 674.86 782.016 676.92 777.591 C 677.679 775.962 678.562 774.841 679.704 773.479 C 677.797 765.977 675.219 758.352 675.414 750.563 L 676.554 749.916 L 678.855 750.583 L 679.498 749.343 C 678.231 747.703 677.004 746.941 675.226 745.902 C 674.872 742.903 674.725 742.239 675.916 739.508 L 678.294 737.883 C 677.473 735.315 676.115 733.543 674.527 731.421 C 671.338 704.396 669.288 642.873 654.133 621.907 C 655.056 620.091 655.741 619.354 657.167 617.962 C 656.601 617.706 656.054 617.344 655.437 617.269 C 652.189 614.047 650.976 608.84 646.575 607.117 C 643.096 610.808 643.058 612.801 643.717 617.76 C 645.412 630.512 650.055 643.003 652.309 655.792 C 660.567 702.652 665.596 747.832 664.21 795.539 C 654.014 785.871 642.467 777.103 631.522 768.305 C 574.408 722.402 516.775 691.626 444.065 678.474 C 447.358 670.068 449.989 661.86 452.254 653.112 C 461.203 650.547 469.956 647.338 478.442 643.511 C 498.688 634.198 510.307 622.994 518.075 601.927 C 527.73 611.445 538.579 619.735 552.62 620.815 C 554.935 619.773 554.794 619.724 555.801 617.368 C 555.128 606.717 537.411 577.778 531.953 567.144 C 541.408 570.258 549.538 570.633 558.63 565.833 C 569.024 560.346 574.215 551.394 577.807 540.672 C 593.178 544.576 610.274 545.297 624.565 537.389 C 631.545 533.526 637.245 527.592 639.335 519.736 C 640.765 514.359 639.367 508.431 636.733 503.681 C 634.575 502.219 634.678 502.052 632.135 502.468 C 627.889 506.264 627.132 514.96 624.517 520.164 C 621.803 525.566 617.841 528.195 612.111 529.83 C 597.956 533.869 583.766 529.187 571.331 522.417 C 547.408 509.392 527.861 487.235 520.414 460.747 C 515.859 444.546 516.278 425.194 524.938 410.374 C 530.311 401.049 539.332 394.389 549.826 392 C 564.58 388.638 586.037 393.981 598.348 402.753 C 610.354 411.307 620.238 422.306 632.939 430.055 C 642.552 435.919 657.111 443.707 668.609 440.586 C 675.097 438.825 680.9 433.702 683.917 427.748 C 689.138 417.447 675.681 413.807 670.644 406.859 C 668.827 404.352 667.84 400.628 666.825 397.684 C 689.46 365.856 709.819 331.935 719.629 293.735 z"/>
<path transform="translate(0,0)" fill="rgb(6,24,71)" d="M 558.311 413.183 C 563.155 412.919 567.797 412.812 572.618 413.543 C 583.333 415.168 593.232 420.642 599.576 429.544 C 604.498 436.45 607.96 447.65 605.14 455.992 C 604.213 458.736 602.379 461.504 602.049 464.389 C 600.895 474.441 611.807 476.44 616.538 482.985 C 617.095 485.861 616.885 486.317 615.836 489.086 C 614.248 490.456 612.963 491.375 610.919 491.96 C 599.331 495.278 580.834 492.997 570.745 486.756 C 566.266 483.986 563.876 479.033 562.934 473.979 C 561.312 465.279 563.479 456.766 568.562 449.651 C 568.788 449.336 569.02 449.024 569.249 448.711 C 571.282 446.793 573.326 444.849 575.748 443.424 C 579.097 441.454 581.086 441.507 584.744 442.607 C 585.37 442.795 587.194 443.391 587.875 443.53 C 590.251 444.019 591.45 443.516 593.45 442.329 L 593.416 439.972 C 590.523 435.202 585.249 430.303 580.103 428.03 C 575.849 426.151 570.531 426.229 566.285 428.06 C 549.282 435.393 552.36 458.719 546.158 472.903 C 543.726 472.962 541.622 472.186 539.556 470.934 C 533.559 467.301 530.012 459.735 528.373 453.19 C 526.263 444.768 526.974 435.853 531.727 428.431 C 537.921 418.758 547.667 415.454 558.311 413.183 z"/>
<path transform="translate(0,0)" fill="rgb(255,255,255)" d="M 583.772 453.849 C 583.534 458.639 579.34 462.591 579.327 467.393 C 579.319 470.628 581.548 472.717 583.581 474.924 C 585.743 469.866 588.407 465.281 591.209 460.56 C 591.079 466.357 590.943 471.635 592.388 477.302 C 593.283 478.711 594.004 480.203 594.772 481.685 C 593.269 482.883 593.756 482.947 592.01 482.889 C 586.971 482.719 581.457 479.292 578.183 475.588 C 575.653 472.726 574.257 469.409 574.646 465.539 C 575.184 460.193 579.842 456.802 583.772 453.849 z"/>
<path transform="translate(0,0)" fill="rgb(6,24,71)" d="M 838.125 282.958 C 839.325 283.411 840.05 284.182 840.887 285.131 C 845.391 290.241 853.625 304.23 853.094 311.088 C 849.149 314.354 795.111 329.974 783.239 334.377 C 781.365 335.078 778.521 335.934 776.5 335.776 C 773.649 335.554 772.3 334.307 770.391 332.353 C 769.27 329.745 768.812 328.273 769.799 325.5 C 778.429 301.265 816.981 291.161 838.125 282.958 z"/>
<path transform="translate(0,0)" fill="rgb(6,24,71)" d="M 831.326 338.819 L 834.296 339.203 C 835.918 341.079 838.068 343.352 839.024 345.666 C 840.28 348.71 840.208 351.099 838.843 354.084 C 836.413 359.399 830.802 360.837 825.79 362.88 C 824.821 369.603 824.282 376.233 823.933 383.015 C 826.516 386.653 830.91 391.559 830.966 396.182 C 830.999 398.806 830.331 399.874 828.616 401.731 C 827.562 401.907 826.446 402.156 825.368 402.03 C 819.493 401.341 815.747 393.879 812.824 389.46 C 809.601 385.14 806.084 381.764 802.098 378.175 C 799.537 379.993 795.578 383.449 792.517 384.201 C 789.636 384.909 788.497 383.905 785.983 382.648 C 784.661 380.728 783.858 379.929 784.366 377.433 C 786.929 364.834 820.64 344.828 831.326 338.819 z"/>
<path transform="translate(0,0)" fill="rgb(6,24,71)" d="M 901.883 451.864 C 903.645 451.626 905.154 451.946 906.904 452.189 C 908.76 453.728 908.755 453.663 909.119 456.042 C 906.592 461.964 899.612 466.288 894.304 469.67 C 885.836 475.066 872.849 485.143 862.676 482.853 C 861.323 481.781 859.888 480.753 859.073 479.176 C 857.655 476.429 856.862 470.412 858.1 467.466 C 859.092 465.106 859.668 464.91 861.873 464.03 C 865.551 465.298 866.595 467.253 869.093 470.171 C 879.89 463.673 890.301 456.921 901.883 451.864 z"/>
<path transform="translate(0,0)" fill="rgb(6,24,71)" d="M 877.725 444.029 C 880.201 444.21 883.244 444.358 885.326 445.876 C 887.569 447.51 887.556 448.852 887.765 451.332 C 886.488 454.588 884.849 455.721 882.033 457.702 C 880.859 457.809 879.631 457.958 878.451 457.893 C 876.136 457.76 874.02 456.541 872.744 454.605 C 871.565 452.834 871.194 450.514 871.995 448.506 C 873.098 445.744 875.297 445.17 877.725 444.029 z"/>
<path transform="translate(0,0)" fill="rgb(255,255,255)" d="M 568.456 92.4151 C 568.529 92.4081 568.602 92.398 568.676 92.3943 C 629.332 89.308 728.318 143.709 772.744 183.728 C 743.337 199.823 715.534 219.182 688.32 238.702 C 613.186 292.087 543.753 353.072 481.122 420.692 C 458.869 444.638 437.127 469.056 415.913 493.927 C 407.693 503.446 377.873 543.051 369.933 547.476 C 367.624 548.762 364.872 549.452 362.315 548.427 C 355.882 545.847 351.895 534.082 349.144 528.156 L 361.091 504.522 C 366.303 494.569 372.844 485.284 378.868 475.809 C 382.413 470.235 389.473 461.327 387.681 454.46 C 387.151 452.426 387.511 453.159 385.525 451.956 C 385.143 452.061 384.747 452.125 384.379 452.272 C 371.734 457.309 348.72 502.339 342.795 516.296 C 340.553 511.881 338.609 507.289 336.57 502.776 C 348.221 486.067 354.374 464.908 367.052 449.082 C 370.854 444.336 376.254 440.286 377.634 434.106 C 376.873 431.721 376.477 431.346 374.624 429.625 C 372.848 429.354 372.149 428.989 370.417 429.682 C 356.575 435.221 336.927 477.225 331.515 490.9 C 316.447 459.353 292.235 397.154 290.238 362.301 C 287.864 320.869 335.335 252.937 362.043 221.96 C 411.475 164.628 490.395 98.1817 568.456 92.4151 z"/>
<path transform="translate(0,0)" fill="rgb(255,255,255)" d="M 1227.88 834.457 C 1240.95 828.95 1254.43 825.015 1268.05 821.197 C 1281.39 837.727 1295.89 855.568 1300.54 876.748 C 1301.89 882.809 1302.38 889.031 1302 895.229 C 1301.62 901.661 1293.7 949.537 1291.47 953.011 C 1285.92 949.626 1277.39 951.213 1275.93 949.246 C 1277.97 946.245 1279.82 944.137 1279.75 940.389 C 1278.1 937.906 1278.03 937.617 1275.27 936.583 C 1268.06 937.66 1259.46 945.521 1255.19 951.283 C 1253.33 953.789 1251.83 956.64 1250.34 959.373 C 1239.87 962.121 1232.68 965.119 1223.86 971.482 C 1227.37 973.415 1231.06 975.23 1234.31 977.582 C 1241.48 974.528 1252.55 968.631 1260.36 971.383 C 1261.96 973.485 1262.18 973.877 1261.62 976.659 C 1261.4 977.751 1260.58 979.179 1260.12 980.147 C 1258.42 977.386 1257.23 973.538 1254.57 971.743 C 1252.7 972.944 1252.36 973.031 1252.09 975.271 C 1251.3 982.057 1256.55 992.942 1261.27 997.459 C 1264.9 1000.94 1272.15 1005.53 1277.5 1004.57 C 1280.12 1004.09 1280.53 1003.76 1281.82 1001.66 C 1281.26 996.771 1277.68 994.489 1274.12 991.67 C 1273.37 991.075 1272.61 990.485 1271.85 989.899 C 1275.85 984.172 1277.85 979.382 1276.47 972.323 C 1275.76 968.713 1274.64 965.601 1272.87 962.393 C 1280.4 960.508 1285.62 959.377 1291.28 953.721 C 1294.73 957.755 1295.87 964.708 1298.4 969.534 C 1302.32 977.043 1308.28 983.87 1314.13 989.944 C 1320.41 996.466 1326.95 1002.92 1333.89 1008.74 C 1341.96 1015.51 1368.54 1033.03 1372.81 1039.96 C 1373.83 1041.62 1374.06 1042.19 1373.62 1044.05 C 1372.51 1048.7 1367.83 1051.74 1364.05 1054.11 C 1356.69 1058.73 1336.59 1070.92 1328.09 1068.93 C 1328.31 1065.1 1345.48 1059.71 1349.13 1055.11 C 1349.29 1053.54 1349.71 1052.67 1348.87 1051.24 C 1347.79 1049.39 1345.66 1047.72 1343.45 1047.52 C 1340.38 1047.23 1316.12 1056.34 1312.74 1058.47 C 1310.89 1059.64 1308.88 1061.74 1308.58 1063.97 C 1308.16 1067.03 1309.48 1069.33 1311.36 1071.6 C 1316.66 1077.98 1321.74 1078.48 1329.56 1079.15 C 1329.68 1087.68 1328.84 1098.38 1333.99 1105.67 C 1335.98 1108.48 1338.75 1111.18 1339.66 1114.58 C 1340.4 1117.33 1339.26 1120.49 1337.71 1122.79 C 1334.28 1127.88 1327.66 1130.38 1321.91 1131.61 C 1312.06 1133.73 1283.19 1134.36 1275.34 1127.64 C 1270.9 1123.84 1275.51 1117.09 1275.69 1112.38 L 1274 1111.21 C 1271.71 1111.16 1270.12 1111.26 1268.2 1112.65 C 1262.03 1117.11 1259.14 1125.9 1257.93 1133.06 C 1256.93 1138.91 1255.65 1149.8 1259.1 1154.63 L 1260.47 1154.16 C 1264.21 1149.47 1265.29 1143.55 1266.96 1137.88 C 1277.81 1140.79 1288.84 1143.56 1300.06 1144.51 C 1305.81 1144.99 1323.24 1144.41 1327.58 1146.59 C 1328.22 1146.91 1329.78 1148.59 1330.11 1149.01 C 1334.25 1154.23 1329.95 1161.13 1327.84 1166.13 C 1318.93 1187.3 1326.44 1207.41 1320.87 1229.06 C 1318.1 1239.81 1312.46 1248.5 1302.65 1254.04 C 1280.4 1266.6 1252 1260.5 1228.91 1254.24 C 1190.44 1243.81 1127.51 1221.19 1100.04 1192.51 C 1088.6 1180.58 1080.44 1165.21 1072.24 1150.94 C 1077.46 1148.09 1082.18 1145.27 1085.55 1140.2 C 1089.81 1133.8 1091.65 1126.34 1089.95 1118.75 C 1088.77 1113.46 1085.49 1109.38 1080.76 1106.77 C 1072.61 1102.29 1066.65 1105.81 1058.37 1107.92 C 1053.4 1105.11 1055.44 1095.39 1053.97 1090.18 C 1052.13 1088.14 1051.69 1087.8 1048.84 1087.34 C 1045.32 1086.76 1041.43 1087.73 1038.69 1090 C 1029.25 1097.82 1030.69 1110.6 1029.24 1121.33 C 1026.66 1123.05 1023.93 1122.99 1020.92 1122.8 C 999.798 1121.46 985.888 1106.03 972.597 1091.21 C 954.402 1070.93 928.92 1034.16 931.031 1005.41 C 931.73 995.894 935.804 986.911 943.2 980.762 C 957.446 968.917 989.453 964.188 1006.21 972.996 C 1013.05 976.591 1018.53 982.703 1024.09 987.938 C 1038.34 1001.11 1056.64 1009.05 1075.99 1010.47 C 1081.39 1010.86 1085.64 1009.96 1089.65 1006.28 C 1090.37 1004.1 1090.99 1003.04 1089.59 1000.89 C 1085.96 995.305 1077.53 995.761 1071.69 995.307 C 1093.17 987.25 1110.86 978.329 1129.09 964.235 C 1158.04 941.853 1223.28 871.074 1227.88 834.457 z"/>
<path transform="translate(0,0)" fill="rgb(6,24,71)" d="M 975.153 984.123 C 981.483 983.588 986.868 983.836 992.872 986.113 C 1007.78 991.765 1026.35 1007.51 1027.63 1024.27 C 1028.52 1035.98 1024.03 1043.52 1029.6 1055.14 L 1030.21 1056.37 C 1033.11 1057.84 1036.98 1059.16 1039.15 1061.61 C 1040.24 1062.84 1039.73 1063.93 1039.63 1065.45 C 1037.87 1068.14 1036.64 1069.97 1033.78 1071.66 C 1026.42 1071.89 1025.85 1066.28 1020.66 1062.74 C 1015.87 1059.46 1004.11 1061.04 997.424 1057.13 C 994.446 1055.4 992.382 1052.95 991.594 1049.56 C 988.592 1036.64 998.782 1036.27 1003.77 1027.53 L 1003.07 1025.87 C 1001.75 1025.28 1000.54 1024.76 999.075 1024.7 C 992.539 1024.39 985.726 1028.65 981.364 1033.19 C 977.925 1036.77 976.291 1040.61 976.494 1045.61 C 976.793 1052.99 981.78 1057.59 986.91 1062.23 C 987.84 1062.72 988.781 1063.19 989.684 1063.72 C 992.384 1065.32 993.31 1066.59 994.05 1069.61 L 992.679 1071.75 C 990.617 1072.61 989.15 1073.02 986.889 1072.86 C 979.857 1072.38 975.054 1068.71 970.631 1063.48 C 965.51 1057.43 962.504 1049.91 963.325 1041.92 C 964.207 1033.34 969.21 1025.95 976.019 1020.86 C 987.534 1012.24 995.647 1012.55 1008.95 1014.55 L 1009.62 1013.79 C 1004.94 1008.12 999.03 1002.76 992.849 998.782 C 987.957 995.632 978.441 995.147 972.842 996.631 C 957.213 1000.77 960.002 1015.7 952.985 1024.2 C 951.295 1026.24 949.889 1026.23 947.507 1026.37 C 945.432 1024.98 944.719 1024.63 944.086 1022.02 C 942.413 1015.12 945.456 1006.35 949.029 1000.56 C 955.074 990.759 964.479 986.82 975.153 984.123 z"/>
<path transform="translate(0,0)" fill="rgb(255,255,255)" d="M 1008.11 1038.48 C 1010.3 1040.41 1011.28 1041.69 1012.55 1044.32 C 1012.41 1047.39 1012.23 1047.52 1010.27 1049.92 C 1007.83 1048.35 1006.1 1047.21 1004.5 1044.69 C 1004.91 1041.42 1005.94 1040.87 1008.11 1038.48 z"/>
<path transform="translate(0,0)" fill="rgb(6,24,71)" d="M 1269.32 879.295 C 1274.12 878.924 1279.22 878.31 1283.95 879.434 C 1287.6 880.298 1290.66 882.035 1292.48 885.428 C 1294.86 889.88 1294.01 902.949 1291.82 907.471 C 1290.88 909.418 1290.43 910.373 1288.15 910.525 C 1285.16 910.723 1280.77 909.353 1277.66 908.838 C 1263.84 906.553 1253.6 906.051 1240.07 910.529 C 1235.47 912.901 1231.22 915.934 1226.59 918.255 C 1223.71 919.697 1222.04 919.838 1219.03 918.801 L 1218.4 916.455 C 1219.88 910.393 1224 903.903 1227.72 898.912 C 1237.54 885.731 1253.9 881.828 1269.32 879.295 z"/>
<path transform="translate(0,0)" fill="rgb(255,255,255)" d="M 1024.36 1135.16 C 1030.11 1134.97 1034.85 1138.81 1038.93 1142.91 C 1040.49 1144.48 1046.14 1153.73 1047.64 1153.75 C 1051.07 1153.81 1057.14 1149.03 1059.95 1151.86 C 1062.43 1154.36 1069.5 1172.71 1072.67 1178.09 L 1071.89 1179.44 C 1070.54 1181.17 1069.22 1182.97 1068.22 1184.94 C 1064.72 1191.89 1075.29 1237.34 1077.09 1247.13 C 1081.05 1268.73 1084.5 1290.41 1086.23 1312.32 C 1087.31 1325.96 1086.65 1361.67 1089.6 1371.12 C 1090.07 1372.62 1091.35 1375.83 1091.25 1377.32 C 1091.25 1377.47 1054.74 1454.57 1050.37 1465.03 C 1008.76 1408.36 962.544 1353.97 905.635 1312.09 C 888.248 1299.3 868.925 1289.6 851.512 1276.99 C 855.427 1260.01 857.849 1242.89 860.324 1225.66 C 877.078 1221.64 892.242 1215.57 908.013 1208.7 C 913.107 1211.38 917.359 1214.51 921.408 1218.6 C 926.4 1223.64 927.639 1227.83 927.504 1234.85 L 927.465 1236.22 C 928.689 1238.5 929.576 1239.22 931.822 1240.5 C 933.931 1240.79 935.484 1240.75 937.471 1239.87 C 945.902 1236.14 953.436 1226.26 956.65 1217.84 C 963.006 1201.17 956.023 1182.19 948.95 1167.01 C 968.052 1171.3 989.902 1173.86 1008.93 1167.8 C 1015.19 1165.81 1023.75 1161.93 1026.93 1155.83 C 1025.86 1152.95 1023.98 1152.57 1021.37 1151.05 C 1017.32 1150.44 1013.03 1150.6 1008.92 1150.5 C 1009.22 1146.17 1008.6 1141.88 1010.25 1137.77 C 1013.35 1135.41 1020.35 1135.87 1024.36 1135.16 z"/>
<path transform="translate(0,0)" fill="rgb(255,255,255)" d="M 398.063 691.383 C 406.618 690.361 415.849 690.569 424.468 690.786 C 535.918 693.599 650.185 793.32 722.997 870.239 C 722.934 891.716 725.031 912.567 729.98 933.471 C 716.414 921.922 702.566 910.71 688.448 899.844 C 645.89 867.674 597.572 839.541 547.452 821.006 C 490.094 799.795 390.136 777.684 333.084 804.002 C 333.354 803.502 333.632 803.005 333.894 802.5 C 340.887 789.019 353.819 777.925 357.846 763.173 C 362.697 745.399 352.182 718.309 363.655 703.96 C 371.366 694.316 386.656 692.854 398.063 691.383 z"/>
<path transform="translate(0,0)" fill="rgb(255,255,255)" d="M 510.604 1641.8 C 542.539 1646.87 575.581 1651.25 605.851 1663.12 C 647.981 1679.64 684.745 1708.28 725.503 1728.12 C 719.838 1749.7 713.855 1771.25 708.892 1793.01 C 706.838 1802.02 700.209 1843.19 697.462 1848.27 L 695.721 1848.36 C 673.556 1840.29 652.58 1829.26 633.362 1815.58 C 621.192 1806.97 609.5 1797.47 596.626 1789.92 C 566.844 1772.45 512.553 1758.95 478.236 1751.36 C 487.013 1714.28 497.818 1677.7 510.604 1641.8 z"/>
<path transform="translate(0,0)" fill="rgb(255,255,255)" d="M 900.83 681.439 C 921.81 682.152 943.359 684.004 963.878 688.545 C 988.085 693.901 1012.25 704.54 1033.33 717.49 C 1070.05 740.055 1119.41 786.521 1142.68 822.954 C 1230.21 788.596 1339.57 743.802 1434.72 748.444 C 1447.44 749.065 1466.96 751.083 1475.94 761.073 C 1476.5 762.938 1477.13 763.802 1476.52 765.742 C 1474.89 770.889 1468.24 772.433 1463.55 773.509 C 1445.13 777.735 1424.9 776.653 1406.06 778.136 C 1385.1 779.785 1364.05 783.696 1343.51 788.118 C 1232.62 811.989 1132.78 855.269 1032.49 906.936 C 967.969 941.209 904.37 977.224 844.908 1019.79 C 824.601 1034.32 804.673 1048.64 786.519 1065.88 C 783.149 1059.48 778.959 1053.39 775.093 1047.27 C 790.831 1033.14 805.277 1018.19 821.925 1005.03 C 906.947 937.841 1017.85 881.777 1115.83 835.019 C 1105.43 821.407 1094.34 808.333 1082.62 795.849 C 1067.46 779.427 1051.22 764.76 1033.67 750.936 C 982.741 710.801 939.304 698.865 875.892 696.319 C 881.782 693.209 891.044 682.968 894.453 681.892 C 896.119 681.367 899.011 681.569 900.83 681.439 z"/>
<path transform="translate(0,0)" fill="rgb(255,255,255)" d="M 587.856 1512.55 C 677.805 1521.74 711.645 1562.79 783.897 1604.18 C 767.599 1632.99 750.843 1660.63 739.275 1691.88 L 725.754 1686.21 C 698.019 1671.87 672.49 1652.59 644.95 1639.23 C 601.297 1618.06 570.178 1617.62 525.131 1607.63 C 542.082 1572.58 562.153 1541.79 587.856 1512.55 z"/>
<path transform="translate(0,0)" fill="rgb(255,255,255)" d="M 1045.82 632.415 C 1052.73 631.417 1060.46 631.427 1067.44 631.85 C 1127.51 635.486 1167.59 683.668 1204.19 725.495 C 1217.66 740.886 1231.84 755.596 1245.34 770.941 C 1212.04 781.04 1179.97 793.876 1147.83 807.108 L 1132.29 788.056 C 1090.4 739.592 1034.15 691.708 970.475 676.798 C 950.551 672.133 929.749 671.481 909.428 669.623 C 952.894 654.155 999.651 637.013 1045.82 632.415 z"/>
<path transform="translate(0,0)" fill="rgb(255,255,255)" d="M 469.688 1787.6 C 503.515 1796.63 541.207 1802.36 572.382 1818.61 C 584.774 1825.06 596.114 1833.48 607.55 1841.46 C 634.186 1860.05 660.44 1877.24 691.893 1886.7 C 689.851 1905.84 688.762 1925.16 687.596 1944.37 C 682.111 1944.12 676.65 1943.6 671.182 1943.11 C 658.279 1942.5 645.052 1940.4 632.185 1938.99 C 616.834 1937.31 600.503 1936.61 585.563 1932.75 C 562.523 1926.79 538.549 1916.42 515.344 1909.36 C 493.422 1902.7 470.705 1897.78 449.114 1890.2 C 453.094 1855.76 461.616 1821.27 469.688 1787.6 z"/>
<path transform="translate(0,0)" fill="rgb(255,255,255)" d="M 686.475 1401.73 C 698.827 1402.93 712.265 1408.47 723.933 1412.55 C 794.935 1437.37 822.913 1468.46 877.65 1515.92 C 850.612 1530.29 827.363 1551.03 806.649 1573.34 C 795.8 1571.23 721.928 1518.59 702.277 1508.09 C 675.194 1493.62 646.075 1485.3 616.249 1478.77 C 626.749 1464.83 639.227 1452.49 651.047 1439.7 C 662.787 1426.99 674.113 1413.85 686.475 1401.73 z"/>
<path transform="translate(0,0)" fill="rgb(255,255,255)" d="M 774.79 1261.99 C 777.016 1261.95 779.265 1261.94 781.483 1262.16 C 801.454 1264.2 835.922 1285.41 853.716 1295.48 C 927.808 1337.37 985.947 1399.68 1035.39 1467.99 C 1050.17 1488.41 1064.94 1509.38 1077.27 1531.41 C 1100.07 1572.15 1116.85 1615.47 1145.25 1652.86 C 1139.68 1650.65 1134.52 1647.99 1129.25 1645.16 C 1106.45 1631.2 1085.21 1607.52 1071.45 1584.6 C 1063.76 1571.8 1057.52 1558.13 1050.02 1545.22 C 1032.72 1515.45 1007.63 1485.08 985.085 1458.95 C 919.496 1382.96 853.885 1324.26 754.624 1297.92 C 759.066 1285.2 763.823 1270.49 774.79 1261.99 z"/>
<path transform="translate(0,0)" fill="rgb(255,255,255)" d="M 742.172 1322.61 C 828.471 1337.33 960.896 1435.94 1011.32 1506.18 C 1001.56 1503.19 991.92 1500.15 981.871 1498.29 C 958.127 1494.68 934.664 1498.79 911.454 1503.75 C 894.138 1473.02 822.235 1416.59 790.7 1400.68 C 765.774 1388.1 738.442 1379.76 711.795 1371.69 C 722.715 1355.74 731.745 1338.84 742.172 1322.61 z"/>
<path transform="translate(0,0)" fill="rgb(255,255,255)" d="M 895.577 171.424 C 925.958 169.18 965.698 170.906 996.141 174.134 C 969.362 189.061 941.555 204.13 913.114 215.564 C 849.987 240.94 783.565 257.179 719.227 278.925 C 693.983 287.457 669.671 297.259 645.293 308.002 C 621.435 318.543 599.083 331.231 576.378 344.011 C 591.585 331.619 605.985 318.269 621.251 305.914 C 658.162 276.117 696.342 247.926 735.683 221.419 C 753.965 209.102 775.116 193.963 796.034 186.775 C 827.154 176.081 862.997 173.785 895.577 171.424 z"/>
<path transform="translate(0,0)" fill="rgb(200,199,201)" d="M 903.825 996.125 L 904.052 996.256 C 903.94 998.67 893.656 1007.09 891.431 1009.47 C 885.006 1016.32 879.618 1024.08 875.438 1032.49 C 867.834 1048.09 866.131 1065.32 866.396 1082.47 C 867.654 1163.94 930.819 1147.99 944.092 1190.09 C 947.516 1200.95 945.562 1211.03 940.531 1220.89 C 936.283 1214.21 932.036 1208.37 926.304 1202.88 C 898.28 1180.63 851.147 1176.7 833.559 1143.24 C 822.001 1121.24 824.389 1095.92 831.432 1072.96 C 840.653 1042.9 849.962 1032.64 875.039 1014.72 C 884.349 1008.07 893.68 1001.46 903.825 996.125 z"/>
<path transform="translate(0,0)" fill="rgb(200,199,201)" d="M 1182 852.039 L 1182.62 852.595 C 1181.84 861.741 1167.61 877.185 1161.65 884.015 C 1129.6 920.781 1085.63 941.017 1039.4 953.3 C 1029.27 955.99 1018.78 959.304 1008.35 960.447 C 1001.59 961.187 994.481 959.757 987.718 959.403 C 981.128 959.057 974.336 959.721 967.754 960.146 C 967.027 960.188 966.111 959.926 965.387 959.801 C 969.618 954.301 988.706 945.627 995.454 941.925 C 1022.53 927.072 1049.47 911.947 1077.21 898.347 C 1111.45 881.562 1146.83 866.714 1182 852.039 z"/>
<path transform="translate(0,0)" fill="rgb(200,199,201)" d="M 1071.89 1179.44 L 1072.67 1178.09 C 1080.34 1189.11 1087.85 1200.08 1097.92 1209.11 C 1123.49 1232.06 1178.98 1253.54 1212.43 1262.65 C 1186.66 1263.03 1161.16 1266.05 1142.19 1285.36 C 1124.13 1303.75 1111.65 1332.66 1100.88 1355.89 C 1100.75 1312.1 1092.61 1216.06 1071.89 1179.44 z"/>
<path transform="translate(0,0)" fill="rgb(255,255,255)" d="M 625.782 873.559 C 631.28 875.18 637.28 880.191 642.17 883.403 C 674.296 904.509 703.112 928.474 732.56 953.099 C 736.711 975.258 743.364 996.935 749.97 1018.46 C 742.965 1014.76 736.127 1008.86 729.497 1004.38 C 709.726 991.039 691.719 983.394 668.487 978.651 C 657.416 945.278 642.166 904.499 625.782 873.559 z"/>
<path transform="translate(0,0)" fill="rgb(200,199,201)" d="M 806.843 1063.02 C 808.109 1064.94 804.378 1069.49 803.162 1071.68 C 794.005 1088.19 787.358 1103.25 785.533 1122.23 C 783.265 1145.83 789.943 1171.38 805.216 1189.76 C 824.586 1213.08 842.589 1208.27 868.815 1210.63 L 870.051 1210.75 C 850.022 1214.23 829.674 1217.33 809.289 1216.44 C 786.077 1215.43 764.101 1207.51 748.221 1190.02 C 737.103 1177.77 730.14 1164.52 730.942 1147.6 C 736.008 1126.3 752.803 1111.64 767.85 1096.96 C 759.749 1118.44 755.236 1143.19 764.521 1165 C 772.072 1182.75 790.165 1200.66 808.481 1207.07 C 810.856 1207.9 812.249 1208.35 814.565 1207.18 L 814.397 1205.27 C 808.168 1200.68 802.063 1196.16 796.773 1190.47 C 780.351 1172.83 775.148 1151.04 776.161 1127.4 C 776.777 1113.04 779.619 1093.55 788.228 1081.56 C 793.215 1074.61 800.521 1068.77 806.843 1063.02 z"/>
<path transform="translate(0,0)" fill="rgb(255,255,255)" d="M 824.752 732.942 L 825.433 733.664 C 823.839 737.667 797.561 768.182 792.196 775.802 C 750.835 834.55 751.172 882.035 762.26 949.851 C 766.523 976.125 771.055 1002.36 775.855 1028.54 C 773.919 1030.37 772.163 1031.92 769.84 1033.3 L 768.005 1032.65 L 766.089 1028.52 C 752.148 985.276 731.555 904.927 737.683 860.854 C 743.666 817.824 768.432 785.146 798.949 755.874 C 807.199 747.96 815.589 739.793 824.752 732.942 z"/>
<path transform="translate(0,0)" fill="rgb(255,255,255)" d="M 866.847 705.208 C 866.661 706.432 866.829 705.843 866.215 707.178 C 860.193 720.276 855.477 734.829 853.621 749.149 C 847.784 794.182 860.273 851.582 872.681 894.955 C 877.273 911.006 883.211 926.627 887.744 942.717 C 882.059 945.464 876.815 948.892 871.491 952.267 C 869.991 950.385 869.095 948.495 868.151 946.314 C 846.432 896.134 829.758 807.693 836.737 753.211 C 838.365 740.505 842.108 728.859 846.843 717.004 C 853.697 713.567 860.267 709.162 866.847 705.208 z"/>
<path transform="translate(0,0)" fill="rgb(200,199,201)" d="M 915.893 1001.03 C 921.079 1008.69 910.625 1037.14 909.361 1046.86 C 908.04 1057.02 908.184 1067.35 910.451 1077.36 C 919.11 1115.6 945.121 1137.99 976.714 1158.05 C 969.183 1156.17 962.124 1153.95 954.955 1150.97 C 936.154 1142.48 920.047 1130.88 905.999 1115.74 C 892.374 1101.05 880.127 1080.77 881.217 1060.04 C 882.501 1035.63 898.544 1016.5 915.893 1001.03 z"/>
<path transform="translate(0,0)" fill="rgb(200,199,201)" d="M 1212.91 839.048 C 1213.8 839.816 1213.37 839.25 1213.51 841.09 C 1198.99 870.147 1177.4 896.294 1155.78 920.325 C 1122.61 957.19 1090.49 978.805 1039.66 981.45 C 1035.91 979.633 1032.45 977.31 1028.93 975.095 L 1019.88 967.803 C 1052.33 963.119 1088.59 951.991 1116.96 935.84 C 1153.43 915.084 1186.15 886.237 1197.53 844.596 C 1202.71 842.977 1207.81 840.925 1212.91 839.048 z"/>
<path transform="translate(0,0)" fill="rgb(200,199,201)" d="M 1021.37 1151.05 C 1013.72 1152.17 1006.3 1152.2 998.692 1150.79 C 972.937 1146.03 949.909 1126.05 935.704 1104.82 C 920.526 1082.15 916.184 1061.13 921.55 1034.5 C 931.63 1061.05 948.731 1087.28 968.686 1107.47 C 985.773 1124.77 999.352 1135.09 1024.36 1135.16 C 1020.35 1135.87 1013.35 1135.41 1010.25 1137.77 C 1008.6 1141.88 1009.22 1146.17 1008.92 1150.5 C 1013.03 1150.6 1017.32 1150.44 1021.37 1151.05 z"/>
<path transform="translate(0,0)" fill="rgb(200,199,201)" d="M 819.741 1064.83 C 819.671 1069.43 817.024 1075.63 815.836 1080.26 C 810.91 1099.44 809.383 1119.36 815.925 1138.43 C 829.702 1178.58 865.096 1183.38 898.994 1199.84 L 886.18 1199.12 C 864.985 1199.18 842.267 1200.98 824.076 1187.95 C 809.57 1177.56 801.368 1160.61 798.899 1143.26 C 794.902 1115.19 803.031 1087.41 819.741 1064.83 z"/>
<path transform="translate(0,0)" fill="rgb(255,255,255)" d="M 768.674 1063.93 L 770.66 1064.13 C 773.2 1066.77 774.175 1070.98 775.389 1074.38 C 752.864 1095.5 719.347 1115.67 716.73 1150.01 C 715.167 1170.51 727.92 1186.2 740.338 1200.92 L 739.82 1201.93 C 728.749 1195.29 719.083 1183.57 713.705 1171.91 C 705.986 1155.19 705.477 1137.74 711.872 1120.51 C 722.146 1092.82 742.419 1075.79 768.674 1063.93 z"/>
<path transform="translate(0,0)" fill="rgb(255,255,255)" d="M 1068.81 1116.92 C 1069.85 1116.83 1070.95 1116.68 1071.99 1116.84 C 1074.64 1117.24 1076.13 1118.74 1077.82 1120.63 C 1079 1123.94 1079 1126.18 1077.76 1129.4 C 1075.63 1134.93 1072.65 1136.34 1067.45 1138.52 C 1064.11 1138.31 1060.98 1138.5 1058.19 1136.41 C 1057.07 1134.06 1056.46 1132.66 1057.16 1130.03 C 1058.71 1124.2 1063.9 1119.85 1068.81 1116.92 z"/>
<path transform="translate(0,0)" fill="rgb(255,255,255)" d="M 1042.22 1103.43 C 1045.63 1105.55 1047.87 1111.78 1049.56 1115.47 L 1048.4 1118.15 L 1044.5 1119.38 L 1042.37 1118.08 C 1039.83 1113.29 1040.95 1108.47 1042.22 1103.43 z"/>
<path transform="translate(0,0)" fill="url(#Gradient1)" d="M 1387.34 1268.06 C 1373.25 1242.63 1369.44 1214.61 1372.63 1185.91 C 1379.08 1127.93 1412.11 1072.94 1457.63 1036.94 C 1524.09 984.365 1628.95 974.662 1711.09 984.619 C 1752.84 989.68 1813.28 1003.84 1840.13 1038.69 C 1850.41 1052.03 1855.78 1067.8 1853.53 1084.73 C 1857.02 1090.28 1860.44 1095.88 1863.8 1101.51 C 1885.89 1139.32 1893.45 1183.89 1885.06 1226.87 C 1883.31 1236.11 1879.83 1244.82 1877.63 1253.92 C 1872.81 1273.82 1892.57 1295.79 1905.69 1308.87 C 1912.1 1315.27 1920.69 1321.43 1925.31 1329.32 C 1928.1 1334.08 1928.54 1338.33 1926.97 1343.58 C 1922.93 1357.16 1907.59 1360.15 1897 1366.77 C 1872.1 1382.33 1895.29 1395.24 1891.1 1409.28 C 1889.62 1414.27 1885.5 1416.49 1881.22 1418.85 C 1885.62 1445.72 1869.51 1442.38 1865.29 1462.92 C 1863.03 1473.9 1867.32 1485.05 1865.67 1496 C 1864.26 1505.34 1859.99 1514.24 1852.05 1519.7 C 1832.87 1532.91 1786.53 1521.35 1764.03 1517.36 C 1754.2 1521.46 1744.46 1526.02 1735.44 1531.73 C 1709.98 1547.86 1695.75 1571.1 1688.84 1600.18 C 1686.72 1609.12 1685.75 1618.3 1683.72 1627.29 C 1706.7 1642.12 1754.1 1680.22 1764.65 1704.66 C 1759.23 1722.45 1743.08 1735.31 1735.83 1752.6 C 1748.53 1770.2 1758.73 1789.66 1768.7 1808.89 C 1780.5 1831.64 1791.34 1854.94 1802.43 1878.04 C 1809.14 1892.03 1817.77 1907.21 1822.26 1922.06 C 1823.02 1924.59 1823.07 1926.42 1822.27 1928.97 C 1820.23 1931.31 1819.96 1931.87 1817.01 1932.7 C 1812.44 1931.39 1810.19 1928.26 1807.89 1924.29 C 1802.83 1915.58 1799.01 1905.54 1794.87 1896.34 C 1788.3 1881.7 1781.55 1867.14 1774.61 1852.67 C 1758.87 1819.61 1740.89 1787.85 1722.74 1756.07 C 1720.9 1757.69 1718.71 1759.28 1717.21 1761.2 C 1726.07 1776.66 1734.62 1792.3 1742.86 1808.1 C 1751.88 1825.83 1795.47 1915.98 1789.73 1930.46 C 1788.72 1933.01 1786.65 1934.53 1784.05 1935.17 C 1783.37 1935.34 1781.44 1935.6 1780.72 1935.71 C 1775.66 1935.88 1770.48 1936.27 1765.41 1936.21 C 1659.48 1944.56 1553.38 1950.73 1447.19 1954.71 C 1411.22 1955.99 1375.24 1957.08 1339.26 1957.98 C 1312.94 1958.47 1286.44 1958.11 1260.17 1959.67 C 1260.56 1940.34 1263.6 1920.37 1266.33 1901.25 C 1278.79 1814.08 1304.28 1752.72 1349.82 1677.79 C 1357.69 1664.85 1365.55 1651.84 1373.81 1639.15 C 1380.58 1628.75 1391.33 1616.84 1395.07 1605.01 C 1398.74 1593.36 1401.81 1576.9 1401.3 1564.72 C 1400.93 1555.79 1398.99 1547.08 1400.08 1538.11 C 1400.5 1534.57 1401.13 1529.76 1404.28 1527.61 C 1416.22 1519.49 1453.84 1525.61 1467.33 1528.31 C 1475.8 1502.98 1476.1 1477.12 1474.85 1450.77 C 1470.56 1450.49 1466.63 1449.81 1462.44 1448.82 C 1456.02 1470.84 1440.41 1491.48 1421.95 1504.9 C 1406.95 1515.8 1391.76 1518.36 1373.86 1515.56 C 1360.28 1521.1 1344.6 1522.56 1330.12 1520.26 C 1311.68 1517.33 1294.7 1508.09 1283.72 1492.8 C 1262.47 1463.22 1261.04 1421.29 1266.76 1386.67 C 1273.49 1345.98 1293.93 1308.37 1328 1284.19 C 1344.73 1272.3 1366.73 1264.63 1387.34 1268.06 z"/>
<path transform="translate(0,0)" fill="rgb(244,158,137)" d="M 1734.23 1704.18 C 1725.01 1694.93 1714.15 1686.82 1703.89 1678.76 C 1648.29 1635.06 1567.37 1585.18 1498.4 1567.22 C 1480.26 1562.49 1461.35 1559.07 1442.84 1556.13 C 1435.65 1554.99 1428.26 1554.73 1421.16 1553.25 C 1418.88 1552.77 1415.45 1551.97 1413.66 1550.36 C 1411.54 1548.44 1411.48 1547.64 1411.16 1544.98 C 1411.8 1543.39 1412.1 1541.48 1413.6 1540.5 C 1421.03 1535.67 1451.18 1542.09 1460.48 1543.87 C 1544.7 1559.98 1631.09 1602.04 1698.25 1654.98 C 1717.62 1670.25 1735.69 1685.69 1749.67 1706.25 C 1740.93 1718.01 1730.38 1729.85 1723.7 1742.9 C 1720.83 1748.49 1720.83 1750.27 1722.74 1756.07 C 1720.9 1757.69 1718.71 1759.28 1717.21 1761.2 C 1713.52 1756.03 1710.79 1750.28 1707.91 1744.64 C 1715.43 1730.24 1726.23 1718.22 1734.23 1704.18 z"/>
<path transform="translate(0,0)" fill="rgb(244,158,137)" d="M 1402.21 1621.84 C 1457.32 1606.93 1523.3 1626.97 1571.84 1654.13 C 1594.31 1666.7 1614.52 1683.31 1633.63 1700.47 C 1704.36 1763.03 1755.45 1844.73 1780.72 1935.71 C 1775.66 1935.88 1770.48 1936.27 1765.41 1936.21 C 1763.59 1919.16 1756.06 1902.69 1749.35 1887.07 C 1724.53 1829.34 1692.31 1775.81 1648.66 1730.31 C 1576.99 1655.6 1505.59 1624.13 1402.21 1621.84 z"/>
<path transform="translate(0,0)" fill="rgb(255,255,255)" d="M 1820.81 1066.21 C 1825.57 1067.76 1829.32 1072.52 1832.31 1076.34 C 1864.86 1118.04 1882.33 1163.49 1874.09 1216.88 C 1872.06 1230.04 1866.06 1242.41 1864.7 1255.61 C 1862.34 1278.49 1885.39 1309.08 1901.39 1323.95 C 1905.2 1327.49 1912.38 1331.11 1914.98 1335.48 C 1915.88 1336.98 1915.8 1337.57 1915.41 1339.24 C 1913.36 1348.23 1898.58 1353.14 1891.47 1357.89 C 1883.21 1363.41 1874.78 1372.89 1872.97 1382.96 C 1871.37 1391.86 1874.56 1398.6 1879.56 1405.61 C 1866.99 1409.29 1854.43 1409.68 1841.42 1409.58 L 1835.27 1404.08 C 1833.36 1406.64 1831.16 1409.21 1829.86 1412.14 C 1828.18 1415.95 1827.09 1420.46 1828.54 1424.45 C 1830.53 1425.8 1832.09 1426.57 1834.6 1426.03 C 1838.07 1425.28 1839.01 1423.3 1841.13 1420.72 C 1847.36 1418.91 1861.68 1418.8 1867.25 1422.01 C 1869.8 1423.49 1870.02 1424.17 1870.98 1426.79 C 1869.91 1437.7 1857.14 1442.94 1853.44 1452.81 C 1847.34 1469.08 1860.02 1489.03 1849.53 1503.89 C 1845.92 1509 1839.58 1511.28 1833.61 1512.08 C 1808.4 1515.49 1751.47 1501.76 1727.66 1490.72 C 1715.95 1485.29 1705.23 1477.9 1694.86 1470.28 C 1675.25 1453.41 1665.57 1430.69 1658.16 1406.37 C 1655.8 1398.65 1653.93 1390.29 1650.71 1382.91 C 1648.77 1378.49 1646.65 1376.52 1642.19 1374.75 C 1635.15 1376.01 1638.51 1385.9 1631.85 1389.89 C 1624.45 1394.32 1613.05 1394.14 1605.04 1391.71 C 1587.35 1386.33 1559.62 1352.71 1551.04 1336.47 C 1542.6 1320.49 1541.23 1303.53 1546.79 1286.34 C 1550.7 1274.26 1557.89 1263.73 1569.55 1257.98 C 1604.77 1240.62 1620.01 1285.81 1635.49 1290.99 L 1637.26 1290.08 C 1638.11 1287.51 1636.96 1284.71 1636.31 1282.16 C 1667.75 1272.11 1697.81 1252.49 1724.22 1233.02 C 1762.44 1204.85 1798.01 1165.79 1811.36 1119.24 C 1816.32 1101.97 1818.13 1083.93 1820.81 1066.21 z"/>
<path transform="translate(0,0)" fill="rgb(6,24,71)" d="M 1582.27 1274.21 C 1589.43 1273.64 1595.22 1274.93 1601.61 1278.29 C 1612.13 1283.82 1623.18 1295.04 1626.4 1306.69 C 1627.65 1311.22 1627.81 1314.81 1625.51 1318.96 C 1624.07 1319.62 1623.7 1320.18 1622.07 1319.67 C 1614.02 1317.15 1611.34 1306.69 1607.69 1300.12 C 1603.43 1292.43 1596.05 1289.84 1588.13 1287.46 C 1586.47 1287.48 1584.64 1287.45 1583.03 1287.9 C 1568.18 1292.08 1573.58 1319.69 1568.64 1330.61 C 1566.29 1332.49 1566.13 1332.36 1563.09 1332.37 C 1560.57 1331.06 1559.32 1329.79 1558.32 1327.14 C 1554.61 1317.28 1556.97 1301.95 1561.43 1292.81 C 1566.14 1283.18 1572.29 1277.76 1582.27 1274.21 z"/>
<path transform="translate(0,0)" fill="rgb(6,24,71)" d="M 1837.51 1187.19 C 1842.55 1186.96 1847.99 1186.36 1852.62 1188.76 C 1855.41 1190.21 1857.88 1192.8 1858.65 1195.9 C 1859.66 1199.89 1858.9 1205.54 1856.61 1209.01 C 1849.49 1219.79 1823.33 1215.86 1810.42 1218.84 C 1803.38 1220.69 1796.5 1223.24 1789.62 1225.61 C 1791.93 1221.81 1794.3 1218.04 1796.72 1214.31 C 1806.92 1198.91 1819.42 1190.8 1837.51 1187.19 z"/>
<path transform="translate(0,0)" fill="rgb(6,24,71)" d="M 1840.2 1239.14 C 1842.3 1238.8 1843.56 1238.83 1845.62 1239.38 C 1847.4 1241.42 1848.65 1242.46 1848.87 1245.27 C 1847.27 1250.33 1840.76 1251.62 1836.52 1253.93 C 1833.72 1255.45 1833.81 1255.49 1832.92 1258.47 C 1833.63 1259.34 1834.82 1260.61 1835.28 1261.69 C 1837.38 1266.68 1834.67 1276.84 1835.02 1282.68 C 1835.41 1289.12 1839.89 1296.95 1838.2 1303.13 L 1836.54 1303.91 C 1831.61 1302.02 1828.54 1299.13 1824.74 1295.65 C 1816.71 1286.54 1814.55 1279.85 1811.61 1268.41 C 1810.25 1263.09 1805.05 1266.95 1800.67 1264.4 C 1799.96 1261.93 1799.61 1261.13 1801.17 1258.78 C 1807.25 1249.62 1829.78 1241.88 1840.2 1239.14 z"/>
<path transform="translate(0,0)" fill="rgb(255,255,255)" d="M 1828.3 1255.9 C 1830.07 1256.28 1831.13 1257.86 1832.41 1259.11 L 1832.2 1260.49 C 1829.56 1261.9 1827.43 1263.02 1825.43 1265.33 L 1825.59 1267.26 L 1829.75 1269.48 L 1829.97 1273.58 L 1828.24 1274.57 L 1826.19 1273.97 C 1822.96 1270.63 1821.47 1265.98 1819.67 1261.76 C 1822.66 1259.95 1825.47 1257.94 1828.3 1255.9 z"/>
<path transform="translate(0,0)" fill="rgb(6,24,71)" d="M 1590.11 1295.02 C 1592.64 1294.85 1595.43 1294.6 1597.86 1295.5 C 1613.64 1301.34 1602.28 1323.19 1607.96 1333.14 L 1609.59 1332.96 L 1613.03 1328.43 C 1617.97 1332.18 1624.01 1334.78 1628.44 1339.13 C 1630.36 1341.01 1631.75 1343.31 1631.55 1346.11 C 1631.3 1349.35 1629.3 1351.37 1627.2 1353.57 C 1619.41 1355.94 1608.86 1353.87 1601.27 1351.13 C 1582.74 1344.43 1596.18 1327.08 1592.83 1316.36 C 1591.57 1312.33 1583.17 1312.48 1580.69 1307.04 C 1581.5 1301.81 1586.18 1298.1 1590.11 1295.02 z"/>
<path transform="translate(0,0)" fill="rgb(6,24,71)" d="M 1872.24 1335.09 C 1875.13 1334.94 1878.07 1334.87 1880.97 1334.99 C 1886.86 1335.22 1899.15 1336.72 1903.29 1341.13 L 1902.9 1343.16 C 1894.2 1348.26 1880.86 1338.44 1871.9 1341.92 C 1869.06 1343.02 1868.81 1343.61 1867.38 1346.15 C 1867.4 1348.15 1867.52 1349.66 1868.54 1351.4 C 1869.99 1353.88 1872.15 1355.68 1874.98 1356.31 C 1876.88 1356.73 1877.16 1355.96 1878.65 1354.96 C 1882.86 1350.09 1886.85 1348.83 1892.91 1347.31 L 1892.86 1348.73 C 1889.12 1353.46 1882.84 1359.4 1877.51 1362.29 C 1874.72 1363.81 1871.63 1363.89 1868.66 1362.82 C 1865.19 1361.58 1862.4 1358.23 1861.08 1354.88 C 1859.56 1351.05 1859.54 1346.35 1861.46 1342.65 C 1863.79 1338.18 1867.71 1336.65 1872.24 1335.09 z"/>
<path transform="translate(0,0)" fill="rgb(200,199,201)" d="M 1684.65 1029.4 C 1710.74 1024.99 1755.51 1030.93 1780.05 1038.74 C 1790.98 1042.22 1811.77 1048.43 1817.32 1059.18 C 1814.8 1060.11 1810 1061.58 1808.17 1063.61 C 1805.1 1067.02 1798.8 1106.99 1797 1113.89 C 1794.38 1123.93 1791.41 1134.01 1787.04 1143.45 C 1768.9 1182.59 1718.1 1225.39 1680.47 1247.26 C 1664.9 1256.31 1647.09 1263.01 1632.95 1274.22 C 1632.59 1274.5 1632.24 1274.8 1631.88 1275.08 C 1628.58 1271.28 1625.67 1266.78 1622.68 1262.71 C 1639.33 1253.44 1657.26 1246.38 1674.02 1237.17 C 1715.89 1214.16 1761.82 1174.86 1781.93 1130.99 C 1784.18 1126.09 1785.79 1122.32 1784.25 1116.92 C 1782.21 1114.77 1781.98 1114.65 1779.08 1114.03 C 1775.83 1115.03 1774.43 1116.99 1772.25 1119.52 L 1771.34 1120.61 L 1771.18 1120.42 C 1770.95 1117.58 1770.63 1115.36 1769.56 1112.67 C 1766.31 1110.75 1764.5 1111.2 1761.28 1113.06 C 1749.56 1119.83 1738.87 1133.36 1728.67 1142.49 C 1714.96 1154.64 1700.67 1166.11 1685.84 1176.88 C 1663.34 1193.49 1639.67 1208.22 1615.86 1222.85 C 1606.56 1228.57 1596.95 1235.43 1587.09 1239.97 C 1579.56 1243.44 1570.95 1244.12 1563.39 1247.51 C 1557.58 1250.12 1553.39 1255.68 1547.6 1258.09 C 1539.29 1261.55 1529.89 1263.67 1521.22 1266.16 C 1493.75 1274.06 1466.54 1280.66 1438.15 1284.45 C 1439.97 1277.1 1442.04 1269.92 1444.41 1262.73 C 1450.85 1246.16 1458.06 1229.65 1467.54 1214.58 C 1493.17 1173.86 1534.86 1142.1 1580.57 1127.48 C 1598.66 1121.69 1617.5 1118.83 1636.15 1115.46 C 1666.92 1109.91 1704.38 1102.92 1730.99 1085.82 C 1735.9 1082.67 1742.43 1078.76 1743.14 1072.37 C 1743.42 1069.94 1743.26 1069.39 1741.62 1067.68 C 1739.09 1067.18 1737.22 1067.29 1734.82 1068.16 C 1728.87 1070.32 1723.07 1074.17 1717.44 1077.08 C 1708.19 1081.83 1698.66 1086.03 1688.9 1089.64 C 1665.86 1098.24 1642.03 1101.71 1618.02 1106.28 C 1587.95 1112 1558.74 1120.68 1531.73 1135.4 C 1497.18 1154.24 1465.55 1186.41 1448.66 1222.07 C 1442.66 1234.75 1438.64 1248.1 1434.69 1261.52 C 1435.79 1249.78 1436.26 1238.07 1438.17 1226.41 C 1442.98 1197.06 1456.3 1154.62 1474.9 1131.47 C 1484.85 1119.1 1498.64 1109.48 1511.26 1100.01 C 1565.61 1059.17 1616.99 1037 1684.65 1029.4 z"/>
<path transform="translate(0,0)" fill="rgb(6,24,71)" d="M 1716.71 1105.89 L 1717.45 1106.52 L 1717.46 1107.74 C 1676.05 1152.11 1609.43 1147 1555.47 1162.24 C 1535.49 1167.88 1517.19 1178.18 1498.77 1187.52 L 1498.22 1187.22 L 1498 1185.58 C 1502.08 1178.48 1511.34 1172.46 1518.08 1168.07 C 1567.09 1136.13 1620.3 1139.68 1674.38 1124.67 C 1689.82 1120.39 1702.94 1113.88 1716.71 1105.89 z"/>
<path transform="translate(0,0)" fill="rgb(255,255,255)" d="M 1574.23 1386.68 C 1584.08 1395.4 1595.35 1403.7 1608.72 1405.6 C 1621.39 1407.41 1631.51 1403 1641.38 1395.58 C 1646.18 1411.13 1650.99 1427.87 1657.87 1442.64 C 1660.19 1447.63 1663.76 1452.18 1666.54 1456.94 C 1669.07 1461.28 1669.4 1462.19 1668.16 1467 C 1663.97 1483.14 1667.54 1530.88 1671.52 1547.62 C 1673.89 1557.56 1677.37 1566.47 1682.58 1575.25 C 1677.72 1590.5 1674.62 1604.64 1673.67 1620.64 C 1657.81 1608.99 1641.09 1598.56 1623.66 1589.45 C 1577.83 1565.67 1530.23 1543.71 1479.16 1534.17 C 1489.81 1499.66 1491.93 1478.74 1485.91 1442.95 C 1488.93 1444.12 1491.95 1445.04 1495.08 1445.85 C 1510.16 1449.74 1524.76 1449.3 1538.41 1440.91 C 1557.67 1429.08 1568.8 1407.93 1574.23 1386.68 z"/>
<path transform="translate(0,0)" fill="rgb(200,199,201)" d="M 1633.52 995.419 C 1683.5 990.359 1767.76 1001.78 1810.06 1028.05 C 1827.72 1039.02 1837.22 1051.46 1842.09 1071.76 C 1836.41 1064.82 1832.34 1056.51 1826.47 1049.82 C 1807.77 1028.52 1745.96 1015.98 1718.43 1015.07 C 1623.99 1011.96 1539.28 1053.21 1471.22 1116.44 C 1470.55 1117.09 1469.88 1117.74 1469.22 1118.4 C 1440.09 1147.58 1424.72 1213.64 1423.13 1253.34 C 1422.6 1266.82 1425.22 1280.53 1425.28 1294.11 C 1401.1 1264.48 1388.59 1255.45 1385.34 1214.49 C 1381.36 1164.48 1403.89 1113.81 1435.74 1076.42 C 1487.7 1015.41 1557.65 1001.23 1633.52 995.419 z"/>
<path transform="translate(0,0)" fill="rgb(6,24,71)" d="M 1443.23 1089.69 C 1445.88 1090.33 1446.14 1090.58 1448.03 1092.56 C 1448.61 1094.91 1448.26 1096.34 1447.26 1098.53 C 1443.47 1106.81 1438.12 1114.49 1433.72 1122.48 C 1423.69 1140.73 1414.92 1163.01 1411.96 1183.62 C 1408.77 1205.84 1412.32 1228.78 1417.08 1250.49 C 1417.82 1253.85 1419.18 1258.18 1417.63 1261.32 L 1415.42 1260.54 C 1400.01 1241.9 1396.6 1213.85 1398.42 1190.54 C 1400.86 1159.18 1419.04 1110.45 1443.23 1089.69 z"/>
<path transform="translate(0,0)" fill="rgb(200,199,201)" d="M 1376.6 1280.37 C 1382.08 1279.61 1387.73 1279.88 1393.24 1279.88 C 1402.29 1289.98 1411.58 1299.81 1419.93 1310.5 C 1419.77 1317.41 1419.86 1324.25 1420.14 1331.16 C 1403.03 1354.88 1396.94 1386.53 1401.42 1415.18 C 1403.25 1426.87 1406.72 1439.22 1416.83 1446.38 C 1418.89 1447.85 1420.58 1449.15 1422.34 1450.98 L 1421.61 1451.92 C 1420.62 1451.98 1420.08 1452.06 1419.14 1452 C 1413.51 1451.65 1408.13 1446.25 1404.59 1442.33 C 1392.06 1428.45 1388.8 1410 1389.93 1391.9 C 1390.94 1375.57 1394.84 1352.81 1404.8 1339.36 C 1408.72 1334.07 1414.93 1329.41 1419.88 1325.06 C 1417.9 1325.53 1415.93 1326.05 1413.97 1326.61 C 1402.16 1330.11 1391.53 1338.36 1385.96 1349.4 C 1375.55 1370.05 1373.28 1402.88 1380.68 1424.77 C 1385.82 1440 1398.19 1456.69 1413.1 1463.52 C 1417.37 1465.47 1422.06 1466.24 1426.53 1464.5 C 1430.9 1462.8 1435.97 1458.14 1437.4 1453.66 C 1439.63 1446.68 1422.05 1435.58 1418.4 1429.01 C 1416.26 1425.19 1415.69 1419.83 1414.96 1415.53 C 1410.81 1391.13 1414.19 1369.43 1421.56 1346.02 C 1422.74 1385.43 1424.66 1408 1451.65 1437.96 C 1448.41 1448.46 1444.59 1457.56 1438.85 1466.94 C 1431.01 1479.32 1417.49 1493.44 1404.2 1499.91 C 1396.16 1503.82 1387.78 1504.08 1379.42 1501 C 1337.87 1485.68 1335.28 1413.21 1338.92 1376.96 C 1339.81 1368.18 1340.72 1359.06 1342.83 1350.49 C 1345.03 1341.51 1349.01 1331.96 1349.77 1322.78 C 1349.99 1320.11 1349.63 1318.33 1348.44 1315.89 C 1346.12 1314.27 1345.76 1314.32 1342.9 1314.28 C 1341.36 1315.09 1340.07 1315.83 1338.88 1317.14 C 1334.65 1321.8 1331.86 1328.84 1328.82 1334.36 C 1312.33 1364.3 1298.74 1397.7 1299.5 1432.48 C 1300.14 1461.41 1310.3 1488.71 1331.38 1508.85 C 1322.32 1505.88 1313.47 1502.58 1305.84 1496.71 C 1288.24 1483.16 1280.99 1460.24 1278.25 1439.01 C 1272.89 1397.54 1283.75 1352.78 1309.67 1319.7 C 1327.18 1297.34 1348.27 1283.74 1376.6 1280.37 z"/>
<path transform="translate(0,0)" fill="rgb(200,199,201)" d="M 1435.69 1349.49 C 1437.21 1350.33 1436.85 1349.99 1437.92 1351 C 1452.87 1365.09 1466.74 1376.28 1486.71 1382.43 C 1511.7 1390.12 1536 1388.77 1559.06 1376.57 C 1561.41 1378.59 1563.69 1380.7 1566 1382.76 C 1563.29 1395.6 1557.96 1406.74 1549.24 1416.51 C 1545.85 1419.92 1541.99 1423.46 1537.92 1426.04 C 1524.37 1434.64 1508.51 1428.34 1494.37 1424.74 C 1496.91 1427.51 1499.2 1430.54 1501.55 1433.47 C 1491.82 1429.81 1483.61 1424.48 1475.32 1418.21 C 1455.47 1403.19 1439.13 1374.07 1435.69 1349.49 z"/>
<path transform="translate(0,0)" fill="rgb(200,199,201)" d="M 1534.92 1276.28 C 1535.15 1276.81 1535.54 1277.3 1535.59 1277.87 C 1535.75 1279.8 1533.25 1285.27 1532.75 1287.48 C 1531.3 1293.9 1530.7 1301.06 1530.73 1307.64 C 1530.79 1319.58 1534.01 1329.94 1538 1341.09 C 1511.83 1340.56 1487.27 1333.64 1463.7 1322.47 C 1454.9 1317.98 1445.58 1312.69 1436 1310.23 C 1436.85 1303.55 1437.5 1296.83 1438.24 1290.13 C 1471.05 1293.91 1503.45 1284.34 1534.92 1276.28 z"/>
<path transform="translate(0,0)" fill="rgb(200,199,201)" d="M 1768.45 1123.95 C 1768.58 1125.18 1768.41 1126.25 1768.03 1127.45 C 1765.5 1135.43 1758.7 1144.07 1754.04 1151 C 1732.86 1182.5 1696.8 1210.77 1663.22 1228.48 C 1646.72 1237.18 1629.39 1244.16 1613.09 1253.26 L 1607.56 1249.72 C 1605.29 1248.46 1603.64 1247.6 1601.94 1245.57 L 1602.72 1243.94 C 1614.68 1239.01 1625.98 1230.67 1637.08 1223.92 C 1654.58 1213.28 1672.41 1203.02 1689.08 1191.09 C 1717.34 1170.86 1742.87 1147.39 1768.45 1123.95 z"/>
<path transform="translate(0,0)" fill="rgb(200,199,201)" d="M 1435.98 1313 C 1436.31 1313.33 1436.64 1313.67 1436.98 1313.99 C 1457.32 1333.64 1489.24 1348.76 1517.22 1352.38 C 1526.29 1353.55 1535.57 1353.15 1544.69 1352.99 C 1546.01 1355.04 1547.6 1356.9 1549.04 1358.88 C 1550.94 1361.5 1552.41 1363.26 1551.87 1366.54 L 1548.49 1368.13 C 1530.57 1373.92 1510.68 1373.54 1492.45 1369.43 C 1474.11 1365.3 1448.52 1354 1438.51 1337.26 C 1433.74 1329.29 1433.62 1321.76 1435.98 1313 z"/>
<path transform="translate(0,0)" fill="rgb(200,199,201)" d="M 1678 1472.62 C 1699.55 1491.56 1719.03 1502.91 1746.52 1511.42 C 1734.82 1516.42 1724.51 1522.36 1714.46 1530.15 C 1703.85 1539.89 1695.93 1550.58 1688 1562.48 C 1678.68 1532.39 1681.88 1503.17 1678 1472.62 z"/>
<path transform="translate(0,0)" fill="rgb(200,199,201)" d="M 1325.66 1361.84 C 1325.95 1362.24 1326.39 1362.57 1326.51 1363.05 C 1327.54 1367.29 1324.31 1391.84 1324.02 1398.47 C 1323.64 1406.56 1323.82 1414.67 1324.56 1422.75 C 1326.43 1445.4 1331.72 1470.72 1344.92 1489.75 C 1348.71 1495.22 1356.15 1499.72 1358.44 1505.87 C 1355.97 1507.76 1353.15 1507.17 1350.09 1507.26 C 1347.36 1507.31 1343.65 1507.83 1341.16 1506.59 C 1334.44 1503.23 1326.77 1487.27 1323.4 1480.31 C 1304.88 1442.01 1312.51 1400.4 1325.66 1361.84 z"/>
</svg>