<svg width="150" height="138" viewBox="0 0 150 138" fill="none" xmlns="http://www.w3.org/2000/svg">
<path d="M39.9892 24.1836L17.8984 2.0239C17.2567 1.38225 16.4949 0.873258 15.6566 0.525995C14.8182 0.178733 13.9197 0 13.0122 0C12.1048 0 11.2062 0.178733 10.3679 0.525995C9.52949 0.873258 8.76774 1.38225 8.12608 2.0239C6.83019 3.31979 6.10218 5.07739 6.10218 6.91004C6.10218 8.7427 6.83019 10.5003 8.12608 11.7962L23.748 27.5557C15.8129 32.0666 8.50199 37.5961 2.0012 44.0034C0.719444 45.2928 0 47.037 0 48.8551C0 50.6732 0.719444 52.4175 2.0012 53.7069C2.63857 54.3571 3.39863 54.8744 4.23736 55.2288C5.0761 55.5832 5.97682 55.7676 6.88734 55.7714C8.69273 55.7638 10.4228 55.0471 11.7047 53.7757C18.2627 47.2721 25.7833 41.8173 34.002 37.6033L44.256 48.2014C35.7275 51.9293 27.9767 57.2288 21.4081 63.8232C20.6924 64.4454 20.1131 65.2087 19.7064 66.0653C19.2996 66.922 19.0744 67.8534 19.0446 68.8012C19.0149 69.7491 19.1814 70.6928 19.5336 71.5732C19.8859 72.4537 20.4163 73.2518 21.0915 73.9176C21.7668 74.5834 22.5724 75.1024 23.4578 75.4421C24.3431 75.7818 25.2891 75.9349 26.2364 75.8917C27.1837 75.8486 28.1119 75.6101 28.9626 75.1913C29.8134 74.7724 30.5685 74.1823 31.1804 73.4579C37.8529 66.8152 45.9822 61.8198 54.9229 58.8683L66.0716 69.9481C56.531 71.7838 47.7585 76.4337 40.8839 83.299C40.1682 83.9211 39.5888 84.6844 39.1821 85.5411C38.7754 86.3977 38.5501 87.3292 38.5204 88.277C38.4906 89.2248 38.6571 90.1685 39.0094 91.049C39.3616 91.9294 39.892 92.7276 40.5673 93.3933C41.2426 94.0591 42.0481 94.5781 42.9335 94.9178C43.8188 95.2575 44.7648 95.4106 45.7121 95.3675C46.6594 95.3243 47.5876 95.0858 48.4384 94.667C49.2892 94.2482 50.0442 93.658 50.6561 92.9336C53.8267 89.6987 57.6047 87.1216 61.7735 85.3502C65.9423 83.5787 70.4198 82.6478 74.9492 82.6108C76.401 82.6146 77.8505 82.7296 79.2848 82.9549L132 135.67C132.64 136.315 133.401 136.827 134.24 137.176C135.078 137.526 135.978 137.706 136.886 137.706C137.795 137.706 138.694 137.526 139.533 137.176C140.371 136.827 141.133 136.315 141.772 135.67C142.417 135.03 142.929 134.269 143.279 133.431C143.628 132.592 143.808 131.692 143.808 130.784C143.808 129.875 143.628 128.976 143.279 128.137C142.929 127.299 142.417 126.538 141.772 125.898L39.9892 24.1836ZM74.9492 96.3745C70.8659 96.3745 66.8742 97.5854 63.4791 99.854C60.0839 102.123 57.4377 105.347 55.8751 109.119C54.3125 112.892 53.9036 117.043 54.7002 121.048C55.4968 125.053 57.4632 128.732 60.3505 131.619C63.2378 134.506 66.9165 136.473 70.9214 137.269C74.9263 138.066 79.0774 137.657 82.8499 136.094C86.6224 134.532 89.8468 131.885 92.1154 128.49C94.384 125.095 95.5948 121.104 95.5948 117.02C95.5948 111.545 93.4197 106.293 89.5479 102.422C85.6761 98.5497 80.4248 96.3745 74.9492 96.3745ZM74.9492 123.902C73.5881 123.902 72.2575 123.498 71.1258 122.742C69.9941 121.986 69.112 120.911 68.5911 119.654C68.0703 118.396 67.934 117.013 68.1995 115.678C68.4651 114.343 69.1205 113.116 70.083 112.154C71.0454 111.192 72.2716 110.536 73.6066 110.271C74.9416 110.005 76.3253 110.141 77.5828 110.662C78.8403 111.183 79.9151 112.065 80.6713 113.197C81.4275 114.329 81.8311 115.659 81.8311 117.02C81.8311 118.845 81.106 120.596 79.8154 121.886C78.5248 123.177 76.7744 123.902 74.9492 123.902ZM147.966 44.0034C136.969 33.0159 123.632 24.6541 108.951 19.542C94.2703 14.4299 78.6244 12.6996 63.1812 14.4801C62.2774 14.5795 61.4021 14.856 60.6052 15.2937C59.8083 15.7314 59.1054 16.3217 58.5367 17.0311C57.388 18.4636 56.8555 20.2938 57.0563 22.119C57.2571 23.9442 58.1747 25.6149 59.6072 26.7635C61.0398 27.9122 62.87 28.4447 64.6952 28.2439C78.0871 26.7155 91.6513 28.2164 104.385 32.6357C117.119 37.055 128.697 44.2797 138.263 53.7757C139.558 55.0624 141.312 55.7817 143.139 55.7753C144.965 55.7688 146.714 55.0372 148 53.7413C149.287 52.4454 150.006 50.6914 150 48.8652C149.994 47.039 149.262 45.2902 147.966 44.0034ZM118.718 73.1826C120.026 74.32 121.716 74.9217 123.449 74.8674C125.182 74.813 126.83 74.1066 128.065 72.8895C129.299 71.6723 130.029 70.034 130.108 68.3021C130.187 66.5702 129.609 64.8724 128.49 63.548C119.298 54.2491 107.805 47.5528 95.1819 44.141C94.2826 43.7937 93.3203 43.6391 92.3575 43.6874C91.3946 43.7358 90.4527 43.9858 89.5926 44.4215C88.7326 44.8571 87.9737 45.4685 87.3651 46.2162C86.7565 46.9639 86.3118 47.8311 86.0597 48.7617C85.8077 49.6922 85.754 50.6653 85.9021 51.6179C86.0502 52.5706 86.3968 53.4814 86.9195 54.2915C87.4421 55.1016 88.1292 55.7929 88.936 56.3205C89.7429 56.8481 90.6516 57.2003 91.6033 57.3543C101.858 60.1966 111.201 65.6503 118.718 73.1826Z" fill="#4EB59B"/>
</svg>
